<?xml version="1.0" encoding="UTF-8"?>
<svg version="1.1" xmlns="http://www.w3.org/2000/svg" width="18052" height="5495">
<path d="M0 0 C5.06779908 0.00461298 10.13535702 -0.00224839 15.203125 -0.02050781 C121.61836624 -0.39976507 227.89980952 9.82433325 332.25817871 30.77581787 C334.85460926 31.29674125 337.45199826 31.81263537 340.04956055 32.32788086 C431.60065989 50.58404087 521.4292774 77.85938954 656.94897461 133.31567383 C658.22672173 133.88341054 659.50455569 134.45095185 660.7824707 135.01831055 C699.67747903 152.31064729 738.22770626 170.83243806 775.16381836 192.01879883 C779.2174286 194.34152098 783.29382869 196.61642616 787.39038086 198.86254883 C810.43542685 211.50053403 832.8249252 225.12841257 854.94897461 239.31567383 C856.01583496 239.99871582 856.01583496 239.99871582 857.10424805 240.69555664 C886.06444103 259.26113243 914.34442414 278.79019972 941.94897461 299.31567383 C942.83673584 299.975271 942.83673584 299.975271 943.74243164 300.64819336 C961.19868213 313.6336192 978.29245628 327.07601801 995.14038086 340.83911133 C996.74132941 342.14614924 998.34495437 343.44990738 999.94897461 344.75317383 C1007.02808231 350.51523824 1014.00109354 356.39674274 1020.94897461 362.31567383 C1021.53646484 362.81534668 1022.12395508 363.31501953 1022.72924805 363.82983398 C1029.47624616 369.57153302 1036.16884386 375.35752758 1042.73022461 381.31176758 C1044.74205854 383.12879365 1046.77557894 384.91511775 1048.82397461 386.69067383 C1053.75600554 390.98886946 1058.55501622 395.43170594 1063.36694336 399.86303711 C1064.94194326 401.30921757 1066.52259171 402.74894755 1068.10522461 404.18676758 C1073.1796716 408.80279527 1078.16177141 413.47282953 1082.96974182 418.36888123 C1084.79470039 420.1639282 1086.66853003 421.832714 1088.61669922 423.49169922 C1093.28284053 427.54912878 1097.65004216 431.87274105 1102.01538086 436.24926758 C1102.85310532 437.08603531 1103.69082977 437.92280304 1104.55393982 438.78492737 C1106.31404396 440.54435486 1108.07290138 442.30503036 1109.83056641 444.06689453 C1112.50368433 446.74536794 1115.18209712 449.41846256 1117.86108398 452.09106445 C1119.57950364 453.81014498 1121.29761303 455.52953572 1123.01538086 457.24926758 C1123.80723282 458.03909531 1124.59908478 458.82892303 1125.41493225 459.64268494 C1129.60403284 463.84928776 1133.63526365 468.13322286 1137.49681091 472.64332581 C1139.3786009 474.81044221 1141.3896331 476.8178052 1143.44897461 478.81567383 C1146.73344922 482.06163701 1149.81050453 485.39216331 1152.81225586 488.89770508 C1155.74132308 492.2123168 1158.78880348 495.41090844 1161.82397461 498.62817383 C1166.69258269 503.80234576 1171.30667473 509.08552092 1175.74194336 514.63989258 C1178.20877203 517.63064947 1180.80884856 520.47912604 1183.44897461 523.31567383 C1187.68306928 527.87148383 1191.67830067 532.56839712 1195.57788086 537.41333008 C1198.26728398 540.70530128 1201.04061238 543.91578379 1203.82397461 547.12817383 C1208.27564549 552.28333252 1212.55340307 557.54352491 1216.73144531 562.92211914 C1220.26065418 567.46120529 1223.87194571 571.92720723 1227.51147461 576.37817383 C1232.60783691 582.62592551 1237.58551819 588.9436126 1242.46313477 595.36450195 C1244.22715683 597.68097654 1246.0002409 599.99040247 1247.77319336 602.30004883 C1254.91195784 611.61342453 1261.98094778 620.95444911 1268.71850586 630.56274414 C1270.05068226 632.46056687 1271.38989282 634.35329022 1272.73022461 636.24536133 C1275.8109828 640.59662502 1278.88113414 644.95529605 1281.94897461 649.31567383 C1282.82489258 650.55969971 1282.82489258 650.55969971 1283.71850586 651.82885742 C1285.54711393 654.42737998 1287.37336628 657.0275431 1289.19897461 659.62817383 C1289.75294922 660.41530762 1290.30692383 661.20244141 1290.87768555 662.01342773 C1295.33959563 668.37871628 1299.66016223 674.83275871 1303.94897461 681.31567383 C1305.02477783 682.94146362 1305.02477783 682.94146362 1306.12231445 684.60009766 C1319.82700711 705.34032125 1333.27183044 726.22938906 1345.91943359 747.63623047 C1349.09110061 752.98370824 1352.45462772 758.17343768 1355.94897461 763.31567383 C1357.90798059 760.60782649 1359.86606303 757.89931255 1361.82397461 755.19067383 C1362.42040771 754.36607666 1363.01684082 753.54147949 1363.63134766 752.69189453 C1366.26140741 749.0522528 1368.88985633 745.41225384 1371.47631836 741.74145508 C1377.76464329 732.83030744 1384.35356212 724.16591478 1390.98413086 715.50708008 C1394.44276403 710.98820867 1397.86016665 706.44025902 1401.26147461 701.87817383 C1406.26977307 695.17361089 1411.40669802 688.57953572 1416.60327148 682.02026367 C1417.93891742 680.32841318 1419.26565758 678.62997541 1420.58959961 676.92895508 C1430.14280026 664.66781578 1440.03857294 652.68937398 1450.11254883 640.85327148 C1452.97904341 637.48086239 1455.78861812 634.0677764 1458.57397461 630.62817383 C1462.15414496 626.2262206 1465.89923622 622.01452794 1469.72241211 617.82348633 C1471.92758218 615.33976846 1474.00408465 612.78772677 1476.07397461 610.19067383 C1480.60142584 604.58715584 1485.49247554 599.3662645 1490.45727539 594.14916992 C1494.17168769 590.24190337 1497.77616388 586.26482544 1501.30981445 582.19335938 C1503.64153314 579.52233638 1506.03727632 576.91439482 1508.44897461 574.31567383 C1508.95468994 573.77007813 1509.46040527 573.22448242 1509.98144531 572.66235352 C1511.06972065 571.48952794 1512.15868614 570.31734244 1513.24829102 569.14575195 C1514.39530296 567.91147094 1515.54077812 566.67576027 1516.68481445 565.4387207 C1524.62574934 556.85369019 1532.70835868 548.44685613 1541.05126953 540.25024414 C1545.02335959 536.32849439 1548.78207219 532.29845838 1552.42602539 528.07006836 C1554.17533254 526.05491588 1555.99555219 524.13582088 1557.88647461 522.25317383 C1558.76625977 521.36952148 1558.76625977 521.36952148 1559.66381836 520.46801758 C1561.5851781 518.65832661 1563.54336116 516.94241188 1565.54663086 515.22583008 C1570.7713516 510.68014752 1575.5894167 505.7449528 1580.44897461 500.81567383 C1585.8913716 495.29519367 1591.30792456 489.83325126 1597.22631836 484.81958008 C1599.05224638 483.22551593 1600.75258644 481.54623275 1602.44897461 479.81567383 C1605.37028249 476.84851582 1608.42889134 474.11508411 1611.58178711 471.39770508 C1614.5862001 468.75520982 1617.51631533 466.03727209 1620.44897461 463.31567383 C1627.91688184 456.39788868 1635.59413306 449.75019942 1643.33032227 443.13549805 C1646.42842088 440.48476651 1649.51801742 437.82523387 1652.58959961 435.14379883 C1661.28697952 427.55289376 1670.12686842 420.15689899 1679.06713867 412.85375977 C1680.6943191 411.52381209 1682.31806265 410.18966147 1683.94116211 408.85473633 C1695.20663143 399.59498855 1706.59910333 390.50298038 1718.19311523 381.65795898 C1720.08916957 380.20850032 1721.98023449 378.7526879 1723.87084961 377.29614258 C1734.45504171 369.15340235 1745.16163505 361.18703271 1755.94897461 353.31567383 C1756.69791992 352.76911133 1757.44686523 352.22254883 1758.21850586 351.65942383 C1763.44377242 347.85257464 1768.69018608 344.07605209 1773.94897461 340.31567383 C1774.64313477 339.8176123 1775.33729492 339.31955078 1776.05249023 338.80639648 C1788.39590587 329.9736779 1801.00948091 321.5475087 1813.63647461 313.12817383 C1814.46287445 312.57690826 1815.28927429 312.0256427 1816.14071655 311.45767212 C1830.55700666 301.84746745 1845.00363714 292.27132455 1859.76147461 283.19067383 C1860.61926514 282.6619165 1861.47705566 282.13315918 1862.36083984 281.58837891 C1865.22172272 279.82781613 1868.08524512 278.07160202 1870.94897461 276.31567383 C1872.01051758 275.6629248 1873.07206055 275.01017578 1874.16577148 274.33764648 C1891.56670371 263.64785241 1909.13855798 253.30831682 1926.94897461 243.31567383 C1927.5387207 242.98438477 1928.1284668 242.6530957 1928.73608398 242.31176758 C1944.91980506 233.22493398 1961.24802574 224.46865958 1977.76928711 216.01098633 C1982.44882827 213.61513049 1987.10501923 211.18021468 1991.75032043 208.71868896 C2001.87469722 203.35754626 2012.08486424 198.20220065 2022.38647461 193.19067383 C2023.21336792 192.78759003 2024.04026123 192.38450623 2024.89221191 191.96920776 C2040.71597627 184.26886417 2056.72303848 177.03295012 2072.84889221 169.99111938 C2077.13051873 168.11999989 2081.39711237 166.21954858 2085.65209961 164.28833008 C2175.51117959 123.55563887 2270.17419196 92.13931017 2806.94897461 1.31567383 C2808.40979053 1.24761425 2808.40979053 1.24761425 2809.90011787 1.17817974 C2827.30126019 0.38836061 2844.67210915 0.15264485 2862.08959961 0.14770508 C2863.44509652 0.1462731 2864.80059326 0.14467533 2866.15608978 0.14291954 C2873.27016107 0.13374262 2880.38421401 0.12957389 2887.49829102 0.13037109 C2893.26296802 0.13090072 2899.02757669 0.12390347 2904.79223633 0.10986328 C2938.45899171 0.02979086 2972.04810325 0.2625014 3005.67253876 2.18569565 C3007.8231445 2.30848928 3009.97392136 2.42748115 3012.12481689 2.54507446 C3020.13350979 2.98861936 3028.13552712 3.50009572 3036.13647461 4.06567383 C3037.31769897 4.14804291 3038.49892334 4.23041199 3039.71594238 4.3152771 C3155.86457941 12.4947451 3270.96446764 31.58922033 3671.94897461 165.31567383 C3673.29879228 165.94531972 3674.64873225 166.57470349 3675.9987793 167.20385742 C3700.61025496 178.67614596 3725.00837686 190.48968925 3748.94897461 203.31567383 C3749.86614258 203.80648437 3750.78331055 204.29729492 3751.72827148 204.80297852 C3785.43557219 222.87252349 3818.53410823 242.01832481 3850.94897461 262.31567383 C3851.94219727 262.93700195 3852.93541992 263.55833008 3853.95874023 264.19848633 C3879.80539655 280.42265142 3905.09112817 297.61666398 3929.94897461 315.31567383 C3930.6835791 315.83709961 3931.41818359 316.35852539 3932.17504883 316.89575195 C3942.91986744 324.53547031 3953.44267834 332.44415918 3963.90600586 340.46411133 C3967.68085753 343.35533533 3971.47967949 346.21094377 3975.29760742 349.04492188 C3983.45761004 355.10405858 3991.35804069 361.44351349 3999.21118164 367.89379883 C4001.5457857 369.80398905 4003.90165454 371.68676496 4006.26147461 373.56567383 C4019.56196871 384.18390161 4032.5177515 395.19870948 4045.42163086 406.29223633 C4047.73262906 408.27746347 4050.05297803 410.2507419 4052.38256836 412.21411133 C4059.54344104 418.26712915 4066.4725227 424.51606671 4073.26879883 430.97705078 C4077.08792381 434.60339525 4080.98143884 438.11438554 4084.95776367 441.56738281 C4088.24828138 444.45647027 4091.44467514 447.44337962 4094.63647461 450.44067383 C4095.32418945 451.08520508 4096.0119043 451.72973633 4096.72045898 452.39379883 C4101.72762775 457.10969185 4106.63218949 461.91666337 4111.43603516 466.83959961 C4114.12404883 469.57512068 4116.88360205 472.15831668 4119.78881836 474.66333008 C4124.22578259 478.50335545 4128.37488497 482.59412306 4132.51147461 486.75317383 C4133.58558594 487.82148437 4133.58558594 487.82148437 4134.68139648 488.91137695 C4138.06381809 492.29995402 4141.35029621 495.72343968 4144.47631836 499.35083008 C4148.09786441 503.55227832 4151.99080662 507.43333281 4155.94897461 511.31567383 C4160.55918961 515.83757053 4164.98786712 520.42205243 4169.20288086 525.31567383 C4172.19010499 528.73728178 4175.32575783 532.01858725 4178.44897461 535.31567383 C4185.48240599 542.74065706 4192.19237117 550.40710696 4198.82397461 558.19067383 C4202.37298794 562.34774071 4205.95571483 566.46142885 4209.63647461 570.50317383 C4213.4340471 574.68936684 4217.01963405 579.01586397 4220.57397461 583.40942383 C4223.11562839 586.51960542 4225.71505927 589.57456223 4228.32397461 592.62817383 C4233.08022652 598.21376348 4237.63290522 603.93868974 4242.14038086 609.72583008 C4244.50888472 612.76418032 4246.9131486 615.77191865 4249.32958984 618.7722168 C4263.65281666 636.56100462 4277.18688464 654.94181638 4290.57397461 673.44067383 C4291.03932617 674.08319092 4291.50467773 674.72570801 4291.98413086 675.38769531 C4293.64624807 677.69196857 4295.29891486 680.00274633 4296.94897461 682.31567383 C4297.55085098 683.15879623 4297.55085098 683.15879623 4298.16488647 684.01895142 C4306.15515971 695.2284557 4313.94239593 706.56887241 4321.64013672 717.98095703 C4323.50910589 720.74966478 4325.38420435 723.51415372 4327.25952148 726.27856445 C4334.40347475 736.84219804 4341.26544735 747.52505829 4347.82919312 758.45828247 C4349.33241094 760.95168302 4350.86780077 763.42430338 4352.40991211 765.89379883 C4364.38853527 785.09468055 4375.84927812 804.59421487 4386.94897461 824.31567383 C4387.83576904 825.88986084 4387.83576904 825.88986084 4388.74047852 827.49584961 C4399.63825548 846.8994841 4409.92624175 866.58936068 4419.99389648 886.43481445 C4420.86092229 888.14227019 4421.73095124 889.84820014 4422.60131836 891.55395508 C4463.93323395 972.57328033 4496.31114204 1058.56865399 4651.07397461 1980.25317383 C4651.13202774 1982.04256378 4651.13202774 1982.04256378 4651.19125366 1983.86810303 C4652.69690816 2031.08795595 4653.10304568 2078.3268793 4653.07381206 2125.56744261 C4653.07100166 2131.79800096 4653.07308334 2138.02855662 4653.07490889 2144.25911504 C4653.07852381 2157.15686997 4653.07753581 2170.05462057 4653.07385779 2182.95237532 C4653.0701441 2196.04889759 4653.06871154 2209.1454174 4653.0698735 2222.24194018 C4653.06994649 2223.07960706 4653.07001948 2223.91727394 4653.07009468 2224.78032466 C4653.07047729 2229.05907075 4653.07089488 2233.33781683 4653.07132437 2237.61656292 C4653.07436857 2268.68596468 4653.07254197 2299.75536464 4653.06818008 2330.82476616 C4653.06378108 2362.27549002 4653.06159986 2393.72621292 4653.06208229 2425.1769371 C4653.06209658 2426.17204368 4653.06211087 2427.16715026 4653.0621256 2428.19241158 C4653.06225737 2437.31298758 4653.06241349 2446.43356357 4653.0625986 2455.55413956 C4653.06306144 2478.41539082 4653.06319426 2501.27664206 4653.06310737 2524.13789332 C4653.06310362 2525.18500214 4653.06309988 2526.23211095 4653.06309602 2527.31095034 C4653.06288228 2578.8233149 4653.05891868 2630.33567909 4653.05470467 2681.84804344 C4653.05322537 2699.96287719 4653.05176397 2718.07771094 4653.05036855 2736.1925447 C4653.0502384 2737.88185659 4653.0502384 2737.88185659 4653.05010562 2739.605296 C4653.04610183 2791.85838811 4653.04467592 2844.1114802 4653.04390258 2896.36457245 C4653.04385182 2899.7855675 4653.04379985 2903.20656256 4653.04374757 2906.62755761 C4653.04343346 2927.25729263 4653.04314609 2947.88702765 4653.0428896 2968.51676267 C4653.04225091 3019.79304469 4653.04129155 3071.0693267 4653.0401144 3122.34560871 C4653.04008777 3123.51269939 4653.04006114 3124.67979007 4653.0400337 3125.88224714 C4653.03830737 3201.41767679 4653.03526146 3276.95310632 4653.031106 3352.48853588 C4653.03103971 3353.69369993 4653.03097342 3354.89886397 4653.03090512 3356.14054814 C4653.0288846 3392.8234191 4653.02676616 3429.50629005 4653.02462855 3466.189161 C4653.02226349 3506.78268285 4653.01991514 3547.37620471 4653.01763916 3587.96972656 C4653.01757066 3589.19045723 4653.01750216 3590.4111879 4653.01743159 3591.66891041 C4653.01092616 3707.70062202 4653.0071189 3823.73233367 4653.00400537 3939.76404542 C4653.00387323 3944.68126237 4653.00374031 3949.59847931 4653.00360736 3954.51569626 C4653.00238391 3999.76639095 4653.00119208 4045.01708563 4653.00003994 4090.26778032 C4653.0000093 4091.47108047 4652.99997866 4092.67438062 4652.99994709 4093.91414442 C4652.99985433 4097.55741439 4652.99976158 4101.20068437 4652.99966883 4104.84395435 C4652.99716325 4203.25795002 4652.99438206 4301.67194568 4652.99142219 4400.08594134 C4652.99131784 4403.55796747 4652.99121369 4407.02999361 4652.99110962 4410.50201974 C4652.9877277 4523.29258612 4652.98385828 4636.08315247 4652.97477181 4835.21483214 C4652.97462691 4838.28483902 4652.97448227 4841.3548459 4652.97433774 4844.42485278 C4652.97429041 4845.42977511 4652.97424309 4846.43469745 4652.97419433 4847.47007198 C4652.9741082 4849.29904233 4652.97402211 4851.12801267 4652.97393608 4852.95698301 C4652.96637697 5013.40987999 4652.95750199 5173.8627769 4652.94897461 5334.31567383 C4253.31897461 5334.31567383 3853.68897461 5334.31567383 3441.94897461 5334.31567383 C3441.92391846 5245.9447998 3441.8988623 5157.57392578 3441.87304688 5066.52514648 C3441.84928972 4983.41959669 3441.84928972 4983.41959669 3441.82529939 4900.31404696 C3441.82478094 4898.52703201 3441.82426249 4896.74001706 3441.82374404 4894.95300211 C3441.82348406 4894.05692384 3441.82322407 4893.16084558 3441.82295621 4892.23761342 C3441.82214623 4889.44556106 3441.82133653 4886.6535087 3441.82052691 4883.86145634 C3441.79144099 4783.55908432 3441.76178551 4683.25671249 3441.70626877 4502.55296617 C3441.7053062 4499.43498808 3441.70434385 4496.31700999 3441.70338156 4493.19903189 C3441.67611038 4404.83707676 3441.64864965 4316.4751217 3441.62093535 4228.11316671 C3441.61990944 4224.84226322 3441.61888355 4221.57135974 3441.61785767 4218.30045626 C3441.61751883 4217.22013429 3441.61718 4216.13981232 3441.6168309 4215.02675332 C3441.60409148 4174.40736176 3441.59139534 4133.78797019 3441.57872504 4093.16857861 C3441.5773484 4088.75537834 3441.57597126 4084.34217808 3441.57459368 4079.92897781 C3441.5420997 3975.83050056 3441.5103804 3871.73202316 3441.48120117 3767.63354492 C3441.4808943 3766.53897129 3441.48058744 3765.44439765 3441.48027127 3764.31665512 C3441.4700686 3727.92018153 3441.45994161 3691.52370792 3441.44982506 3655.12723431 C3441.44068384 3622.24051655 3441.43151542 3589.3537988 3441.42225742 3556.46708107 C3441.42180119 3554.84637283 3441.42180119 3554.84637283 3441.42133574 3553.19292301 C3441.40226231 3485.46207227 3441.38200946 3417.73122196 3441.36057186 3350.00037193 C3441.36024061 3348.95330171 3441.35990935 3347.90623148 3441.35956806 3346.82743186 C3441.34501474 3300.82845198 3441.33021625 3254.82947219 3441.31513795 3208.83049248 C3441.3090716 3190.32058283 3441.30304151 3171.81067316 3441.29703129 3153.30076348 C3441.2960345 3150.23185112 3441.29503654 3147.16293876 3441.29403845 3144.0940264 C3441.27880212 3097.2197066 3441.26436839 3050.34538673 3441.25229764 3003.471066 C3441.25203784 3002.46225144 3441.25177805 3001.45343688 3441.25151038 3000.41405218 C3441.2473369 2984.18863821 3441.24323113 2967.96322423 3441.23913707 2951.73781025 C3441.22749541 2905.60023353 3441.21538586 2859.46265718 3441.19981849 2813.32508159 C3441.19950192 2812.38616117 3441.19918534 2811.44724076 3441.19885917 2810.47986821 C3441.19193767 2789.9803755 3441.18474958 2769.48088289 3441.17730174 2748.98139037 C3441.17433414 2740.8015508 3441.17140296 2732.62171122 3441.16848373 2724.44187164 C3441.16816437 2723.54965599 3441.16784501 2722.65744034 3441.16751597 2721.73818785 C3441.15745587 2693.58415719 3441.15037527 2665.43012687 3441.14507118 2637.27609494 C3441.1398223 2609.48045724 3441.13153839 2581.68482224 3441.11903024 2553.8891868 C3441.11730447 2550.05307328 3441.11561265 2546.21695974 3441.1139413 2542.38084619 C3441.11344871 2541.25466979 3441.11344871 2541.25466979 3441.11294615 2540.10574236 C3441.10822826 2529.13205003 3441.10620326 2518.15835962 3441.10581262 2507.18466635 C3441.10315744 2448.22193571 3441.05467893 2389.26982286 3439.94897461 2330.31567383 C3439.91875556 2328.69947577 3439.91875556 2328.69947577 3439.88792603 2327.05062725 C3439.6754355 2315.79426443 3439.43508966 2304.53929458 3439.13330841 2293.28495789 C3439.070731 2290.9443519 3439.00961827 2288.60371045 3438.94866943 2286.26306152 C3436.82949724 2205.32639343 3433.20350265 2124.4451959 3334.07006836 1553.77270508 C3331.84556424 1548.50458827 3329.70020493 1543.21227193 3327.60913086 1537.88989258 C3312.37848114 1499.14559478 3295.12393854 1461.20889 3273.94897461 1425.31567383 C3273.39918945 1424.38239258 3272.8494043 1423.44911133 3272.28295898 1422.48754883 C3257.41783393 1397.38657642 3241.23550894 1372.87319643 3223.20532227 1349.91918945 C3221.89740534 1348.24985436 3220.60035086 1346.57246981 3219.30444336 1344.89379883 C3213.25580255 1337.08759147 3206.95258652 1329.54310772 3200.47827148 1322.08764648 C3198.91976328 1320.28182711 3197.37769233 1318.46312105 3195.83959961 1316.63989258 C3190.74686849 1310.61448573 3185.59669018 1304.80869893 3179.93725586 1299.30004883 C3178.12816827 1297.49451543 3176.47148706 1295.64266326 3174.82397461 1293.69067383 C3167.3082977 1284.94291874 3158.9046418 1276.61034528 3150.08959961 1269.17504883 C3147.65846786 1267.06333585 3145.31773592 1264.86864695 3142.97119141 1262.66381836 C3136.50570933 1256.59151331 3129.87858 1250.85752005 3122.94897461 1245.31567383 C3121.75739352 1244.33439161 3120.56738864 1243.35119337 3119.37866211 1242.36645508 C3109.18705679 1233.94825615 3098.6794665 1226.03260433 3087.94897461 1218.31567383 C3086.73419434 1217.43927246 3086.73419434 1217.43927246 3085.49487305 1216.54516602 C3072.987162 1207.55292119 3060.15940418 1199.23535922 3046.94897461 1191.31567383 C3046.02665039 1190.75912109 3045.10432617 1190.20256836 3044.15405273 1189.62915039 C3006.95504221 1167.25102224 2967.79802601 1148.94653829 2926.94897461 1134.31567383 C2926.23394775 1134.05957336 2925.5189209 1133.8034729 2924.78222656 1133.53961182 C2850.8138427 1107.16243456 2772.31028825 1093.15501562 2693.94897461 1089.31567383 C2692.72668655 1089.2537233 2692.72668655 1089.2537233 2691.47970581 1089.19052124 C2675.23759467 1088.38185854 2659.02249509 1088.1131203 2642.76147461 1088.12817383 C2641.54219269 1088.12877808 2640.32291077 1088.12938232 2639.06668091 1088.13000488 C2554.94581053 1088.24244303 2471.43823288 1101.13091547 2382.94897461 1129.31567383 C2382.29838074 1129.52794617 2381.64778687 1129.74021851 2380.97747803 1129.95892334 C2343.1848293 1142.33238934 2306.59607751 1157.72985101 2270.94897461 1175.31567383 C2270.17166992 1175.69675293 2269.39436523 1176.07783203 2268.59350586 1176.47045898 C2264.02401499 1178.711267 2259.4811739 1181.00049276 2254.94897461 1183.31567383 C2254.12075195 1183.73606934 2253.2925293 1184.15646484 2252.43920898 1184.58959961 C2237.28364742 1192.30046687 2222.54347742 1200.59290729 2207.94897461 1209.31567383 C2206.97395996 1209.89607422 2205.99894531 1210.47647461 2204.99438477 1211.07446289 C2191.02466942 1219.4074388 2177.37966848 1228.14063586 2163.94897461 1237.31567383 C2163.02084961 1237.94731445 2162.09272461 1238.57895508 2161.13647461 1239.22973633 C2147.8920801 1248.26327715 2135.02226734 1257.68881351 2122.33569336 1267.48754883 C2119.41843121 1269.72204749 2116.46663107 1271.90689885 2113.51000977 1274.08886719 C2106.47895346 1279.28442785 2099.7811256 1284.75587564 2093.19506836 1290.50317383 C2090.25004787 1293.0714753 2087.23882442 1295.54741858 2084.19897461 1298.00317383 C2079.76563792 1301.6032255 2075.50384115 1305.3547087 2071.28100586 1309.19848633 C2069.19073572 1311.09618552 2067.07911346 1312.96300797 2064.94897461 1314.81567383 C2050.12544448 1327.75310867 2035.84619152 1341.24390772 2021.95727539 1355.17700195 C2019.92571261 1357.21399804 2017.88875625 1359.24549334 2015.85131836 1361.27661133 C2014.52938254 1362.599207 2013.20775644 1363.92211232 2011.88647461 1365.24536133 C2011.29157227 1365.83823944 2010.69666992 1366.43111755 2010.08374023 1367.04196167 C2006.41763818 1370.7282774 2002.94219165 1374.53673096 1999.54989624 1378.47663879 C1996.97289563 1381.43693012 1994.26683252 1384.27371146 1991.57397461 1387.12817383 C1986.85024352 1392.17133201 1982.3806317 1397.34258359 1978.05834961 1402.73754883 C1975.92912315 1405.33993672 1973.71448104 1407.83142885 1971.44897461 1410.31567383 C1966.74474073 1415.49114357 1962.33181974 1420.86711273 1957.94897461 1426.31567383 C1957.04686799 1427.42524166 1956.14451378 1428.53460823 1955.24194336 1429.64379883 C1946.85876017 1439.98809389 1938.86780856 1450.61345579 1930.94897461 1461.31567383 C1930.40128418 1462.05124512 1929.85359375 1462.78681641 1929.28930664 1463.54467773 C1910.10833119 1489.34955422 1893.06059759 1516.84910663 1877.32495117 1544.86791992 C1876.05814497 1547.12146835 1874.78211142 1549.36949941 1873.50366211 1551.61645508 C1830.43119896 1627.72654628 1798.88814032 1710.35888333 1774.94897461 1794.31567383 C1774.70232056 1795.18067505 1774.4556665 1796.04567627 1774.20153809 1796.93688965 C1744.90550892 1899.97238276 1726.66642642 2005.66263323 1692.82397461 2432.56567383 C1692.78527252 2433.85592468 1692.74657043 2435.14617554 1692.70669556 2436.4755249 C1691.38646971 2481.21927052 1690.76185424 2525.97302817 1690.42603362 2570.73386149 C1690.4008496 2574.07813523 1690.37508463 2577.42240339 1690.34898648 2580.76667005 C1689.9174787 2636.11613085 1689.79418562 2691.46439047 1689.79198406 2746.81550355 C1689.79146122 2756.24454433 1689.78846796 2765.67358167 1689.78400791 2775.10262122 C1689.78367953 2775.79952886 1689.78335115 2776.4964365 1689.78301281 2777.21446255 C1689.78132484 2780.77704999 1689.77960377 2784.33963741 1689.77787148 2787.90222482 C1689.76551158 2813.46426343 1689.75768477 2839.02630171 1689.75239372 2864.58834267 C1689.74703711 2890.38996996 1689.73950312 2916.19159537 1689.72946548 2941.99322128 C1689.72914649 2942.81558726 1689.72882749 2943.63795324 1689.72849882 2944.4852394 C1689.72557352 2952.02461067 1689.72262501 2959.56398193 1689.71964892 2967.10335318 C1689.71219707 2985.98400764 1689.7050588 3004.86466221 1689.69813073 3023.74531686 C1689.6978135 3024.60922462 1689.69749628 3025.47313239 1689.69716944 3026.36321917 C1689.68166476 3068.66366246 1689.66972747 3110.96410667 1689.65804863 3153.26455116 C1689.65394888 3168.1046881 1689.6498319 3182.94482503 1689.64565158 3197.78496194 C1689.64539163 3198.70781637 1689.64513169 3199.63067079 1689.64486386 3200.58149051 C1689.63273974 3243.54892903 1689.61813276 3286.5163666 1689.60291328 3329.48380412 C1689.60191473 3332.30325706 1689.60091733 3335.12271 1689.59992022 3337.94216293 C1689.59390558 3354.94635171 1689.58786538 3371.95054048 1689.58179572 3388.95472924 C1689.5667162 3431.20318064 1689.55194259 3473.45163215 1689.53737736 3515.70008373 C1689.53704584 3516.66126785 1689.53671431 3517.62245197 1689.53637274 3518.61276288 C1689.51495167 3580.72613931 1689.49478822 3642.83951607 1689.4756918 3704.95289326 C1689.47538754 3705.9424739 1689.47508329 3706.93205455 1689.47476982 3707.95162249 C1689.46551341 3738.06686653 1689.45635085 3768.1821106 1689.44720669 3798.29735468 C1689.43708762 3831.62198321 1689.42695252 3864.94661173 1689.41674805 3898.27124023 C1689.41644119 3899.27349954 1689.41613434 3900.27575885 1689.41581819 3901.30838965 C1689.38691185 3995.70696294 1689.35547379 4090.10553532 1689.32336499 4184.50410756 C1689.32128388 4190.62288121 1689.31920488 4196.74165486 1689.3171263 4202.86042852 C1689.29546012 4266.63659973 1689.27367258 4330.41277091 1689.25183244 4394.18894206 C1689.2515192 4395.10366787 1689.25120597 4396.01839368 1689.25088324 4396.96083846 C1689.24943384 4401.19336511 1689.2479843 4405.42589175 1689.24653436 4409.6584184 C1689.14097434 4717.87750169 1689.04575445 5026.09658743 1688.94897461 5334.31567383 C1289.31897461 5334.31567383 889.68897461 5334.31567383 477.94897461 5334.31567383 C477.91924561 5199.52219482 477.91924561 5199.52219482 477.88891602 5062.00561523 C477.86988433 4977.4928054 477.86988433 4977.4928054 477.85038106 4892.97999567 C477.84995642 4891.1626437 477.84953179 4889.34529173 477.84910717 4887.52793976 C477.84889422 4886.61664916 477.84868127 4885.70535856 477.84846187 4884.76645309 C477.84779854 4881.92700587 477.84713577 4879.08755865 477.84647316 4876.24811142 C477.82266494 4774.23192103 477.79770439 4672.21573099 477.74850777 4488.41165831 C477.74764943 4485.23987722 477.74679151 4482.06809613 477.74593373 4478.89631503 C477.72162297 4389.00647511 477.69692894 4299.11663529 477.67172227 4209.22679561 C477.67078916 4205.8992049 477.66985607 4202.57161419 477.668923 4199.24402348 C477.66861481 4198.14497872 477.66830663 4197.04593395 477.66798911 4195.9135848 C477.65640282 4154.5908009 477.64490403 4113.26801698 477.63345748 4071.94523304 C477.63221377 4067.45565484 477.63096906 4062.96607664 477.62972344 4058.47649844 C477.60034828 3952.59680032 477.57253747 3846.71710213 477.54986572 3740.83740234 C477.54962729 3739.72440791 477.54938886 3738.61141347 477.5491432 3737.46469193 C477.54121753 3700.45652598 477.53344495 3663.44835999 477.5256935 3626.440194 C477.51868901 3593.00048181 477.5116295 3559.56076964 477.50438881 3526.12105751 C477.50415094 3525.02238319 477.50391306 3523.92370887 477.50366798 3522.79174138 C477.48873834 3453.90195904 477.47142192 3385.01217761 477.45171165 3316.12239647 C477.45125495 3314.52450695 477.45125495 3314.52450695 477.45078902 3312.89433684 C477.43741027 3266.09239162 477.42353581 3219.29044657 477.40909585 3172.48850166 C477.40328717 3153.65433479 477.39755178 3134.82016789 477.39185656 3115.98600098 C477.39091171 3112.86337359 477.38996448 3109.7407462 477.38901699 3106.6181188 C477.37456816 3058.9433069 477.36173795 3011.26849527 477.35369158 2963.59368181 C477.35351848 2962.56823671 477.35334539 2961.5427916 477.35316705 2960.4862724 C477.35039324 2943.99419259 477.34775644 2927.50211276 477.34514333 2911.01003292 C477.33770949 2864.09341562 477.32932258 2817.17679952 477.31395125 2770.26018405 C477.31363865 2769.30465858 477.31332605 2768.3491331 477.31300398 2767.36465231 C477.30615802 2746.49849229 477.2987731 2725.63233251 477.29086363 2704.76617287 C477.2877158 2696.43893847 477.28464153 2688.11170404 477.28159142 2679.7844696 C477.28125682 2678.87619564 477.28092222 2677.96792169 477.28057748 2677.03212427 C477.27006874 2648.41048309 477.26556869 2619.78884534 477.26467991 2591.16720236 C477.26377687 2562.89040864 477.25669666 2534.61362369 477.2411204 2506.33683403 C477.23896756 2502.42680742 477.23688321 2498.51678078 477.2348402 2494.60675411 C477.23423656 2493.45896011 477.23423656 2493.45896011 477.23362072 2492.28797836 C477.22792303 2481.14013199 477.22763952 2469.9922953 477.2306958 2458.84444816 C477.25405325 2367.09163753 476.0853537 2275.44445876 391.94897461 1610.31567383 C391.734104 1609.64526062 391.5192334 1608.97484741 391.29785156 1608.28411865 C385.5017713 1590.26511478 378.64297145 1572.75590068 371.40385437 1555.28265381 C369.53481417 1550.76266138 367.70739147 1546.22785392 365.90991211 1541.67895508 C365.66448166 1541.05791901 365.41905121 1540.43688293 365.16618347 1539.79702759 C364.92168961 1539.1783078 364.67719574 1538.55958801 364.42529297 1537.92211914 C351.55131529 1505.34898139 337.44787243 1473.36877031 320.32055664 1442.77807617 C319.04232547 1440.48326671 317.7861412 1438.17817389 316.53881836 1435.86645508 C305.56191654 1415.61446112 293.23397704 1396.12641533 279.94897461 1377.31567383 C279.49296875 1376.66679199 279.03696289 1376.01791016 278.56713867 1375.34936523 C267.34631 1359.40028878 255.60397591 1343.81077858 242.92285156 1328.99072266 C240.13496422 1325.73200531 237.430433 1322.42339567 234.76147461 1319.06567383 C225.61276594 1307.82347687 215.2867183 1297.4615831 204.94897461 1287.31567383 C201.96251035 1284.33972529 198.99083942 1281.34942164 196.02319336 1278.35473633 C194.5610113 1276.88332499 193.09877031 1275.41197223 191.63647461 1273.94067383 C190.91524414 1273.21106445 190.19401367 1272.48145508 189.45092773 1271.72973633 C184.784386 1267.0422684 179.9698308 1262.61889969 174.94897461 1258.31567383 C173.75757099 1257.27027792 172.56743584 1256.22343435 171.37866211 1255.17504883 C163.70250761 1248.44585519 155.89233256 1241.96034935 147.79858398 1235.73999023 C145.85813588 1234.24572225 143.92686357 1232.74007743 141.99584961 1231.23364258 C61.14036087 1168.43540094 -34.90332097 1127.52817709 -269.05102539 1089.31567383 C-270.32249924 1089.2537233 -270.32249924 1089.2537233 -271.61965942 1089.19052124 C-288.20361803 1088.40053847 -304.76179533 1088.11277215 -321.36352539 1088.12817383 C-322.58192108 1088.12877808 -323.80031677 1088.12938232 -325.05563354 1088.13000488 C-345.45039813 1088.15728818 -365.72587157 1088.60403401 -386.05102539 1090.31567383 C-386.80655701 1090.37883789 -387.56208862 1090.44200195 -388.34051514 1090.50708008 C-452.59588588 1095.94824054 -515.70791414 1108.44244463 -577.05102539 1128.31567383 C-578.14640625 1128.67048828 -578.14640625 1128.67048828 -579.26391602 1129.0324707 C-643.23684066 1149.82792097 -704.63865493 1178.28886066 -762.05102539 1213.31567383 C-763.07389648 1213.93796875 -764.09676758 1214.56026367 -765.15063477 1215.20141602 C-794.65763517 1233.21452063 -822.69314198 1253.21278718 -850.05102539 1274.31567383 C-850.73745117 1274.84467285 -851.42387695 1275.37367187 -852.13110352 1275.91870117 C-859.56886862 1281.6648515 -866.82113527 1287.59147106 -873.96508789 1293.69848633 C-876.80708104 1296.12259139 -879.70392604 1298.47298782 -882.61352539 1300.81567383 C-887.69141978 1304.94608938 -892.49666392 1309.32399151 -897.29321289 1313.77270508 C-899.45443087 1315.76555622 -901.63449508 1317.71275168 -903.86352539 1319.62817383 C-916.59740483 1330.71222898 -928.54407941 1342.64892184 -940.46069336 1354.5949707 C-943.07168894 1357.21138022 -945.68806099 1359.82232928 -948.30493164 1362.43286133 C-949.99145067 1364.1200404 -951.67765988 1365.80752925 -953.36352539 1367.49536133 C-954.13341797 1368.26322968 -954.90331055 1369.03109802 -955.6965332 1369.82223511 C-959.79999781 1373.94337343 -963.74545998 1378.14547916 -967.5329895 1382.55952454 C-969.92016142 1385.32113926 -972.42911445 1387.96620216 -974.92602539 1390.62817383 C-979.36567832 1395.39978278 -983.5676168 1400.29735373 -987.64868164 1405.38208008 C-990.50064114 1408.8647168 -993.45944664 1412.24328676 -996.42602539 1415.62817383 C-1002.03628861 1422.05646531 -1007.3657097 1428.65449046 -1012.57495117 1435.40991211 C-1014.16974018 1437.46894668 -1015.7791483 1439.51596272 -1017.39086914 1441.56176758 C-1052.74171453 1486.5134075 -1082.12656326 1535.41677112 -1108.05102539 1586.31567383 C-1108.45015137 1587.0973291 -1108.84927734 1587.87898438 -1109.26049805 1588.68432617 C-1111.5654295 1593.2081921 -1113.82055286 1597.75469804 -1116.05102539 1602.31567383 C-1116.44290039 1603.11199219 -1116.83477539 1603.90831055 -1117.23852539 1604.72875977 C-1159.21165928 1690.24262173 -1187.34167282 1782.19044374 -1239.05102539 2035.31567383 C-1239.20035522 2036.32019592 -1239.34968506 2037.32471802 -1239.50354004 2038.35968018 C-1251.13172127 2116.79806314 -1258.26531334 2195.85991543 -1271.84705359 2483.19773018 C-1271.86256822 2484.11725724 -1271.87808285 2485.0367843 -1271.89406762 2485.98417582 C-1271.92820723 2488.0123101 -1271.96219974 2490.04044687 -1271.99606388 2492.06858578 C-1272.05301528 2495.43323531 -1272.11250421 2498.79783412 -1272.17219424 2502.16243611 C-1273.14359338 2557.74474072 -1273.20584067 2613.32301309 -1273.2079389 2668.91252971 C-1273.20833442 2679.31157433 -1273.21117412 2689.71061567 -1273.21599209 2700.10965918 C-1273.21632047 2700.82123311 -1273.21664885 2701.53280703 -1273.21698719 2702.26594381 C-1273.21867448 2705.90150587 -1273.22039573 2709.53706791 -1273.22212852 2713.17262995 C-1273.23459286 2739.47505033 -1273.24235168 2765.7774704 -1273.24760628 2792.07989311 C-1273.25293678 2818.68180764 -1273.26044512 2845.2837203 -1273.27053452 2871.88563347 C-1273.27085351 2872.72920963 -1273.27117251 2873.5727858 -1273.27150118 2874.44192488 C-1273.27442595 2882.17430068 -1273.27737442 2889.90667648 -1273.28035108 2897.63905227 C-1273.28780905 2917.01528364 -1273.29494619 2936.39151512 -1273.30186927 2955.76774669 C-1273.3021865 2956.6549555 -1273.30250372 2957.54216432 -1273.30283056 2958.45625825 C-1273.31838536 3002.03964638 -1273.33029328 3045.62303541 -1273.34195137 3089.20642471 C-1273.34605062 3104.52187173 -1273.35016735 3119.83731875 -1273.35434842 3135.15276575 C-1273.35460837 3136.10500869 -1273.35486831 3137.05725163 -1273.35513614 3138.03835042 C-1273.36723128 3182.26692743 -1273.38184296 3226.49550349 -1273.39708672 3270.72407951 C-1273.39808529 3273.62172104 -1273.39908268 3276.51936257 -1273.40007978 3279.4170041 C-1273.40609389 3296.89135791 -1273.41213406 3314.36571172 -1273.41820428 3331.84006551 C-1273.43328921 3375.26834068 -1273.44806201 3418.69661594 -1273.46262264 3462.12489128 C-1273.46295416 3463.11322092 -1273.46328569 3464.10155056 -1273.46362726 3465.11982958 C-1273.48507116 3529.0555845 -1273.50523101 3592.99133975 -1273.5243082 3656.92709541 C-1273.52461246 3657.94673574 -1273.52491671 3658.96637606 -1273.52523018 3660.01691458 C-1273.53448775 3691.05101301 -1273.54364988 3722.08511147 -1273.55279331 3753.11920994 C-1273.56291181 3787.46141097 -1273.57304661 3821.80361199 -1273.58325195 3856.14581299 C-1273.58355881 3857.17859109 -1273.58386566 3858.21136919 -1273.58418181 3859.27544359 C-1273.61305578 3956.43922891 -1273.64450188 4053.60301334 -1273.67663501 4150.76679763 C-1273.67871615 4157.06013503 -1273.68079513 4163.35347242 -1273.6828737 4169.64680982 C-1273.70453802 4235.23737724 -1273.72632599 4300.82794462 -1273.74816756 4366.41851199 C-1273.7484808 4367.35920011 -1273.74879403 4368.29988823 -1273.74911676 4369.26908205 C-1273.75056616 4373.62172483 -1273.75201569 4377.9743676 -1273.75346564 4382.32701037 C-1273.85914661 4699.65656303 -1273.95428736 5016.98611809 -1274.05102539 5334.31567383 C-1673.68102539 5334.31567383 -2073.31102539 5334.31567383 -2485.05102539 5334.31567383 C-2485.05102539 3618.64567383 -2485.05102539 1902.97567383 -2485.05102539 135.31567383 C-2085.42102539 135.31567383 -1685.79102539 135.31567383 -1274.05102539 135.31567383 C-1273.72102539 293.38567383 -1273.39102539 451.45567383 -1273.05102539 614.31567383 C-1266.66791071 606.8687067 -1260.36250182 599.49414208 -1254.19555664 591.89379883 C-1251.32560635 588.44358537 -1248.30526077 585.14260659 -1245.28149414 581.82739258 C-1243.05583188 579.32108639 -1240.95580978 576.7464299 -1238.86352539 574.12817383 C-1233.95866943 568.05959985 -1228.62347539 562.42860719 -1223.27368164 556.75317383 C-1220.37282086 553.67261371 -1217.56715968 550.52487227 -1214.80493164 547.31958008 C-1211.10657285 543.09406102 -1207.2721021 538.98883171 -1203.46850586 534.8581543 C-1202.12913729 533.400674 -1200.79499414 531.93839673 -1199.46118164 530.47583008 C-1197.19465816 527.99117501 -1194.92054548 525.51380347 -1192.64100647 523.04109192 C-1191.62245824 521.9357822 -1190.60504773 520.82942231 -1189.58909607 519.72172546 C-1176.08824747 505.03896309 -1161.90686032 491.0180697 -1147.79418945 476.9284668 C-1144.23614134 473.37616508 -1140.68267181 469.81932214 -1137.13047028 466.26117516 C-1134.36291658 463.48999603 -1131.59297123 460.72121733 -1128.8223114 457.95314407 C-1127.51078668 456.64228055 -1126.19998799 455.33069015 -1124.88996887 454.01832199 C-1112.61586411 441.72700044 -1112.61586411 441.72700044 -1106.53625488 436.58071899 C-1104.59716359 434.92909675 -1102.81946259 433.14726949 -1101.05102539 431.31567383 C-1097.96857034 428.19156398 -1094.77592767 425.28866294 -1091.44946289 422.42895508 C-1088.25955586 419.61830409 -1085.15846648 416.71687969 -1082.05102539 413.81567383 C-1077.12491739 409.22476291 -1072.16890097 404.69316958 -1067.05102539 400.31567383 C-1066.02882236 399.43945062 -1065.00669393 398.56314037 -1063.98461914 397.68676758 C-1062.21641709 396.17109374 -1060.44784105 394.65586581 -1058.67822266 393.1418457 C-1054.89943624 389.90731248 -1051.13403271 386.65799992 -1047.37915039 383.39575195 C-1037.26476843 374.60836018 -1027.14475227 365.87845025 -1016.56469727 357.65332031 C-1011.80078338 353.93822741 -1007.13844499 350.1095971 -1002.48852539 346.25317383 C-996.07998136 340.94947758 -989.597429 335.78937679 -982.96411133 330.76782227 C-980.71956097 329.0640722 -978.48290885 327.35019739 -976.24633789 325.63598633 C-959.75303337 313.00772353 -943.08946462 300.65465319 -926.07348633 288.73950195 C-924.16462171 287.39564651 -922.26620733 286.03854201 -920.37133789 284.67504883 C-845.2715552 230.79784329 -763.81682724 184.42835179 -529.05102539 85.31567383 C-527.67850616 84.85097687 -527.67850616 84.85097687 -526.27825928 84.37689209 C-430.84311369 52.12907631 -332.51773872 29.2773276 -123.30102539 4.12817383 C-122.25918091 4.04917847 -121.21733643 3.97018311 -120.1439209 3.88879395 C-112.11731549 3.28777794 -104.08681662 2.77670218 -96.05102539 2.31567383 C-94.93111017 2.25079081 -94.93111017 2.25079081 -93.7885704 2.18459702 C-62.52672072 0.39063883 -31.30899126 -0.03081878 0 0 Z " fill="#3E3E3E" transform="translate(13399.051025390625,-0.315673828125)"/>
<path d="M0 0 C2.17968561 -0.00072826 4.35936549 -0.00289446 6.53904963 -0.00549722 C14.24663279 -0.01466098 21.95419908 -0.01884423 29.66178751 -0.01804566 C35.90530342 -0.01751531 42.14875635 -0.02453378 48.39225626 -0.03855348 C85.37651905 -0.1196515 122.25763136 0.16001481 159.20036173 2.16725707 C160.65437044 2.24394183 162.10839004 2.32042033 163.56242228 2.39665771 C171.80092216 2.83306028 180.03245041 3.34917445 188.26286173 3.91725707 C189.47655436 3.99962615 190.69024698 4.08199523 191.94071817 4.16686034 C296.85263406 11.34084825 401.31409218 25.68991131 671.38426065 93.27522826 C674.14732692 94.15045775 676.91173443 95.02132987 679.67643595 95.89137816 C748.03713917 117.44694933 815.00833065 143.38453135 880.20036173 173.16725707 C881.28639688 173.66145141 882.37243204 174.15564574 883.49137735 174.66481566 C920.37696284 191.46468416 957.21803092 208.97969428 992.62223673 228.74147582 C995.40707726 230.28157702 998.20748439 231.78990368 1001.01286173 233.29225707 C1013.16971873 239.80373423 1025.1524811 246.55309138 1037.03629923 253.55006957 C1042.44321673 256.73296372 1047.87999981 259.86143168 1053.32365274 262.98097777 C1063.42842588 268.77527723 1073.44385807 274.65671526 1083.25895548 280.9294641 C1085.33845221 282.25530017 1087.42485713 283.56970678 1089.51286173 284.88210082 C1093.52497808 287.40471468 1097.53011834 289.93814311 1101.53239298 292.4763391 C1103.36477377 293.63767414 1105.19816251 294.79741987 1107.03239298 295.95583129 C1136.36129964 314.49034068 1164.90701495 334.17283114 1192.97819376 354.55837035 C1195.22307817 356.18370416 1197.47434557 357.79979196 1199.72770548 359.41335082 C1209.37667332 366.33022571 1218.87265073 373.41776872 1228.26774454 380.67555785 C1230.06257317 382.06090435 1231.86095954 383.44142774 1233.66129923 384.81960082 C1244.9865981 393.49307284 1256.18895401 402.30577976 1267.23649454 411.33058715 C1270.97097125 414.37578152 1274.73268409 417.37779196 1278.54020548 420.33107543 C1286.04228414 426.1500772 1293.21459549 432.29479799 1300.3522172 438.55299926 C1303.30509536 441.13218425 1306.28343789 443.68133483 1309.26286173 446.22975707 C1309.83504435 446.72008422 1310.40722696 447.21041137 1310.99674845 447.71559691 C1313.91513123 450.21577421 1316.83810327 452.71038134 1319.76676798 455.19850707 C1326.48181995 460.91305397 1333.06724281 466.73469859 1339.54020548 472.72194457 C1341.71257419 474.718865 1343.90575336 476.67554441 1346.13786173 478.60475707 C1350.79437978 482.64426238 1355.29728304 486.84800722 1359.81754923 491.03835082 C1362.02257728 493.08171063 1364.23547556 495.11579009 1366.45817423 497.13991332 C1371.23270956 501.48846781 1375.95332723 505.85637346 1380.47308207 510.47241759 C1382.11347544 512.0820026 1383.80682313 513.557812 1385.56339884 515.03859496 C1391.88419664 520.54197442 1397.72420485 526.54734229 1403.64176798 532.47585082 C1404.93621363 533.76962141 1406.23080757 535.06324364 1407.52554178 536.35672545 C1410.22761323 539.05732946 1412.92788554 541.759716 1415.6268754 544.46339965 C1419.06848163 547.91070256 1422.51455878 551.35349557 1425.96200514 554.79495692 C1428.63283884 557.46215919 1431.30126417 560.13176075 1433.9689908 562.80207038 C1435.23798756 564.07172927 1436.50771383 565.3406595 1437.77821398 566.608814 C1449.75005007 578.56338878 1449.75005007 578.56338878 1454.90200663 584.64871764 C1456.72011179 586.77515006 1458.69335668 588.72016262 1460.70036173 590.66725707 C1464.10848761 593.97364785 1467.2222401 597.46103445 1470.3312211 601.0442102 C1473.37098165 604.49689538 1476.53716671 607.82796666 1479.70036173 611.16725707 C1484.10899544 615.82131987 1488.43047013 620.52643322 1492.63297892 625.36794066 C1494.58005127 627.6031312 1496.57530642 629.7919571 1498.57536173 631.97975707 C1501.70459 635.44255789 1504.70536522 638.9740471 1507.63786173 642.60475707 C1510.71372761 646.4081321 1513.88789339 650.06808359 1517.20036173 653.66725707 C1521.23546194 658.05620453 1525.03866477 662.57588473 1528.78239298 667.21413207 C1531.55537609 670.60084489 1534.40275882 673.9166745 1537.26286173 677.22975707 C1541.27806819 681.89009712 1545.2062937 686.59774151 1549.02067423 691.42506957 C1551.26805365 694.25241787 1553.54527405 697.05350113 1555.82829142 699.85207152 C1565.84040889 712.12634714 1575.54103086 724.61012694 1585.20036173 737.16725707 C1585.53036173 538.50725707 1585.86036173 339.84725707 1586.20036173 135.16725707 C1985.83036173 135.16725707 2385.46036173 135.16725707 2797.20036173 135.16725707 C2797.20036173 1850.83725707 2797.20036173 3566.50725707 2797.20036173 5334.16725707 C2397.57036173 5334.16725707 1997.94036173 5334.16725707 1586.20036173 5334.16725707 C1585.70536173 5066.86725707 1585.70536173 5066.86725707 1585.20036173 4794.16725707 C1579.26036173 4801.09725707 1579.26036173 4801.09725707 1573.20036173 4808.16725707 C1567.38786173 4814.54225707 1567.38786173 4814.54225707 1564.64958048 4817.50319457 C1562.63162394 4819.69816484 1560.65232727 4821.91391917 1558.70036173 4824.16725707 C1555.33510682 4828.04776632 1551.86320557 4831.82747987 1548.38566446 4835.60695434 C1545.49068537 4838.75474416 1542.61667482 4841.91946659 1539.76286173 4845.10475707 C1534.30279368 4851.18221797 1528.76362813 4857.18445009 1523.20036173 4863.16725707 C1522.59804728 4863.81613891 1521.99573282 4864.46502074 1521.37516642 4865.13356566 C1513.10559243 4874.02962253 1504.7126708 4882.77088823 1496.04728556 4891.28346801 C1492.84895715 4894.44094682 1489.75529327 4897.62509299 1486.82536173 4901.03444457 C1482.54286304 4906.00311291 1477.90954413 4910.60398997 1473.26286173 4915.22975707 C1472.40756876 4916.08891723 1471.55227579 4916.94807738 1470.67106485 4917.8332727 C1466.93836978 4921.56027334 1463.20083257 4925.2280115 1459.19645548 4928.66335082 C1454.26677125 4932.8982598 1449.75849169 4937.54006453 1445.20036173 4942.16725707 C1439.90763407 4947.54017757 1434.60727216 4952.79953467 1428.88004923 4957.71022582 C1426.88718067 4959.43892343 1425.03240218 4961.2697866 1423.20036173 4963.16725707 C1420.1391892 4966.26971709 1416.96893905 4969.14832131 1413.66520548 4971.98756957 C1410.28051145 4974.98069044 1406.99487014 4978.07553106 1403.70036173 4981.16725707 C1399.2210271 4985.36704358 1394.73180652 4989.53420972 1390.07536173 4993.53835082 C1387.81284991 4995.50390796 1385.6034549 4997.52399016 1383.38786173 4999.54225707 C1379.92506091 5002.67148534 1376.39357169 5005.67226056 1372.76286173 5008.60475707 C1368.9594867 5011.68062295 1365.29953521 5014.85478873 1361.70036173 5018.16725707 C1357.30657625 5022.20680525 1352.78197349 5026.01405326 1348.13786173 5029.76100707 C1344.8368287 5032.46504477 1341.61270959 5035.24836939 1338.38786173 5038.04225707 C1333.16988305 5042.55187727 1327.83275083 5046.86503573 1322.38297892 5051.09035277 C1318.37958015 5054.20603651 1314.48859804 5057.4278 1310.63786173 5060.72975707 C1305.47305417 5065.14786417 1300.16757086 5069.34427115 1294.75504923 5073.45631957 C1291.44417406 5075.97183436 1288.16767466 5078.52976517 1284.89274454 5081.09181762 C1268.24211141 5094.10981479 1251.25924074 5106.69081853 1234.20036173 5119.16725707 C1233.47171915 5119.70028441 1232.74307657 5120.23331176 1231.99235392 5120.78249145 C1153.79648361 5177.87565944 1070.75732566 5228.43082352 984.73551798 5272.78835082 C980.54583103 5274.9495161 976.36579487 5277.12725424 972.19645548 5279.32741332 C960.09855668 5285.70816163 947.89432597 5291.78206457 935.51725626 5297.60231566 C932.54418935 5299.00503603 929.57652104 5300.41830626 926.61062479 5301.83608031 C864.34835641 5331.58516257 800.30598384 5357.34574909 735.20036173 5380.16725707 C734.3465391 5380.46718566 733.49271646 5380.76711425 732.61302042 5381.07613158 C640.44930432 5413.42939803 545.5446309 5438.4918651 143.36753702 5493.0129602 C140.2349223 5493.16557337 137.10266959 5493.32450994 133.97038126 5493.48366332 C59.60833775 5497.17441455 -15.43640296 5496.62868834 -89.79963827 5493.16725707 C-91.19380024 5493.10338803 -92.58796535 5493.03958744 -93.98213339 5492.97585082 C-171.79499341 5489.40052213 -249.38085931 5482.78140544 -566.79963827 5429.16725707 C-567.79447226 5428.9377838 -568.78930624 5428.70831054 -569.81428671 5428.47188354 C-675.4282855 5404.10826013 -779.16271787 5371.92804104 -1076.79963827 5247.16725707 C-1077.61875692 5246.76317626 -1078.43787558 5246.35909545 -1079.28181601 5245.94276977 C-1116.11897549 5227.76245949 -1116.11897549 5227.76245949 -1133.26448202 5218.21803832 C-1139.70574625 5214.63955819 -1146.23094653 5211.22149745 -1152.74781942 5207.78349853 C-1165.01724798 5201.3059302 -1177.17243625 5194.68131117 -1189.1634078 5187.69801879 C-1192.01390631 5186.04283953 -1194.87276836 5184.40280756 -1197.73323202 5182.76491332 C-1222.47464926 5168.58254647 -1247.03523862 5154.10480586 -1271.13459921 5138.85329223 C-1273.72042 5137.21737446 -1276.31013373 5135.58781842 -1278.90120077 5133.96022582 C-1280.51332102 5132.94612715 -1282.12530777 5131.93181622 -1283.73713827 5130.91725707 C-1284.40914267 5130.49452514 -1285.08114706 5130.0717932 -1285.77351522 5129.63625121 C-1299.60157621 5120.90144108 -1313.26281224 5111.91349068 -1326.86580038 5102.8332727 C-1329.36277986 5101.16682889 -1331.8614019 5099.50286961 -1334.36018515 5097.83913207 C-1344.56762583 5091.03571949 -1354.71700037 5084.15429203 -1364.79963827 5077.16725707 C-1365.73332235 5076.52046996 -1366.66700644 5075.87368285 -1367.62898397 5075.20729613 C-1384.28361082 5063.63660952 -1400.7031514 5051.75630672 -1417.01057577 5039.70241332 C-1420.19700269 5037.34736952 -1423.38984278 5035.00147979 -1426.58870077 5032.66335082 C-1436.79409168 5025.19510183 -1446.83188001 5017.54176583 -1456.78498983 5009.74098754 C-1459.69295652 5007.46944691 -1462.62034132 5005.22367509 -1465.54963827 5002.97975707 C-1477.79380593 4993.57059694 -1489.84339567 4983.93912434 -1501.79963827 4974.16725707 C-1502.8128414 4973.33967895 -1503.82604452 4972.51210082 -1504.86995077 4971.65944457 C-1506.65857135 4970.19695424 -1508.44637128 4968.73345953 -1510.23323202 4967.26881957 C-1511.97309032 4965.84409542 -1513.71535843 4964.42230998 -1515.45979452 4963.00319457 C-1522.09002934 4957.60360765 -1528.63111572 4952.10660923 -1535.14680624 4946.5700891 C-1536.76991894 4945.19248119 -1538.39556867 4943.8179395 -1540.02229452 4942.44460082 C-1561.57709718 4924.24698897 -1561.57709718 4924.24698897 -1571.57307577 4915.17897582 C-1573.63068218 4913.31991038 -1575.70810591 4911.48797349 -1577.79963827 4909.66725707 C-1581.69754312 4906.27230768 -1585.53310884 4902.81059823 -1589.36995077 4899.34694457 C-1591.45570007 4897.47580613 -1593.55781455 4895.62800876 -1595.67463827 4893.79225707 C-1600.61678099 4889.48524916 -1605.42622459 4885.03360053 -1610.24836874 4880.5935266 C-1612.69771822 4878.34154366 -1615.15599968 4876.09933056 -1617.61213827 4873.85475707 C-1636.95942664 4856.12725666 -1636.95942664 4856.12725666 -1644.93722677 4847.99722838 C-1646.5998141 4846.36360063 -1648.3013689 4844.8683126 -1650.08650351 4843.37209105 C-1656.97676552 4837.37574668 -1663.32239607 4830.78791871 -1669.77229452 4824.32741332 C-1671.22368178 4822.87670088 -1672.67521735 4821.42613682 -1674.12689352 4819.97571349 C-1677.15851436 4816.94556124 -1680.18833394 4813.91362254 -1683.2168746 4810.88039184 C-1687.08221917 4807.00935052 -1690.95203652 4803.14281667 -1694.82322168 4799.27761722 C-1697.81831565 4796.28615155 -1700.81100556 4793.29228996 -1703.8029933 4790.29771781 C-1705.22829048 4788.87175763 -1706.65431955 4787.44652857 -1708.08111906 4786.0220716 C-1721.55905435 4772.56141611 -1721.55905435 4772.56141611 -1726.49102926 4766.69605041 C-1728.77056822 4764.0329601 -1731.28927486 4761.61049847 -1733.79963827 4759.16725707 C-1737.72004586 4755.35167321 -1741.38133879 4751.39770486 -1744.96077108 4747.26003051 C-1748.10438649 4743.68235243 -1751.39541145 4740.24521776 -1754.67463827 4736.79225707 C-1760.47310298 4730.65899729 -1766.19136935 4724.47519307 -1771.79963827 4718.16725707 C-1773.29861916 4716.49967376 -1774.79864283 4714.83302731 -1776.29963827 4713.16725707 C-1777.04213827 4712.34096801 -1777.78463827 4711.51467895 -1778.54963827 4710.66335082 C-1780.04446516 4709.00502724 -1781.54444408 4707.35133266 -1783.04963827 4705.70241332 C-1786.88309511 4701.48960399 -1790.59900373 4697.22680738 -1794.17463827 4692.79225707 C-1797.41916344 4688.77899423 -1800.7871101 4684.94310323 -1804.29963827 4681.16725707 C-1808.50986969 4676.63734382 -1812.47601673 4671.96433544 -1816.35432577 4667.14772582 C-1819.26968136 4663.59434513 -1822.27790576 4660.13015645 -1825.29963827 4656.66725707 C-1829.74549467 4651.56435875 -1834.11227857 4646.41434171 -1838.37385702 4641.15553832 C-1840.81829299 4638.14427662 -1843.28244211 4635.15019027 -1845.75129843 4632.15895629 C-1848.7718472 4628.498704 -1851.78582794 4624.83305806 -1854.79963827 4621.16725707 C-1855.35731894 4620.48969359 -1855.9149996 4619.81213012 -1856.48957968 4619.11403441 C-1863.15135651 4611.01016018 -1869.65412639 4602.80984494 -1875.99519491 4594.45241332 C-1879.5298442 4589.80130681 -1883.13237492 4585.21437396 -1886.79963827 4580.66725707 C-1892.66474878 4573.3851374 -1898.34791705 4565.97279631 -1904.00325155 4558.52712035 C-1905.93863058 4555.98466674 -1907.88220903 4553.44862509 -1909.82698202 4550.91335082 C-1916.88171854 4541.70643431 -1923.83612907 4532.45742333 -1930.51741171 4522.9763391 C-1933.02452399 4519.43907672 -1935.5710662 4515.93015803 -1938.11213827 4512.41725707 C-1938.93536581 4511.2777661 -1938.93536581 4511.2777661 -1939.77522421 4510.11525512 C-1942.52147284 4506.31451434 -1945.27130565 4502.51642276 -1948.02620077 4498.72194457 C-1965.604242 4474.48891955 -1982.43377062 4449.75383924 -1999.04963827 4424.85475707 C-1999.80225943 4423.72783446 -1999.80225943 4423.72783446 -2000.57008505 4422.57814574 C-2029.71757729 4378.91597804 -2057.40922653 4334.29288528 -2083.78791952 4288.90749145 C-2084.77796842 4287.20453089 -2085.76925831 4285.50229199 -2086.76057577 4283.80006957 C-2099.81046161 4261.37557186 -2112.40238404 4238.70797784 -2124.71370077 4215.87038207 C-2126.64749525 4212.28643232 -2128.59787221 4208.71291986 -2130.57307577 4205.15163207 C-2145.79710093 4177.65842173 -2159.70979424 4149.44585227 -2173.79465246 4121.35800719 C-2174.71759852 4119.51869721 -2175.64194005 4117.68009532 -2176.5666976 4115.84169555 C-2184.80844864 4099.44319034 -2192.72358856 4082.93300212 -2200.37980795 4066.25493407 C-2202.36227991 4061.9436914 -2204.36796215 4057.64341602 -2206.37385702 4053.34303832 C-2238.51461442 3984.24390197 -2267.55629368 3913.71288833 -2293.79963827 3842.16725707 C-2294.07340292 3841.42161498 -2294.34716757 3840.67597289 -2294.62922812 3839.90773559 C-2331.06838134 3740.59212064 -2362.38060807 3639.6691179 -2483.70588827 2914.78444457 C-2483.76651449 2913.72629546 -2483.82714071 2912.66814635 -2483.88960409 2911.57793212 C-2487.14304172 2852.67856817 -2488.13489654 2793.87298811 -2488.05677634 2734.90038413 C-2488.04923611 2728.5481581 -2488.05196018 2722.19599449 -2488.06038046 2715.84377074 C-2488.13781152 2655.85837059 -2487.01451174 2596.02561313 -2483.70198202 2536.11647582 C-2483.59768126 2534.21740729 -2483.59768126 2534.21740729 -2483.4912734 2532.27997375 C-2479.30579785 2456.84206144 -2472.81364578 2381.54829501 -2422.79963827 2056.16725707 C-2422.57876547 2055.08116149 -2422.35789267 2053.99506591 -2422.13032675 2052.87605834 C-2399.71495519 1942.87699509 -2370.73344757 1834.45471182 -2231.79963827 1459.16725707 C-2231.24768593 1457.9378522 -2230.69593484 1456.70835696 -2230.14436483 1455.47878051 C-2214.77109302 1421.22776522 -2198.52336675 1387.43311417 -2181.73713827 1353.85475707 C-2181.23450964 1352.84871617 -2181.23450964 1352.84871617 -2180.72172689 1351.82235122 C-2172.90866884 1336.18504494 -2165.03511263 1320.58767191 -2156.79963827 1305.16725707 C-2156.18258017 1304.00605346 -2155.56552206 1302.84484984 -2154.92976522 1301.64845824 C-2148.36239661 1289.31439122 -2141.67242274 1277.05671225 -2134.75862265 1264.91335082 C-2131.24594329 1258.7418564 -2127.79065209 1252.54163689 -2124.36433554 1246.32179809 C-2117.44213371 1233.76748615 -2110.26927041 1221.38799422 -2102.91682577 1209.08131957 C-2100.06122692 1204.30007468 -2097.23455416 1199.50346312 -2094.43245077 1194.69069457 C-2086.95917005 1181.85805554 -2079.38368917 1169.12944486 -2071.36555624 1156.62672973 C-2067.69202353 1150.85698098 -2064.09700556 1145.03720953 -2060.48860312 1139.22658324 C-2051.0314868 1124.04916111 -2041.18019804 1109.12096386 -2031.34871054 1094.18459105 C-2030.11175047 1092.30424953 -2028.8760643 1090.42306934 -2027.64167929 1088.54103637 C-2019.3949734 1075.96801032 -2010.95914638 1063.55449832 -2002.28398275 1051.27324462 C-2000.30415674 1048.46426801 -1998.34500257 1045.64164728 -1996.38948202 1042.81569457 C-1988.82945613 1031.89854187 -1981.17730047 1021.06011061 -1973.36311483 1010.32350707 C-1971.78897228 1008.1525472 -1970.22629938 1005.97377336 -1968.66682577 1003.79225707 C-1962.20380026 994.76355795 -1955.57768064 985.8789687 -1948.82087851 977.06789184 C-1944.32312583 971.19494061 -1939.91238149 965.26599935 -1935.54963827 959.29225707 C-1930.93117159 952.97896996 -1926.1888237 946.79998365 -1921.26301718 940.7238977 C-1917.55823714 936.14718829 -1913.97795142 931.48722914 -1910.42463827 926.79225707 C-1904.27979834 918.69295622 -1897.85440952 910.84700638 -1891.3509078 903.03444457 C-1889.21597807 900.46473374 -1887.10049596 897.87974197 -1884.98713827 895.29225707 C-1883.93719687 894.00835082 -1883.93719687 894.00835082 -1882.86604452 892.69850707 C-1881.45553053 890.97069409 -1880.04675084 889.24146421 -1878.63948202 887.51100707 C-1874.1130685 881.9547746 -1869.52322135 876.45918537 -1864.88166952 870.99928832 C-1862.02142007 867.62913368 -1859.20722593 864.22717297 -1856.42463827 860.79225707 C-1849.22339749 851.95202422 -1841.72040666 843.35242021 -1834.04963827 834.91725707 C-1831.13668094 831.70984918 -1828.37743326 828.42828648 -1825.67463827 825.04225707 C-1821.14718704 819.43873908 -1816.25613734 814.21784774 -1811.29133749 809.00075316 C-1807.58255018 805.09940365 -1803.98436473 801.12806473 -1800.45637655 797.06252074 C-1798.03993015 794.29817157 -1795.54995764 791.6056025 -1793.04963827 788.91725707 C-1791.99864966 787.78333465 -1790.94787284 786.64921589 -1789.89729452 785.51491332 C-1789.11636435 784.67210814 -1789.11636435 784.67210814 -1788.3196578 783.8122766 C-1786.0316068 781.33606592 -1783.76025 778.84467826 -1781.48713827 776.35475707 C-1771.9814479 765.97207436 -1762.4466273 755.61816946 -1752.36213827 745.79225707 C-1750.43051425 743.81352027 -1748.64849472 741.83540977 -1746.86189413 739.73390746 C-1741.91445863 734.06270768 -1736.5653741 728.78871963 -1731.24104452 723.47585082 C-1730.12663609 722.36076696 -1729.01237598 721.24553485 -1727.89825583 720.13016295 C-1725.57427806 717.80471945 -1723.24852363 715.48107196 -1720.92146444 713.15871215 C-1717.95843376 710.20137804 -1714.99991657 707.23957579 -1712.04272699 704.27640224 C-1709.74611195 701.97615109 -1707.44709261 699.67831476 -1705.14736891 697.38117194 C-1704.05634021 696.2908041 -1702.9660365 695.19971027 -1701.87651396 694.10783744 C-1696.55718553 688.77955093 -1691.23538577 683.50564534 -1685.48651266 678.63394713 C-1682.43023302 675.97659753 -1679.63113376 673.05967079 -1676.79963827 670.16725707 C-1672.50721857 665.8246136 -1668.18429254 661.62049922 -1663.52229452 657.67116332 C-1661.6953332 656.07619709 -1659.99904541 654.39707865 -1658.29963827 652.66725707 C-1656.04165884 650.37399671 -1653.73967323 648.20297679 -1651.29963827 646.10475707 C-1647.19453379 642.56891512 -1643.2496703 638.8739199 -1639.29963827 635.16725707 C-1634.84632814 630.99159963 -1630.38001666 626.85384369 -1625.75276327 622.87038207 C-1623.23351551 620.67359802 -1620.76860831 618.42036088 -1618.29963827 616.16725707 C-1611.12991321 609.63505886 -1603.80264993 603.30162009 -1596.43196249 596.9985559 C-1592.61463524 593.73183386 -1588.81521556 590.44552095 -1585.02620077 587.14601684 C-1579.29680352 582.15837191 -1573.517024 577.25990266 -1567.61213827 572.47975707 C-1564.27680886 569.73737511 -1561.00640076 566.92524575 -1557.73713827 564.10475707 C-1553.07665681 560.08970762 -1548.36916243 556.1613319 -1543.54182577 552.34694457 C-1540.71456753 550.09963674 -1537.91357989 547.82247842 -1535.11506796 545.53957152 C-1527.64015391 539.44212686 -1520.10255493 533.43390082 -1512.49983358 527.49684691 C-1510.24803881 525.73589425 -1508.00244755 523.9671221 -1505.75666952 522.19850707 C-1487.49157059 507.82048869 -1469.01628298 493.77577707 -1450.29182577 480.00221801 C-1447.85511939 478.208107 -1445.42072054 476.41091529 -1442.98713827 474.61256957 C-1429.16087955 464.39821878 -1415.3327535 454.18678967 -1401.12800741 444.50197387 C-1397.47556774 442.01129718 -1393.84172229 439.49863766 -1390.23323202 436.94460082 C-1361.70744873 416.80761153 -1332.3237185 397.80324785 -1302.79963827 379.16725707 C-1301.86555136 378.57444945 -1300.93146444 377.98164184 -1299.96907187 377.37087035 C-1283.66434348 367.02784371 -1267.10228267 357.1430711 -1250.47248983 347.3357141 C-1247.26211107 345.44174622 -1244.05713362 343.53885015 -1240.85432577 341.63210082 C-1206.39463535 321.13471459 -1171.29391746 301.80681905 -1135.79963827 283.16725707 C-1135.20380941 282.85419616 -1134.60798056 282.54113524 -1133.99409628 282.21858764 C-1103.20938958 266.05409645 -1072.17364271 250.28083741 -1040.52473593 235.87380004 C-1036.32705043 233.95686595 -1032.14786433 232.00073452 -1027.96760702 230.04616332 C-975.66041223 205.62462812 -922.38001847 183.25589189 -868.28804159 163.09505248 C-865.83386735 162.1800193 -863.38062384 161.2625297 -860.92756796 160.34450316 C-836.67228277 151.27540744 -812.29461572 142.56718788 -787.79963827 134.16725707 C-786.55754599 133.74120177 -786.55754599 133.74120177 -785.29036093 133.3065393 C-691.004349 101.01473004 -594.37012215 74.74148272 -89.23713827 2.47975707 C-88.0278768 2.41881866 -86.81861532 2.35788024 -85.57270956 2.29509521 C-57.04494903 0.87554485 -28.56278515 0.0054127 0 0 Z M-86.79963827 1113.16725707 C-88.1027294 1113.41705321 -88.1027294 1113.41705321 -89.4321456 1113.67189574 C-136.84378682 1122.80693241 -183.72416158 1134.75073071 -229.79963827 1149.16725707 C-230.69386496 1149.44656066 -231.58809164 1149.72586425 -232.5094161 1150.01363158 C-310.18143164 1174.32176521 -387.33182252 1205.04447836 -458.4422164 1244.86745238 C-461.54758954 1246.57965274 -464.69235362 1248.20946037 -467.84260702 1249.83717895 C-479.14532795 1255.67786472 -490.0998463 1262.07475823 -501.05061483 1268.5466516 C-503.44832667 1269.9601517 -505.8518751 1271.36244432 -508.26057577 1272.75710082 C-528.05564908 1284.23573254 -547.19895597 1296.67292866 -566.23713827 1309.35475707 C-567.12811209 1309.94754455 -568.0190859 1310.54033202 -568.93705893 1311.15108275 C-580.68877507 1318.97708375 -592.31024039 1326.96112544 -603.79963827 1335.16725707 C-605.15399984 1336.13030761 -605.15399984 1336.13030761 -606.53572226 1337.11281371 C-617.46858336 1344.90246251 -628.18598117 1352.94938968 -638.79963827 1361.16725707 C-639.56373007 1361.7571643 -640.32782187 1362.34707152 -641.11506796 1362.95485473 C-650.11453685 1369.90425873 -659.0407852 1376.91618779 -667.79963827 1384.16725707 C-669.59088435 1385.62610697 -671.38256183 1387.08442731 -673.17463827 1388.54225707 C-679.44696829 1393.67578107 -685.62995158 1398.91127327 -691.79963827 1404.16725707 C-692.38712851 1404.66692992 -692.97461874 1405.16660277 -693.57991171 1405.68141723 C-700.32830752 1411.42430571 -707.02253865 1417.21123878 -713.58479452 1423.16725707 C-715.57376329 1424.96329236 -717.58527022 1426.7267901 -719.61213827 1428.47975707 C-724.29508693 1432.560881 -728.84070082 1436.79001418 -733.39338827 1441.01491332 C-735.5488554 1443.01458563 -737.71414302 1445.00212902 -739.89338827 1446.97585082 C-747.27568703 1453.68383876 -754.36117719 1460.65077586 -761.35701132 1467.76149535 C-764.73169813 1471.17584881 -768.11359281 1474.48432468 -771.78010702 1477.58522582 C-775.6945718 1480.94522565 -779.03497483 1484.6885975 -782.44319296 1488.55299926 C-786.42803446 1492.97381181 -790.68525119 1497.11739643 -794.92463827 1501.29225707 C-800.17486372 1506.4632936 -805.32066166 1511.63807889 -810.11946249 1517.23317504 C-813.67913404 1521.33078009 -817.4620688 1525.22738992 -821.19416952 1529.16725707 C-827.48655995 1535.83745148 -833.47141896 1542.75758354 -839.42463827 1549.72975707 C-843.20386565 1554.15041018 -847.0010231 1558.55439644 -850.82063437 1562.94020629 C-856.60536456 1569.58595112 -862.25941354 1576.31535661 -867.79963827 1583.16725707 C-868.79370749 1584.38008915 -869.78855138 1585.59228655 -870.78401327 1586.80397582 C-877.52061792 1595.02056887 -884.06316132 1603.3607369 -890.48713827 1611.82350707 C-893.28701413 1615.50790428 -896.12826121 1619.15804807 -898.98201132 1622.80080199 C-910.53346255 1637.55304483 -921.55836672 1652.67077528 -932.29426718 1668.02467895 C-933.77869522 1670.13744906 -935.27748642 1672.23927227 -936.78010702 1674.33913207 C-944.93505494 1685.78952055 -952.69765926 1697.48827197 -960.42463827 1709.22975707 C-961.2091184 1710.42053359 -961.2091184 1710.42053359 -962.00944662 1711.6353662 C-972.63755397 1727.78121264 -983.01905599 1744.08035138 -993.04963827 1760.60475707 C-993.40137106 1761.18410003 -993.75310385 1761.76344298 -994.1154952 1762.36034179 C-1002.27251071 1775.81454175 -1010.08421133 1789.45610678 -1017.79963827 1803.16725707 C-1018.43643515 1804.29518676 -1019.07323202 1805.42311645 -1019.72932577 1806.58522582 C-1028.46747898 1822.08207304 -1036.82206123 1837.7451863 -1044.93928671 1853.57521605 C-1046.72254606 1857.03384964 -1048.5449447 1860.47129213 -1050.36709738 1863.90955138 C-1055.73809847 1874.05356645 -1060.90353215 1884.28338985 -1065.92463827 1894.60475707 C-1066.32738974 1895.43098571 -1066.7301412 1896.25721435 -1067.14509726 1897.10848022 C-1074.86330973 1912.96936904 -1082.12680857 1929.0109342 -1089.17926168 1945.17731261 C-1090.97545628 1949.29437628 -1092.79395433 1953.40009979 -1094.63948202 1957.49538207 C-1114.36841483 2001.39693224 -1131.20940326 2046.65102324 -1146.79963827 2092.16725707 C-1147.05209311 2092.90399657 -1147.30454794 2093.64073607 -1147.56465292 2094.39980102 C-1183.63247029 2199.81315605 -1209.82497917 2308.2746776 -1251.71107626 2676.59291625 C-1251.79655912 2679.07775166 -1251.88554955 2681.56244214 -1251.97493124 2684.04713988 C-1254.53670465 2756.86137588 -1252.81308388 2829.88630209 -1216.79963827 3140.16725707 C-1216.60883688 3141.15908996 -1216.41803549 3142.15092284 -1216.22145224 3143.17281127 C-1195.82104912 3248.79975393 -1166.7094247 3352.56614698 -1099.79963827 3524.16725707 C-1099.47306234 3524.92010985 -1099.14648642 3525.67296264 -1098.81001425 3526.44862914 C-1085.07173801 3558.06750316 -1070.36505206 3589.18958056 -1054.98713827 3620.04225707 C-1054.51694265 3620.98800597 -1054.04674704 3621.93375487 -1053.56230307 3622.90816283 C-1047.0349209 3636.0195242 -1040.20610108 3648.93565259 -1033.12791586 3661.75771117 C-1031.61842175 3664.49599072 -1030.12163789 3667.24099132 -1028.62762594 3669.98773742 C-1019.96368024 3685.90851862 -1010.96078123 3701.58243878 -1001.62776327 3717.12087035 C-999.92779308 3719.95369995 -998.23687547 3722.79167459 -996.54963827 3725.63210082 C-989.82473117 3736.93408515 -982.89025263 3748.09131939 -975.79963827 3759.16725707 C-975.34766073 3759.87414672 -974.89568319 3760.58103637 -974.43000937 3761.30934691 C-959.47601129 3784.66029608 -943.88768505 3807.58453685 -927.79963827 3830.16725707 C-927.27611776 3830.90234496 -926.75259726 3831.63743285 -926.21321249 3832.39479613 C-918.76752967 3842.82826588 -911.12720699 3853.09123013 -903.29133749 3863.23463988 C-901.90599099 3865.02946851 -900.5254676 3866.82785488 -899.14729452 3868.62819457 C-886.68622241 3884.89911418 -873.98161433 3900.97860279 -860.6868453 3916.57887816 C-857.80181443 3919.96712439 -854.97458976 3923.39599346 -852.17463827 3926.85475707 C-848.55129332 3931.30629515 -844.77999955 3935.59108162 -840.91682577 3939.83522582 C-839.01912658 3941.92549596 -837.15230413 3944.03711822 -835.29963827 3946.16725707 C-831.90106105 3950.06932721 -828.43589834 3953.90918688 -824.96760702 3957.74928832 C-823.1591627 3959.76627397 -821.37976487 3961.80217303 -819.61213827 3963.85475707 C-815.12296155 3969.00441037 -810.42944934 3973.96550378 -805.75422812 3978.94557738 C-803.31775064 3981.54318564 -800.88854881 3984.14709215 -798.46931601 3986.76076293 C-789.15355665 3996.80129566 -779.56890242 4006.55306428 -769.87214804 4016.2251184 C-767.33703151 4018.75481011 -764.8073919 4021.2898924 -762.2781539 4023.8254602 C-760.6411051 4025.46184909 -759.00374661 4027.09792824 -757.36604452 4028.73366332 C-756.62318701 4029.47854506 -755.88032949 4030.22342681 -755.11496115 4030.99088073 C-751.02647048 4035.06126498 -746.84754673 4038.96233902 -742.46820211 4042.71887755 C-740.47961117 4044.44505327 -738.62828563 4046.27330087 -736.79963827 4048.16725707 C-733.69249905 4051.31646588 -730.47473524 4054.24702674 -727.11995077 4057.12819457 C-724.75907815 4059.20290081 -722.45994378 4061.33236885 -720.16316366 4063.47731566 C-714.75871763 4068.52356461 -709.24822262 4073.32448065 -703.47932577 4077.95631957 C-700.66710513 4080.27660658 -697.98166565 4082.69796841 -695.29963827 4085.16725707 C-690.88323683 4089.22709352 -686.33800305 4093.06049528 -681.67073202 4096.82741332 C-679.12188511 4098.90463686 -676.61217502 4101.01716798 -674.11287069 4103.15309691 C-667.4558003 4108.8414481 -660.64624137 4114.30013235 -653.72883749 4119.66774535 C-651.6870685 4121.25475435 -649.65122703 4122.84915562 -647.61604452 4124.44460082 C-615.09386889 4149.90082818 -581.52701317 4173.81057795 -546.79963827 4196.16725707 C-545.96013632 4196.70801879 -545.12063437 4197.24878051 -544.25569296 4197.80592895 C-522.20221387 4211.96803786 -499.74067101 4225.49382484 -476.79963827 4238.16725707 C-475.89052694 4238.67063598 -474.98141562 4239.17401488 -474.04475546 4239.6926477 C-399.18674987 4281.06503958 -321.15720529 4315.28698689 -111.79963827 4376.16725707 C-110.94509054 4376.34990111 -110.09054281 4376.53254516 -109.2100997 4376.72072387 C-46.70994195 4390.03164746 16.64816888 4399.24460873 80.38395548 4403.95436645 C83.17144227 4404.16507106 85.95733789 4404.39083198 88.74333048 4404.62038207 C158.08028316 4410.24270437 229.71627017 4410.08390634 299.04582071 4404.4237268 C302.39685722 4404.15128164 305.74869046 4403.89063346 309.10075235 4403.63112426 C406.57922883 4396.00596155 503.40441151 4379.77336435 664.20036173 4333.16725707 C664.97041544 4332.91458068 665.74046915 4332.66190429 666.53385782 4332.40157104 C715.13483955 4316.41260029 762.74131386 4297.59378766 809.20036173 4276.16725707 C810.18525583 4275.71316466 810.18525583 4275.71316466 811.19004679 4275.24989867 C839.34108337 4262.2542715 867.31771602 4248.83942938 894.40104532 4233.72292113 C897.4470182 4232.03018267 900.50456058 4230.35961787 903.56364298 4228.69069457 C919.01036405 4220.23225833 934.08426872 4211.2836135 949.08512735 4202.06569457 C951.7913972 4200.41648185 954.51057162 4198.79655969 957.24723673 4197.19850707 C971.72764325 4188.73259713 985.59053524 4179.35949608 999.50079203 4169.99814391 C1004.00467107 4166.96721478 1008.52251424 4163.95840259 1013.05119181 4160.96462035 C1044.76618623 4139.975008 1074.9517132 4116.69344179 1104.39176798 4092.64381957 C1105.99271653 4091.33678166 1107.59634149 4090.03302351 1109.20036173 4088.72975707 C1115.70075315 4083.4387408 1122.11509484 4078.05167777 1128.49577188 4072.61745238 C1130.22155502 4071.14922668 1131.95110445 4069.68552175 1133.68083048 4068.22194457 C1140.71494117 4062.25159538 1147.56628105 4056.12307003 1154.31754923 4049.83522582 C1156.58271766 4047.73887076 1158.8655074 4045.68461029 1161.20036173 4043.66725707 C1168.8791308 4037.0155845 1176.37672221 4030.11537 1183.48174906 4022.85342956 C1185.22897457 4021.13918432 1187.04143552 4019.54895198 1188.90128946 4017.95802855 C1193.16565201 4014.2462766 1197.18253774 4010.32976445 1201.17301798 4006.32741332 C1201.89976221 4005.60162581 1202.62650644 4004.87583831 1203.37527323 4004.12805724 C1204.89998469 4002.60402151 1206.42345323 4001.07874138 1207.94572306 3999.55226684 C1210.25670064 3997.23593244 1212.57296944 3994.9249863 1214.88981485 3992.6145227 C1216.38036993 3991.12330673 1217.87061473 3989.63178054 1219.36051798 3988.13991332 C1220.04300104 3987.45945449 1220.7254841 3986.77899566 1221.42864847 3986.07791686 C1225.34916809 3982.13851132 1229.08941801 3978.09553691 1232.70974588 3973.87805724 C1234.60706527 3971.70047785 1236.62796569 3969.67779054 1238.70036173 3967.66725707 C1242.0064352 3964.40001332 1245.10781633 3961.04710076 1248.13004923 3957.51881957 C1250.32741462 3955.02294417 1252.58983089 3952.59919836 1254.86588907 3950.17531371 C1260.12790652 3944.57136283 1265.15100124 3938.88275864 1269.95817423 3932.87819457 C1272.43944927 3929.87818607 1275.0494163 3927.01612273 1277.70036173 3924.16725707 C1281.87670051 3919.66806097 1285.84553502 3915.04974765 1289.69645548 3910.26881957 C1292.19329907 3907.17600551 1294.72227918 3904.11217478 1297.25773478 3901.05104613 C1303.53610624 3893.46471575 1309.70703823 3885.80752382 1315.74918985 3878.03200316 C1317.31690131 3876.0175045 1318.89116982 3874.00823649 1320.46598673 3871.99928832 C1332.2671508 3856.92020885 1343.88038912 3841.68758329 1354.89420938 3826.02126098 C1356.30616396 3824.01707723 1357.72789555 3822.02001754 1359.14958048 3820.02272582 C1398.43807608 3764.59373749 1433.69555975 3706.30885324 1464.77897501 3645.90846801 C1466.05617887 3643.44532047 1467.35289446 3640.99464403 1468.66520548 3638.55006957 C1482.86124021 3612.09891026 1495.26359609 3584.78290601 1507.27329874 3557.28633666 C1508.16928519 3555.2382918 1509.06897907 3553.19192726 1509.97038126 3551.14626098 C1518.12213445 3532.64551575 1525.85549059 3514.00187516 1533.20036173 3495.16725707 C1533.64557169 3494.02595336 1534.09078165 3492.88464965 1534.54948282 3491.70876098 C1559.37104927 3427.77553706 1579.91468379 3362.51427995 1597.20036173 3296.16725707 C1597.41156656 3295.35980041 1597.6227714 3294.55234374 1597.84037638 3293.72041869 C1605.50854022 3264.39239308 1612.0481121 3234.84764124 1618.20036173 3205.16725707 C1618.40145548 3204.2002185 1618.60254923 3203.23317992 1618.80973673 3202.23683715 C1641.75982579 3091.69454145 1654.171366 2978.88670069 1660.45810938 2768.46586776 C1660.45019402 2764.71273528 1660.44572526 2760.95961095 1660.44196939 2757.20647216 C1660.40085977 2721.87315577 1660.16746256 2686.59253161 1658.35856485 2651.29878783 C1658.19514678 2648.06403054 1658.04225922 2644.82890974 1657.89176798 2641.5935266 C1653.36513364 2545.00930512 1643.15201377 2448.77789629 1561.20036173 2089.16725707 C1560.863715 2088.14978393 1560.52706827 2087.13231078 1560.18022013 2086.08400512 C1550.49895028 2056.86690184 1540.52801029 2027.79085338 1529.20036173 1999.16725707 C1528.70439493 1997.91392577 1528.70439493 1997.91392577 1528.1984086 1996.63527465 C1518.94895135 1973.30121937 1509.43693253 1950.0874406 1499.20036173 1927.16725707 C1498.90919474 1926.51422606 1498.61802774 1925.86119506 1498.31803751 1925.18837523 C1483.36628543 1891.68380963 1467.51747016 1858.51815524 1450.20036173 1826.16725707 C1449.48372355 1824.82485961 1449.48372355 1824.82485961 1448.75260782 1823.45534301 C1431.65872798 1791.52907536 1413.35163896 1760.1466622 1393.7975297 1729.66237426 C1391.95643196 1726.78618672 1390.12722963 1723.90258036 1388.29801798 1721.01881957 C1381.26209194 1709.94621384 1374.16639456 1698.9408501 1366.6280961 1688.2029016 C1365.03651434 1685.93364566 1363.45419162 1683.65807755 1361.87223673 1681.38210082 C1350.27442833 1664.72032439 1338.39976551 1648.31800566 1326.04801798 1632.20631957 C1323.17215883 1628.45174538 1320.33594715 1624.67083175 1317.52213907 1620.86964965 C1311.21359174 1612.35641087 1304.54496272 1604.17753324 1297.75895548 1596.04176879 C1295.65831434 1593.5153398 1293.5851761 1590.96694386 1291.51286173 1588.41725707 C1287.8231807 1583.8992803 1284.06368594 1579.44428517 1280.28336954 1575.00221801 C1277.39105206 1571.59723574 1274.56200018 1568.1497295 1271.76286173 1564.66725707 C1267.38585053 1559.2843977 1262.70482046 1554.22454365 1257.97379923 1549.15553832 C1255.83681858 1546.86367297 1253.74812825 1544.5396695 1251.70036173 1542.16725707 C1247.33154062 1537.12142737 1242.77140262 1532.24912631 1238.22833109 1527.36072326 C1236.69979887 1525.70745186 1235.17812814 1524.0478328 1233.65981913 1522.38516784 C1226.59587105 1514.66098364 1219.34350226 1507.16157008 1211.93473673 1499.76881957 C1210.80505488 1498.63846103 1209.67552124 1497.50795435 1208.54612589 1496.37730956 C1206.20494699 1494.03467387 1203.86201424 1491.69381139 1201.51774454 1489.35426879 C1198.5335422 1486.37579586 1195.55389904 1483.39280847 1192.57554102 1480.4084928 C1190.25405711 1478.08337644 1187.93017361 1475.76067009 1185.60558176 1473.43866134 C1184.50618016 1472.33991988 1183.40750153 1471.24045445 1182.30960703 1470.14020705 C1176.44640532 1464.26718222 1170.51110928 1458.5635836 1164.20036173 1453.16725707 C1162.89202971 1451.96204267 1161.59089253 1450.74881548 1160.30583048 1449.51881957 C1159.66613321 1448.91070434 1159.02643595 1448.3025891 1158.36735392 1447.67604613 C1157.71412149 1447.05439574 1157.06088907 1446.43274535 1156.38786173 1445.79225707 C1151.03315746 1440.73021381 1145.60529313 1435.92986711 1139.84098673 1431.33913207 C1136.8594039 1428.8868243 1134.02479378 1426.29635626 1131.20036173 1423.66725707 C1126.62116774 1419.41184447 1121.90749006 1415.39402086 1117.03629923 1411.47194457 C1113.94447983 1408.95930897 1110.91611939 1406.38063577 1107.88786173 1403.79225707 C1101.70355447 1398.52713936 1095.34802583 1393.50351683 1088.93571329 1388.52028441 C1087.2656777 1387.21818294 1085.60274573 1385.90765313 1083.94254923 1384.59303832 C1067.66582169 1371.71042941 1051.12746099 1359.18322693 1034.20036173 1347.16725707 C1033.06775919 1346.36070678 1033.06775919 1346.36070678 1031.91227579 1345.53786254 C990.44269712 1316.0570782 947.20592882 1288.87088905 902.5631547 1264.45973754 C900.92805673 1263.56531631 899.29435706 1262.66833586 897.66178751 1261.76930785 C871.13085763 1247.16543713 844.26001546 1233.21393481 816.6593461 1220.73708129 C813.13850466 1219.13918388 809.62983222 1217.51665902 806.12223673 1215.88991332 C721.8041315 1176.93422341 632.89631176 1147.97031949 259.20036173 1088.16725707 C258.14902048 1088.12595672 257.09767923 1088.08465636 256.01447916 1088.04210448 C235.13552436 1087.23772627 214.28096676 1086.96353329 193.38786173 1086.97975707 C192.61063005 1086.98002395 191.83339838 1086.98029082 191.03261423 1086.98056579 C97.69764212 1087.02055494 4.88349454 1095.57547409 -86.79963827 1113.16725707 Z " fill="#090909" transform="translate(2487.799638271332,-0.16725707054138184)"/>
<path d="M0 0 C5.41279036 0.00343925 10.82545083 -0.00601711 16.23821479 -0.02250177 C50.40645163 -0.12398033 84.50554813 0.21338933 118.64568549 1.68867987 C119.36644145 1.71956065 120.08719742 1.75044142 120.82979447 1.78225797 C222.2473917 6.14856547 323.44266929 17.74198265 638.54491645 96.57912177 C640.70213354 97.3182986 642.86094842 98.05262911 645.02019721 98.78584784 C686.21526006 112.79536385 726.64587224 128.81039128 766.4663642 146.33571357 C768.55296555 147.25396716 770.64067288 148.16965493 772.72869331 149.08467597 C814.22766794 167.29667414 855.51294285 186.75139592 895.08025581 208.87276191 C899.105261 211.09623445 903.16835788 213.24737389 907.22674018 215.40913886 C920.03005194 222.23700975 932.59422756 229.4114758 945.08904487 236.78633612 C950.58996451 240.0182814 956.13847981 243.16727817 961.68865424 246.31367987 C959.45545649 253.53784979 956.53900974 260.23161003 953.31365424 267.06367987 C952.22375673 269.39898507 951.13526337 271.73494601 950.04802924 274.07149237 C949.62908897 274.97071921 949.62908897 274.97071921 949.20168525 275.88811225 C946.26084709 282.21088779 943.40723062 288.57171648 940.56365424 294.93867987 C939.47776395 297.36838849 938.39182459 299.79807513 937.30584174 302.22774237 C937.02330543 302.86006781 936.74076911 303.49239325 936.44967109 304.14388007 C932.93435495 312.00763389 929.3957166 319.86089394 925.85888129 327.71498603 C920.2921993 340.07677705 914.73035525 352.44066625 909.18865424 364.81367987 C904.13778474 376.08976006 899.07230821 387.35921053 894.00115424 398.62617987 C893.62270362 399.46702124 893.244253 400.30786261 892.85433418 401.17418402 C889.74051686 408.09222748 886.62615309 415.01002489 883.51177436 421.92781562 C880.79965158 427.95215812 878.08773424 433.97659304 875.37615424 440.00117987 C874.99730079 440.84290747 874.61844733 441.68463507 874.22811347 442.55186957 C869.02833641 454.10542921 863.83897164 465.66357816 858.66008979 477.22652167 C853.62438737 488.46593298 848.56824729 499.69611972 843.51238471 510.92647284 C838.72914761 521.55167939 833.95156952 532.17934474 829.18865424 542.81367987 C823.64491667 555.19138552 818.07995994 567.55947615 812.51238471 579.92647284 C807.72914756 590.5516795 802.951616 601.17936549 798.18865424 611.81367987 C793.13778474 623.08976006 788.07230821 634.35921053 783.00115424 645.62617987 C782.62270362 646.46702124 782.244253 647.30786261 781.85433418 648.17418402 C778.74051686 655.09222748 775.62615309 662.01002489 772.51177436 668.92781562 C769.79965158 674.95215812 767.08773424 680.97659304 764.37615424 687.00117987 C763.99730079 687.84290747 763.61844733 688.68463507 763.22811347 689.55186957 C758.02833641 701.10542921 752.83897164 712.66357816 747.66008979 724.22652167 C742.62438737 735.46593298 737.56824729 746.69611972 732.51238471 757.92647284 C727.72914761 768.55167939 722.95156952 779.17934474 718.18865424 789.81367987 C712.64491667 802.19138552 707.07995994 814.55947615 701.51238471 826.92647284 C696.72914756 837.5516795 691.951616 848.17936549 687.18865424 858.81367987 C682.13778474 870.08976006 677.07230821 881.35921053 672.00115424 892.62617987 C671.62270362 893.46702124 671.244253 894.30786261 670.85433418 895.17418402 C667.74051686 902.09222748 664.62615309 909.01002489 661.51177436 915.92781562 C658.79965158 921.95215812 656.08773424 927.97659304 653.37615424 934.00117987 C652.99730079 934.84290747 652.61844733 935.68463507 652.22811347 936.55186957 C647.02833641 948.10542921 641.83897164 959.66357816 636.66008979 971.22652167 C631.62438737 982.46593298 626.56824729 993.69611972 621.51238471 1004.92647284 C616.72914756 1015.5516795 611.951616 1026.17936549 607.18865424 1036.81367987 C602.13778474 1048.08976006 597.07230821 1059.35921053 592.00115424 1070.62617987 C591.62270362 1071.46702124 591.244253 1072.30786261 590.85433418 1073.17418402 C587.74051686 1080.09222748 584.62615309 1087.01002489 581.51177436 1093.92781562 C578.79965158 1099.95215812 576.08773424 1105.97659304 573.37615424 1112.00117987 C572.99730079 1112.84290747 572.61844733 1113.68463507 572.22811347 1114.55186957 C567.02833641 1126.10542921 561.83897164 1137.66357816 556.66008979 1149.22652167 C551.62438737 1160.46593298 546.56824729 1171.69611972 541.51238471 1182.92647284 C536.72914761 1193.55167939 531.95156952 1204.17934474 527.18865424 1214.81367987 C521.64491667 1227.19138552 516.07995994 1239.55947615 510.51238471 1251.92647284 C505.72914734 1262.55168 500.9518272 1273.17945974 496.18865424 1283.81367987 C494.33874034 1287.94160922 492.48839337 1292.06934421 490.63768989 1296.19691962 C489.96064828 1297.70701544 489.2836969 1299.21715171 488.6068061 1300.72731513 C486.18723086 1306.12518261 483.76566088 1311.52214921 481.34197456 1316.91817206 C480.54009946 1318.70419587 479.73881659 1320.49048572 478.93816596 1322.27705878 C477.81362747 1324.78608171 476.68692497 1327.29412263 475.55974799 1329.80196112 C475.2279705 1330.54347922 474.896193 1331.28499732 474.55436164 1332.04898566 C472.38477679 1336.86833102 470.07844442 1341.59947776 467.68865424 1346.31367987 C462.15494797 1344.81642707 457.9252069 1342.10542839 453.18865424 1339.00117987 C442.52464369 1332.14350988 431.64933116 1325.68398783 420.68865424 1319.31367987 C419.81982612 1318.80836737 418.95099799 1318.30305487 418.05584174 1317.78242987 C396.60585096 1305.34013914 374.74756751 1293.6370491 352.68865424 1282.31367987 C351.58376655 1281.74423651 350.47887885 1281.17479316 349.34050971 1280.58809394 C329.44521139 1270.36701281 309.20377927 1261.08012656 288.68554145 1252.18092841 C286.85301595 1251.3850622 285.02244524 1250.58469889 283.19207221 1249.78389472 C197.1470908 1212.18606469 105.90065181 1186.40343239 -67.81134576 1164.56367987 C-68.68210747 1164.50442328 -69.55286919 1164.44516669 -70.45001763 1164.38411444 C-97.68835979 1162.5676199 -124.95827902 1162.10652085 -152.24884576 1162.12617987 C-152.99155347 1162.12629946 -153.73426118 1162.12641906 -154.49947518 1162.12654227 C-246.02605255 1162.14503653 -337.65715459 1167.23893746 -535.31134576 1211.31367987 C-535.94691399 1211.51308173 -536.58248223 1211.71248358 -537.23731011 1211.91792792 C-594.18474243 1229.81348759 -649.91760955 1253.85083707 -701.31134576 1284.31367987 C-702.4007647 1284.95772773 -703.49018365 1285.60177558 -704.61261529 1286.26534003 C-753.61071502 1315.30675376 -799.90333528 1349.0184232 -842.09650201 1387.31367987 C-844.08547077 1389.10971516 -846.0969777 1390.87321291 -848.12384576 1392.62617987 C-856.76380794 1400.17093558 -865.09438047 1408.00460286 -873.14679497 1416.17061347 C-875.7359837 1418.78383179 -878.35935554 1421.27335575 -881.18634576 1423.62617987 C-885.8705005 1427.60624455 -889.93249933 1432.17631367 -894.09235162 1436.68819159 C-897.40962412 1440.28469579 -900.76131559 1443.81739589 -904.24884576 1447.25117987 C-907.47319866 1450.43404295 -910.49188155 1453.72270546 -913.44025201 1457.16133612 C-915.64214404 1459.6942015 -917.91330401 1462.1570051 -920.18634576 1464.62617987 C-924.23655867 1469.06618772 -928.06668697 1473.63302269 -931.83868951 1478.30977362 C-934.72018209 1481.81035466 -937.69879138 1485.21625313 -940.68634576 1488.62617987 C-946.29779219 1495.05606364 -951.62894115 1501.65550843 -956.83966607 1508.41231269 C-958.42243566 1510.45720479 -960.018141 1512.49152307 -961.61603326 1514.52461737 C-1003.61945032 1568.05491059 -1040.15638223 1625.77335086 -1071.20587701 1686.29414862 C-1073.52936809 1690.81971816 -1075.92181982 1695.29435286 -1078.37384576 1699.75117987 C-1084.25848119 1710.73165918 -1089.30246685 1722.14079846 -1094.46960992 1733.47133368 C-1095.28541258 1735.25691872 -1096.10567988 1737.04046185 -1096.92609185 1738.82393378 C-1135.13219344 1821.93545031 -1163.2398961 1909.74786942 -1231.16351861 2370.28529853 C-1231.30531909 2373.19021782 -1231.45033526 2376.09496354 -1231.59552544 2378.99971503 C-1235.48960732 2458.17120361 -1235.61549775 2537.48331243 -1235.59247686 2616.72899648 C-1235.58940438 2627.32261664 -1235.59132496 2637.9162254 -1235.59721135 2648.50984435 C-1235.59761272 2649.23688829 -1235.59801409 2649.96393224 -1235.59842762 2650.71300782 C-1235.60049782 2654.42814557 -1235.60263658 2658.14328327 -1235.60479864 2661.85842097 C-1235.62026174 2688.67835082 -1235.62625105 2715.4982759 -1235.62713212 2742.31820983 C-1235.62805538 2769.42942361 -1235.63340602 2796.54063145 -1235.64396256 2823.65184325 C-1235.64429585 2824.51271173 -1235.64462914 2825.37358022 -1235.64497253 2826.26053562 C-1235.64802923 2834.1518029 -1235.65113383 2842.04307015 -1235.65429543 2849.93433738 C-1235.66221438 2869.70545794 -1235.66948494 2889.47657871 -1235.6763224 2909.24769968 C-1235.67679262 2910.60538457 -1235.67679262 2910.60538457 -1235.67727233 2911.99049745 C-1235.69260077 2956.41602512 -1235.70055756 3000.84155377 -1235.70800179 3045.26708335 C-1235.71062175 3060.8717569 -1235.7132771 3076.47643045 -1235.71606272 3092.08110398 C-1235.7162359 3093.05137462 -1235.71640908 3094.02164527 -1235.71658751 3095.02131805 C-1235.7246797 3140.11568026 -1235.73787012 3185.21004056 -1235.75233505 3230.30440113 C-1235.75328286 3233.25997981 -1235.75422829 3236.2155585 -1235.75517311 3239.17113719 C-1235.76087323 3256.99525474 -1235.76662604 3274.81937227 -1235.77243964 3292.64348978 C-1235.78688462 3336.93791025 -1235.80069837 3381.2323309 -1235.8140828 3425.5267517 C-1235.81438769 3426.53471192 -1235.81469258 3427.54267214 -1235.81500671 3428.58117661 C-1235.83471961 3493.7686784 -1235.85183614 3558.95618056 -1235.86675996 3624.14368361 C-1235.86699792 3625.18301361 -1235.86723588 3626.2223436 -1235.86748106 3627.29316845 C-1235.87471799 3658.92546618 -1235.88176173 3690.55776395 -1235.88876762 3722.19006173 C-1235.89652111 3757.194016 -1235.90430759 3792.19797027 -1235.91223687 3827.2019245 C-1235.91247522 3828.2546263 -1235.91271357 3829.30732809 -1235.91295915 3830.39192994 C-1235.93564368 3930.53169467 -1235.96365548 4030.67145769 -1235.99302897 4130.81122065 C-1235.99427403 4135.05718723 -1235.99551756 4139.30315381 -1235.99676102 4143.54912039 C-1236.00820446 4182.62387196 -1236.0197102 4221.69862351 -1236.03129414 4260.77337504 C-1236.03160219 4261.81248363 -1236.03191023 4262.85159222 -1236.03222761 4263.92218895 C-1236.03316031 4267.06833158 -1236.03409302 4270.21447421 -1236.03502574 4273.36061683 C-1236.06021767 4358.33644849 -1236.08486661 4443.3122803 -1236.10916334 4528.28811222 C-1236.11002058 4531.28576143 -1236.11087824 4534.28341065 -1236.11173602 4537.28105987 C-1236.13959173 4634.63291104 -1236.16648798 4731.98476241 -1236.20951605 4903.82600892 C-1236.21016972 4906.47451649 -1236.21082392 4909.12302407 -1236.21147832 4911.77153164 C-1236.21179959 4913.07195976 -1236.21179959 4913.07195976 -1236.21212735 4914.39865916 C-1236.21251717 4915.97652392 -1236.21290706 4917.55438868 -1236.21329706 4919.13225344 C-1236.24748162 5057.52606189 -1236.27907102 5195.91987097 -1236.31134576 5334.31367987 C-1635.94134576 5334.31367987 -2035.57134576 5334.31367987 -2447.31134576 5334.31367987 C-2447.31134576 3618.64367987 -2447.31134576 1902.97367987 -2447.31134576 135.31367987 C-2047.68134576 135.31367987 -1648.05134576 135.31367987 -1236.31134576 135.31367987 C-1235.98134576 289.42367987 -1235.65134576 443.53367987 -1235.31134576 602.31367987 C-1230.85634576 596.86867987 -1230.85634576 596.86867987 -1226.31134576 591.31367987 C-1224.62375307 589.39936075 -1222.92047248 587.4984489 -1221.18634576 585.62617987 C-1217.76744292 581.9070036 -1214.40244065 578.15378671 -1211.08868951 574.34102362 C-1208.25580293 571.10966509 -1205.36690709 567.92899906 -1202.48712701 564.73946112 C-1200.63691013 562.676652 -1198.81189767 560.59655617 -1196.99884576 558.50117987 C-1191.90008672 552.65397915 -1186.59153675 546.99641707 -1181.31134576 541.31367987 C-1180.71773247 540.67349921 -1180.12411919 540.03331855 -1179.51251763 539.37373847 C-1177.67625533 537.39386605 -1175.83788434 535.41597348 -1173.99884576 533.43867987 C-1173.43673394 532.83273993 -1172.87462212 532.22679999 -1172.29547662 531.60249823 C-1169.52723086 528.63230367 -1166.72408848 525.71724154 -1163.83087701 522.86836737 C-1161.59656398 520.65381865 -1159.50132136 518.39354863 -1157.47784966 515.9862873 C-1151.69400416 509.34340214 -1145.35792958 503.21671285 -1139.12775201 496.99727362 C-1137.74430036 495.61314706 -1136.36099708 494.22887219 -1134.9778344 492.84445685 C-1132.08891714 489.95407146 -1129.198215 487.06548648 -1126.3062188 484.17818183 C-1122.61677968 480.49443942 -1118.931849 476.80622499 -1115.24825162 473.11664218 C-1112.39575594 470.26051695 -1109.54086299 467.40679749 -1106.68526047 464.55377883 C-1105.32628655 463.19546755 -1103.96804276 461.83642534 -1102.61057252 460.47661132 C-1089.79871302 447.64748391 -1089.79871302 447.64748391 -1083.82048577 442.60263556 C-1081.51796944 440.63605758 -1079.4224634 438.48185475 -1077.31134576 436.31367987 C-1073.8338191 432.74216601 -1070.20213252 429.44955176 -1066.43927544 426.18770331 C-1062.85270991 423.02908961 -1059.4013558 419.72934979 -1055.93634576 416.43867987 C-1049.80296034 410.64009639 -1043.61630663 404.92542515 -1037.31134576 399.31367987 C-1035.72799506 397.876199 -1034.14466234 396.43869832 -1032.56134576 395.00117987 C-1027.96549869 390.85986713 -1023.27093963 386.84290411 -1018.56110162 382.83272284 C-1014.8510421 379.66361914 -1011.21526886 376.43028913 -1007.62384576 373.12617987 C-1003.31740539 369.17704242 -998.87268396 365.46318857 -994.32697076 361.79414862 C-990.76463594 358.86398981 -987.28680322 355.84587036 -983.81134576 352.81367987 C-978.70840576 348.36786916 -973.55843261 344.00104137 -968.29962701 339.73946112 C-965.28805018 337.29476935 -962.29366649 334.83034001 -959.30206841 332.3612873 C-934.68008696 312.04166732 -934.68008696 312.04166732 -922.76447076 302.95821112 C-920.2184032 301.01582723 -917.69109876 299.05100142 -915.17072076 297.07539862 C-905.86235595 289.78179136 -896.44275132 282.67029763 -886.90118951 275.68477362 C-882.65663153 272.575646 -878.44900084 269.41989254 -874.24884576 266.25117987 C-868.64100238 262.03160426 -862.99507661 257.86800124 -857.31134576 253.75117987 C-856.64868706 253.26963446 -855.98602837 252.78808905 -855.30328912 252.29195136 C-841.66395658 242.45185774 -827.65339693 233.11570264 -813.72150201 223.69795722 C-811.86718683 222.44343368 -810.01399225 221.18725218 -808.16193169 219.92940253 C-796.6651654 212.1220789 -785.06993936 204.57916752 -773.15479058 197.42598456 C-770.71104117 195.95146583 -768.29051113 194.44147804 -765.87384576 192.92305487 C-752.223787 184.36008312 -738.32876815 176.25912348 -724.31134576 168.31367987 C-723.21515923 167.69202948 -722.11897271 167.07037909 -720.98956841 166.42989081 C-704.2725588 156.97932624 -687.34191579 147.98339901 -670.22400445 139.28627509 C-668.27597877 138.29569561 -666.3294433 137.30223452 -664.3831231 136.30830878 C-624.83518771 116.13354095 -584.04403268 98.47539659 -542.31134576 83.31367987 C-541.62508111 83.06422614 -540.93881646 82.8147724 -540.23175591 82.55775946 C-474.22743383 58.61380544 -406.40633717 39.91860125 -337.31134576 27.31367987 C-336.34487115 27.13727973 -335.37839654 26.96087958 -334.38263482 26.77913398 C-274.06701547 15.83053786 -213.1851908 8.76142455 -152.04962701 4.41524237 C-151.19765237 4.35412268 -150.34567773 4.29300299 -149.46788567 4.23003119 C-99.67417969 0.79511549 -49.8899992 -0.04254927 0 0 Z " fill="#FFFFFF" transform="translate(9172.311345756054,-0.31367987394332886)"/>
</svg>
