<?xml version="1.0" encoding="UTF-8"?>
<svg version="1.1" xmlns="http://www.w3.org/2000/svg" width="1200" height="630">
<path d="M0 0 C396 0 792 0 1200 0 C1200 207.9 1200 415.8 1200 630 C804 630 408 630 0 630 C0 422.1 0 214.2 0 0 Z " fill="#DCE0EB" transform="translate(0,0)"/>
<path d="M0 0 C-2.94952958 1.49997444 -5.91489173 2.80023567 -9 4 C-7.73653188 8.83866637 -6.18266609 11.22515013 -2.375 14.4375 C-1.48296875 15.20578125 -0.5909375 15.9740625 0.328125 16.765625 C1.20984375 17.50296875 2.0915625 18.2403125 3 19 C14.55310132 28.6668807 14.55310132 28.6668807 15.375 34.796875 C15.63805772 41.40620022 15.13379812 45.77836027 11 51 C8.10967404 53.27536299 5.64693855 54.7699774 2.1875 56 C-0.20168101 56.7832089 -0.20168101 56.7832089 -0.8125 59.125 C-0.874375 59.74375 -0.93625 60.3625 -1 61 C-1 60.34 -1 59.68 -1 59 C-2.32 59.66 -3.64 60.32 -5 61 C-4.67 62.32 -4.34 63.64 -4 65 C-2.35 65 -0.7 65 1 65 C1.99 63.02 2.98 61.04 4 59 C7 62.625 7 62.625 7 66 C7.66 66 8.32 66 9 66 C9 63.36 9 60.72 9 58 C9.99 58.33 10.98 58.66 12 59 C11.67 61.31 11.34 63.62 11 66 C12.32 65.67 13.64 65.34 15 65 C15 65.66 15 66.32 15 67 C13.56344146 67.08131463 12.1255517 67.13933559 10.6875 67.1875 C9.48673828 67.23970703 9.48673828 67.23970703 8.26171875 67.29296875 C5.52148416 66.93801608 4.70828921 66.10633718 3 64 C3 64.99 3 65.98 3 67 C-4.50769231 67.36923077 -4.50769231 67.36923077 -7 65.5 C-7.33 65.005 -7.66 64.51 -8 64 C-8.33 64.99 -8.66 65.98 -9 67 C-9.9590625 66.7215625 -9.9590625 66.7215625 -10.9375 66.4375 C-11.9584375 66.2209375 -11.9584375 66.2209375 -13 66 C-13.33 66.33 -13.66 66.66 -14 67 C-15.99958364 67.04080783 -18.00045254 67.04254356 -20 67 C-20 66.34 -20 65.68 -20 65 C-20.78117187 65.49113281 -20.78117187 65.49113281 -21.578125 65.9921875 C-24.74712009 67.31089836 -27.3298619 67.19340276 -30.75 67.125 C-31.92046875 67.10695313 -33.0909375 67.08890625 -34.296875 67.0703125 C-35.18890625 67.04710937 -36.0809375 67.02390625 -37 67 C-37.33 66.01 -37.66 65.02 -38 64 C-38.66 64.99 -39.32 65.98 -40 67 C-42.5 67.3125 -42.5 67.3125 -45 67 C-47.35953094 64.64046906 -47.49141413 63.22104383 -48 60 C-48.33 62.31 -48.66 64.62 -49 67 C-49.66 67 -50.32 67 -51 67 C-51 65.68 -51 64.36 -51 63 C-52.32 63 -53.64 63 -55 63 C-55 64.32 -55 65.64 -55 67 C-55.66 67 -56.32 67 -57 67 C-57.495 63.535 -57.495 63.535 -58 60 C-59.485 59.505 -59.485 59.505 -61 59 C-60.505 62.96 -60.505 62.96 -60 67 C-60.99 67 -61.98 67 -63 67 C-63 64.36 -63 61.72 -63 59 C-63.76183594 58.82984375 -64.52367187 58.6596875 -65.30859375 58.484375 C-76.79829497 55.7876661 -87.76227446 52.49174312 -94.375 42.125 C-96.70199728 37.99086653 -97.7947121 34.72162159 -98 30 C-86.5295344 32.8895066 -86.5295344 32.8895066 -82.71875 39.08203125 C-79.31545828 44.53996984 -76.28413824 48.87463292 -70 51 C-63.23513752 51.94826608 -56.57418814 51.90209525 -50.58203125 48.33203125 C-45.91247901 44.40038356 -43.4711721 37.87236027 -42.74755859 31.92529297 C-42.58327826 29.65862142 -42.46736776 27.39570742 -42.375 25.125 C-42.33632812 24.34125 -42.29765625 23.5575 -42.2578125 22.75 C-42.16433378 20.83368633 -42.08111505 18.91687681 -42 17 C-54.36859732 21.44835518 -62.75785218 31.94579395 -69 43 C-69.66 43.99 -70.32 44.98 -71 46 C-71.51046875 45.34773438 -72.0209375 44.69546875 -72.546875 44.0234375 C-82.29344239 32.30681925 -95.11467766 27.53083789 -110 26 C-112.59220153 25.86160224 -115.18639002 25.75683577 -117.78125 25.68359375 C-118.48020386 25.66281265 -119.17915771 25.64203156 -119.89929199 25.62062073 C-122.09944259 25.55601465 -124.29969696 25.49666091 -126.5 25.4375 C-128.00521842 25.39422983 -129.51042693 25.35061307 -131.015625 25.30664062 C-134.67697744 25.20042681 -138.33844234 25.09891804 -142 25 C-136.29006527 19.29006527 -122.6482586 19.67571227 -114.9375 19.625 C-100.48384711 19.76571707 -86.85819989 23.34074134 -74 30 C-73.50113281 29.443125 -73.00226563 28.88625 -72.48828125 28.3125 C-54.9008681 9.61995317 -25.58412797 -1.01883695 0 0 Z " fill="#D9DDE6" transform="translate(1134,61)"/>
<path d="M0 0 C2 2 2 2 2.3125 4.9375 C2 8 2 8 0.8125 9.9375 C-1 11 -1 11 -3.5625 10.8125 C-6 10 -6 10 -8 8 C-10.0745356 7.8509288 -10.0745356 7.8509288 -12 9 C-13.68304356 11.71511048 -13.68304356 11.71511048 -14 15 C-12.28232418 17.79311693 -12.28232418 17.79311693 -10 20 C-7.55757564 24.88484872 -8.26902674 32.26545545 -9.6484375 37.42578125 C-12.84739476 44.46622137 -18.92040699 49.18744886 -26 52 C-29.55939281 52.44257192 -33.10354986 52.51077288 -36.6875 52.5625 C-38.56658187 52.59694346 -40.4455367 52.63955303 -42.32421875 52.69140625 C-43.15010498 52.70373291 -43.97599121 52.71605957 -44.8269043 52.72875977 C-47.29260564 52.87196672 -47.29260564 52.87196672 -50 55 C-50.25030977 57.58380177 -50.25030977 57.58380177 -50 60 C-42.90761893 63.70168121 -35.94368106 63.7141352 -28.06835938 64.08398438 C-19.77823342 64.60310042 -12.50273299 66.08105585 -6 71.5 C-2.30444344 76.1194457 -1.39618164 78.96181636 -2 85 C-4.19673847 91.56525248 -7.94677718 95.92908592 -14.09960938 99.07275391 C-20.77202017 101.97027442 -26.63650753 102.70100676 -33.875 102.625 C-34.92840576 102.61952148 -35.98181152 102.61404297 -37.06713867 102.60839844 C-45.12723281 102.39138391 -51.58930202 101.26377461 -58 96 C-60.85738985 92.67175359 -61.89604752 90.1018963 -62.3125 85.6875 C-61.75466688 79.10506914 -57.63707495 75.37945967 -53 71 C-53.804375 70.38125 -54.60875 69.7625 -55.4375 69.125 C-58.57417733 66.52385294 -58.88651797 65.82679764 -59.4375 61.8125 C-58.86250601 56.80183809 -56.7505749 54.26024745 -53 51 C-50.796875 49.80078125 -50.796875 49.80078125 -49 49 C-49.47050781 48.63648438 -49.94101562 48.27296875 -50.42578125 47.8984375 C-55.45968055 43.83379832 -58.56727335 40.71950436 -59.34765625 34.01171875 C-59.67928723 26.63930696 -59.03207503 21.53781121 -54 16 C-48.26865421 10.16202452 -43.09434356 6.86539772 -34.75 6.5625 C-28.48207072 6.68483616 -23.56187817 8.18767334 -18 11 C-17.73316406 10.24332031 -17.46632813 9.48664063 -17.19140625 8.70703125 C-13.95879073 1.36210484 -7.81882599 -1.65612607 0 0 Z " fill="#050505" transform="translate(858,300)"/>
<path d="M0 0 C7.71348729 3.92376447 12.45045277 10.11361066 15.5859375 18.08984375 C18.24742083 27.59849126 17.01317885 37.56518959 12.47265625 46.2578125 C7.79719634 53.84507783 2.39145594 58.30885413 -5.83984375 61.5703125 C-14.52706336 63.18996361 -21.8946787 63.00547021 -29.52734375 58.2578125 C-36.84134569 53.0335254 -42.43683792 46.41947741 -44.2421875 37.4453125 C-45.6613765 26.55838316 -43.80926539 17.48770546 -37.40234375 8.4453125 C-27.7125952 -3.23691681 -13.73842503 -5.65351016 0 0 Z " fill="#DADEE9" transform="translate(678.52734375,309.7421875)"/>
<path d="M0 0 C7.36362623 5.09702765 11.18104745 10.54314236 14 19 C14.85262295 31.60898171 13.36444267 42.16943031 5 52 C-2.76614493 59.23910116 -10.66966413 60.66945835 -21.015625 60.3671875 C-28.91025509 59.842615 -34.10392018 56.26721374 -39.4375 50.625 C-44.74162685 44.53466646 -46.52924425 38.51007219 -46.375 30.625 C-46.36484863 29.87549072 -46.35469727 29.12598145 -46.34423828 28.35375977 C-46.04972409 17.84142949 -42.61940911 10.83046672 -35.3359375 3.2734375 C-25.21064932 -6.11210359 -11.9932737 -6.306655 0 0 Z " fill="#DADEE9" transform="translate(776,311)"/>
<path d="M0 0 C8.94537811 6.62229509 15.3988217 17.78461184 17.31640625 28.71484375 C18.37729825 42.98866342 15.29231484 56.89472944 6.27734375 68.29296875 C-0.49561918 75.52065358 -9.67381185 81.10295008 -19.7265625 81.98046875 C-33.48593053 81.91209922 -45.12136706 80.2332864 -55.49609375 70.52734375 C-65.57596783 59.84196487 -68.09668562 46.56713658 -67.9609375 32.34375 C-67.09194242 20.97337775 -61.69503878 10.19753438 -53.43359375 2.40234375 C-37.88898065 -10.59095383 -16.81411915 -10.76208879 0 0 Z M-41.68359375 1.71484375 C-42.28429687 2.16601562 -42.885 2.6171875 -43.50390625 3.08203125 C-49.79763758 8.55839488 -54.29254973 17.49361729 -55.68359375 25.71484375 C-56.09209638 33.87539627 -56.16331645 41.86708497 -53.68359375 49.71484375 C-53.41546875 50.60816406 -53.14734375 51.50148438 -52.87109375 52.421875 C-49.39149967 63.02013862 -44.3271561 69.14086471 -34.68359375 74.71484375 C-29.31305786 77.40011169 -19.92907924 76.44929612 -14.12890625 75.13671875 C-6.6325861 71.82509137 -0.70137911 64.1452295 2.57421875 56.796875 C7.54604537 42.84959295 6.03224738 28.17898826 -0.00390625 14.78515625 C-4.35254747 6.96710727 -10.38315764 1.16830987 -18.68359375 -2.28515625 C-26.83584138 -3.27088554 -34.9691173 -3.45251831 -41.68359375 1.71484375 Z " fill="#060607" transform="translate(341.68359375,290.28515625)"/>
<path d="M0 0 C0.33 11.88 0.66 23.76 1 36 C3.97 34.35 6.94 32.7 10 31 C15.10927571 28.44536214 23.8574695 29.28037605 29.37109375 30.54296875 C34.76046136 33.09961753 37.02497139 38.70333237 39 44 C40.20668429 48.60085014 40.12790097 53.08121865 40.09765625 57.80078125 C40.0962413 58.63715622 40.09482635 59.47353119 40.09336853 60.33525085 C40.08779184 62.994371 40.07524365 65.6534055 40.0625 68.3125 C40.05748199 70.12044149 40.05291961 71.9283843 40.04882812 73.73632812 C40.03783004 78.15758484 40.0205815 82.57877793 40 87 C42.31 87 44.62 87 47 87 C47 88.65 47 90.3 47 92 C38.75 92 30.5 92 22 92 C22 90.68 22 89.36 22 88 C22.804375 87.71125 23.60875 87.4225 24.4375 87.125 C27.1326468 86.26737432 27.1326468 86.26737432 28 84 C28.13555655 81.32215051 28.21270631 78.67161128 28.23828125 75.9921875 C28.246353 75.19273712 28.25442474 74.39328674 28.26274109 73.5696106 C28.27658609 71.87325205 28.28730639 70.17686559 28.29516602 68.48046875 C28.31229577 65.90569803 28.35616582 63.33223963 28.40039062 60.7578125 C28.41052525 59.10678025 28.41903894 57.45573709 28.42578125 55.8046875 C28.44328934 55.04292206 28.46079742 54.28115662 28.47883606 53.49630737 C28.45683251 47.97799843 27.21027621 43.55445165 24 39 C19.52164654 36.01443103 15.25234524 36.39258592 10 37 C6.74140416 38.14128317 3.4824533 39.5175467 1 42 C0.87790076 43.41117702 0.82229128 44.82820459 0.79467773 46.24438477 C0.77473251 47.14524307 0.75478729 48.04610138 0.73423767 48.97425842 C0.70916893 50.4429966 0.70916893 50.4429966 0.68359375 51.94140625 C0.66281265 52.93881332 0.64203156 53.9362204 0.62062073 54.96385193 C0.55501363 58.16332843 0.49618866 61.36288982 0.4375 64.5625 C0.39432538 66.72592039 0.35071145 68.88933206 0.30664062 71.05273438 C0.19932097 76.36839874 0.09757573 81.68414834 0 87 C2.31 87 4.62 87 7 87 C7 88.65 7 90.3 7 92 C-1.25 92 -9.5 92 -18 92 C-18 90.68 -18 89.36 -18 88 C-17.195625 87.71125 -16.39125 87.4225 -15.5625 87.125 C-12.8673532 86.26737432 -12.8673532 86.26737432 -12 84 C-11.87802512 81.59026385 -11.81440406 79.20745118 -11.79467773 76.79638672 C-11.77982834 75.6840416 -11.77982834 75.6840416 -11.76467896 74.54922485 C-11.73303637 72.09274512 -11.70829569 69.63624603 -11.68359375 67.1796875 C-11.6630266 65.478602 -11.64203019 63.77752164 -11.62062073 62.07644653 C-11.56537536 57.59499264 -11.51597697 53.11349244 -11.46777344 48.63195801 C-11.4175764 44.06058623 -11.36188096 39.48928187 -11.30664062 34.91796875 C-11.19902891 25.94537006 -11.09759064 16.97271289 -11 8 C-13.64 8 -16.28 8 -19 8 C-19 6.35 -19 4.7 -19 3 C-18.25234375 2.95101563 -17.5046875 2.90203125 -16.734375 2.8515625 C-15.74953125 2.77679688 -14.7646875 2.70203125 -13.75 2.625 C-12.28820312 2.52058594 -12.28820312 2.52058594 -10.796875 2.4140625 C-6.63812237 1.79838125 -4.35153886 0 0 0 Z " fill="#090A0A" transform="translate(583,278)"/>
<path d="M0 0 C6.07803421 3.69449138 9.34795125 8.06866441 11.1875 14.9375 C11.45008407 18.19833185 11.42083127 21.44136011 11.3828125 24.7109375 C11.3799826 25.6346817 11.37715271 26.5584259 11.37423706 27.51016235 C11.36309179 30.44440976 11.33799765 33.3783457 11.3125 36.3125 C11.30246289 38.30858932 11.29333832 40.30468346 11.28515625 42.30078125 C11.26317097 47.17980649 11.22868017 52.05860054 11.1875 56.9375 C13.8275 56.9375 16.4675 56.9375 19.1875 56.9375 C18.8575 58.5875 18.5275 60.2375 18.1875 61.9375 C10.2675 61.9375 2.3475 61.9375 -5.8125 61.9375 C-5.8125 60.6175 -5.8125 59.2975 -5.8125 57.9375 C-4.17618108 56.88857762 -2.50764137 55.88843297 -0.8125 54.9375 C0.38639078 51.34082766 0.38760214 48.0166799 0.42578125 44.26953125 C0.433853 43.51588791 0.44192474 42.76224457 0.45024109 41.98576355 C0.464065 40.38953946 0.47479473 38.79328602 0.48266602 37.19702148 C0.49415922 35.57453675 0.51456894 33.95208903 0.54418945 32.32983398 C0.99024483 20.00351909 0.99024483 20.00351909 -3.8125 8.9375 C-6.71363998 6.42840596 -8.37358769 5.98626803 -12.1875 5.5625 C-16.28186195 5.98605468 -19.15364096 7.07355294 -22.8125 8.9375 C-23.88612793 9.42536987 -23.88612793 9.42536987 -24.98144531 9.9230957 C-28.07695642 13.32857066 -27.41612093 17.42056837 -27.421875 21.85546875 C-27.43841125 22.82784988 -27.45494751 23.80023102 -27.47198486 24.80207825 C-27.52059466 27.90978224 -27.54186476 31.01699647 -27.5625 34.125 C-27.59064879 36.23114461 -27.62057468 38.33726627 -27.65234375 40.44335938 C-27.72635725 45.60803262 -27.77585263 50.77243189 -27.8125 55.9375 C-25.8325 55.9375 -23.8525 55.9375 -21.8125 55.9375 C-21.8125 57.5875 -21.8125 59.2375 -21.8125 60.9375 C-29.7325 60.9375 -37.6525 60.9375 -45.8125 60.9375 C-45.8125 59.9475 -45.8125 58.9575 -45.8125 57.9375 C-44.15717377 56.91883771 -42.48989862 55.91939187 -40.8125 54.9375 C-39.89193285 52.17579856 -39.66449851 50.41571145 -39.60717773 47.55786133 C-39.58723251 46.67717484 -39.56728729 45.79648834 -39.54673767 44.88911438 C-39.53002518 43.94215195 -39.51331268 42.99518951 -39.49609375 42.01953125 C-39.47531265 41.04715012 -39.45453156 40.07476898 -39.43312073 39.07292175 C-39.36771252 35.96535335 -39.30878071 32.85770015 -39.25 29.75 C-39.20680649 27.64387142 -39.16319193 25.53775144 -39.11914062 23.43164062 C-39.01204001 18.26701409 -38.91074781 13.10230222 -38.8125 7.9375 C-41.4525 7.9375 -44.0925 7.9375 -46.8125 7.9375 C-46.8125 6.2875 -46.8125 4.6375 -46.8125 2.9375 C-44.9375 2.625 -43.0625 2.3125 -41.1875 2 C-40.14335937 1.82597656 -39.09921875 1.65195312 -38.0234375 1.47265625 C-34.953125 0.9609375 -31.8828125 0.44921875 -28.8125 -0.0625 C-28.8125 1.9175 -28.8125 3.8975 -28.8125 5.9375 C-27.92949219 5.4321875 -27.04648437 4.926875 -26.13671875 4.40625 C-17.09217672 -0.5699575 -10.31657428 -2.87511087 0 0 Z " fill="#070707" transform="translate(464.8125,308.0625)"/>
<path d="M0 0 C7.71348729 3.92376447 12.45045277 10.11361066 15.5859375 18.08984375 C18.24742083 27.59849126 17.01317885 37.56518959 12.47265625 46.2578125 C7.79719634 53.84507783 2.39145594 58.30885413 -5.83984375 61.5703125 C-14.52706336 63.18996361 -21.8946787 63.00547021 -29.52734375 58.2578125 C-36.84134569 53.0335254 -42.43683792 46.41947741 -44.2421875 37.4453125 C-45.6613765 26.55838316 -43.80926539 17.48770546 -37.40234375 8.4453125 C-27.7125952 -3.23691681 -13.73842503 -5.65351016 0 0 Z M-26.08984375 6.3359375 C-33.03730961 15.62439729 -32.65577927 27.12601407 -31.52734375 38.2578125 C-30.0964876 44.98605181 -26.71195626 50.69535349 -21.52734375 55.2578125 C-17.18360676 57.80591018 -13.43071839 57.94294152 -8.5078125 56.78125 C-3.96549577 55.06159663 -1.52663048 52.44266544 0.97265625 48.3203125 C5.44459015 38.3867544 5.55016222 24.61176968 1.84765625 14.3828125 C-0.72507438 9.28312936 -3.97033266 4.11014953 -9.52734375 2.2578125 C-16.0914173 1.43207713 -21.3278863 1.34503979 -26.08984375 6.3359375 Z " fill="#080909" transform="translate(678.52734375,309.7421875)"/>
<path d="M0 0 C7.36362623 5.09702765 11.18104745 10.54314236 14 19 C14.85262295 31.60898171 13.36444267 42.16943031 5 52 C-2.76614493 59.23910116 -10.66966413 60.66945835 -21.015625 60.3671875 C-28.91025509 59.842615 -34.10392018 56.26721374 -39.4375 50.625 C-44.74162685 44.53466646 -46.52924425 38.51007219 -46.375 30.625 C-46.36484863 29.87549072 -46.35469727 29.12598145 -46.34423828 28.35375977 C-46.04972409 17.84142949 -42.61940911 10.83046672 -35.3359375 3.2734375 C-25.21064932 -6.11210359 -11.9932737 -6.306655 0 0 Z M-27.5625 5 C-34.37983427 13.39056525 -34.98850409 22.57231669 -34.23632812 32.99804688 C-33.38919726 40.17415547 -30.20547349 48.64613489 -24.4375 53.24609375 C-20.28895423 55.92227618 -16.99087707 56.63520254 -12 56 C-7.05318081 54.21914509 -3.69730167 51.49550278 -1 47 C3.61603758 37.14014372 3.65842912 24.47637083 0.046875 14.2890625 C-3.34640224 6.83306241 -3.34640224 6.83306241 -9.4453125 1.765625 C-16.17933291 -0.25252179 -22.00754079 0.66442208 -27.5625 5 Z " fill="#060606" transform="translate(776,311)"/>
<path d="M0 0 C8.25 0 16.5 0 25 0 C25 1.32 25 2.64 25 4 C23.35 4.66 21.7 5.32 20 6 C19.82783364 15.54740736 23.9770999 23.28360286 28.0625 31.625 C28.73382523 33.02406707 29.40375897 34.42380271 30.07226562 35.82421875 C31.69890416 39.22406621 33.34410282 42.61431294 35 46 C38.33269357 37.92729285 41.27926501 29.73359335 44.1875 21.5 C45.07527196 18.98902744 45.96495185 16.47875265 46.85546875 13.96875 C47.24371826 12.86982422 47.63196777 11.77089844 48.03198242 10.63867188 C49 8 49 8 50 6 C47.69 5.67 45.38 5.34 43 5 C43 3.35 43 1.7 43 0 C49.27 0 55.54 0 62 0 C61 5 61 5 58.75 7.0625 C49.87886871 15.38007019 46.67713197 33.98365954 42.73754883 45.20605469 C39.23874148 55.15829803 35.66984331 65.07894967 31.83203125 74.90625 C31.52214767 75.71839966 31.2122641 76.53054932 30.89299011 77.36730957 C28.45079884 83.519058 25.73913397 89.19333717 20.0625 92.9375 C16.63821159 94.12551843 14.58624789 94.59770798 11 94 C8.23627796 92.60886475 7.13047738 91.44225456 5 89 C4.9375 85.3125 4.9375 85.3125 6 82 C9 80 9 80 11.5625 80.0625 C14 81 14 81 15.3125 83.5625 C15.539375 84.366875 15.76625 85.17125 16 86 C17.93127193 85.83140428 17.93127193 85.83140428 20 85 C22.16871639 81.93605766 23.52292358 78.44186676 25 75 C25.40992188 74.05511719 25.81984375 73.11023438 26.2421875 72.13671875 C29.07166065 65.08254948 29.45240832 60.59203398 26.51293945 53.32226562 C25.88909656 52.01242 25.2553781 50.70724468 24.61328125 49.40625 C24.27378952 48.69706421 23.93429779 47.98787842 23.58451843 47.25720215 C22.50277653 45.00036951 21.40863512 42.74987239 20.3125 40.5 C6 10.96164291 6 10.96164291 6 5 C4.02 5 2.04 5 0 5 C0 3.35 0 1.7 0 0 Z " fill="#080808" transform="translate(863,309)"/>
<path d="M0 0 C3.6002994 2.43263473 3.6002994 2.43263473 4.55078125 5.25390625 C4.63714844 5.85074219 4.72351562 6.44757813 4.8125 7.0625 C3.8225 7.0625 2.8325 7.0625 1.8125 7.0625 C2.3075 8.5475 2.3075 8.5475 2.8125 10.0625 C1.71292969 10.5471875 0.61335938 11.031875 -0.51953125 11.53125 C-12.66684095 16.99382333 -23.09604256 23.1332632 -32.1875 33.0625 C-33.07050781 32.66417969 -33.95351562 32.26585937 -34.86328125 31.85546875 C-42.20631985 28.61380509 -49.34029273 25.88817679 -57.1875 24.0625 C-56.1975 23.7325 -55.2075 23.4025 -54.1875 23.0625 C-54.1875 22.4025 -54.1875 21.7425 -54.1875 21.0625 C-54.8475 21.0625 -55.5075 21.0625 -56.1875 21.0625 C-55.68792744 13.06933912 -52.24379074 7.73634045 -46.4375 2.3125 C-33.34788536 -8.54593033 -14.30841914 -8.94276196 0 0 Z " fill="#DADEE8" transform="translate(1092.1875,58.9375)"/>
<path d="M0 0 C1.32 0 2.64 0 4 0 C4 5.61 4 11.22 4 17 C10.93 17 17.86 17 25 17 C25 18.65 25 20.3 25 22 C18.07 22 11.14 22 4 22 C4.07417648 27.71158878 4.1571655 33.42166221 4.26245117 39.13256836 C4.29560159 41.07324235 4.323664 43.01401046 4.34643555 44.95483398 C4.38016384 47.75284747 4.43248819 50.5500061 4.48828125 53.34765625 C4.49467117 54.2083522 4.5010611 55.06904816 4.50764465 55.95582581 C4.63777628 61.34882357 5.39246878 65.24061143 8 70 C10.87002722 72.35726507 10.87002722 72.35726507 14.375 71.75 C17.52338995 71.09860898 20.16428088 70.50126307 23 69 C23.495 67.515 23.495 67.515 24 66 C25.32 66.33 26.64 66.66 28 67 C27.45123677 70.76651128 25.99236151 72.26652261 23.125 74.6875 C22.07699219 75.59048828 22.07699219 75.59048828 21.0078125 76.51171875 C15.88767769 80.30699377 9.06304864 79.6413557 3 79 C-1.16571922 77.32745982 -2.77239133 74.49387366 -4.63012695 70.46289062 C-6.40063128 65.505902 -6.38061893 60.80818036 -6.29296875 55.59375 C-6.28872391 54.6284436 -6.28447906 53.66313721 -6.28010559 52.6685791 C-6.26343097 49.6120917 -6.22579992 46.55628515 -6.1875 43.5 C-6.17243866 41.41667625 -6.1587528 39.33334207 -6.14648438 37.25 C-6.11356424 32.16640785 -6.06186016 27.08331901 -6 22 C-8.97 22 -11.94 22 -15 22 C-15 20.35 -15 18.7 -15 17 C-13.783125 16.505 -12.56625 16.01 -11.3125 15.5 C-4.97960161 12.35036381 -2.23466391 6.50084048 0 0 Z " fill="#030303" transform="translate(533,292)"/>
<path d="M0 0 C2.125 1.9375 2.125 1.9375 3.125 5.375 C3.125 8.9375 3.125 8.9375 1.6875 11.375 C1.171875 11.890625 0.65625 12.40625 0.125 12.9375 C-2.185 12.6075 -4.495 12.2775 -6.875 11.9375 C-7.37 8.9675 -7.37 8.9675 -7.875 5.9375 C-13.53492887 7.76018896 -16.92360105 9.30871838 -20.875 13.9375 C-21.40456299 14.46633789 -21.93412598 14.99517578 -22.47973633 15.54003906 C-24.60567768 19.19301265 -24.35480471 22.70184836 -24.38671875 26.859375 C-24.40466995 27.71936096 -24.42262115 28.57934692 -24.44111633 29.46539307 C-24.49520038 32.20604584 -24.52910863 34.94652465 -24.5625 37.6875 C-24.59567479 39.54820128 -24.6301646 41.40887961 -24.66601562 43.26953125 C-24.75092569 47.82539528 -24.81774584 52.38120788 -24.875 56.9375 C-22.565 56.9375 -20.255 56.9375 -17.875 56.9375 C-17.875 58.5875 -17.875 60.2375 -17.875 61.9375 C-26.125 61.9375 -34.375 61.9375 -42.875 61.9375 C-42.875 60.9475 -42.875 59.9575 -42.875 58.9375 C-41.21967377 57.91883771 -39.55239862 56.91939187 -37.875 55.9375 C-36.94576023 53.14978069 -36.72632662 51.35515752 -36.66967773 48.46606445 C-36.64973251 47.56535721 -36.62978729 46.66464996 -36.60923767 45.73664856 C-36.58416893 44.28339424 -36.58416893 44.28339424 -36.55859375 42.80078125 C-36.53781265 41.80620407 -36.51703156 40.81162689 -36.49562073 39.78691101 C-36.43020588 36.60801133 -36.3712776 33.42902866 -36.3125 30.25 C-36.26930712 28.09569452 -36.22569258 25.94139746 -36.18164062 23.78710938 C-36.07453274 18.50399412 -35.97275127 13.22079621 -35.875 7.9375 C-38.515 7.9375 -41.155 7.9375 -43.875 7.9375 C-43.875 6.2875 -43.875 4.6375 -43.875 2.9375 C-43.10414063 2.88851563 -42.33328125 2.83953125 -41.5390625 2.7890625 C-40.53617187 2.71429688 -39.53328125 2.63953125 -38.5 2.5625 C-37.50226563 2.49289062 -36.50453125 2.42328125 -35.4765625 2.3515625 C-32.71991121 2.17386036 -32.71991121 2.17386036 -30.875 -0.0625 C-29.225 -0.0625 -27.575 -0.0625 -25.875 -0.0625 C-25.545 3.2375 -25.215 6.5375 -24.875 9.9375 C-23.885 8.865 -22.895 7.7925 -21.875 6.6875 C-15.63148812 0.48175129 -8.83745347 -3.26601541 0 0 Z " fill="#070707" transform="translate(409.875,308.0625)"/>
<path d="M0 0 C1.32 0 2.64 0 4 0 C4 28.71 4 57.42 4 87 C6.31 87 8.62 87 11 87 C11 88.32 11 89.64 11 91 C3.08 91 -4.84 91 -13 91 C-13 90.01 -13 89.02 -13 88 C-10.525 87.505 -10.525 87.505 -8 87 C-6.81683088 83.25663925 -6.82724089 79.54760131 -6.79467773 75.66113281 C-6.78477814 74.92903091 -6.77487854 74.19692902 -6.76467896 73.44264221 C-6.7331618 71.02950239 -6.70834536 68.61634291 -6.68359375 66.203125 C-6.66301577 64.52731828 -6.64201907 62.85151666 -6.62062073 61.17572021 C-6.56548726 56.76991913 -6.51603958 52.36407188 -6.46777344 47.95819092 C-6.41749464 43.46036685 -6.36184189 38.96260963 -6.30664062 34.46484375 C-6.1991658 25.64328631 -6.0976972 16.82167076 -6 8 C-8.64 8 -11.28 8 -14 8 C-14 6.68 -14 5.36 -14 4 C-13.07316406 3.79503906 -12.14632812 3.59007812 -11.19140625 3.37890625 C-9.99386719 3.10949219 -8.79632812 2.84007812 -7.5625 2.5625 C-6.36753906 2.29566406 -5.17257812 2.02882813 -3.94140625 1.75390625 C-1.1295314 1.29933252 -1.1295314 1.29933252 0 0 Z " fill="#010101" transform="translate(713,278)"/>
<path d="M0 0 C-3.15595108 1.83543471 -6.41853023 2.6994611 -9.93896484 3.59716797 C-32.00524893 9.23379114 -54.14187909 19.3199316 -67 39 C-68.19394553 41.31540151 -69.11166641 43.54401889 -70 46 C-70.99 44.9790625 -70.99 44.9790625 -72 43.9375 C-72.99794237 42.95623633 -73.99819057 41.97731531 -75 41 C-75.55816406 40.43410156 -76.11632813 39.86820313 -76.69140625 39.28515625 C-87.73768351 28.74622367 -103.02875959 26.09999469 -117.78125 25.68359375 C-118.48020386 25.66281265 -119.17915771 25.64203156 -119.89929199 25.62062073 C-122.09944259 25.55601465 -124.29969696 25.49666091 -126.5 25.4375 C-128.00521842 25.39422983 -129.51042693 25.35061307 -131.015625 25.30664062 C-134.67697744 25.20042681 -138.33844234 25.09891804 -142 25 C-136.29006527 19.29006527 -122.6482586 19.67571227 -114.9375 19.625 C-100.48384711 19.76571707 -86.85819989 23.34074134 -74 30 C-73.50113281 29.443125 -73.00226563 28.88625 -72.48828125 28.3125 C-54.9008681 9.61995317 -25.58412797 -1.01883695 0 0 Z " fill="#171818" transform="translate(1134,61)"/>
<path d="M0 0 C10.1283611 0.09692212 20.80114398 0.50015213 29.9375 5.1875 C32.45000583 8.95625875 32.46766086 10.71900134 31.9375 15.1875 C28.37355491 20.63823955 24.51427238 23.27251172 18.25 24.875 C8.81409067 25.76518013 2.04507409 25.63266108 -6.0625 20.1875 C-9.50133264 17.1580522 -9.98172729 15.82358511 -10.5625 11.25 C-10.22963226 4.21983333 -6.75490394 0.04545696 0 0 Z " fill="#D8DCE7" transform="translate(816.0625,372.8125)"/>
<path d="M0 0 C4.84575076 2.75326748 7.44466009 6.73513283 9 12 C9.84454255 18.83311703 9.89686717 25.44540197 6.2578125 31.4765625 C3.12989805 35.26503031 -0.24288687 35.89184098 -4.9375 36.5625 C-9.12324769 36.37005183 -11.56283817 34.78077763 -14.5234375 31.89453125 C-19.17160995 25.93060628 -19.89975843 18.32303388 -19 11 C-15.97830374 2.10278323 -9.12758129 -2.21594459 0 0 Z " fill="#D7DBE6" transform="translate(829,312)"/>
<path d="M0 0 C2.61678609 7.85035827 1.58992585 16.81456418 -1.55078125 24.36328125 C-6.9248292 34.14086176 -14.60959971 39.53653324 -25 43 C-34.52778529 43.86844912 -44.78570979 44.47017568 -53 39 C-53.61746094 38.66097656 -54.23492188 38.32195312 -54.87109375 37.97265625 C-60.7376126 34.4275126 -64.81494244 28.39718726 -66.59375 21.796875 C-66.875 19.875 -66.875 19.875 -67 17 C-55.5295344 19.8895066 -55.5295344 19.8895066 -51.71875 26.08203125 C-48.31545828 31.53996984 -45.28413824 35.87463292 -39 38 C-32.23513752 38.94826608 -25.57418814 38.90209525 -19.58203125 35.33203125 C-15.25975407 31.69278059 -13.46409293 26.31763621 -12 21 C-11.95035429 19.01218571 -11.90310889 17.02345834 -11.92602539 15.03515625 C-11.97515661 6.05355155 -11.97515661 6.05355155 -9.0078125 2.84765625 C-6.02285644 1.20259261 -3.43983352 0 0 0 Z " fill="#9FC260" transform="translate(1103,74)"/>
<path d="M0 0 C0 18.81 0 37.62 0 57 C2.31 57 4.62 57 7 57 C7 58.65 7 60.3 7 62 C-0.92 62 -8.84 62 -17 62 C-17 60.68 -17 59.36 -17 58 C-16.195625 57.71125 -15.39125 57.4225 -14.5625 57.125 C-11.8673532 56.26737432 -11.8673532 56.26737432 -11 54 C-10.88213309 52.51987176 -10.82307062 51.03483534 -10.79467773 49.55029297 C-10.77473251 48.62948944 -10.75478729 47.70868591 -10.73423767 46.75997925 C-10.70916893 45.26617233 -10.70916893 45.26617233 -10.68359375 43.7421875 C-10.66281265 42.72399933 -10.64203156 41.70581116 -10.62062073 40.6567688 C-10.55510534 37.39624945 -10.49623098 34.13564794 -10.4375 30.875 C-10.39431668 28.66796017 -10.35070245 26.46092872 -10.30664062 24.25390625 C-10.19942195 18.83602499 -10.09765926 13.41806154 -10 8 C-12.64 8 -15.28 8 -18 8 C-18 6.35 -18 4.7 -18 3 C-17.32453125 2.95101563 -16.6490625 2.90203125 -15.953125 2.8515625 C-15.06109375 2.77679688 -14.1690625 2.70203125 -13.25 2.625 C-12.36828125 2.55539062 -11.4865625 2.48578125 -10.578125 2.4140625 C-8.00691324 2.13321917 -8.00691324 2.13321917 -5.921875 0.9609375 C-4 0 -4 0 0 0 Z " fill="#030304" transform="translate(508,308)"/>
<path d="M0 0 C1.03778884 1.6434026 2.03231948 3.31436297 3 5 C4.96516543 7.03122543 4.96516543 7.03122543 7.1875 8.875 C7.97898437 9.56078125 8.77046875 10.2465625 9.5859375 10.953125 C11.12813316 12.26074721 12.67460468 13.56335409 14.2265625 14.859375 C23.56623947 22.76486936 23.56623947 22.76486936 24.375 28.796875 C24.63805772 35.40620022 24.13379812 39.77836027 20 45 C14.15346927 49.62850349 9.95738211 50.15091127 2.625 50.1875 C1.33851562 50.20167969 0.05203125 50.21585938 -1.2734375 50.23046875 C-5 50 -5 50 -11 48 C-11 43.38 -11 38.76 -11 34 C-10.01 33.505 -10.01 33.505 -9 33 C-8.76925781 33.68707031 -8.53851562 34.37414062 -8.30078125 35.08203125 C-6.34939462 40.64351239 -6.34939462 40.64351239 -2.6875 45.125 C2.13763872 46.6959754 5.68058034 46.53754134 10.375 44.625 C13.08676342 43.26406259 13.08676342 43.26406259 14 41 C14.6139691 37.18406549 14.84566487 33.57190378 12.9765625 30.09765625 C9.59887273 25.98284634 5.41898785 22.9400499 1.18359375 19.76171875 C-3.16821391 16.25068967 -6.7734334 12.16111981 -9 7 C-9.125 4.25 -9.125 4.25 -9 2 C-3.375 0 -3.375 0 0 0 Z " fill="#9FC260" transform="translate(1125,67)"/>
<path d="M0 0 C3.46584867 2.34178964 3.73121811 2.73737245 4.8125 7.0625 C1.5125 8.0525 -1.7875 9.0425 -5.1875 10.0625 C-5.991875 8.99 -6.79625 7.9175 -7.625 6.8125 C-11.79901763 1.99331806 -16.40669018 -0.3689131 -22.70703125 -1.31640625 C-28.5483435 -1.59456398 -33.48219058 -0.52298687 -38.1875 3.0625 C-41.90314797 6.90339453 -43.24713274 10.77691072 -44.4375 15.875 C-44.61023437 16.56787109 -44.78296875 17.26074219 -44.9609375 17.97460938 C-45.38130492 19.66775594 -45.78602527 21.36477443 -46.1875 23.0625 C-53.9375 22.1875 -53.9375 22.1875 -56.1875 21.0625 C-55.68792744 13.06933912 -52.24379074 7.73634045 -46.4375 2.3125 C-33.34788536 -8.54593033 -14.30841914 -8.94276196 0 0 Z " fill="#9FC262" transform="translate(1092.1875,58.9375)"/>
<path d="M0 0 C3 1 3 1 4.25854492 3.28491211 C4.66177979 4.27241455 5.06501465 5.25991699 5.48046875 6.27734375 C5.92197266 7.34791016 6.36347656 8.41847656 6.81835938 9.52148438 C7.27017578 10.64876953 7.72199219 11.77605469 8.1875 12.9375 C8.88262695 14.62262695 8.88262695 14.62262695 9.59179688 16.34179688 C13 24.68913384 13 24.68913384 13 27 C9.7 27 6.4 27 3 27 C1.68 24.03 0.36 21.06 -1 18 C-1.33773437 18.81984375 -1.67546875 19.6396875 -2.0234375 20.484375 C-2.46945312 21.56203125 -2.91546875 22.6396875 -3.375 23.75 C-3.81585937 24.81734375 -4.25671875 25.8846875 -4.7109375 26.984375 C-5.73307585 29.37555926 -6.80213595 31.69383183 -8 34 C-9.98 34 -11.96 34 -14 34 C-13.01 33.34 -12.02 32.68 -11 32 C-11.66 31.67 -12.32 31.34 -13 31 C-10.86156945 24.14686945 -8.22938884 17.58350975 -5.375 11 C-4.96765625 10.04738281 -4.5603125 9.09476563 -4.140625 8.11328125 C-1.13375235 1.13375235 -1.13375235 1.13375235 0 0 Z " fill="#A0C166" transform="translate(1001,53)"/>
<path d="M0 0 C2.475 0.495 2.475 0.495 5 1 C5.66 2.98 6.32 4.96 7 7 C7.33 4.69 7.66 2.38 8 0 C8.99 0 9.98 0 11 0 C11.495 1.485 11.495 1.485 12 3 C12.33 2.34 12.66 1.68 13 1 C13.66 1.33 14.32 1.66 15 2 C14.67 3.65 14.34 5.3 14 7 C16.87413125 7.33397787 16.87413125 7.33397787 20 7 C21.95158486 5.2322188 21.95158486 5.2322188 23 3 C23 2.34 23 1.68 23 1 C23.66 1 24.32 1 25 1 C25.66 3.31 26.32 5.62 27 8 C27.66 8 28.32 8 29 8 C29 5.69 29 3.38 29 1 C30.32 1.66 31.64 2.32 33 3 C33 3.66 33 4.32 33 5 C33.66 5 34.32 5 35 5 C35 3.68 35 2.36 35 1 C35.66 1 36.32 1 37 1 C36.98839844 1.62648438 36.97679687 2.25296875 36.96484375 2.8984375 C36.95582031 3.71570313 36.94679688 4.53296875 36.9375 5.375 C36.92589844 6.18710938 36.91429687 6.99921875 36.90234375 7.8359375 C36.85533666 10.04937142 36.85533666 10.04937142 38 12 C16.55 12 -4.9 12 -27 12 C-27 11.67 -27 11.34 -27 11 C-16.605 10.505 -16.605 10.505 -6 10 C-6 7.03 -6 4.06 -6 1 C-5.67 1.99 -5.34 2.98 -5 4 C-4.01 4.33 -3.02 4.66 -2 5 C-2.99 5 -3.98 5 -5 5 C-5 5.99 -5 6.98 -5 8 C-3.68 7.67 -2.36 7.34 -1 7 C-0.67 4.69 -0.34 2.38 0 0 Z " fill="#82848A" transform="translate(995,119)"/>
<path d="M0 0 C3.63 0 7.26 0 11 0 C11.59167969 1.45792969 12.18335938 2.91585937 12.79296875 4.41796875 C13.5904955 6.34141561 14.3887088 8.26457791 15.1875 10.1875 C15.57486328 11.14720703 15.96222656 12.10691406 16.36132812 13.09570312 C18.57880617 18.39199366 20.45181229 22.40932549 25 26 C27.67790896 26.87238858 27.67790896 26.87238858 30 27 C30 27.33 30 27.66 30 28 C22.74 28 15.48 28 8 28 C8 26.02 8 24.04 8 22 C7.31033406 19.49524506 7.31033406 19.49524506 6.25 17.109375 C5.8890625 16.23539063 5.528125 15.36140625 5.15625 14.4609375 C4.7746875 13.56632812 4.393125 12.67171875 4 11.75 C3.24713795 9.95432227 2.49699593 8.15750092 1.75 6.359375 C1.41484375 5.57014648 1.0796875 4.78091797 0.734375 3.96777344 C0 2 0 2 0 0 Z " fill="#9EC15F" transform="translate(1007,88)"/>
<path d="M0 0 C1.4540625 0.0309375 1.4540625 0.0309375 2.9375 0.0625 C2.51597656 1.11308594 2.09445312 2.16367188 1.66015625 3.24609375 C-1.20547624 10.53601287 -3.77968145 17.14358048 -4.0625 25.0625 C-2.7425 25.7225 -1.4225 26.3825 -0.0625 27.0625 C-6.9925 27.0625 -13.9225 27.0625 -21.0625 27.0625 C-19.7425 26.4025 -18.4225 25.7425 -17.0625 25.0625 C-11.99821335 20.95373913 -10.11602874 16.22193718 -7.8125 10.3125 C-7.121609 8.58781255 -6.42899398 6.86381438 -5.734375 5.140625 C-5.4362793 4.38168945 -5.13818359 3.62275391 -4.83105469 2.84082031 C-3.55092222 -0.12121427 -3.46896611 0.07079523 0 0 Z " fill="#9FC262" transform="translate(989.0625,88.9375)"/>
<path d="M0 0 C2.375 0.375 2.375 0.375 5 1 C6.32 1 7.64 1 9 1 C9.33 0.67 9.66 0.34 10 0 C11.68608966 -0.07205511 13.37500659 -0.08386068 15.0625 -0.0625 C15.98160156 -0.05347656 16.90070313 -0.04445313 17.84765625 -0.03515625 C18.55792969 -0.02355469 19.26820312 -0.01195313 20 0 C20 2.97 20 5.94 20 9 C18.68 8.67 17.36 8.34 16 8 C15.67 8.33 15.34 8.66 15 9 C13.00041636 9.04080783 10.99954746 9.04254356 9 9 C9 8.34 9 7.68 9 7 C8.443125 7.33 7.88625 7.66 7.3125 8 C4.64736676 9.15249005 2.87606851 9.30274405 0 9 C-2 7 -2 7 -2.25 4.5 C-2 2 -2 2 0 0 Z " fill="#45474A" transform="translate(1105,119)"/>
<path d="M0 0 C2.875 0.875 2.875 0.875 4.875 2.875 C5.54668999 9.81579656 5.54668999 9.81579656 3.25 13.4375 C0.875 14.875 0.875 14.875 -2.25 14.8125 C-5.125 13.875 -5.125 13.875 -7.125 10.875 C-7.55435896 6.9392095 -7.68401466 4.73502255 -5.5 1.375 C-3.125 -0.125 -3.125 -0.125 0 0 Z " fill="#080809" transform="translate(504.125,281.125)"/>
<path d="M0 0 C1.1034375 0.00644531 2.206875 0.01289062 3.34375 0.01953125 C6.5 0.1875 6.5 0.1875 11.5 1.1875 C11.5 5.8075 11.5 10.4275 11.5 15.1875 C9.5 12.1875 9.5 12.1875 8.125 9.625 C6.31260148 6.90640222 5.60235484 6.10982171 2.5 5.1875 C-2.8528601 4.84215419 -6.42669319 5.38365758 -11.5 7.1875 C-14.375 7.3125 -14.375 7.3125 -16.5 7.1875 C-11.30054854 1.54238127 -7.65767095 -0.09840465 0 0 Z " fill="#A1C366" transform="translate(1135.5,52.8125)"/>
<path d="M0 0 C3.46679688 0.04882812 3.46679688 0.04882812 6.93359375 0.09765625 C7.26359375 3.06765625 7.59359375 6.03765625 7.93359375 9.09765625 C6.51046875 9.15953125 5.08734375 9.22140625 3.62109375 9.28515625 C2.42033203 9.33736328 2.42033203 9.33736328 1.1953125 9.390625 C-1.06640625 9.09765625 -1.06640625 9.09765625 -2.875 7.75 C-4.06640625 6.09765625 -4.06640625 6.09765625 -3.81640625 3.47265625 C-2.76098256 0.13048122 -2.76098256 0.13048122 0 0 Z " fill="#8E9198" transform="translate(1054.06640625,129.90234375)"/>
<path d="M0 0 C2 1 2 1 2.78125 2.8125 C3.26041667 4.27083333 3.73958333 5.72916667 4.21875 7.1875 C4.85329445 9.19512796 4.85329445 9.19512796 7 10 C6.67 10.99 6.34 11.98 6 13 C2.37 13.33 -1.26 13.66 -5 14 C-3.35 9.38 -1.7 4.76 0 0 Z " fill="#D5DBE0" transform="translate(999,70)"/>
<path d="M0 0 C0 2.97 0 5.94 0 9 C-1.32 8.67 -2.64 8.34 -4 8 C-4.33 8.33 -4.66 8.66 -5 9 C-6.99958364 9.04080783 -9.00045254 9.04254356 -11 9 C-11.04254356 7.00045254 -11.04080783 4.99958364 -11 3 C-10.67 2.67 -10.34 2.34 -10 2 C-9.21625 2.020625 -8.4325 2.04125 -7.625 2.0625 C-4.41303261 1.98602459 -3.09684354 0 0 0 Z " fill="#94979E" transform="translate(1125,119)"/>
<path d="M0 0 C0.78375 0.04125 1.5675 0.0825 2.375 0.125 C2.045 1.115 1.715 2.105 1.375 3.125 C1.375 2.465 1.375 1.805 1.375 1.125 C-0.605 2.115 -0.605 2.115 -2.625 3.125 C-2.295 4.445 -1.965 5.765 -1.625 7.125 C0.025 7.125 1.675 7.125 3.375 7.125 C4.365 5.145 5.355 3.165 6.375 1.125 C9.375 4.75 9.375 4.75 9.375 8.125 C10.035 8.125 10.695 8.125 11.375 8.125 C11.375 5.485 11.375 2.845 11.375 0.125 C12.365 0.455 13.355 0.785 14.375 1.125 C14.045 3.435 13.715 5.745 13.375 8.125 C14.695 7.795 16.015 7.465 17.375 7.125 C17.375 7.785 17.375 8.445 17.375 9.125 C15.93844146 9.20631463 14.5005517 9.26433559 13.0625 9.3125 C12.26199219 9.34730469 11.46148438 9.38210937 10.63671875 9.41796875 C7.89648416 9.06301608 7.08328921 8.23133718 5.375 6.125 C5.375 7.115 5.375 8.105 5.375 9.125 C-0.6796875 9.3203125 -0.6796875 9.3203125 -2.625 9.125 C-4.625 7.125 -4.625 7.125 -4.875 4.625 C-4.51649553 1.03995533 -3.59522993 0.17120143 0 0 Z " fill="#5E6063" transform="translate(1131.625,118.875)"/>
<path d="M0 0 C1.50559539 1.96382007 2.89131683 3.78263366 4 6 C4.66 4.02 5.32 2.04 6 0 C7.32 1.32 8.64 2.64 10 4 C10.66 2.68 11.32 1.36 12 0 C12.66 0 13.32 0 14 0 C14.33 2.64 14.66 5.28 15 8 C14.34 8 13.68 8 13 8 C13 7.01 13 6.02 13 5 C12.34 5 11.68 5 11 5 C10.67 5.99 10.34 6.98 10 8 C9.34 7.34 8.68 6.68 8 6 C7.67 6.66 7.34 7.32 7 8 C2.44615385 8.36923077 2.44615385 8.36923077 0.1875 6.5 C-0.204375 6.005 -0.59625 5.51 -1 5 C-1 5.99 -1 6.98 -1 8 C-1.99 7.67 -2.98 7.34 -4 7 C-2.68 4.69 -1.36 2.38 0 0 Z " fill="#505255" transform="translate(972,120)"/>
<path d="M0 0 C2.45862401 -0.05383848 4.9160755 -0.09359038 7.375 -0.125 C8.42300781 -0.15013672 8.42300781 -0.15013672 9.4921875 -0.17578125 C11.32897486 -0.19344267 13.16601963 -0.10303261 15 0 C17 2 17 2 18 4 C17.5625 6.125 17.5625 6.125 17 8 C16.34 8 15.68 8 15 8 C14.67 5.69 14.34 3.38 14 1 C12.68 1 11.36 1 10 1 C10 3.31 10 5.62 10 8 C9.34 8 8.68 8 8 8 C8 5.69 8 3.38 8 1 C6.02 1 4.04 1 2 1 C2 1.66 2 2.32 2 3 C2.66 3 3.32 3 4 3 C4 3.66 4 4.32 4 5 C3.34 5 2.68 5 2 5 C2 5.99 2 6.98 2 8 C2.99 7.67 3.98 7.34 5 7 C5 7.66 5 8.32 5 9 C3.35 9 1.7 9 0 9 C0 6.03 0 3.06 0 0 Z " fill="#404244" transform="translate(1064,130)"/>
<path d="M0 0 C3.3 0 6.6 0 10 0 C10 1.32 10 2.64 10 4 C11.32 4 12.64 4 14 4 C14 2.68 14 1.36 14 0 C14.99 0.33 15.98 0.66 17 1 C16.67 3.64 16.34 6.28 16 9 C15.34 9 14.68 9 14 9 C14 7.68 14 6.36 14 5 C12.68 5 11.36 5 10 5 C10 6.32 10 7.64 10 9 C9.34 9 8.68 9 8 9 C7.67 6.69 7.34 4.38 7 2 C6.01 1.67 5.02 1.34 4 1 C4.33 3.64 4.66 6.28 5 9 C4.01 9 3.02 9 2 9 C2 6.36 2 3.72 2 1 C1.34 0.67 0.68 0.34 0 0 Z " fill="#37383A" transform="translate(1069,119)"/>
<path d="M0 0 C2.5 0.25 2.5 0.25 4.5 2.25 C4.8125 4.75 4.8125 4.75 4.5 7.25 C1.5 9.25 1.5 9.25 -1.1875 8.875 C-1.950625 8.66875 -2.71375 8.4625 -3.5 8.25 C-4.125 5.375 -4.125 5.375 -4.5 2.25 C-2.5 0.25 -2.5 0.25 0 0 Z " fill="#8B8E95" transform="translate(1044.5,129.75)"/>
<path d="M0 0 C2.375 0.75 2.375 0.75 3.375 1.75 C3.5 4.75 3.5 4.75 3.375 7.75 C3.045 8.08 2.715 8.41 2.375 8.75 C0.03555264 8.46269945 -2.2989143 8.13063221 -4.625 7.75 C-5.3125 5.4375 -5.3125 5.4375 -5.625 2.75 C-3.9659358 -0.015107 -3.22812218 -0.30744021 0 0 Z " fill="#8E9197" transform="translate(1041.625,119.25)"/>
<path d="M0 0 C3.29714793 0.32971479 4.6226839 0.6226839 7 3 C6.44444444 7.55555556 6.44444444 7.55555556 5 9 C2.5625 9.1875 2.5625 9.1875 0 9 C-2 7 -2 7 -2.25 4.5 C-2 2 -2 2 0 0 Z " fill="#4E5053" transform="translate(1089,119)"/>
<path d="M0 0 C0.33 0 0.66 0 1 0 C1 1.65 1 3.3 1 5 C2.32 5.33 3.64 5.66 5 6 C1.90765472 6.89893758 -0.90797357 7.16349234 -4.125 7.1875 C-5.42824219 7.20876953 -5.42824219 7.20876953 -6.7578125 7.23046875 C-9 7 -9 7 -11 5 C-10.34 5 -9.68 5 -9 5 C-8.67 3.68 -8.34 2.36 -8 1 C-7.34 1.99 -6.68 2.98 -6 4 C-5.67 3.34 -5.34 2.68 -5 2 C-4.34 2 -3.68 2 -3 2 C-3 2.99 -3 3.98 -3 5 C-2.34 4.67 -1.68 4.34 -1 4 C-0.34786708 1.97536745 -0.34786708 1.97536745 0 0 Z " fill="#CBCED8" transform="translate(988,123)"/>
<path d="M0 0 C5.54050113 0.56825653 10.03715966 2.62886517 15 5 C14.67 5.66 14.34 6.32 14 7 C13.39671875 6.79503906 12.7934375 6.59007813 12.171875 6.37890625 C11.37265625 6.10949219 10.5734375 5.84007813 9.75 5.5625 C8.96109375 5.29566406 8.1721875 5.02882813 7.359375 4.75390625 C3.13329984 3.10938828 3.13329984 3.10938828 -1 4 C-0.67 2.68 -0.34 1.36 0 0 Z " fill="#CAD2D1" transform="translate(1036,89)"/>
<path d="M0 0 C1.99954746 -0.04254356 4.00041636 -0.04080783 6 0 C7 1 7 1 7.0625 4.5625 C7.041875 5.696875 7.02125 6.83125 7 8 C5.35 8 3.7 8 2 8 C2 5.69 2 3.38 2 1 C1.34 0.67 0.68 0.34 0 0 Z " fill="#B8BBC4" transform="translate(988,119)"/>
<path d="M0 0 C2.97 0 5.94 0 9 0 C9.33 0.99 9.66 1.98 10 3 C2.57142857 4.28571429 2.57142857 4.28571429 -1 3 C-0.67 2.01 -0.34 1.02 0 0 Z " fill="#C2C6CF" transform="translate(1131,58)"/>
<path d="M0 0 C1.32 0.66 2.64 1.32 4 2 C3.67 3.65 3.34 5.3 3 7 C1.68 6.67 0.36 6.34 -1 6 C-1.625 4.125 -1.625 4.125 -2 2 C-1.34 1.34 -0.68 0.68 0 0 Z " fill="#D4D7E2" transform="translate(1106,120)"/>
<path d="M0 0 C3.63 0 7.26 0 11 0 C10 2 10 2 7.5625 2.875 C4.86394485 3.77050152 4.86394485 3.77050152 3.6875 6.125 C3.460625 6.74375 3.23375 7.3625 3 8 C2.67 6.02 2.34 4.04 2 2 C1.34 2 0.68 2 0 2 C0 1.34 0 0.68 0 0 Z " fill="#CBD3D2" transform="translate(1123,117)"/>
<path d="M0 0 C1.65 0.33 3.3 0.66 5 1 C4.67 2.65 4.34 4.3 4 6 C2.35 5.67 0.7 5.34 -1 5 C-0.67 3.35 -0.34 1.7 0 0 Z " fill="#D1D5DF" transform="translate(1089,121)"/>
<path d="M0 0 C0.33 0 0.66 0 1 0 C1 1.98 1 3.96 1 6 C-0.5 7.125 -0.5 7.125 -3 8 C-5.7773082 7.57598348 -8.29639783 6.81108065 -11 6 C-6.8204355 3.21362367 -4.85331323 4.20437488 0 5 C0 3.35 0 1.7 0 0 Z " fill="#BDC7BA" transform="translate(1046,77)"/>
<path d="M0 0 C0 0.99 0 1.98 0 3 C-1.65 3 -3.3 3 -5 3 C-5.33 4.32 -5.66 5.64 -6 7 C-6.99 7 -7.98 7 -9 7 C-9 3 -9 3 -7.3125 1.25 C-4.64865849 -0.18991433 -2.98355176 -0.24862931 0 0 Z " fill="#6C6E73" transform="translate(1120,119)"/>
<path d="M0 0 C2.88437779 1.29299694 4.87219421 2.65941363 7 5 C6.67 5.99 6.34 6.98 6 8 C4.68 6.68 3.36 5.36 2 4 C2 5.32 2 6.64 2 8 C1.34 8 0.68 8 0 8 C0 5.36 0 2.72 0 0 Z " fill="#393A3C" transform="translate(1024,120)"/>
<path d="M0 0 C0.91007812 0.00902344 1.82015625 0.01804688 2.7578125 0.02734375 C3.45648437 0.03894531 4.15515625 0.05054688 4.875 0.0625 C1.98871599 1.63804035 -0.65842384 2.52526373 -3.875 3.1875 C-5.07382813 3.43886719 -5.07382813 3.43886719 -6.296875 3.6953125 C-6.90015625 3.81648438 -7.5034375 3.93765625 -8.125 4.0625 C-7.795 3.0725 -7.465 2.0825 -7.125 1.0625 C-4.60024538 -0.19987731 -2.81299534 -0.03606404 0 0 Z " fill="#272929" transform="translate(1129.125,60.9375)"/>
<path d="M0 0 C1.5625 1.8125 1.5625 1.8125 3 4 C2.67 4.99 2.34 5.98 2 7 C1.01 6.34 0.02 5.68 -1 5 C-1 5.99 -1 6.98 -1 8 C-1.99 7.67 -2.98 7.34 -4 7 C-2.68 4.69 -1.36 2.38 0 0 Z " fill="#525457" transform="translate(972,120)"/>
<path d="M0 0 C0.66 0.33 1.32 0.66 2 1 C-0.12669835 3.33936818 -2.06224856 4.80653848 -5 6 C-5.99 6 -6.98 6 -8 6 C-8 5.34 -8 4.68 -8 4 C-6.71349294 3.30289269 -5.42059335 2.61757124 -4.125 1.9375 C-3.40570312 1.55464844 -2.68640625 1.17179687 -1.9453125 0.77734375 C-1.30335937 0.52082031 -0.66140625 0.26429687 0 0 Z " fill="#CFD4DA" transform="translate(1100,72)"/>
<path d="M0 0 C1.98 0.495 1.98 0.495 4 1 C3.01 1 2.02 1 1 1 C1.515625 1.5775 2.03125 2.155 2.5625 2.75 C4 5 4 5 3.6875 7.25 C3.460625 7.8275 3.23375 8.405 3 9 C1.68 8.67 0.36 8.34 -1 8 C-0.01 7.67 0.98 7.34 2 7 C1.34 6.01 0.68 5.02 0 4 C0 2.68 0 1.36 0 0 Z " fill="#525457" transform="translate(1035,130)"/>
<path d="M0 0 C0 0.66 0 1.32 0 2 C-6.0546875 2.9765625 -6.0546875 2.9765625 -8 3 C-8.66 2.34 -9.32 1.68 -10 1 C-3.375 -1.125 -3.375 -1.125 0 0 Z " fill="#C6CDCD" transform="translate(1125,65)"/>
<path d="M0 0 C0 0.33 0 0.66 0 1 C-1.134375 1.12375 -2.26875 1.2475 -3.4375 1.375 C-5.2009375 1.684375 -5.2009375 1.684375 -7 2 C-7.33 2.66 -7.66 3.32 -8 4 C-10.97 3.505 -10.97 3.505 -14 3 C-8.75250397 0.37625198 -5.91152367 -0.09534716 0 0 Z " fill="#D2DBD4" transform="translate(1138,57)"/>
<path d="M0 0 C0.66 0 1.32 0 2 0 C2.33 2.64 2.66 5.28 3 8 C2.34 8 1.68 8 1 8 C1 7.01 1 6.02 1 5 C0.01 4.67 -0.98 4.34 -2 4 C-1.34 2.68 -0.68 1.36 0 0 Z " fill="#404244" transform="translate(984,120)"/>
<path d="M0 0 C2.15377564 2.62198774 3.40072174 4.64404172 4 8 C3.34 8 2.68 8 2 8 C1.67 7.34 1.34 6.68 1 6 C0.01 6 -0.98 6 -2 6 C-1.34 4.02 -0.68 2.04 0 0 Z " fill="#363839" transform="translate(1138,120)"/>
</svg>
