<?xml version="1.0" encoding="UTF-8"?>
<!DOCTYPE svg PUBLIC "-//W3C//DTD SVG 1.1//EN" "http://www.w3.org/Graphics/SVG/1.1/DTD/svg11.dtd">
<!-- Creator: CorelDRAW 2020 (64-Bit) -->
<svg xmlns="http://www.w3.org/2000/svg" xml:space="preserve" width="256px" height="256px" version="1.1" style="shape-rendering:geometricPrecision; text-rendering:geometricPrecision; image-rendering:optimizeQuality; fill-rule:evenodd; clip-rule:evenodd"
viewBox="0 0 256 256"
 xmlns:xlink="http://www.w3.org/1999/xlink"
 xmlns:xodm="http://www.corel.com/coreldraw/odm/2003">
 <defs>
  <style type="text/css">
   <![CDATA[
    .fil1 {fill:#373435}
    .fil0 {fill:#373435;fill-rule:nonzero}
    .fil2 {fill:#D2AE6D;fill-rule:nonzero}
   ]]>
  </style>
 </defs>
 <g id="Layer_x0020_1">
  <metadata id="CorelCorpID_0Corel-Layer"/>
  <path class="fil0" d="M214.6 118.45c-0.58,-3.47 -2.58,-6.95 -5.64,-9.99 -3.02,-2.99 -7.07,-5.53 -11.82,-7.16 -0.7,-0.24 -1.36,-0.44 -1.98,-0.62 -0.65,-0.18 -1.32,-0.34 -1.99,-0.49l0.5 -2.38c0.7,0.15 1.41,0.32 2.14,0.53 0.74,0.2 1.44,0.42 2.12,0.65 5.1,1.76 9.47,4.5 12.75,7.75 3.42,3.38 5.66,7.33 6.33,11.31l-2.41 0.4zm-20.62 19.91c-4.9,7.12 -10.01,12.88 -15.34,17.29 -5.37,4.44 -10.97,7.52 -16.79,9.23l-0.68 -2.34c5.49,-1.61 10.8,-4.54 15.92,-8.77 5.16,-4.27 10.12,-9.87 14.88,-16.79l2.01 1.38zm-0.98 -38.21c-8.29,-3.04 -16.38,0.13 -23.38,2.87 -3.97,1.56 -7.62,2.99 -10.93,3.19l-0.15 -2.44c2.93,-0.17 6.4,-1.53 10.19,-3.02 7.4,-2.9 15.95,-6.25 25.11,-2.89l-0.84 2.29zm-101.27 0.82c12.67,-1.14 24.43,-1.32 34.98,-0.88 12.56,0.53 23.44,1.95 32.14,3.71l-0.47 2.38c-8.59,-1.73 -19.34,-3.14 -31.77,-3.66 -10.47,-0.44 -22.12,-0.25 -34.67,0.88l-0.21 -2.43zm41.57 53.62c-16.53,-3.49 -40.56,-13.67 -72.09,-30.51 -4.02,-1.67 -6.62,-3.18 -7.8,-4.54 -1.31,-1.51 -1.29,-2.88 0.05,-4.12 0.93,-0.85 2.66,-1.54 5.2,-2.08 14.74,-3.14 43.13,-2.58 58.36,0.27 -24.64,-0.65 -50.27,0.5 -57.86,2.11 -2.1,0.45 -3.45,0.95 -4.05,1.5 -0.18,0.17 -0.13,0.41 0.14,0.72 0.94,1.08 3.25,2.38 6.93,3.91l0.11 0.05c31.35,16.75 55.19,26.86 71.51,30.31 15.58,3.3 24.01,0.45 25.29,-8.55 7.19,-5.47 0.67,16.53 -25.79,10.93zm-42.18 -51.42c-32.62,-23.47 -55.09,-37.58 -67.4,-42.35 -3.59,-1.38 -6.23,-1.95 -7.92,-1.7 -1.2,0.18 -1.8,0.94 -1.8,2.28 0.01,2.18 1.28,5.59 3.81,10.23 22.25,14.97 38.99,25.2 50.21,30.7 4.76,2.33 8.51,3.79 11.24,4.39 2.27,0.5 3.64,0.41 4.09,-0.26 0.03,-0.05 0.05,-0.08 0.07,-0.12l2.19 1.07c-0.08,0.14 -0.15,0.28 -0.24,0.4 -1.07,1.6 -3.29,2.03 -6.64,1.3 -2.89,-0.64 -6.82,-2.17 -11.77,-4.6 -11.38,-5.57 -28.3,-15.91 -50.76,-31.03l-0.39 -0.42c-2.82,-5.12 -4.23,-9.01 -4.24,-11.66 -0.01,-2.74 1.28,-4.3 3.87,-4.69 2.11,-0.32 5.16,0.3 9.16,1.85 12.5,4.83 35.15,19.05 67.94,42.64l-1.42 1.97zm-22.67 -0.38c1,1.9 2,3.69 2.98,5.4 0.99,1.7 1.97,3.3 2.94,4.81l-2.05 1.31c-0.99,-1.53 -1.99,-3.17 -2.99,-4.9 -1.01,-1.73 -2.02,-3.56 -3.04,-5.48l2.16 -1.14zm48.42 58.14c-3.87,3.66 -5.34,7.04 -5.25,9.22 0.03,0.65 0.2,1.14 0.48,1.45 0.24,0.26 0.59,0.4 1.03,0.39 1.35,-0.03 3.3,-1.22 5.5,-4.04l0.05 -0.06c4.91,-6.26 5.1,-6.51 5.95,-6.84l0.88 2.27c-0.23,0.09 -0.41,0.32 -4.91,6.07l-0.05 0.06c-2.71,3.47 -5.36,4.93 -7.38,4.97 -1.17,0.03 -2.16,-0.39 -2.87,-1.18 -0.67,-0.73 -1.06,-1.75 -1.11,-2.99 -0.12,-2.78 1.56,-6.88 6,-11.09l1.68 1.77zm47.23 3.2c-7.35,1.36 -14.36,2.01 -21.03,1.96 -6.69,-0.05 -13.03,-0.81 -19.01,-2.28l0.57 -2.36c5.81,1.42 11.96,2.16 18.45,2.21 6.51,0.05 13.37,-0.59 20.58,-1.93l0.44 2.4zm-48.51 -2.94c-6.61,-2.52 -12.75,-6.02 -18.42,-10.49 -5.65,-4.46 -10.82,-9.88 -15.5,-16.26l1.96 -1.44c4.56,6.21 9.57,11.48 15.05,15.79 5.45,4.31 11.38,7.68 17.78,10.12l-0.87 2.28zm-3.45 10.47c0.55,0.43 11.54,12.28 19.59,21.39 4.72,5.35 8.49,9.86 8.73,10.85l0.64 2.59 -2.37 -1.21c-1.66,-0.85 -4.5,-1.09 -7.5,-1.02 -4.51,0.11 -14.78,0.52 -16.65,1.13 6.1,-2.43 9.71,-3.4 16.59,-3.56 1.8,-0.04 3.58,0.02 5.15,0.26 -1.49,-1.81 -3.79,-4.46 -6.41,-7.43 -7.99,-9.04 -18.77,-20.7 -19.27,-21.1l1.5 -1.9zm58.33 33.73c-4.43,-0.45 -14.07,0.05 -18.46,0.01 -2.82,-0.03 -5.65,0.03 -8.48,0.17 1.63,0.72 3.21,1.36 4.74,1.92 2.83,1.04 11.91,3.74 14.39,4.25 -7.03,0.47 -8.37,0.56 -15.23,-1.96 -2.91,-1.07 -5.98,-2.41 -9.23,-4.02l0.44 -2.31c4.42,-0.36 8.88,-0.53 13.39,-0.48 7.18,0.07 11.68,0.14 18.44,2.42zm-32.19 -1.85c3.73,-1.51 6.86,-2.57 9.42,-3.19 2.67,-0.64 13.02,1.52 14.48,1.87 -4.18,0.03 -9.98,-0.45 -13.92,0.5 -2.4,0.57 -5.42,1.6 -9.06,3.08l-0.92 -2.26zm60.56 -79.7c0.09,0.05 0.2,0.11 0.31,0.16 1.44,0.66 3.94,1.2 7.52,1.6l0.01 0c5.5,0.69 10.68,1.53 15.54,2.52 4.05,0.82 7.85,1.74 11.41,2.77 -0.72,-1.33 -2.24,-2.8 -4.56,-4.41 -3.48,-2.42 -8.64,-5.03 -15.47,-7.83 -0.58,1.16 -1.5,1.98 -2.77,2.46 -1.43,0.53 -3.28,0.59 -5.55,0.15 -2.31,1.29 -4.19,2.11 -5.65,2.44 -0.27,0.06 -0.54,0.11 -0.79,0.14zm-0.71 2.37c-1.9,-0.88 -2.69,-1.98 -2.39,-3.31 -0.08,-0.09 -0.16,-0.2 -0.23,-0.31l0.43 -0.28c0.07,-0.14 0.14,-0.29 0.23,-0.43l0.23 0.13 1.15 -0.74c0.15,0.24 0.67,0.26 1.54,0.06 1.3,-0.3 3.09,-1.1 5.38,-2.41l0.85 -0.13c2.03,0.43 3.58,0.44 4.66,0.04 0.9,-0.34 1.47,-1.03 1.72,-2.06l0.33 -1.38 1.3 0.53c7.61,3.05 13.32,5.9 17.13,8.55 4.1,2.85 6.13,5.59 6.1,8.21l-0.02 1.63 -1.56 -0.48c-4.07,-1.25 -8.49,-2.36 -13.24,-3.33 -4.74,-0.96 -9.86,-1.79 -15.35,-2.48 -3.84,-0.43 -6.59,-1.04 -8.26,-1.81zm-2.36 -18.76c-1.66,-0.92 -3.49,-1.37 -5.11,-0.66 -2.11,0.92 -3.98,1.17 -2.65,-1.2 0.54,-0.44 1.1,-0.78 1.68,-1.03 2.44,-1.07 4.99,-0.49 7.26,0.76 2.12,1.16 3.98,2.93 5.2,4.42 0.67,0.82 1.17,1.6 1.42,2.17 -2.74,1.19 -4.31,-2.53 -7.8,-4.46zm-18.33 3.34c-1.55,5.29 -1.33,9.38 0.64,12.28 2,2.91 5.84,4.74 11.52,5.47 3.09,2.4 -11.83,-1.62 -13.53,-4.1 -3.47,-5.09 -1.78,-9.01 1.37,-13.65zm-67.37 15.96c2.22,6.54 5.53,11.98 9.92,16.3 4.4,4.33 9.89,7.56 16.49,9.69l-0.75 2.32c-6.96,-2.25 -12.78,-5.68 -17.44,-10.27 -4.67,-4.6 -8.18,-10.35 -10.52,-17.26l2.3 -0.78zm81.55 10.71c4.77,-1.28 9.08,-3.58 13.5,-5.94 3.02,-1.61 6.09,-3.24 9.38,-4.62l0.94 2.25c-7.85,3.28 -14.93,8.44 -23.19,10.67l-0.63 -2.36zm3.88 -24.92c-0.8,-0.54 -1.7,-0.77 -2.5,-0.68 -0.73,0.07 -1.36,0.39 -1.74,0.95 -0.37,0.55 -0.44,1.26 -0.24,1.97 0.23,0.77 0.76,1.52 1.56,2.06 0.8,0.54 1.7,0.76 2.5,0.68 0.72,-0.07 1.36,-0.39 1.74,-0.95 0.37,-0.55 0.44,-1.27 0.23,-1.97 -0.22,-0.77 -0.75,-1.52 -1.55,-2.06zm-2.74 -3.11c1.34,-0.13 2.81,0.22 4.1,1.1 1.29,0.87 2.17,2.11 2.54,3.4 0.39,1.37 0.24,2.82 -0.57,4 -0.8,1.19 -2.09,1.87 -3.51,2.01 -1.34,0.14 -2.81,-0.21 -4.1,-1.09 -1.29,-0.87 -2.17,-2.11 -2.54,-3.41 -0.39,-1.37 -0.23,-2.81 0.57,-4 0.8,-1.18 2.09,-1.86 3.51,-2.01zm-61.37 43.01l-0.31 0.4 -0.29 0.4 -1.98 -1.42 0.33 -0.45 0.35 -0.45 1.9 1.52zm-2.34 8.22l0.03 0.03 -1.58 1.85 -0.03 -0.03 1.58 -1.85zm3.75 3.97c0.55,0.44 9.98,10.64 16.91,18.57 4.09,4.69 7.37,8.68 7.62,9.68l0.64 2.59 -2.37 -1.21c-1.66,-0.85 -4.5,-1.09 -7.5,-1.02 -4.24,0.1 -7.85,0.2 -11.91,-0.76 2.01,-0.66 7.09,-1.56 11.85,-1.67 1.82,-0.05 3.61,0.02 5.19,0.27 -1.3,-1.59 -3.2,-3.82 -5.36,-6.28 -6.86,-7.86 -16.08,-17.86 -16.58,-18.26l1.51 -1.91zm36.08 29.75c-2.82,-0.03 -5.65,0.03 -8.48,0.17 1.63,0.72 3.21,1.36 4.74,1.92 2.83,1.04 11.4,4.75 13.88,5.26 -5.87,-0.51 -9.04,-0.88 -14.72,-2.97 -2.91,-1.07 -5.98,-2.41 -9.23,-4.02l0.44 -2.31c4.42,-0.36 8.88,-0.53 13.39,-0.48 4.48,0.04 14.66,2 19.15,2.46 -7.08,0.85 -12.16,0.04 -19.17,-0.03zm-13.73 -1.86c3.73,-1.51 6.86,-2.57 9.42,-3.19 2.67,-0.64 9.09,0.58 10.54,0.93 -3.46,0.71 -6.89,0.69 -9.98,1.44 -2.4,0.57 -5.42,1.6 -9.06,3.08l-0.92 -2.26z"/>
  <ellipse class="fil1" transform="matrix(0.218324 0.109178 -0.109178 0.218324 194.331 114.85)" rx="8.94" ry="7.6"/>
  <path class="fil2" d="M185.58 150.64c10.37,-11.09 19.53,-20.03 27.5,-26.82 0.34,0.77 0.85,1.16 1.66,1.37 0.29,0.16 0.65,0.39 1.04,0.62 -4.73,4 -9.9,8.78 -15.53,14.37l-0.61 16.39 -3.27 -0.12 0.48 -12.85c-2.85,2.9 -5.81,5.99 -8.88,9.28l-2.39 -2.24zm33.93 -32.03c5.92,-4.52 16.26,-11.7 24.1,-10.88l-0.34 3.25c-4.69,-0.49 -11.49,2.58 -20.41,9.2 -0.99,-0.73 -2.19,-1.22 -3.35,-1.57z"/>
 </g>
</svg>
