<?xml version="1.0" encoding="UTF-8"?>
<svg version="1.1" xmlns="http://www.w3.org/2000/svg" width="960" height="399">
<path d="M0 0 C0.68984482 -0.00817749 1.37968964 -0.01635498 2.09043884 -0.02478027 C4.37319075 -0.04958797 6.65588054 -0.06614091 8.9387207 -0.08056641 C9.72032877 -0.08589008 10.50193684 -0.09121376 11.30723 -0.09669876 C15.44667199 -0.12341397 19.58608404 -0.14279153 23.72558594 -0.15722656 C27.14285144 -0.17054892 30.55951742 -0.19837135 33.9765625 -0.23925781 C38.11035978 -0.28871525 42.24361461 -0.31336371 46.37769508 -0.32045364 C47.94810725 -0.32714462 49.51850834 -0.34231045 51.08875084 -0.36634445 C61.46994892 -0.51613607 67.88977359 0.31235261 75.61450195 7.44287109 C77.17700195 10.19287109 77.17700195 10.19287109 78.17700195 19.19287109 C53.42700195 19.19287109 28.67700195 19.19287109 3.17700195 19.19287109 C3.39356445 37.22943359 3.39356445 37.22943359 3.61450195 55.63037109 C3.65760498 59.43238037 3.70070801 63.23438965 3.74511719 67.15161133 C3.78835259 70.54853913 3.78835259 70.54853913 3.832901 73.94544983 C3.8521695 75.46288395 3.86948014 76.98034368 3.88526917 78.49781799 C3.90950815 80.79135362 3.93988594 83.08473221 3.97167969 85.37817383 C3.98722397 86.67279037 4.00276825 87.96740692 4.01878357 89.30125427 C3.84858938 92.08693126 3.84858938 92.08693126 5.17700195 93.19287109 C5.50700195 86.26287109 5.83700195 79.33287109 6.17700195 72.19287109 C11.21627424 73.87262852 13.7116374 78.50280867 16.91674805 82.59277344 C18.13063411 84.13399956 19.36632307 85.65797682 20.6027832 87.18115234 C54.53189117 129.76840588 75.63637372 188.51909637 75.49267578 242.94335938 C75.48952246 245.42671993 75.51306125 247.90887573 75.53833008 250.39208984 C75.59805842 265.28319311 74.00307302 280.08452763 69.42700195 294.31787109 C69.16951172 295.14005127 68.91202148 295.96223145 68.64672852 296.80932617 C59.89608985 324.08810284 44.89392239 350.12343847 22.17700195 368.19287109 C21.43184326 368.78986816 21.43184326 368.78986816 20.67163086 369.39892578 C-7.53944355 391.75237035 -41.99840887 402.3361236 -77.9519043 398.73193359 C-113.8698198 394.49069133 -146.86416417 377.02977373 -169.59765625 348.59667969 C-198.26102631 311.7880221 -207.97372216 266.83554622 -202.76049805 220.94287109 C-200.21022786 200.67996241 -195.80818687 179.05571652 -187.82299805 160.19287109 C-187.16299805 159.86287109 -186.50299805 159.53287109 -185.82299805 159.19287109 C-185.67677002 159.9950708 -185.53054199 160.79727051 -185.37988281 161.6237793 C-184.71733065 165.25139037 -184.05145479 168.87838356 -183.38549805 172.50537109 C-183.15540039 173.76800781 -182.92530273 175.03064453 -182.68823242 176.33154297 C-182.46586914 177.54003906 -182.24350586 178.74853516 -182.0144043 179.99365234 C-181.81016846 181.10909424 -181.60593262 182.22453613 -181.39550781 183.3737793 C-180.8697172 186.25453759 -180.8697172 186.25453759 -179.82299805 189.19287109 C-178.33650992 181.82349358 -179.62145823 175.61121134 -181.13549805 168.31787109 C-184.33976843 151.97785032 -186.15747605 135.82270457 -186.82299805 119.19287109 C-186.87713867 117.93474609 -186.9312793 116.67662109 -186.98706055 115.38037109 C-187.01541992 114.22537109 -187.0437793 113.07037109 -187.07299805 111.88037109 C-187.0987793 110.87361328 -187.12456055 109.86685547 -187.15112305 108.82958984 C-186.75381851 105.63696412 -186.23475929 104.33499443 -183.82299805 102.19287109 C-180.8269043 101.66162109 -180.8269043 101.66162109 -177.38549805 101.69287109 C-175.68586914 101.67740234 -175.68586914 101.67740234 -173.9519043 101.66162109 C-170.08755907 102.31773963 -169.16475126 103.08173755 -166.82299805 106.19287109 C-166.34860504 108.95411031 -166.10527946 111.36205364 -166.0300293 114.13427734 C-165.99366867 114.89836411 -165.95730804 115.66245087 -165.91984558 116.44969177 C-165.8072371 118.88452565 -165.72042522 121.31942872 -165.63549805 123.75537109 C-165.53478299 126.19440611 -165.42876331 128.63311749 -165.3190155 131.07176208 C-165.25250366 132.58733409 -165.19214915 134.10319167 -165.1386261 135.61927795 C-165.01704645 138.70913876 -164.80712745 141.24048287 -163.82299805 144.19287109 C-163.90565918 143.27699219 -163.98832031 142.36111328 -164.07348633 141.41748047 C-166.72160419 109.28428851 -166.72160419 109.28428851 -157.70581055 98.41162109 C-157.22402344 97.87794922 -156.74223633 97.34427734 -156.24584961 96.79443359 C-154.81926473 95.18866887 -153.56550731 93.5320902 -152.31518555 91.78662109 C-146.74755492 84.05945175 -140.37719928 77.08573926 -133.82299805 70.19287109 C-133.18104492 69.48646484 -132.5390918 68.78005859 -131.87768555 68.05224609 C-115.5407972 50.65452084 -92.12147568 38.3205643 -68.16674805 36.98974609 C-53.00692187 36.80487016 -39.56907523 39.80406931 -25.82299805 46.19287109 C-24.61643555 46.6744165 -23.40987305 47.15596191 -22.16674805 47.65209961 C-19.76145176 49.03963122 -18.97049549 49.69994846 -18.16503906 52.39170837 C-17.90753869 55.0962501 -17.85316014 57.72648716 -17.88549805 60.44287109 C-17.86938477 61.37873047 -17.85327148 62.31458984 -17.83666992 63.27880859 C-17.80137133 65.58498294 -17.79790327 67.88669269 -17.82299805 70.19287109 C-17.76166113 62.60362513 -17.68446485 55.01467909 -17.58728313 47.42580986 C-17.54264514 43.9015725 -17.50337508 40.37744897 -17.4765625 36.85302734 C-17.44546457 32.79674398 -17.39067842 28.74107569 -17.3347168 24.68505859 C-17.32832687 23.42547333 -17.32193695 22.16588806 -17.31535339 20.86813354 C-17.28566216 19.09697678 -17.28566216 19.09697678 -17.25537109 17.29003906 C-17.23871651 15.73783157 -17.23871651 15.73783157 -17.22172546 14.15426636 C-16.48965875 8.71712103 -13.97995308 4.70030191 -9.82299805 1.19287109 C-6.36966067 0.04175864 -3.643845 0.03754071 0 0 Z " fill="#FDFDFD" transform="translate(262.822998046875,-0.19287109375)"/>
<path d="M0 0 C0.68984482 -0.00817749 1.37968964 -0.01635498 2.09043884 -0.02478027 C4.37319075 -0.04958797 6.65588054 -0.06614091 8.9387207 -0.08056641 C9.72032877 -0.08589008 10.50193684 -0.09121376 11.30723 -0.09669876 C15.44667199 -0.12341397 19.58608404 -0.14279153 23.72558594 -0.15722656 C27.14285144 -0.17054892 30.55951742 -0.19837135 33.9765625 -0.23925781 C38.11035978 -0.28871525 42.24361461 -0.31336371 46.37769508 -0.32045364 C47.94810725 -0.32714462 49.51850834 -0.34231045 51.08875084 -0.36634445 C61.46994892 -0.51613607 67.88977359 0.31235261 75.61450195 7.44287109 C77.17700195 10.19287109 77.17700195 10.19287109 78.17700195 19.19287109 C53.42700195 19.19287109 28.67700195 19.19287109 3.17700195 19.19287109 C3.39356445 37.22943359 3.39356445 37.22943359 3.61450195 55.63037109 C3.65760498 59.43238037 3.70070801 63.23438965 3.74511719 67.15161133 C3.78835259 70.54853913 3.78835259 70.54853913 3.832901 73.94544983 C3.8521695 75.46288395 3.86948014 76.98034368 3.88526917 78.49781799 C3.90950815 80.79135362 3.93988594 83.08473221 3.97167969 85.37817383 C3.98722397 86.67279037 4.00276825 87.96740692 4.01878357 89.30125427 C3.84858938 92.08693126 3.84858938 92.08693126 5.17700195 93.19287109 C5.50700195 86.26287109 5.83700195 79.33287109 6.17700195 72.19287109 C11.21627424 73.87262852 13.7116374 78.50280867 16.91674805 82.59277344 C18.13063411 84.13399956 19.36632307 85.65797682 20.6027832 87.18115234 C54.53189117 129.76840588 75.63637372 188.51909637 75.49267578 242.94335938 C75.48952246 245.42671993 75.51306125 247.90887573 75.53833008 250.39208984 C75.59805842 265.28319311 74.00307302 280.08452763 69.42700195 294.31787109 C69.16951172 295.14005127 68.91202148 295.96223145 68.64672852 296.80932617 C59.89608985 324.08810284 44.89392239 350.12343847 22.17700195 368.19287109 C21.43184326 368.78986816 21.43184326 368.78986816 20.67163086 369.39892578 C-7.53944355 391.75237035 -41.99840887 402.3361236 -77.9519043 398.73193359 C-113.8698198 394.49069133 -146.86416417 377.02977373 -169.59765625 348.59667969 C-198.26102631 311.7880221 -207.97372216 266.83554622 -202.76049805 220.94287109 C-200.21022786 200.67996241 -195.80818687 179.05571652 -187.82299805 160.19287109 C-187.16299805 159.86287109 -186.50299805 159.53287109 -185.82299805 159.19287109 C-184.93135682 163.42096387 -184.05945933 167.65254184 -183.20458984 171.88818359 C-182.91195768 173.32447824 -182.61422574 174.75974468 -182.31103516 176.19384766 C-180.58056012 184.39715741 -179.25926612 191.83659926 -180.82299805 200.19287109 C-180.97244873 201.13372559 -181.12189941 202.07458008 -181.27587891 203.04394531 C-181.93022754 207.12694892 -182.64876057 211.19794983 -183.36206055 215.27099609 C-190.30235392 255.66971873 -183.77029203 297.4787617 -160.01049805 331.44287109 C-142.22806892 355.8161362 -116.22309504 374.36221816 -86.11987305 379.66943359 C-65.9552686 380.84467128 -40.18266163 364.17041527 -25.5925293 351.42333984 C-22.60562374 348.74458521 -19.71271598 345.97587861 -16.82299805 343.19287109 C-16.16686523 342.59990234 -15.51073242 342.00693359 -14.8347168 341.39599609 C5.01741955 322.9586097 14.2195375 293.48375048 15.30297852 267.12841797 C16.02881212 236.34939811 12.65798154 205.83622631 4.17700195 176.19287109 C4.1629834 177.88029419 4.1629834 177.88029419 4.14868164 179.60180664 C4.1087294 183.78612479 4.04295644 187.96971172 3.96948242 192.15356445 C3.94130306 193.96238798 3.92007341 195.77133395 3.90600586 197.58032227 C3.88453382 200.18488104 3.83786385 202.78797244 3.78637695 205.39208984 C3.78514832 206.19748703 3.78391968 207.00288422 3.78265381 207.83268738 C3.68070453 211.76416509 3.43101669 213.78056071 1.32080078 217.20581055 C-1.50059278 219.82092525 -3.08765018 219.80581824 -6.88549805 219.69287109 C-7.92834961 219.68255859 -8.97120117 219.67224609 -10.0456543 219.66162109 C-13.21483497 219.12673828 -13.93455718 218.72125768 -15.82299805 216.19287109 C-16.2077589 213.74521828 -16.2077589 213.74521828 -16.22172546 210.77578735 C-16.23426361 209.64817993 -16.24680176 208.52057251 -16.25971985 207.35879517 C-16.25828476 206.11890839 -16.25684967 204.87902161 -16.25537109 203.6015625 C-16.27065857 201.64110992 -16.27065857 201.64110992 -16.28625488 199.64105225 C-16.31398141 196.03392163 -16.32314319 192.42694899 -16.32910895 188.81972551 C-16.33856487 184.98313933 -16.36482613 181.14666591 -16.38911438 177.31015015 C-16.43298128 169.97038133 -16.46134572 162.63063401 -16.48443776 155.29077375 C-16.51073202 147.18724692 -16.55504285 139.08385484 -16.60066962 130.98041773 C-16.6802168 116.76163445 -16.73600465 102.54292094 -16.77172446 88.32396173 C-16.79497698 79.13430366 -16.83282669 69.94501441 -16.89957565 60.7555629 C-16.94142614 54.97837399 -16.97390333 49.20118957 -16.99894959 43.42390335 C-17.01396739 40.07748305 -17.03578365 36.73144883 -17.06735802 33.38512039 C-17.10101551 29.74462282 -17.11620982 26.10449379 -17.12695312 22.46386719 C-17.14868434 20.86935289 -17.14868434 20.86935289 -17.17085457 19.24262619 C-17.16560058 12.52225875 -16.34836422 8.11282573 -11.82299805 2.88037109 C-8.13772472 -0.22907827 -4.64322635 0.04783684 0 0 Z " fill="#C9C8CB" transform="translate(262.822998046875,-0.19287109375)"/>
<path d="M0 0 C5.03927229 1.67975743 7.53463545 6.30993758 10.73974609 10.39990234 C11.95363216 11.94112847 13.18932112 13.46510572 14.42578125 14.98828125 C48.35488922 57.57553479 69.45937176 116.32622527 69.31567383 170.75048828 C69.31252051 173.23384883 69.3360593 175.71600464 69.36132812 178.19921875 C69.42105647 193.09032201 67.82607107 207.89165654 63.25 222.125 C62.99250977 222.94718018 62.73501953 223.76936035 62.46972656 224.61645508 C53.71908789 251.89523174 38.71692044 277.93056738 16 296 C15.25484131 296.59699707 15.25484131 296.59699707 14.49462891 297.20605469 C-13.7164455 319.55949925 -48.17541082 330.14325251 -84.12890625 326.5390625 C-120.04682175 322.29782023 -153.04116612 304.83690263 -175.7746582 276.40380859 C-204.43802826 239.595151 -214.15072412 194.64267513 -208.9375 148.75 C-206.38722981 128.48709132 -201.98518883 106.86284543 -194 88 C-193.01 87.505 -193.01 87.505 -192 87 C-191.10835877 91.22809278 -190.23646128 95.45967074 -189.3815918 99.6953125 C-189.08895963 101.13160714 -188.79122769 102.56687358 -188.48803711 104.00097656 C-186.75756207 112.20428632 -185.43626808 119.64372817 -187 128 C-187.14945068 128.94085449 -187.29890137 129.88170898 -187.45288086 130.85107422 C-188.10722949 134.93407783 -188.82576252 139.00507873 -189.5390625 143.078125 C-196.47935588 183.47684764 -189.94729399 225.2858906 -166.1875 259.25 C-147.48778232 284.88053525 -120.51598764 302.76593132 -89.06640625 308.34765625 C-61.69147967 312.38214098 -34.91435081 306.41306598 -11 293 C-10.00484375 292.44570313 -9.0096875 291.89140625 -7.984375 291.3203125 C-0.43379039 286.81153484 5.70688088 281.07184208 12 275 C12.72058594 274.34257812 13.44117188 273.68515625 14.18359375 273.0078125 C36.64413586 251.94822975 49.80282895 217.43188547 51.17700195 187.09204102 C51.20307902 185.72942585 51.22327474 184.3666883 51.23828125 183.00390625 C51.25304001 181.89079071 51.25304001 181.89079071 51.26809692 180.75518799 C51.81357836 128.8418483 36.7446437 67.99285697 2.109375 27.62890625 C-1.35036108 22.87851685 -0.52904746 17.17607644 -0.3125 11.5625 C-0.27866211 9.8928418 -0.27866211 9.8928418 -0.24414062 8.18945312 C-0.18553062 5.45822705 -0.10353541 2.72983047 0 0 Z " fill="#373435" transform="translate(269,72)"/>
<path d="M0 0 C1.22219742 -0.01906403 2.44439484 -0.03812805 3.70362854 -0.05776978 C5.67552406 -0.05503555 5.67552406 -0.05503555 7.68725586 -0.05224609 C9.06384289 -0.06003217 10.44042516 -0.068704 11.81700134 -0.07821655 C14.7028661 -0.09312233 17.58824165 -0.09257743 20.47412109 -0.08203125 C24.14038858 -0.07050783 27.80461329 -0.10414255 31.47054386 -0.1507206 C34.3165778 -0.18046912 37.16213694 -0.18190134 40.00829887 -0.17570114 C42.00660514 -0.17720423 44.00483853 -0.20476119 46.00294495 -0.23306274 C55.65447732 -0.13643142 63.75039463 1.96827026 71.07240295 8.55917358 C79.056258 16.9855306 81.10615562 25.41325032 80.98803711 36.72900391 C80.40956492 51.61705141 80.40956492 51.61705141 76.40209961 56.54931641 C75.55647461 57.20931641 74.71084961 57.86931641 73.83959961 58.54931641 C72.78672147 60.18309283 71.76689951 61.84113238 70.83959961 63.54931641 C71.82959961 63.54931641 72.81959961 63.54931641 73.83959961 63.54931641 C73.83959961 64.20931641 73.83959961 64.86931641 73.83959961 65.54931641 C74.39647461 65.75556641 74.95334961 65.96181641 75.52709961 66.17431641 C79.61440541 68.60460634 82.34421843 72.06317287 83.83959961 76.54931641 C84.09099793 80.87198053 84.11048438 85.19688034 84.13476562 89.52587891 C84.14623576 90.94753003 84.1666085 92.3691398 84.19628906 93.79052734 C84.36949144 102.09263015 84.34515172 109.3073268 79.83959961 116.54931641 C79.34459961 117.34724609 78.84959961 118.14517578 78.33959961 118.96728516 C72.85236617 125.44050585 65.20529444 129.8723699 56.83959961 131.54931641 C54.89119473 131.6502247 52.93974331 131.69758959 50.98876953 131.71044922 C49.81042038 131.72005676 48.63207123 131.72966431 47.41801453 131.73956299 C45.51328117 131.74593781 45.51328117 131.74593781 43.57006836 131.75244141 C42.26056717 131.75814148 40.95106598 131.76384155 39.60188293 131.76971436 C36.83045058 131.78020487 34.05904706 131.78606012 31.28759766 131.78955078 C27.75034815 131.79502844 24.21348492 131.81904861 20.67635632 131.84752274 C17.28676822 131.87071871 13.89723166 131.87260328 10.50756836 131.87744141 C9.24381882 131.88978821 7.98006927 131.90213501 6.67802429 131.91485596 C-5.12154962 131.88504326 -5.12154962 131.88504326 -10.16040039 128.54931641 C-14.48323245 122.63856972 -14.73136486 117.84771262 -14.66210938 110.66040039 C-14.66751236 109.58636963 -14.67291534 108.51233887 -14.67848206 107.40576172 C-14.69095158 103.86869438 -14.67449028 100.33244373 -14.65649414 96.79541016 C-14.65664916 94.33114072 -14.65813858 91.86687104 -14.66090393 89.40260315 C-14.6622871 84.24379672 -14.64974217 79.08526858 -14.62695312 73.92651367 C-14.59855429 67.31660928 -14.60131119 60.70716669 -14.61404324 54.09722805 C-14.62100014 49.01084962 -14.61321114 43.92457779 -14.60078621 38.83821297 C-14.59627291 36.40097525 -14.59593384 33.96372609 -14.59985161 31.52648735 C-14.60276422 28.12036571 -14.58625391 24.71487924 -14.56445312 21.30883789 C-14.56895477 20.30347488 -14.57345642 19.29811188 -14.57809448 18.26228333 C-14.50687652 11.56011905 -13.73094087 7.16249622 -8.85792542 2.20864868 C-5.64656694 0.23324133 -3.75126426 0.0322487 0 0 Z M15.83959961 26.54931641 C15.83959961 34.46931641 15.83959961 42.38931641 15.83959961 50.54931641 C20.48536277 50.64116016 25.12797793 50.72078341 29.77392578 50.76904297 C31.35411246 50.78915827 32.9342247 50.81645444 34.51416016 50.85107422 C36.78558709 50.89959983 39.05603019 50.9222845 41.32788086 50.93994141 C42.03423172 50.96058655 42.74058258 50.98123169 43.46833801 51.00250244 C46.65372447 51.00395958 48.38356395 50.96393583 50.78857422 48.77734375 C51.88342107 46.45642101 52.20279298 45.05633879 52.16772461 42.51025391 C52.15999023 41.39263672 52.15999023 41.39263672 52.15209961 40.25244141 C52.13147461 39.48416016 52.11084961 38.71587891 52.08959961 37.92431641 C52.08186523 36.76029297 52.08186523 36.76029297 52.07397461 35.57275391 C52.09947964 31.42725904 52.09947964 31.42725904 50.83959961 27.54931641 C47.33335531 26.3805683 44.19181301 26.42417373 40.54663086 26.45166016 C39.84060226 26.4530751 39.13457367 26.45449005 38.40715027 26.45594788 C36.15542335 26.46153877 33.9037964 26.47408953 31.65209961 26.48681641 C30.12410626 26.49183259 28.59611134 26.49639529 27.06811523 26.50048828 C23.32520733 26.5106537 19.58251518 26.53023072 15.83959961 26.54931641 Z M15.83959961 77.54931641 C15.83959961 86.78931641 15.83959961 96.02931641 15.83959961 105.54931641 C20.42969764 105.5953709 25.0189854 105.63515254 29.60913086 105.65917969 C31.1687289 105.66920198 32.72830831 105.68282346 34.2878418 105.70019531 C36.53691215 105.72461051 38.78573283 105.73583731 41.03491211 105.74462891 C42.07121262 105.76011276 42.07121262 105.76011276 43.12844849 105.77590942 C47.41220123 105.77688955 50.85672239 105.11537289 54.83959961 103.54931641 C55.89706683 99.21793068 56.02300898 94.98356338 56.02709961 90.54931641 C56.04546875 89.50130859 56.04546875 89.50130859 56.06420898 88.43212891 C56.07659073 84.0572466 55.52272809 81.7571376 53.83959961 77.54931641 C41.29959961 77.54931641 28.75959961 77.54931641 15.83959961 77.54931641 Z " fill="#5259A5" transform="translate(388.160400390625,64.45068359375)"/>
<path d="M0 0 C1.42671863 -0.00202497 2.85343625 -0.00493992 4.28015137 -0.00869751 C7.25897146 -0.01310102 10.23752024 -0.00675409 13.21630859 0.00732422 C17.01570996 0.02441527 20.81447536 0.01456339 24.61385345 -0.00339317 C27.55658677 -0.01428481 30.49917176 -0.01076019 33.44190979 -0.0030098 C34.8420062 -0.00102261 36.24211651 -0.00341441 37.64219666 -0.01044846 C47.74275424 -0.05006974 55.93557855 0.45238966 63.67578125 7.51953125 C69.75203268 14.63066735 71.42340675 22.39830656 71.47412109 31.46484375 C71.48638733 32.68038689 71.48638733 32.68038689 71.49890137 33.92048645 C71.52369596 36.60062944 71.54026114 39.28071946 71.5546875 41.9609375 C71.56001118 42.8800592 71.56533485 43.79918091 71.57081985 44.74615479 C71.59753278 49.61640589 71.61690882 54.4866316 71.63134766 59.35693359 C71.64465297 63.37051352 71.67244514 67.38358096 71.71337891 71.39697266 C71.76295033 76.25812001 71.78749913 81.11880482 71.79457474 85.98019409 C71.80124871 87.82360892 71.81636899 89.66701501 71.84046555 91.51028442 C71.99082482 103.71369325 71.77309455 115.03771439 62.78125 124.3984375 C50.89946455 133.31989161 35.91689025 131.98661012 21.83349609 131.86499023 C18.15807098 131.83595189 14.48408535 131.84442647 10.80859375 131.85742188 C8.44270142 131.85118515 6.07681357 131.84279473 3.7109375 131.83203125 C2.62730927 131.83496689 1.54368103 131.83790253 0.42721558 131.84092712 C-9.81954884 131.71575327 -20.58422805 130.08338455 -28.37109375 122.8671875 C-35.8012806 114.87383246 -36.82325136 105.53095397 -36.87988281 94.90942383 C-36.88484772 94.19615936 -36.88981262 93.4828949 -36.89492798 92.74801636 C-36.90942675 90.40882367 -36.91633158 88.06969883 -36.921875 85.73046875 C-36.92470238 84.92442389 -36.92752975 84.11837902 -36.93044281 83.28790855 C-36.94538696 79.02063042 -36.95464605 74.75338567 -36.95898438 70.48608398 C-36.96445623 66.10981435 -36.98847075 61.73385783 -37.01695633 57.35768604 C-37.03571032 53.96446377 -37.04079509 50.57131496 -37.04232025 47.17804527 C-37.04531954 45.56632466 -37.0532542 43.95460449 -37.06650543 42.34293556 C-37.16431885 29.53029054 -37.01223696 17.18978983 -27.71875 7.3984375 C-19.75608008 -0.35468848 -10.46067338 -0.05255472 0 0 Z M-6.71875 27.3984375 C-6.81371708 29.80192036 -6.84433862 32.17654732 -6.83227539 34.58032227 C-6.83242142 35.33149323 -6.83256744 36.08266418 -6.8327179 36.8565979 C-6.83201863 39.35104209 -6.82422564 41.84541253 -6.81640625 44.33984375 C-6.81454212 46.06477314 -6.81311819 47.78970307 -6.81211853 49.51463318 C-6.80829297 54.06356253 -6.79846238 58.61246017 -6.78741455 63.16137695 C-6.77720124 67.79963756 -6.77262108 72.43790327 -6.76757812 77.07617188 C-6.75684014 86.18360772 -6.73976327 95.29101998 -6.71875 104.3984375 C-0.61786546 105.22453119 -0.61786546 105.22453119 5.52246094 105.55957031 C6.24971375 105.56917786 6.97696655 105.5787854 7.72625732 105.58868408 C8.48174866 105.59293396 9.23723999 105.59718384 10.015625 105.6015625 C11.21629608 105.61011261 11.21629608 105.61011261 12.44122314 105.61883545 C14.1185171 105.62821221 15.79582886 105.63478995 17.47314453 105.63867188 C20.03840525 105.64846482 22.60289243 105.67959038 25.16796875 105.7109375 C26.80468279 105.71746082 28.44140249 105.72271392 30.078125 105.7265625 C30.84171326 105.7389093 31.60530151 105.7512561 32.39202881 105.76397705 C35.37049071 105.75146921 37.78252247 105.64101279 40.48460388 104.32675171 C43.09564676 101.52435728 42.8188125 98.82417589 42.7512207 95.18896484 C42.7534111 94.45861526 42.7556015 93.72826569 42.75785828 92.9757843 C42.76017008 90.56152071 42.73391539 88.14847597 42.70703125 85.734375 C42.70210884 84.05954374 42.69880899 82.38470698 42.69706726 80.70986938 C42.68942528 77.20093201 42.66885606 73.69240226 42.63793945 70.18359375 C42.59830339 65.67618879 42.58032164 61.16904887 42.57063007 56.66148949 C42.56067766 52.37324844 42.54077223 48.08507279 42.51953125 43.796875 C42.5161355 42.97362103 42.51273975 42.15036705 42.5092411 41.30216599 C42.49771683 38.98440423 42.47920556 36.66681441 42.45825195 34.34912109 C42.45556305 33.65612411 42.45287415 32.96312714 42.45010376 32.24913025 C42.679412 29.04502496 42.679412 29.04502496 41.28125 26.3984375 C39.81319708 26.30021006 38.3404754 26.2704538 36.86914062 26.26904297 C35.46263245 26.26431473 35.46263245 26.26431473 34.02770996 26.25949097 C33.00794067 26.2615152 31.98817139 26.26353943 30.9375 26.265625 C29.89807251 26.26466827 28.85864502 26.26371155 27.78771973 26.26272583 C25.58520446 26.26204387 23.38268721 26.26389923 21.18017578 26.26806641 C17.79585281 26.27341442 14.41166256 26.26812191 11.02734375 26.26171875 C8.89322887 26.26237953 6.75911408 26.26366069 4.625 26.265625 C3.60523071 26.26360077 2.58546143 26.26157654 1.53479004 26.25949097 C0.59711792 26.26264313 -0.3405542 26.26579529 -1.30664062 26.26904297 C-2.55121033 26.27023636 -2.55121033 26.27023636 -3.82092285 26.27145386 C-5.72976524 26.19001198 -5.72976524 26.19001198 -6.71875 27.3984375 Z " fill="#5259A5" transform="translate(530.71875,64.6015625)"/>
<path d="M0 0 C1.37565872 -0.0045726 2.75131516 -0.00988134 4.12696838 -0.0158844 C6.99725682 -0.02477139 9.86726636 -0.02244328 12.73754883 -0.01245117 C16.39001804 -0.00096606 20.04151969 -0.02118717 23.69386196 -0.05036831 C26.53117339 -0.06883926 29.36825754 -0.06841644 32.20561409 -0.06273079 C34.19842282 -0.06250582 36.19121057 -0.07929825 38.1839447 -0.09654236 C47.59194249 -0.0248771 55.36693287 1.22719666 62.56640625 7.62109375 C69.25885306 14.96068754 70.83745619 23.54750737 70.85253906 33.1862793 C70.85998642 34.33370857 70.85998642 34.33370857 70.86758423 35.50431824 C70.88214642 38.02632562 70.88899882 40.54827004 70.89453125 43.0703125 C70.90028871 44.83282979 70.90604636 46.59534709 70.9118042 48.35786438 C70.92229808 52.05229991 70.92815092 55.74671378 70.93164062 59.44116211 C70.93711416 64.15397736 70.96112456 68.86650209 70.98961258 73.57922649 C71.00832375 77.2211437 71.01344911 80.86299219 71.0149765 84.50495338 C71.01798574 86.24113359 71.02595522 87.97731308 71.03916168 89.71344566 C71.1305444 102.65291126 70.61020325 114.2464351 61.69140625 124.43359375 C54.2665103 130.73630046 45.53638989 131.71916822 36.13671875 131.91796875 C35.23629852 131.94207825 34.3358783 131.96618774 33.40817261 131.99102783 C31.50725086 132.03910151 29.60620681 132.08253984 27.70507812 132.12158203 C24.85873612 132.18268505 22.01367089 132.26612229 19.16796875 132.3515625 C-14.89612998 133.22433099 -14.89612998 133.22433099 -28.18359375 124.55859375 C-37.29341555 115.44877195 -37.69215086 103.46536296 -37.72543335 91.28573608 C-37.72006343 89.63449848 -37.71391043 87.98326326 -37.70703125 86.33203125 C-37.70905744 84.60193764 -37.71197339 82.87184487 -37.71572876 81.14175415 C-37.72012413 77.53615088 -37.71381019 73.93077224 -37.69970703 70.32519531 C-37.68259092 65.72799042 -37.69248937 61.13131021 -37.71042442 56.53412437 C-37.72131609 52.96853756 -37.7177918 49.40307315 -37.71004105 45.83748245 C-37.70805522 44.14318401 -37.71044071 42.44887406 -37.71747971 40.75458908 C-37.75697706 28.58290626 -37.63548283 17.21960904 -28.8125 7.84375 C-20.49508939 -0.01264939 -10.95402406 -0.0247319 0 0 Z M-6.30859375 26.43359375 C-8.76787787 30.12251994 -8.55647799 31.93478278 -8.55151367 36.3359375 C-8.55341202 37.03381378 -8.55531036 37.73169006 -8.55726624 38.45071411 C-8.56097097 40.7576216 -8.55027397 43.06421423 -8.5390625 45.37109375 C-8.53787036 46.97387658 -8.53741761 48.57666011 -8.53767395 50.17944336 C-8.53610959 53.53861871 -8.52782372 56.89768741 -8.5144043 60.25683594 C-8.49741456 64.5644976 -8.49359001 68.87204204 -8.49434948 73.17973328 C-8.49407765 76.48939128 -8.48859438 79.79902362 -8.48134804 83.1086731 C-8.47816405 84.69711106 -8.47619459 86.28555194 -8.47545433 87.87399292 C-8.47328792 90.09312908 -8.46453715 92.31214059 -8.45385742 94.53125 C-8.45004562 95.79461182 -8.44623383 97.05797363 -8.44230652 98.35961914 C-8.44785566 101.47364446 -8.44785566 101.47364446 -7.30859375 104.43359375 C-4.62421523 105.32838659 -3.03992709 105.56809323 -0.28369141 105.59472656 C0.92303726 105.60913788 0.92303726 105.60913788 2.15414429 105.62384033 C3.01980011 105.62809021 3.88545593 105.63234009 4.77734375 105.63671875 C6.1182457 105.64526886 6.1182457 105.64526886 7.48623657 105.6539917 C9.37753111 105.66343631 11.26884206 105.66997354 13.16015625 105.67382812 C16.04847 105.68353348 18.93607199 105.71456161 21.82421875 105.74609375 C23.6627562 105.75262411 25.50129873 105.75787445 27.33984375 105.76171875 C28.20145111 105.77406555 29.06305847 105.78641235 29.95077515 105.7991333 C31.1669603 105.79463165 31.1669603 105.79463165 32.40771484 105.79003906 C33.11592377 105.79368469 33.82413269 105.79733032 34.55380249 105.80108643 C37.61672932 105.27451401 39.31348921 104.45662885 41.69140625 102.43359375 C42.18284824 99.81153465 42.32727269 97.82950856 42.2590332 95.20825195 C42.2601284 94.11031815 42.2601284 94.11031815 42.26124573 92.99020386 C42.25776219 90.57084023 42.21886916 88.15340217 42.1796875 85.734375 C42.17036199 84.05715487 42.16324464 82.37992111 42.1582489 80.7026825 C42.13915816 76.28822219 42.09004024 71.8745845 42.034729 67.46044922 C41.98358082 62.9561679 41.96074438 58.45175364 41.93554688 53.94726562 C41.8819229 45.10901357 41.79658553 36.27137206 41.69140625 27.43359375 C38.80750636 26.61269039 36.22484538 26.29913091 33.22998047 26.27246094 C32.35582489 26.26285339 31.48166931 26.25324585 30.58102417 26.24334717 C29.64549713 26.23909729 28.70997009 26.23484741 27.74609375 26.23046875 C26.29675949 26.22191864 26.29675949 26.22191864 24.81814575 26.2131958 C22.7790028 26.20376229 20.73984472 26.19721838 18.70068359 26.19335938 C15.57102335 26.18360814 12.44200745 26.15255103 9.3125 26.12109375 C7.33203515 26.11456793 5.35156561 26.10931581 3.37109375 26.10546875 C2.43151825 26.09312195 1.49194275 26.08077515 0.52389526 26.0680542 C-0.34395599 26.0710553 -1.21180725 26.0740564 -2.10595703 26.07714844 C-2.87110626 26.07350281 -3.63625549 26.06985718 -4.42459106 26.06610107 C-5.04631195 26.18737366 -5.66803284 26.30864624 -6.30859375 26.43359375 Z " fill="#5259A5" transform="translate(636.30859375,213.56640625)"/>
<path d="M0 0 C4.61218335 1.8047674 6.61070323 4.73339862 9 9 C10.14272136 13.19852405 10.12930424 17.34204799 10.09765625 21.66088867 C10.09619598 22.41608795 10.09473572 23.17128723 10.0932312 23.94937134 C10.08943585 25.58407944 10.08333055 27.21878346 10.07516479 28.85347557 C10.06234966 31.44841204 10.05587164 34.04329706 10.05102539 36.63825989 C10.03768331 43.08666634 10.01355486 49.53502413 9.98962402 55.98339844 C9.96980477 61.43011012 9.95419688 66.87680307 9.94406128 72.32354164 C9.93763171 74.86589051 9.92512088 77.40816149 9.91235352 79.95048523 C9.88819504 87.69493258 10.01344542 95.30419457 11 103 C13.7062437 103.90208123 15.23850986 104.12227599 18.01245117 104.11352539 C18.81305466 104.11344986 19.61365814 104.11337433 20.43852234 104.11329651 C21.29798965 104.10813522 22.15745697 104.10297394 23.04296875 104.09765625 C24.36836418 104.09553383 24.36836418 104.09553383 25.72053528 104.09336853 C28.54289128 104.08777069 31.36516797 104.07521861 34.1875 104.0625 C36.10091031 104.05748472 38.01432187 104.05292186 39.92773438 104.04882812 C44.61852014 104.03780197 49.30924663 104.02053883 54 104 C54.00879936 102.31323402 54.00879936 102.31323402 54.01777649 100.59239197 C54.07504146 89.98409222 54.147823 79.37599673 54.23571491 68.76790524 C54.28040235 63.31444215 54.31966222 57.86105349 54.34643555 52.4074707 C54.37248451 47.14239347 54.41289859 41.87760289 54.46318626 36.61270332 C54.47984413 34.60615167 54.49136512 32.59955044 54.49761391 30.59293938 C54.50726662 27.77771986 54.53534023 24.96323193 54.56762695 22.14819336 C54.56547432 20.90956795 54.56547432 20.90956795 54.5632782 19.6459198 C54.6714553 12.95666506 55.99589724 8.24850554 60.5625 3.125 C64.57288338 -0.37123166 67.35193497 -0.28540381 72.52734375 -0.2109375 C75.81083215 0.06917052 77.52628259 0.81730817 80 3 C84.73853008 9.18641427 85.14959999 13.78869975 85.14526367 21.3894043 C85.14862228 22.23384598 85.1519809 23.07828766 85.15544128 23.94831848 C85.16494008 26.74030021 85.16689412 29.53222186 85.16796875 32.32421875 C85.171183 34.26992314 85.1745472 36.21562729 85.17805481 38.16133118 C85.18404406 42.24256958 85.18589501 46.32378681 85.18530273 50.4050293 C85.18520134 55.61898945 85.1988313 60.83281275 85.21607494 66.04674053 C85.2272303 70.06778071 85.22922083 74.08878823 85.22869301 78.1098423 C85.22986865 80.03104942 85.23426696 81.95225751 85.24202538 83.87344933 C85.25189299 86.57026928 85.24892026 89.26679775 85.24291992 91.96362305 C85.24853943 92.74784637 85.25415894 93.5320697 85.25994873 94.34005737 C85.20074261 104.88464619 82.57347927 113.90441494 75.33203125 121.82421875 C69.03036858 127.5490702 61.76038884 131.09088599 53.20654297 131.16113281 C52.25810516 131.17074036 51.30966736 131.1803479 50.33248901 131.19024658 C49.31268951 131.19449646 48.29289001 131.19874634 47.2421875 131.203125 C46.18395782 131.20882507 45.12572815 131.21452515 44.03543091 131.22039795 C41.79446408 131.22984176 39.55348341 131.23637947 37.3125 131.24023438 C33.90860229 131.24990454 30.50531766 131.28091978 27.1015625 131.3125 C24.9192744 131.3190341 22.736982 131.32428297 20.5546875 131.328125 C19.54703339 131.3404718 18.53937927 131.3528186 17.50119019 131.36553955 C6.39622296 131.33108762 -2.64295917 128.47811068 -11 121 C-17.40269402 113.39349367 -19.3022101 106.25381917 -19.2746582 96.49389648 C-19.27976913 95.55495544 -19.28488007 94.6160144 -19.29014587 93.64862061 C-19.30400578 90.55604619 -19.30308821 87.46369546 -19.30078125 84.37109375 C-19.30466933 82.2168825 -19.30900423 80.06267202 -19.31376648 77.90846252 C-19.32122033 73.3986665 -19.32094283 68.88894878 -19.31567383 64.37915039 C-19.30987147 58.59980022 -19.32683289 52.82076973 -19.3500185 47.04147243 C-19.36474585 42.59509914 -19.36562905 38.1488031 -19.36250877 33.70240974 C-19.36302219 31.57135445 -19.36826383 29.44029486 -19.37832069 27.30926323 C-19.39065218 24.33153302 -19.38391367 21.35442911 -19.37231445 18.37670898 C-19.37995819 17.49709 -19.38760193 16.61747101 -19.39547729 15.7111969 C-19.35463931 10.9698274 -19.06465079 7.85398942 -16 4 C-11.01544389 -0.49825795 -6.42101228 -0.87119262 0 0 Z " fill="#5259A5" transform="translate(752,214)"/>
<path d="M0 0 C4.45449826 2.49590564 6.60713455 4.6737264 8.07713318 9.6362915 C9.04625859 13.72465262 9.26503672 17.68744718 9.21118164 21.87792969 C9.2098674 22.62060089 9.20855316 23.36327209 9.2071991 24.12844849 C9.20076075 26.55972533 9.18034401 28.99067705 9.16015625 31.421875 C9.15387346 33.13046935 9.14863751 34.83906783 9.14439392 36.54766846 C9.1311388 41.03441129 9.10674346 45.52101603 9.07904053 50.00769043 C9.03582414 57.1726806 9.00598163 64.33770384 8.9829998 71.50278473 C8.97290234 73.98634779 8.95583624 76.46979022 8.93800354 78.95330811 C8.89368969 87.35839774 9.08587252 95.63124715 10 104 C15.32021739 104.04953293 20.64029976 104.08578256 25.96069336 104.10986328 C27.76963643 104.11990487 29.57856333 104.1335408 31.38745117 104.15087891 C33.99141435 104.17520832 36.59516242 104.18650161 39.19921875 104.1953125 C40.40731453 104.21079636 40.40731453 104.21079636 41.63981628 104.22659302 C45.87543291 104.22743446 49.15509354 104.00664656 53 102 C54.81697081 100.18302919 54.13046886 97.67209725 54.14344788 95.25292969 C54.14291916 94.42752686 54.14239044 93.60212402 54.1418457 92.75170898 C54.14705734 91.45403343 54.14705734 91.45403343 54.15237427 90.13014221 C54.15974686 88.24382106 54.16508419 86.35749114 54.16866493 84.47115898 C54.17581455 81.48217064 54.19147198 78.49334799 54.21000671 75.50440979 C54.26253122 67.00320785 54.31041401 58.50209294 54.32592773 50.00073242 C54.33603075 44.80578374 54.36542108 39.61124608 54.40724754 34.41646004 C54.4195365 32.43864113 54.42468266 30.46076407 54.42244911 28.48290825 C54.42008627 25.70618051 54.44233934 22.93062202 54.4699707 20.15405273 C54.46006859 18.93720291 54.46006859 18.93720291 54.44996643 17.69577026 C54.55561199 11.19801343 56.3279538 5.76493942 60.91015625 1.0234375 C65.04744368 -1.00267335 69.51880108 -0.48679691 74 0 C78.20261675 1.69893018 80.41945133 4.3135019 83 8 C84.28502528 11.85507584 84.15567427 15.50152785 84.16113281 19.51953125 C84.16858017 20.82504692 84.16858017 20.82504692 84.17617798 22.15693665 C84.19080424 25.04213246 84.19760468 27.92727317 84.203125 30.8125 C84.20887893 32.82210288 84.21463664 34.83170574 84.22039795 36.84130859 C84.23091122 41.06136328 84.23675081 45.2813989 84.24023438 49.50146484 C84.2457 54.88682533 84.26968518 60.27193053 84.29820633 65.6572113 C84.31691659 69.81301585 84.3220429 73.96876017 84.32357025 78.12460327 C84.32658169 80.10836167 84.33455876 82.09211939 84.34775543 84.07583618 C84.50795425 110.02295919 84.50795425 110.02295919 76.015625 119.99609375 C68.32028781 127.64669061 59.21490992 131.29842812 48.4271698 131.4168396 C47.52694595 131.41076691 46.62672211 131.40469421 45.69921875 131.3984375 C44.74159134 131.40130768 43.78396393 131.40417786 42.7973175 131.40713501 C40.78292241 131.40916469 38.76850711 131.4037121 36.75415039 131.39111328 C33.70608358 131.37509764 30.65935334 131.39097236 27.61132812 131.41015625 C13.53728627 131.42570959 -0.4987783 131.11961228 -11.74609375 121.5078125 C-21.81441898 111.01265054 -20.57738662 96.83509256 -20.49609375 83.35546875 C-20.49624894 81.25564016 -20.49774119 79.15581128 -20.50050354 77.0559845 C-20.50188217 72.67431846 -20.48941412 68.29298192 -20.46655273 63.91137695 C-20.43808189 58.3014972 -20.44093651 52.69216062 -20.45364285 47.0822401 C-20.46060104 42.75418978 -20.45281054 38.42626469 -20.44038582 34.09823036 C-20.43587889 32.02941684 -20.43552787 29.96058984 -20.43945122 27.89177513 C-20.44236702 25.00333469 -20.42584162 22.11564089 -20.40405273 19.22729492 C-20.40855438 18.37782791 -20.41305603 17.5283609 -20.41769409 16.65315247 C-20.35582741 11.70803256 -19.76423385 8.27016618 -17 4 C-11.43244145 -0.29165971 -6.90469078 -2.02335261 0 0 Z " fill="#5259A5" transform="translate(648,65)"/>
<path d="M0 0 C1.07950928 -0.00524185 2.15901855 -0.0104837 3.27124023 -0.0158844 C5.54377384 -0.02228119 7.81634065 -0.02099814 10.08886719 -0.01245117 C13.55203498 -0.00393199 17.01355688 -0.03275232 20.4765625 -0.06445312 C22.69270784 -0.06606521 24.90885608 -0.06548747 27.125 -0.0625 C28.66595337 -0.07935097 28.66595337 -0.07935097 30.23803711 -0.09654236 C37.59610584 -0.02571859 42.95211437 1.23425771 48.62109375 6.2578125 C52.10903456 10.97097898 54.43245694 15.42402276 53.5625 21.43359375 C51.35078028 24.65064061 49.88287198 26.10550681 46.07177734 27.05249023 C41.19828962 27.58174544 36.37492939 27.55606111 31.4765625 27.53125 C30.41964203 27.52983505 29.36272156 27.5284201 28.27377319 27.52696228 C24.91165284 27.52138315 21.54960009 27.50883444 18.1875 27.49609375 C15.90234471 27.49107606 13.61718838 27.48651362 11.33203125 27.48242188 C5.74216162 27.47142054 0.15234225 27.45417024 -5.4375 27.43359375 C-5.4375 33.70359375 -5.4375 39.97359375 -5.4375 46.43359375 C1.93417559 48.95958363 1.93417559 48.95958363 9.26953125 50.4609375 C10.26275391 50.61103271 11.25597656 50.76112793 12.27929688 50.91577148 C13.30087891 51.06602783 14.32246094 51.21628418 15.375 51.37109375 C29.46744956 53.59683658 42.42972032 56.13928564 52.23828125 67.296875 C57.1456851 75.2153113 57.05058694 82.77004252 57 91.87109375 C57.01998047 93.14275391 57.03996094 94.41441406 57.06054688 95.72460938 C57.0549266 106.56611771 54.84659084 113.73203944 47.40234375 121.6484375 C36.48927243 132.23712878 22.18226042 132.59494055 7.67578125 132.453125 C5.23820791 132.41203378 2.80121829 132.36053464 0.36401367 132.30151367 C-2.13040778 132.24597334 -4.62427884 132.21759526 -7.11914062 132.18945312 C-8.72920431 132.15401465 -10.33923343 132.11696107 -11.94921875 132.078125 C-12.6827507 132.07375931 -13.41628265 132.06939362 -14.17204285 132.06489563 C-20.51336318 131.85839863 -25.96662163 129.91853784 -30.49609375 125.36328125 C-30.95113281 124.68523437 -31.40617187 124.0071875 -31.875 123.30859375 C-32.34808594 122.62539063 -32.82117188 121.9421875 -33.30859375 121.23828125 C-35.70337311 117.40994884 -35.93239221 113.87923564 -35.4375 109.43359375 C-34.79638324 108.08778859 -34.13238254 106.75244191 -33.4375 105.43359375 C-32.4205883 105.41813255 -32.4205883 105.41813255 -31.38313293 105.40235901 C-24.32653397 105.294171 -17.27005952 105.17958291 -10.21362305 105.0612793 C-7.58018601 105.01796992 -4.94672161 104.976292 -2.31323242 104.9362793 C1.47225183 104.8784802 5.25759889 104.81481308 9.04296875 104.75 C10.22022018 104.73328751 11.39747162 104.71657501 12.61039734 104.69935608 C14.26154289 104.66943825 14.26154289 104.66943825 15.94604492 104.63891602 C17.39499397 104.61559959 17.39499397 104.61559959 18.87321472 104.59181213 C21.97059944 104.47173576 21.97059944 104.47173576 26.5625 103.43359375 C26.5625 96.83359375 26.5625 90.23359375 26.5625 83.43359375 C18.92522794 81.44790301 11.31956395 79.56408678 3.58203125 78.0078125 C2.35452148 77.75789551 1.12701172 77.50797852 -0.13769531 77.25048828 C-2.58894188 76.75569132 -5.04270259 76.27315727 -7.49902344 75.80419922 C-16.83758909 73.90701784 -25.16126382 71.18576101 -31.22265625 63.4453125 C-35.01944376 57.15802771 -36.03888015 49.65706864 -36.4375 42.43359375 C-36.49035156 41.58023438 -36.54320312 40.726875 -36.59765625 39.84765625 C-36.93254684 29.68445496 -35.11057627 19.39823317 -28.4375 11.43359375 C-19.85165376 2.35525155 -12.22917102 -0.03494631 0 0 Z " fill="#5259A5" transform="translate(404.4375,213.56640625)"/>
<path d="M0 0 C1.25944931 -0.00524185 2.51889862 -0.0104837 3.81651306 -0.0158844 C6.47020103 -0.02228814 9.12302256 -0.02244155 11.77661133 -0.01245117 C15.16151275 -0.0009431 18.5453737 -0.02122119 21.93013859 -0.05036831 C25.18259697 -0.07321168 28.43498026 -0.06626098 31.6875 -0.0625 C32.89495377 -0.07373398 34.10240753 -0.08496796 35.34645081 -0.09654236 C42.04948213 -0.04113361 46.35851726 0.36654845 51.77734375 4.43359375 C55.863886 8.74103017 57.86721676 12.6250425 57.96484375 18.55859375 C57.77734375 22.43359375 57.77734375 22.43359375 56.77734375 25.43359375 C53.65664575 26.47382642 51.43518468 26.57647597 48.16015625 26.60717773 C47.0088623 26.62066757 45.85756836 26.63415741 44.67138672 26.64805603 C42.80571045 26.66371361 42.80571045 26.66371361 40.90234375 26.6796875 C38.2825486 26.71261482 35.66275702 26.74582665 33.04296875 26.77929688 C28.90173556 26.82784652 24.76047711 26.87168038 20.61914062 26.91040039 C16.63006225 26.94826339 12.64124847 27.0015615 8.65234375 27.0546875 C6.78666748 27.06730873 6.78666748 27.06730873 4.88330078 27.08018494 C3.15635986 27.10514793 3.15635986 27.10514793 1.39453125 27.13061523 C0.37987793 27.1409227 -0.63477539 27.15123016 -1.68017578 27.16184998 C-4.46559147 27.26106655 -4.46559147 27.26106655 -7.22265625 29.43359375 C-7.66365568 32.58800621 -7.66365568 32.58800621 -7.56323242 36.36181641 C-7.5636705 37.07411911 -7.56410858 37.78642181 -7.56455994 38.52030945 C-7.56246635 40.87970187 -7.5391095 43.23838766 -7.515625 45.59765625 C-7.51003105 47.23147188 -7.50576 48.86529253 -7.50276184 50.49911499 C-7.49129719 54.80320077 -7.46181633 59.10698373 -7.4286499 63.41094971 C-7.39798376 67.80126854 -7.38426392 72.19163622 -7.36914062 76.58203125 C-7.33694796 85.19935785 -7.28573233 93.81643815 -7.22265625 102.43359375 C-0.51813592 104.47107006 5.56106449 104.66799579 12.5390625 104.55859375 C13.64788284 104.55102051 14.75670319 104.54344727 15.89912415 104.53564453 C19.42119335 104.51133248 22.94292548 104.47406726 26.46484375 104.43359375 C31.11457451 104.38039969 35.76414202 104.34043513 40.4140625 104.30859375 C42.01105232 104.28369873 42.01105232 104.28369873 43.64030457 104.25830078 C45.13259331 104.24839111 45.13259331 104.24839111 46.6550293 104.23828125 C47.52580612 104.22780762 48.39658295 104.21733398 49.29374695 104.20654297 C52.3811199 104.48879105 55.51968735 105.17593735 57.77734375 107.43359375 C58.64182107 113.91008779 57.5626899 119.09916749 53.77734375 124.43359375 C50.02287259 128.48636536 45.74496132 131.12566824 40.20004272 131.70101929 C39.28501984 131.70864288 38.36999695 131.71626648 37.42724609 131.72412109 C36.38200775 131.7368808 35.33676941 131.7496405 34.25985718 131.76278687 C33.13898712 131.76501251 32.01811707 131.76723816 30.86328125 131.76953125 C29.69785797 131.77618805 28.53243469 131.78284485 27.33169556 131.78970337 C24.86551489 131.79982207 22.39930688 131.80452063 19.93310547 131.80419922 C16.18670585 131.80855381 12.44150236 131.8448327 8.6953125 131.8828125 C6.29297275 131.88868472 3.89062744 131.8926514 1.48828125 131.89453125 C0.37955658 131.90890228 -0.72916809 131.92327332 -1.87149048 131.93807983 C-12.66963759 131.87564153 -21.44223588 129.20929053 -29.28125 121.63671875 C-38.59599835 111.06625986 -38.52938992 98.72686265 -38.48828125 85.33984375 C-38.48963136 83.7824294 -38.49157477 82.22501546 -38.49407959 80.66760254 C-38.49701457 77.41654414 -38.49278589 74.16559625 -38.48339844 70.91455078 C-38.47200486 66.76901703 -38.47857309 62.62374235 -38.49054337 58.47821808 C-38.4978061 55.26611414 -38.49545388 52.05407058 -38.49028778 48.84196472 C-38.48896346 47.3143053 -38.49055579 45.78664022 -38.49524689 44.25898743 C-38.52673117 31.12773167 -37.80175305 19.83507765 -28.72265625 9.62109375 C-27.89765625 8.89921875 -27.07265625 8.17734375 -26.22265625 7.43359375 C-25.45953125 6.73234375 -24.69640625 6.03109375 -23.91015625 5.30859375 C-16.31419133 0.00908334 -8.97992092 -0.02186922 0 0 Z " fill="#5259A5" transform="translate(520.22265625,213.56640625)"/>
<path d="M0 0 C0.87983551 -0.0049649 1.75967102 -0.00992981 2.66616821 -0.01504517 C5.5856402 -0.02968612 8.50505783 -0.0364723 11.42456055 -0.04199219 C13.44996645 -0.04774242 15.47537234 -0.05350017 17.5007782 -0.05926514 C21.75198623 -0.06978088 26.00317532 -0.07561967 30.25439453 -0.07910156 C35.70202812 -0.08458494 41.14941159 -0.10860728 46.59696674 -0.13707352 C50.78255443 -0.15569765 54.96808188 -0.1609054 59.1537075 -0.16243744 C61.16196242 -0.16546542 63.17021624 -0.17349884 65.17843056 -0.18662262 C67.98893875 -0.20367694 70.79883606 -0.20180424 73.609375 -0.1953125 C74.43917374 -0.20452728 75.26897247 -0.21374207 76.12391663 -0.22323608 C80.76289936 -0.18966953 83.69766162 0.21516153 87.4987793 3.16113281 C90.418435 6.18939715 90.93044353 8.36939803 90.9362793 12.53613281 C90.79071671 17.49187721 90.00822103 20.46199153 86.4987793 24.16113281 C82.49061543 26.22191947 79.1360223 26.39582218 74.66674805 26.35644531 C73.37446289 26.35 72.08217773 26.34355469 70.75073242 26.33691406 C69.39591199 26.32020608 68.04109429 26.30327623 66.6862793 26.28613281 C65.31193679 26.27609284 63.93758726 26.26696877 62.56323242 26.25878906 C59.20823613 26.23524523 55.85359731 26.20235848 52.4987793 26.16113281 C52.50877205 27.86335999 52.50877205 27.86335999 52.51896667 29.59997559 C52.57986385 40.31080641 52.62479329 51.02160196 52.65421581 61.73256683 C52.66985089 67.23877699 52.69104987 72.74484703 52.72509766 78.25097656 C52.75776786 83.56778841 52.77564854 88.88446574 52.78341103 94.20137024 C52.78894077 96.22669084 52.79973899 98.25200434 52.81596947 100.27726746 C52.83784545 103.1208774 52.84074196 105.96393621 52.83935547 108.80761719 C52.8501413 109.63912292 52.86092712 110.47062866 52.87203979 111.32733154 C52.8402295 117.3831721 52.07692225 123.47089669 47.7019043 128.03613281 C43.13979226 130.66390934 39.90077314 131.9614282 34.4987793 131.16113281 C29.81791951 129.41728309 27.22080376 127.34138466 24.4987793 123.16113281 C22.35127402 118.05641696 22.22459705 113.5625246 22.27172852 108.12646484 C22.27143646 107.23801376 22.27114441 106.34956268 22.27084351 105.43418884 C22.27223122 102.5123399 22.28776613 99.59074943 22.3034668 96.66894531 C22.30719891 94.63727966 22.31004495 92.60561219 22.31204224 90.57394409 C22.31966306 85.23757929 22.33929826 79.90132407 22.3614502 74.56500244 C22.38194203 69.11529014 22.39105109 63.66556007 22.40112305 58.21582031 C22.42254559 47.53087644 22.45666283 36.84601376 22.4987793 26.16113281 C21.6924707 26.18208008 20.88616211 26.20302734 20.05541992 26.22460938 C16.37000202 26.30822454 12.68478436 26.3599383 8.9987793 26.41113281 C7.09612305 26.46140625 7.09612305 26.46140625 5.1550293 26.51269531 C-2.20769103 26.58939032 -7.33376766 26.34752518 -13.5012207 22.16113281 C-16.29142135 17.764453 -17.02675678 14.13375125 -16.15356445 9.09082031 C-13.38093806 0.88915901 -7.74837253 0.01036234 0 0 Z " fill="#5259A5" transform="translate(869.501220703125,213.8388671875)"/>
<path d="M0 0 C0.89002716 -0.00540298 1.78005432 -0.01080597 2.697052 -0.01637268 C5.6330105 -0.02885886 8.56798818 -0.01236959 11.50390625 0.00561523 C13.54744518 0.00546024 15.59098442 0.00397126 17.63452148 0.00120544 C21.91500867 -0.0001785 26.19516078 0.01237898 30.47558594 0.03515625 C35.96018873 0.06354067 41.44423479 0.06080341 46.92887878 0.04806614 C51.14795683 0.04110853 55.36690638 0.04889923 59.58596802 0.06132317 C61.60815946 0.06583685 63.63036469 0.06617519 65.65255737 0.06225777 C68.47959634 0.05934478 71.30587024 0.0758569 74.1328125 0.09765625 C75.38446701 0.09090378 75.38446701 0.09090378 76.66140747 0.08401489 C81.27692869 0.14309736 84.33032745 0.49670886 88.06640625 3.50170898 C90.34860526 6.9250075 90.36381788 8.34308567 90.37890625 12.37670898 C90.39566406 13.40538086 90.41242188 14.43405273 90.4296875 15.49389648 C90.00072211 19.0455454 89.35798966 20.74807515 87.06640625 23.50170898 C80.32016586 27.55393819 73.2945382 26.84012249 65.62890625 26.68920898 C64.32501953 26.67567383 63.02113281 26.66213867 61.67773438 26.64819336 C58.47353003 26.61298232 55.2701852 26.56372992 52.06640625 26.50170898 C52.0752887 27.64905518 52.08417114 28.79640137 52.09332275 29.97851562 C52.17451537 40.80705067 52.23442299 51.63552371 52.27365494 62.46429443 C52.29450278 68.03109453 52.32276953 73.5976483 52.36816406 79.16430664 C52.41172131 84.53948376 52.43556444 89.91442437 52.44591522 95.2897644 C52.45328883 97.33743003 52.46768777 99.38508314 52.48932648 101.43264771 C52.51849153 104.30751208 52.52235675 107.18140726 52.52050781 110.05639648 C52.53488892 110.89725296 52.54927002 111.73810944 52.56408691 112.60444641 C52.51841798 119.1949509 50.74668663 124.42435003 46.37890625 129.43920898 C41.24907637 131.79615785 36.61181827 131.98306683 31.25390625 130.31420898 C27.0562791 127.92732296 24.60907408 126.12971248 23.06640625 121.50170898 C22.97461598 118.47344539 22.94047445 115.46858435 22.95288086 112.44042969 C22.95273483 111.5134024 22.95258881 110.58637512 22.95243835 109.6312561 C22.95313571 106.56331045 22.96091988 103.4954253 22.96875 100.42749023 C22.97061481 98.30185479 22.97203841 96.17621891 22.97303772 94.05058289 C22.97685796 88.45281795 22.98668406 82.85507891 22.9977417 77.25732422 C23.00796641 71.54647166 23.01253762 65.83561493 23.01757812 60.12475586 C23.02830674 48.91706218 23.04537728 37.70938774 23.06640625 26.50170898 C22.25486084 26.51741943 21.44331543 26.53312988 20.60717773 26.54931641 C16.90615901 26.61193806 13.20525208 26.65078671 9.50390625 26.68920898 C8.22708984 26.7143457 6.95027344 26.73948242 5.63476562 26.76538086 C-8.27252138 26.87374933 -8.27252138 26.87374933 -14.30859375 21.31420898 C-16.39889628 17.69637768 -17.13861268 14.67589441 -16.93359375 10.50170898 C-13.87884014 1.67686524 -8.55945003 -0.09917173 0 0 Z " fill="#5259A5" transform="translate(764.93359375,64.498291015625)"/>
<path d="M0 0 C0.68984482 -0.00817749 1.37968964 -0.01635498 2.09043884 -0.02478027 C4.37319075 -0.04958797 6.65588054 -0.06614091 8.9387207 -0.08056641 C9.72032877 -0.08589008 10.50193684 -0.09121376 11.30723 -0.09669876 C15.44667199 -0.12341397 19.58608404 -0.14279153 23.72558594 -0.15722656 C27.14285144 -0.17054892 30.55951742 -0.19837135 33.9765625 -0.23925781 C38.11035978 -0.28871525 42.24361461 -0.31336371 46.37769508 -0.32045364 C47.94810725 -0.32714462 49.51850834 -0.34231045 51.08875084 -0.36634445 C61.46994892 -0.51613607 67.88977359 0.31235261 75.61450195 7.44287109 C77.17700195 10.19287109 77.17700195 10.19287109 78.17700195 19.19287109 C53.42700195 19.19287109 28.67700195 19.19287109 3.17700195 19.19287109 C3.20793945 33.14568359 3.20793945 33.14568359 3.23950195 47.38037109 C3.24172547 53.87780875 3.2418231 60.37514247 3.23168945 66.87255859 C3.23032864 67.75116421 3.22896782 68.62976982 3.22756577 69.53499985 C3.18522496 94.7279174 3.09377206 119.92070358 2.93967724 145.11318302 C2.89595456 152.28868978 2.85702273 159.46414566 2.83084106 166.63973999 C2.8057084 173.49910527 2.76495177 180.3582286 2.71387863 187.21744919 C2.69718966 189.78465348 2.68563522 192.3518966 2.67937088 194.91914749 C2.66983213 198.45310552 2.64195139 201.9864539 2.609375 205.52026367 C2.6108104 206.56534686 2.61224581 207.61043005 2.61372471 208.68718243 C2.60118625 209.63888223 2.58864779 210.59058203 2.57572937 211.57112122 C2.57112041 212.39663388 2.56651144 213.22214655 2.56176281 214.07267475 C2.08309869 216.71031808 1.30377308 217.6005015 -0.82299805 219.19287109 C-3.63549805 219.59130859 -3.63549805 219.59130859 -6.82299805 219.56787109 C-7.87487305 219.57560547 -8.92674805 219.58333984 -10.01049805 219.59130859 C-12.82299805 219.19287109 -12.82299805 219.19287109 -14.47385883 218.00653648 C-16.32301716 215.52068889 -16.20721853 213.86010721 -16.22172546 210.77578735 C-16.23426361 209.64817993 -16.24680176 208.52057251 -16.25971985 207.35879517 C-16.25828476 206.11890839 -16.25684967 204.87902161 -16.25537109 203.6015625 C-16.26556274 202.29459412 -16.27575439 200.98762573 -16.28625488 199.64105225 C-16.31398141 196.03392163 -16.32314319 192.42694899 -16.32910895 188.81972551 C-16.33856487 184.98313933 -16.36482613 181.14666591 -16.38911438 177.31015015 C-16.43298128 169.97038133 -16.46134572 162.63063401 -16.48443776 155.29077375 C-16.51073202 147.18724692 -16.55504285 139.08385484 -16.60066962 130.98041773 C-16.6802168 116.76163445 -16.73600465 102.54292094 -16.77172446 88.32396173 C-16.79497698 79.13430366 -16.83282669 69.94501441 -16.89957565 60.7555629 C-16.94142614 54.97837399 -16.97390333 49.20118957 -16.99894959 43.42390335 C-17.01396739 40.07748305 -17.03578365 36.73144883 -17.06735802 33.38512039 C-17.10101551 29.74462282 -17.11620982 26.10449379 -17.12695312 22.46386719 C-17.1414406 21.40085766 -17.15592808 20.33784813 -17.17085457 19.24262619 C-17.16560058 12.52225875 -16.34836422 8.11282573 -11.82299805 2.88037109 C-8.13772472 -0.22907827 -4.64322635 0.04783684 0 0 Z " fill="#E18241" transform="translate(262.822998046875,-0.19287109375)"/>
<path d="M0 0 C1.69962891 -0.01546875 1.69962891 -0.01546875 3.43359375 -0.03125 C7.28705263 0.62302017 8.21490354 1.41170811 10.5625 4.5 C11.03863345 7.13770826 11.28001478 9.40536825 11.35546875 12.0546875 C11.39182938 12.79268585 11.42819 13.5306842 11.46565247 14.29104614 C11.57820173 16.65195451 11.66477931 19.01296262 11.75 21.375 C11.81788632 22.92455795 11.88753157 24.47403991 11.95898438 26.0234375 C12.06391283 28.31833113 12.16779796 30.61322206 12.26664734 32.90838623 C12.71108958 43.21810884 13.21395736 53.38632046 15.375 63.5 C15.55313232 64.35392334 15.73126465 65.20784668 15.91479492 66.08764648 C24.14045843 104.63479506 41.5349321 142.12182622 75.29052734 164.39501953 C87.86820665 172.43489326 101.05431194 177.95188354 115.5625 181.5 C116.47644531 181.73847656 117.39039063 181.97695313 118.33203125 182.22265625 C127.57902085 184.52872368 136.7471218 185.42984927 146.23291016 186.15673828 C148.21089055 186.31180891 150.18752379 186.4837737 152.1640625 186.65625 C153.32244629 186.74712891 154.48083008 186.83800781 155.67431641 186.93164062 C158.73659414 187.53425961 159.8040655 187.96309189 161.5625 190.5 C161.9609375 193.3125 161.9609375 193.3125 161.9375 196.5 C161.94523438 197.551875 161.95296875 198.60375 161.9609375 199.6875 C161.5625 202.5 161.5625 202.5 160.52734375 204.3515625 C157.41788946 206.1690169 154.2487398 205.94051665 150.75 205.875 C149.95883789 205.86484863 149.16767578 205.85469727 148.35253906 205.84423828 C106.88182882 204.80464994 68.85759178 188.75383108 39.5625 159.5 C23.75886986 142.28073524 13.28851956 121.88026199 5.48095703 100.05322266 C4.64445387 97.7278239 3.77739413 95.41655348 2.90234375 93.10546875 C-5.895305 69.1728819 -8.4229666 42.85080992 -9.4375 17.5 C-9.49164063 16.241875 -9.54578125 14.98375 -9.6015625 13.6875 C-9.62992187 12.5325 -9.65828125 11.3775 -9.6875 10.1875 C-9.71328125 9.18074219 -9.7390625 8.17398438 -9.765625 7.13671875 C-8.97998811 0.82356517 -5.94315568 -0.05396736 0 0 Z " fill="#545BA6" transform="translate(85.4375,101.5)"/>
<path d="M0 0 C0 6.6 0 13.2 0 20 C-3.6937183 18.52251268 -6.46070937 17.19961795 -9.75 15.125 C-24.91821148 5.97061686 -42.36664313 2.34336222 -59.9375 6 C-95.25064214 16.13706102 -118.29724957 47.60629963 -135.30859375 78.125 C-136.20647732 79.74958673 -137.10361331 81.37458687 -138 83 C-138.9487034 84.70861958 -139.89789666 86.41696729 -140.84765625 88.125 C-141.56513171 89.41665137 -142.28259054 90.70831197 -143 92 C-143.33 92 -143.66 92 -144 92 C-144.23429232 89.88707017 -144.46779357 87.77405022 -144.69775391 85.66064453 C-144.89517388 83.92277471 -145.10774398 82.18654075 -145.33740234 80.45263672 C-146.96590701 67.73490531 -146.7491645 59.0261634 -138.8828125 48.60546875 C-137.92210606 47.40346112 -136.96117466 46.20163325 -136 45 C-135.15785555 43.854799 -134.32170299 42.70516276 -133.4921875 41.55078125 C-127.89039807 33.86280042 -121.54710206 26.88540217 -115 20 C-114.35804688 19.29359375 -113.71609375 18.5871875 -113.0546875 17.859375 C-82.93803149 -14.21290802 -38.25421061 -21.85954892 0 0 Z " fill="#373435" transform="translate(244,50)"/>
<path d="M0 0 C1.01120155 -0.00788544 1.01120155 -0.00788544 2.04283142 -0.01593018 C4.24876776 -0.02902542 6.45396974 -0.02043117 8.65991211 -0.01025391 C10.20495236 -0.01227743 11.74999168 -0.01519119 13.29502869 -0.01895142 C16.52360176 -0.02336035 19.75192486 -0.01698927 22.98046875 -0.00292969 C27.10853208 0.01417597 31.23601077 0.00430356 35.36405277 -0.01364708 C38.55118682 -0.02451153 41.73818328 -0.02102668 44.92532158 -0.0132637 C46.44708768 -0.01126979 47.96886649 -0.01369244 49.49061775 -0.02070236 C51.6203818 -0.02836273 53.74921141 -0.01665083 55.87890625 0 C57.69256432 0.00358017 57.69256432 0.00358017 59.54286194 0.00723267 C64.50442635 0.5745114 67.76302279 2.21635685 71.18725586 5.82568359 C74.39330356 10.6941264 73.87475586 13.17858203 73.87475586 19.38818359 C42.52475586 19.38818359 11.17475586 19.38818359 -21.12524414 19.38818359 C-19.99231567 9.19182732 -19.99231567 9.19182732 -17.50024414 6.51318359 C-17.03360352 5.97951172 -16.56696289 5.44583984 -16.08618164 4.89599609 C-11.06438562 1.03461509 -6.22840487 0.01228682 0 0 Z " fill="#E18241" transform="translate(22.125244140625,50.61181640625)"/>
<path d="M0 0 C0.89396484 -0.020625 1.78792969 -0.04125 2.70898438 -0.0625 C3.57716797 -0.06765625 4.44535156 -0.0728125 5.33984375 -0.078125 C6.12609131 -0.0874707 6.91233887 -0.09681641 7.72241211 -0.10644531 C11.00543993 0.39362987 12.58995569 0.97435543 15.0625 3.25 C15.81959184 6.36613438 15.73877048 9.43193525 15.69140625 12.625 C15.69381821 13.54587402 15.69623016 14.46674805 15.69871521 15.41552734 C15.69773578 17.3623485 15.68431926 19.30919716 15.65942383 21.25585938 C15.62512369 24.23924166 15.63875646 27.21966198 15.65820312 30.203125 C15.65130467 32.09376264 15.64163229 33.98439261 15.62890625 35.875 C15.63386612 36.76880371 15.63882599 37.66260742 15.64393616 38.58349609 C15.52759972 44.6878852 15.52759972 44.6878852 13.35717773 47.31103516 C10.67575277 48.40825405 8.67911692 48.63774614 5.78125 48.6484375 C4.27111328 48.65423828 4.27111328 48.65423828 2.73046875 48.66015625 C1.68503906 48.64855469 0.63960937 48.63695312 -0.4375 48.625 C-1.48292969 48.63660156 -2.52835938 48.64820313 -3.60546875 48.66015625 C-4.61222656 48.65628906 -5.61898437 48.65242188 -6.65625 48.6484375 C-7.57341797 48.64505371 -8.49058594 48.64166992 -9.43554688 48.63818359 C-12.63910294 48.14114474 -13.85281855 47.78199812 -15.9375 45.25 C-16.52130747 42.11451184 -16.4493975 39.02041573 -16.3984375 35.83984375 C-16.39752106 34.91659805 -16.39660461 33.99335236 -16.3956604 33.04212952 C-16.3896194 31.09110368 -16.37385846 29.14008734 -16.34912109 27.18920898 C-16.31259705 24.1954551 -16.30810177 21.20293783 -16.30859375 18.20898438 C-16.29876347 16.31509342 -16.28710685 14.42121088 -16.2734375 12.52734375 C-16.27121185 11.62837875 -16.26898621 10.72941376 -16.26669312 9.8032074 C-16.24755356 8.55665123 -16.24755356 8.55665123 -16.22802734 7.28491211 C-16.22040375 6.55227646 -16.21278015 5.81964081 -16.20492554 5.06480408 C-15.9375 3.25 -15.9375 3.25 -13.9375 1.25 C-9.41886198 -0.2552124 -4.71020361 0.0270507 0 0 Z " fill="#5259A5" transform="translate(548.9375,105.75)"/>
<path d="M0 0 C1.58681744 3.17363489 1.14185229 6.59398269 1.1328125 10.078125 C1.13424759 11.28441559 1.13424759 11.28441559 1.13571167 12.51507568 C1.13639294 14.21984943 1.13454237 15.92462576 1.13037109 17.62939453 C1.12504991 20.22564621 1.13030339 22.82172267 1.13671875 25.41796875 C1.13605741 27.07552121 1.1347751 28.73307357 1.1328125 30.390625 C1.13483673 31.16271301 1.13686096 31.93480103 1.13894653 32.73028564 C1.12090813 36.92983352 0.82633212 40.86259528 0 45 C-5.22217617 46.16138871 -10.23259326 46.22081502 -15.5625 46.25 C-16.50802734 46.270625 -17.45355469 46.29125 -18.42773438 46.3125 C-19.79575195 46.32023437 -19.79575195 46.32023437 -21.19140625 46.328125 C-22.01842041 46.3374707 -22.84543457 46.34681641 -23.69750977 46.35644531 C-26.80390816 45.8755481 -27.95775799 45.44324729 -30 43 C-30.58664907 39.8652964 -30.51189197 36.77007042 -30.4609375 33.58984375 C-30.46002106 32.66659805 -30.45910461 31.74335236 -30.4581604 30.79212952 C-30.4521194 28.84110368 -30.43635846 26.89008734 -30.41162109 24.93920898 C-30.37509705 21.9454551 -30.37060177 18.95293783 -30.37109375 15.95898438 C-30.36126347 14.06509342 -30.34960685 12.17121088 -30.3359375 10.27734375 C-30.33371185 9.37837875 -30.33148621 8.47941376 -30.32919312 7.5532074 C-30.31005356 6.30665123 -30.31005356 6.30665123 -30.29052734 5.03491211 C-30.28290375 4.30227646 -30.27528015 3.56964081 -30.26742554 2.81480408 C-30 1 -30 1 -28 -1 C-19.63552251 -2.79844749 -7.7391548 -3.9598907 0 0 Z " fill="#5259A5" transform="translate(668,257)"/>
<path d="M0 0 C7.87627621 2.80548776 14.91150866 6.58421851 22 11 C23.03688965 11.50821289 24.0737793 12.01642578 25.14208984 12.54003906 C28 15 28 15 28.52514648 16.90332031 C28.69595605 19.33688888 28.67431364 21.70259308 28.5859375 24.140625 C28.57744781 25.02280701 28.56895813 25.90498901 28.56021118 26.81390381 C28.52666558 29.62718675 28.45138774 32.43758606 28.375 35.25 C28.34490173 37.15881272 28.31752568 39.06767045 28.29296875 40.9765625 C28.2268708 45.65215004 28.12334379 50.32558645 28 55 C25.66957941 52.08516921 24.01266778 49.1857989 22.43359375 45.80859375 C21.95269287 44.78991211 21.47179199 43.77123047 20.97631836 42.72167969 C20.4685083 41.63790039 19.96069824 40.55412109 19.4375 39.4375 C15.5791649 31.29691478 11.64873857 23.21444044 7.4375 15.25 C7.03265381 14.48357178 6.62780762 13.71714355 6.21069336 12.92749023 C4.61568258 9.93452128 2.99977079 6.99962722 1.22265625 4.109375 C0 2 0 2 0 0 Z " fill="#CAC8CA" transform="translate(219,57)"/>
<path d="M0 0 C1.10601562 0.00483398 1.10601562 0.00483398 2.234375 0.00976562 C2.97171875 -0.00634766 3.7090625 -0.02246094 4.46875 -0.0390625 C6.609375 -0.04101562 6.609375 -0.04101562 10.234375 0.32226562 C12.80065839 4.17169072 12.52901962 7.36524449 12.484375 11.82226562 C12.49210937 12.59441406 12.49984375 13.3665625 12.5078125 14.16210938 C12.49430653 18.05858031 12.44112669 20.0121381 10.234375 23.32226562 C7.47895659 23.59840131 4.98346398 23.69484187 2.234375 23.63476562 C1.49703125 23.63798828 0.7596875 23.64121094 0 23.64453125 C-5.49854551 23.58934512 -5.49854551 23.58934512 -7.765625 21.32226562 C-8.02441406 19.3828125 -8.02441406 19.3828125 -8.03125 17.04101562 C-8.03382812 16.19925781 -8.03640625 15.3575 -8.0390625 14.49023438 C-8.02746094 13.16958984 -8.02746094 13.16958984 -8.015625 11.82226562 C-8.02335937 10.94183594 -8.03109375 10.06140625 -8.0390625 9.15429688 C-8.03648438 8.31253906 -8.03390625 7.47078125 -8.03125 6.60351562 C-8.02899414 5.83072266 -8.02673828 5.05792969 -8.02441406 4.26171875 C-7.39832174 -0.43042974 -3.94589866 0.039603 0 0 Z " fill="#5259A5" transform="translate(83.765625,74.677734375)"/>
<path d="M0 0 C1.12535156 0.00580078 1.12535156 0.00580078 2.2734375 0.01171875 C3.02367187 0.00785156 3.77390625 0.00398437 4.546875 0 C10.14682697 0.01010822 10.14682697 0.01010822 11.2734375 1.13671875 C11.52310317 4.27495325 11.45865541 7.42721488 11.4609375 10.57421875 C11.47318359 11.45916016 11.48542969 12.34410156 11.49804688 13.25585938 C11.50094727 14.52526367 11.50094727 14.52526367 11.50390625 15.8203125 C11.50801514 16.59947021 11.51212402 17.37862793 11.51635742 18.18139648 C11.2734375 20.13671875 11.2734375 20.13671875 9.2734375 22.13671875 C6.71051433 22.30835606 4.26997893 22.36936433 1.7109375 22.32421875 C1.01291016 22.32357422 0.31488281 22.32292969 -0.40429688 22.32226562 C-5.58625092 22.27703033 -5.58625092 22.27703033 -6.7265625 21.13671875 C-6.82537047 19.66019211 -6.85735495 18.17904639 -6.859375 16.69921875 C-6.86066406 15.80460938 -6.86195313 14.91 -6.86328125 13.98828125 C-6.85748047 12.57675781 -6.85748047 12.57675781 -6.8515625 11.13671875 C-6.85542969 10.19570312 -6.85929688 9.2546875 -6.86328125 8.28515625 C-6.86199219 7.39054688 -6.86070312 6.4959375 -6.859375 5.57421875 C-6.85768311 4.33478516 -6.85768311 4.33478516 -6.85595703 3.0703125 C-6.57547852 -1.12098898 -3.49910522 0.00631607 0 0 Z " fill="#545BA6" transform="translate(253.7265625,229.86328125)"/>
</svg>
