<?xml version="1.0" encoding="UTF-8"?>
<svg version="1.1" xmlns="http://www.w3.org/2000/svg" width="485" height="115">
<path d="M0 0 C2.60169021 0.01608539 5.20182295 0.0000382 7.8034668 -0.01904297 C21.86794275 -0.03658777 35.67001796 1.28615937 49.16870117 5.39111328 C49.26226449 12.69419702 49.3328961 19.99714708 49.37594986 27.30071354 C49.39663596 30.69377699 49.42459466 34.08642411 49.47045898 37.47924805 C49.78085141 62.26043145 48.2004501 81.69459941 30.16870117 100.39111328 C22.84534299 106.82310836 12.13467385 115.99548791 1.79370117 115.76611328 C-11.88982599 112.89578932 -24.73419288 101.30016876 -32.76879883 90.39111328 C-44.61107514 72.06583898 -44.23729975 53.61038476 -44.01879883 32.51611328 C-44.00372596 29.9783608 -43.99004216 27.44059967 -43.9777832 24.90283203 C-43.94498161 18.73206804 -43.89498835 12.56163176 -43.83129883 6.39111328 C-38.44152134 4.23278653 -33.33476288 2.66092517 -27.60864258 1.72705078 C-26.45125832 1.53784561 -26.45125832 1.53784561 -25.27049255 1.34481812 C-16.85855803 0.08485386 -8.49207899 -0.06213133 0 0 Z " fill="#542D87" transform="translate(435.831298828125,-0.39111328125)"/>
<path d="M0 0 C2.60169021 0.01608539 5.20182295 0.0000382 7.8034668 -0.01904297 C21.86794275 -0.03658777 35.67001796 1.28615937 49.16870117 5.39111328 C49.26226449 12.69419702 49.3328961 19.99714708 49.37594986 27.30071354 C49.39663596 30.69377699 49.42459466 34.08642411 49.47045898 37.47924805 C49.78085141 62.26043145 48.2004501 81.69459941 30.16870117 100.39111328 C22.84534299 106.82310836 12.13467385 115.99548791 1.79370117 115.76611328 C-11.88982599 112.89578932 -24.73419288 101.30016876 -32.76879883 90.39111328 C-44.61107514 72.06583898 -44.23729975 53.61038476 -44.01879883 32.51611328 C-44.00372596 29.9783608 -43.99004216 27.44059967 -43.9777832 24.90283203 C-43.94498161 18.73206804 -43.89498835 12.56163176 -43.83129883 6.39111328 C-38.44152134 4.23278653 -33.33476288 2.66092517 -27.60864258 1.72705078 C-26.45125832 1.53784561 -26.45125832 1.53784561 -25.27049255 1.34481812 C-16.85855803 0.08485386 -8.49207899 -0.06213133 0 0 Z M-39.83129883 8.39111328 C-42.05607548 23.52258179 -42.05607548 23.52258179 -38.4206543 37.83447266 C-34.64404942 42.02323733 -30.00884395 44.94294427 -25.22241211 47.86279297 C-21.29810258 50.37108148 -17.82192242 53.39124718 -14.26879883 56.39111328 C-9.74962856 60.10345422 -5.15889594 63.6689555 -0.41748047 67.09423828 C1.16870117 68.39111328 1.16870117 68.39111328 2.16870117 70.39111328 C1.58386963 70.6627832 0.99903809 70.93445313 0.39648438 71.21435547 C-1.80322115 72.37628211 -3.55553372 73.64452876 -5.47583008 75.21923828 C-6.15323242 75.77224609 -6.83063477 76.32525391 -7.52856445 76.89501953 C-8.2265918 77.47123047 -8.92461914 78.04744141 -9.64379883 78.64111328 C-10.33022461 79.20185547 -11.01665039 79.76259766 -11.72387695 80.34033203 C-16.14617435 83.96351987 -20.50269026 87.65662745 -24.83129883 91.39111328 C-20.56276725 100.40414695 -10.61430557 106.30185913 -1.83129883 110.39111328 C4.64829211 112.29637049 8.83330208 109.68170787 14.46948242 106.63720703 C20.45911595 103.14732069 28.93891423 98.08047409 31.16870117 91.39111328 C18.31899614 80.70335016 18.31899614 80.70335016 5.16870117 70.39111328 C6.47912068 67.41502088 7.75512553 65.62595294 10.30151367 63.61376953 C10.93516846 63.10652344 11.56882324 62.59927734 12.22167969 62.07666016 C12.90544678 61.54105469 13.58921387 61.00544922 14.29370117 60.45361328 C15.74314701 59.29895037 17.19235886 58.14399369 18.64135742 56.98876953 C19.38788574 56.39725098 20.13441406 55.80573242 20.90356445 55.19628906 C23.12962746 53.42225264 25.33771372 51.62839682 27.53979492 49.82470703 C28.24281738 49.24906006 28.94583984 48.67341309 29.67016602 48.08032227 C31.00582162 46.98562893 32.34082423 45.89013819 33.67504883 44.79370117 C34.29299316 44.28959717 34.9109375 43.78549316 35.54760742 43.26611328 C36.14259033 42.76942139 36.73757324 42.27272949 37.35058594 41.76098633 C39.16870117 40.39111328 39.16870117 40.39111328 41.17236328 39.37475586 C43.35006161 38.21868699 44.66463566 37.35837234 46.16870117 35.39111328 C47.03486241 30.92808934 46.82766422 26.60278692 46.60620117 22.07861328 C46.55882812 20.25233398 46.55882812 20.25233398 46.51049805 18.38916016 C46.42809566 15.38735893 46.31309921 12.39046675 46.16870117 9.39111328 C32.84552934 3.97981877 18.420356 4.03764117 4.21240234 4.07543945 C1.73580103 4.0786074 -0.73960849 4.05498272 -3.21606445 4.02978516 C-15.63308766 3.98204686 -27.79971286 5.15040746 -39.83129883 8.39111328 Z " fill="#FBFAFC" transform="translate(435.831298828125,-0.39111328125)"/>
<path d="M0 0 C9.57 0 19.14 0 29 0 C29 1.32 29 2.64 29 4 C26.36 4 23.72 4 21 4 C21.20044922 4.54457352 21.40089844 5.08914703 21.60742188 5.65022278 C23.68939705 11.30937564 25.76463166 16.97096679 27.8359375 22.6340332 C28.61024499 24.7482759 29.38627939 26.86188695 30.1640625 28.97485352 C31.28057253 32.00894103 32.39088888 35.04523253 33.5 38.08203125 C33.84998047 39.02899368 34.19996094 39.97595612 34.56054688 40.95161438 C34.88087891 41.83230087 35.20121094 42.71298737 35.53125 43.62036133 C35.81548828 44.39535477 36.09972656 45.17034821 36.39257812 45.96882629 C37 48 37 48 37 51 C37.66 51 38.32 51 39 51 C39.24363281 49.75476563 39.48726562 48.50953125 39.73828125 47.2265625 C41.25720638 40.37598228 43.84367489 33.89486679 46.34179688 27.3515625 C48.36841466 21.79031732 49.55150684 17.91229548 48 12 C47.82339844 11.19691406 47.64679687 10.39382812 47.46484375 9.56640625 C47.29082031 8.90511719 47.11679687 8.24382813 46.9375 7.5625 C46.628125 6.386875 46.31875 5.21125 46 4 C43.03 4 40.06 4 37 4 C37 2.68 37 1.36 37 0 C47.56 0 58.12 0 69 0 C69 1.32 69 2.64 69 4 C66.03 4 63.06 4 60 4 C60.4846875 5.31718018 60.969375 6.63436035 61.46875 7.99145508 C63.26268065 12.87053699 65.05027118 17.75192127 66.8359375 22.6340332 C67.61024499 24.7482759 68.38627939 26.86188695 69.1640625 28.97485352 C70.28057253 32.00894103 71.39088888 35.04523253 72.5 38.08203125 C72.84998047 39.02899368 73.19996094 39.97595612 73.56054688 40.95161438 C73.88087891 41.83230087 74.20121094 42.71298737 74.53125 43.62036133 C74.81548828 44.39535477 75.09972656 45.17034821 75.39257812 45.96882629 C76 48 76 48 76 51 C76.66 51 77.32 51 78 51 C78.16748245 50.18542076 78.16748245 50.18542076 78.33834839 49.35438538 C79.536392 43.72697004 81.06094366 38.28389939 82.8203125 32.80859375 C83.08383514 31.97787857 83.34735779 31.14716339 83.61886597 30.29127502 C84.45061364 27.67217866 85.28770603 25.05482788 86.125 22.4375 C86.6943667 20.64789977 87.26338037 18.85818719 87.83203125 17.06835938 C89.21728071 12.71093141 90.60732184 8.35505908 92 4 C89.36 4 86.72 4 84 4 C84 2.68 84 1.36 84 0 C90.93 0 97.86 0 105 0 C105 1.32 105 2.64 105 4 C102.69 4.33 100.38 4.66 98 5 C97.770849 5.687453 97.541698 6.37490601 97.30560303 7.08319092 C89.87040202 29.38879395 82.43520101 51.69439697 75 74 C73.12591553 73.76229858 73.12591553 73.76229858 71 73 C69.87359619 71.19155884 69.87359619 71.19155884 68.98535156 68.80322266 C68.6453009 67.91204742 68.30525024 67.02087219 67.95489502 66.10269165 C67.42808136 64.64807022 67.42808136 64.64807022 66.890625 63.1640625 C66.51895203 62.17377045 66.14727905 61.18347839 65.76434326 60.16317749 C64.98051222 58.065964 64.20428429 55.96589566 63.43505859 53.86328125 C62.25534764 50.63961291 61.05372601 47.42482532 59.84765625 44.2109375 C59.08984984 42.17496108 58.33329708 40.1385175 57.578125 38.1015625 C57.21881897 37.13586334 56.85951294 36.17016418 56.48931885 35.17520142 C56.16187683 34.27772186 55.83443481 33.38024231 55.49707031 32.45556641 C55.06216278 31.27095322 55.06216278 31.27095322 54.61846924 30.06240845 C54 28 54 28 54 25 C53.34 25 52.68 25 52 25 C51.90178955 25.78914795 51.8035791 26.5782959 51.70239258 27.39135742 C50.80361918 32.00893463 49.31721174 36.30531675 47.76171875 40.73828125 C47.2786602 42.12034004 47.2786602 42.12034004 46.7858429 43.53031921 C46.10530391 45.46857227 45.42182893 47.40579667 44.7355957 49.34204102 C43.68671427 52.31472686 42.6607116 55.29472435 41.63476562 58.27539062 C40.97014953 60.15934847 40.30418076 62.04282979 39.63671875 63.92578125 C39.18023201 65.26785393 39.18023201 65.26785393 38.71452332 66.63703918 C38.41774185 67.45846909 38.12096039 68.27989899 37.81518555 69.1262207 C37.56061081 69.85202835 37.30603607 70.577836 37.04374695 71.32563782 C36 73 36 73 33.8865509 73.74211121 C33.26398911 73.82721451 32.64142731 73.91231781 32 74 C31.79003891 73.42831589 31.58007782 72.85663177 31.36375427 72.2676239 C29.14064825 66.21458796 26.91740622 60.16160198 24.6940918 54.10864258 C23.86886294 51.86191011 23.04366659 49.6151657 22.21850586 47.3684082 C21.41680011 45.18552672 20.61501209 43.00267544 19.81314087 40.81985474 C19.02008043 38.66055628 18.22741519 36.50111264 17.43515015 34.34152222 C15.58413991 29.29842577 13.7264621 24.25809374 11.84814453 19.22509766 C11.5192775 18.34134964 11.19041046 17.45760162 10.85157776 16.54707336 C10.23999751 14.90509384 9.62583391 13.26407339 9.00865173 11.62419128 C7 6.22343277 7 6.22343277 7 4 C4.69 4 2.38 4 0 4 C0 2.68 0 1.36 0 0 Z " fill="#FFFFFF" transform="translate(0,16)"/>
<path d="M0 0 C0.33 2.31 0.66 4.62 1 7 C1.928125 6.195625 2.85625 5.39125 3.8125 4.5625 C7.93864544 0.98650728 11.50108735 0.81816803 16.875 0.75 C18.08929688 0.72421875 19.30359375 0.6984375 20.5546875 0.671875 C24.4084933 1.03890412 26.10308132 1.4361765 29 4 C31.61019285 9.7665498 32.4232716 14.37696633 32.29296875 20.65625 C32.28872391 21.44398804 32.28447906 22.23172607 32.28010559 23.04333496 C32.26347617 25.5292559 32.22585614 28.01432919 32.1875 30.5 C32.17243271 32.19790486 32.15874791 33.89582258 32.14648438 35.59375 C32.11362466 39.72948719 32.06195474 43.8646005 32 48 C34.64 48 37.28 48 40 48 C40 49.32 40 50.64 40 52 C31.09 52 22.18 52 13 52 C13 50.68 13 49.36 13 48 C15.64 48 18.28 48 21 48 C20.90606597 43.2674048 20.79988574 38.53529726 20.68261719 33.80322266 C20.64446241 32.19522518 20.60958652 30.58714627 20.578125 28.97900391 C20.5321794 26.66018684 20.47423619 24.3419238 20.4140625 22.0234375 C20.40251129 21.31069672 20.39096008 20.59795593 20.37905884 19.86361694 C20.25370979 15.57220678 19.74410524 11.93908258 18 8 C15.13271366 5.67680131 15.13271366 5.67680131 11.625 6.0625 C7.30020537 7.18098137 5.75764896 8.53324131 3 12 C0.93721764 16.11785762 0.69890388 19.6943928 0.5859375 24.26953125 C0.56657135 24.95053391 0.5472052 25.63153656 0.5272522 26.33317566 C0.46781868 28.49282593 0.421218 30.65253057 0.375 32.8125 C0.33678672 34.28322544 0.29773306 35.75392929 0.2578125 37.22460938 C0.16214817 40.81620789 0.07798425 44.40796913 0 48 C2.31 48 4.62 48 7 48 C7 49.32 7 50.64 7 52 C-1.91 52 -10.82 52 -20 52 C-20 50.68 -20 49.36 -20 48 C-17.36 48 -14.72 48 -12 48 C-12 34.14 -12 20.28 -12 6 C-14.64 6 -17.28 6 -20 6 C-20 5.01 -20 4.02 -20 3 C-19.03578125 2.95101562 -18.0715625 2.90203125 -17.078125 2.8515625 C-15.81484375 2.77679688 -14.5515625 2.70203125 -13.25 2.625 C-11.99703125 2.55539063 -10.7440625 2.48578125 -9.453125 2.4140625 C-6.03094546 2.00371065 -3.27747944 0 0 0 Z " fill="#FFFFFF" transform="translate(337,37)"/>
<path d="M0 0 C1.98535156 1.17407227 1.98535156 1.17407227 3.890625 2.81640625 C4.59646729 3.41308105 5.30230957 4.00975586 6.02954102 4.62451172 C6.76229248 5.26404785 7.49504395 5.90358398 8.25 6.5625 C9.7636112 7.84849441 11.27792792 9.13365891 12.79296875 10.41796875 C13.51661621 11.03720215 14.24026367 11.65643555 14.98583984 12.29443359 C18.56002179 15.32100754 22.26812774 18.17185749 26 21 C20.66474972 30.78976083 9.34483837 37.38420934 -1 41 C-12.57827715 40.49852048 -22.15682964 30.67333794 -30 23 C-28.44588139 18.98136193 -25.87150019 16.9846575 -22.5625 14.3125 C-21.47899774 13.43640679 -20.39566838 12.56009972 -19.3125 11.68359375 C-18.76207031 11.24128418 -18.21164062 10.79897461 -17.64453125 10.34326172 C-16.04858663 9.03968581 -14.48972777 7.70283173 -12.9375 6.34765625 C-11.98875 5.53167969 -11.04 4.71570313 -10.0625 3.875 C-9.20785156 3.12992187 -8.35320312 2.38484375 -7.47265625 1.6171875 C-4.57470231 -0.27815678 -3.39534563 -0.36345537 0 0 Z " fill="#532C86" transform="translate(441,70)"/>
<path d="M0 0 C1.50559539 1.96382007 2.89131683 3.78263366 4 6 C4.66 4.02 5.32 2.04 6 0 C7.95216435 1.95216435 8.84826645 3.53199953 10 6 C10.66 4.02 11.32 2.04 12 0 C13.20628008 2.33214148 14.1654738 4.49642139 15 7 C15.474375 6.175 15.94875 5.35 16.4375 4.5 C16.953125 3.675 17.46875 2.85 18 2 C18.33 2 18.66 2 19 2 C19.495 4.97 19.495 4.97 20 8 C20.66 6.68 21.32 5.36 22 4 C22.66 4 23.32 4 24 4 C24 6.31 24 8.62 24 11 C24.33 10.67 24.66 10.34 25 10 C26.66270287 8.66172696 28.32916181 7.32810215 30 6 C29.67 8.31 29.34 10.62 29 13 C30.32 11.68 31.64 10.36 33 9 C33.99 9.495 33.99 9.495 35 10 C34.34 11.98 33.68 13.96 33 16 C34.98 15.01 36.96 14.02 39 13 C37.125 17.75 37.125 17.75 36 20 C36.78375 19.484375 37.5675 18.96875 38.375 18.4375 C39.24125 17.963125 40.1075 17.48875 41 17 C41.66 17.33 42.32 17.66 43 18 C41.68 19.98 40.36 21.96 39 24 C41.64 23.34 44.28 22.68 47 22 C45.94386292 23.96864319 45.94386292 23.96864319 44 26 C40.84336853 26.50120544 40.84336853 26.50120544 36.89819336 26.50170898 C36.17920364 26.50711197 35.46021393 26.51251495 34.71943665 26.51808167 C32.34248718 26.53059109 29.96674365 26.51406631 27.58984375 26.49609375 C25.93982377 26.49624867 24.28980343 26.49773651 22.63978577 26.50050354 C19.18213816 26.50188846 15.72490492 26.48931304 12.26733398 26.46655273 C7.82935449 26.43814527 3.39206249 26.44091004 -1.04596806 26.45364285 C-4.4525696 26.46058793 -7.85901142 26.45282461 -11.26559258 26.44038582 C-12.90230129 26.43586146 -14.53902708 26.43554308 -16.17573738 26.43945122 C-18.46004702 26.44235265 -20.74339908 26.42591016 -23.02758789 26.40405273 C-24.3287001 26.39864975 -25.62981232 26.39324677 -26.97035217 26.38768005 C-28.47002785 26.19577843 -28.47002785 26.19577843 -30 26 C-30.66 25.01 -31.32 24.02 -32 23 C-30.02 23.33 -28.04 23.66 -26 24 C-27.32 22.35 -28.64 20.7 -30 19 C-29.67 18.34 -29.34 17.68 -29 17 C-27.02 17.66 -25.04 18.32 -23 19 C-23.99 17.02 -24.98 15.04 -26 13 C-25.401875 13.309375 -24.80375 13.61875 -24.1875 13.9375 C-21.91043228 15.10209704 -21.91043228 15.10209704 -19 16 C-19.66 14.02 -20.32 12.04 -21 10 C-19.02 10.99 -17.04 11.98 -15 13 C-15.33 11.02 -15.66 9.04 -16 7 C-14.35 8.32 -12.7 9.64 -11 11 C-11 8.36 -11 5.72 -11 3 C-7.125 6.75 -7.125 6.75 -6 9 C-5.67 7.02 -5.34 5.04 -5 3 C-3.29159719 4.63412443 -2.06546953 5.86906094 -1 8 C-0.67 5.36 -0.34 2.72 0 0 Z " fill="#F9F8FB" transform="translate(432,8)"/>
<path d="M0 0 C4.8656656 2.96941048 7.72701135 6.4803636 9.75 11.875 C10.4375 15.375 10.4375 15.375 10.4375 21.375 C-0.4525 21.375 -11.3425 21.375 -22.5625 21.375 C-21.90414079 36.33150161 -21.90414079 36.33150161 -16.5625 43.375 C-11.83485699 45.84626794 -7.60840973 45.61819515 -2.5625 44.375 C2.50367542 42.30247369 4.04547266 39.07046107 6.4375 34.375 C7.7575 34.375 9.0775 34.375 10.4375 34.375 C9.62092417 40.2339316 6.83947698 43.55940269 2.4375 47.375 C-4.18097467 51.06960139 -11.98459929 51.55617846 -19.2421875 49.68359375 C-26.52171436 47.10227785 -29.59857979 43.95214039 -33.3125 37.1875 C-36.37090916 29.25311281 -36.23423621 20.3769164 -33.5625 12.375 C-30.8142568 6.27967461 -27.22282271 2.8340861 -21.5625 -0.625 C-15.01470629 -2.8075979 -6.33923298 -2.926734 0 0 Z M-20.3125 6 C-22.21602169 9.26597112 -22.21602169 9.26597112 -22.5625 17.375 C-15.9625 17.375 -9.3625 17.375 -2.5625 17.375 C-2.00826587 9.23580505 -2.00826587 9.23580505 -5.5625 3.375 C-11.62534452 0.19200663 -15.41941456 1.45642066 -20.3125 6 Z " fill="#FFFFFF" transform="translate(259.5625,39.625)"/>
<path d="M0 0 C4.63507746 2.81876231 7.5246266 6.33190239 9.75 11.3125 C10.4375 14.375 10.4375 14.375 10.4375 21.375 C-0.4525 21.375 -11.3425 21.375 -22.5625 21.375 C-21.54266476 35.22736991 -21.54266476 35.22736991 -17.5625 42.375 C-13.07940866 45.1000163 -9.54771556 45.8666301 -4.48046875 44.9453125 C1.55527534 43.15056986 4.12320175 39.40359045 7.4375 34.375 C8.4275 34.375 9.4175 34.375 10.4375 34.375 C9.62135556 40.23083633 6.84163329 43.56468243 2.4375 47.375 C-3.87681409 50.84213246 -10.99424497 51.40509672 -17.953125 49.8359375 C-24.12081021 47.97746282 -28.43436128 45.50122392 -31.8125 39.875 C-35.70003968 32.09992063 -35.67447313 22.24131496 -34.06640625 13.7578125 C-32.04435961 7.88588044 -28.4086618 3.22890443 -23.125 0 C-16.19987373 -3.12747638 -6.92512627 -3.12747638 0 0 Z M-18.5625 4.375 C-22.10929179 8.80848974 -21.78382072 11.14556573 -22.5625 17.375 C-15.6325 17.375 -8.7025 17.375 -1.5625 17.375 C-2.0289686 9.37208706 -2.0289686 9.37208706 -5.5625 3.375 C-10.29694085 0.16779814 -14.15980912 1.10120422 -18.5625 4.375 Z " fill="#FFFFFF" transform="translate(130.5625,39.625)"/>
<path d="M0 0 C2.35980046 3.5397007 2.58600808 5.99106288 3.125 10.1875 C3.37636719 12.09595703 3.37636719 12.09595703 3.6328125 14.04296875 C3.75398438 15.01878906 3.87515625 15.99460937 4 17 C2.68 17 1.36 17 0 17 C-0.24234375 16.45730469 -0.4846875 15.91460937 -0.734375 15.35546875 C-3.24288551 9.67631624 -3.24288551 9.67631624 -8 6 C-12.08524432 5.07997597 -15.9887478 4.49578042 -20 6 C-20.41771804 9.33200185 -20.41771804 9.33200185 -20 13 C-16.44396478 16.4959896 -12.59448008 18.178051 -8 20 C2.25589923 24.06699452 2.25589923 24.06699452 5.21484375 29.04296875 C7.15764154 34.80835247 7.40844848 39.32136458 5 45 C1.57215329 49.63767496 -2.49817598 51.69639617 -8 53 C-13.61245124 53.36802959 -19.08920748 52.77935524 -24.6796875 52.21875 C-26.94342828 51.96871337 -26.94342828 51.96871337 -29 52 C-29.50643553 49.77228658 -30.0048962 47.54275924 -30.5 45.3125 C-30.91765625 43.45044922 -30.91765625 43.45044922 -31.34375 41.55078125 C-31.89354126 38.57601782 -32.13795705 36.00631398 -32 33 C-30.12109375 33.23046875 -30.12109375 33.23046875 -28 34 C-26.91015625 35.92578125 -26.91015625 35.92578125 -26.0625 38.3125 C-24.40741689 42.41111132 -22.85721738 44.62632777 -19 47 C-14.39323481 48.5355884 -9.97173919 48.83798916 -5.5 46.9375 C-3.71056004 44.94397706 -3.71056004 44.94397706 -3.4375 41.5625 C-3.64286622 37.95261828 -3.64286622 37.95261828 -6.03125 36.0234375 C-10.19222454 33.18740485 -14.63081781 31.16861615 -19.20507812 29.08789062 C-23.54921028 27.01983898 -26.32154794 25.16128587 -29 21 C-30.56311512 16.31065463 -30.52321579 12.48244475 -28.875 7.8125 C-26.55009472 4.32514208 -24.72351202 2.95755106 -21 1 C-17.72932658 0.55698475 -14.54123486 0.66472005 -11.25 0.8125 C-9.54699309 0.86468482 -7.84386354 0.91305091 -6.140625 0.95703125 C-5.39329102 0.98772705 -4.64595703 1.01842285 -3.87597656 1.05004883 C-1.90720814 1.12993772 -1.90720814 1.12993772 0 0 Z " fill="#FFFFFF" transform="translate(179,37)"/>
<path d="M0 0 C0.33 2.64 0.66 5.28 1 8 C1.78375 7.030625 2.5675 6.06125 3.375 5.0625 C4.91288705 3.16037654 5.79259913 2.10370043 8 1 C9.80843663 0.85283458 11.62331566 0.7789113 13.4375 0.75 C14.88962891 0.71132813 14.88962891 0.71132813 16.37109375 0.671875 C19 1 19 1 20.82421875 2.296875 C22.79124598 5.14612375 22.35759307 7.66246467 22 11 C20.875 12.9375 20.875 12.9375 19 14 C16 14.4375 16 14.4375 13 14 C11.0625 12.3125 11.0625 12.3125 10 10 C10.3125 7.25 10.3125 7.25 11 5 C5.7423309 7.33674182 4.00917179 10.86873284 2 16 C0.91990466 19.5049616 0.79991846 22.85970556 0.68359375 26.515625 C0.64169922 27.76601562 0.59980469 29.01640625 0.55664062 30.3046875 C0.51732422 31.60664062 0.47800781 32.90859375 0.4375 34.25 C0.39431641 35.56742188 0.35113281 36.88484375 0.30664062 38.2421875 C0.20058083 41.49468788 0.09851976 44.74726392 0 48 C2.64 48 5.28 48 8 48 C8 49.32 8 50.64 8 52 C-1.24 52 -10.48 52 -20 52 C-20 50.68 -20 49.36 -20 48 C-17.36 48 -14.72 48 -12 48 C-12 34.14 -12 20.28 -12 6 C-14.64 6 -17.28 6 -20 6 C-20 5.01 -20 4.02 -20 3 C-19.03578125 2.95101562 -18.0715625 2.90203125 -17.078125 2.8515625 C-15.81484375 2.77679688 -14.5515625 2.70203125 -13.25 2.625 C-11.99703125 2.55539063 -10.7440625 2.48578125 -9.453125 2.4140625 C-6.03094546 2.00371065 -3.27747944 0 0 0 Z " fill="#FFFFFF" transform="translate(293,37)"/>
<path d="M0 0 C0.99 0 1.98 0 3 0 C3 5.61 3 11.22 3 17 C7.29 17 11.58 17 16 17 C16 17.99 16 18.98 16 20 C11.71 20 7.42 20 3 20 C3.11839052 25.05386681 3.2426487 30.10754269 3.37231445 35.16113281 C3.41559016 36.87984305 3.45727041 38.59859424 3.49731445 40.31738281 C3.55519565 42.789839 3.61883836 45.26209047 3.68359375 47.734375 C3.70030624 48.50118591 3.71701874 49.26799683 3.73423767 50.05804443 C3.83012865 53.52173984 4.07915862 56.66366251 5 60 C7.239835 60.95020416 7.239835 60.95020416 10 61 C12.83411155 58.666508 12.83411155 58.666508 15 56 C15.99 56.33 16.98 56.66 18 57 C16.64279441 61.44176375 15.00613831 63.61336441 11 66 C5.64884824 67.36247037 1.0680747 67.41336891 -4 65 C-5.95046942 63.38581841 -6.87018693 62.25962614 -8 60 C-8.08705146 57.01029711 -8.11550145 54.04415045 -8.09765625 51.0546875 C-8.0962413 50.1696756 -8.09482635 49.2846637 -8.09336853 48.37283325 C-8.0877614 45.54018809 -8.07520771 42.70762136 -8.0625 39.875 C-8.05748592 37.95703239 -8.05292285 36.03906354 -8.04882812 34.12109375 C-8.03778966 29.41403218 -8.02052025 24.7070294 -8 20 C-10.64 20 -13.28 20 -16 20 C-16 19.01 -16 18.02 -16 17 C-15.39671875 16.84144531 -14.7934375 16.68289062 -14.171875 16.51953125 C-8.99321741 15.00769734 -5.7699843 13.90074146 -3 9 C-1.85478434 6.03737688 -0.87767826 3.05192669 0 0 Z " fill="#FFFFFF" transform="translate(205,23)"/>
<path d="M0 0 C2.70567626 1.82339052 4.53728718 3.07457436 6 6 C6.54399285 10.539219 6.62289461 13.9544269 4.25 17.9375 C1.18309235 20.74883201 -0.72097592 21.77261794 -4.8125 22.5 C-9.353873 21.78762776 -11.90467228 19.29145042 -15 16 C-16.75471072 12.49057855 -15.94883623 8.7120012 -15 5 C-10.45873153 -0.73633912 -7.04065344 -1.5780775 0 0 Z " fill="#654493" transform="translate(468,58)"/>
<path d="M0 0 C3.0625 2.4375 3.0625 2.4375 5 5 C5.33 5.33 5.66 5.66 6 6 C6.35223154 11.28347315 6.51709269 14.75523296 3 19 C0.28575479 21.12738138 -1.5239277 21.92909561 -4.9375 22.4375 C-8.83530088 21.8806713 -10.93989651 20.43417323 -14 18 C-16.47092491 14.29361264 -16.55407837 11.29830496 -16 7 C-12.67663787 -0.27974561 -7.41619373 -1.20646214 0 0 Z " fill="#5A358B" transform="translate(419,58)"/>
<path d="M0 0 C3.79165074 -0.0289337 7.58327327 -0.04677601 11.375 -0.0625 C12.45523437 -0.07087891 13.53546875 -0.07925781 14.6484375 -0.08789062 C16.1953125 -0.09272461 16.1953125 -0.09272461 17.7734375 -0.09765625 C18.72653809 -0.10289307 19.67963867 -0.10812988 20.66162109 -0.11352539 C23 0 23 0 25 1 C25 5.29 25 9.58 25 14 C23.453125 14.144375 21.90625 14.28875 20.3125 14.4375 C17.47985562 14.71395327 14.78897056 15.04396447 12 15.625 C10 16 10 16 8 15 C6.29636178 14.77377919 4.58671299 14.59111527 2.875 14.4375 C1.26625 14.293125 -0.3425 14.14875 -2 14 C-2 9.71 -2 5.42 -2 1 C-1.67 1 -1.34 1 -1 1 C-1 4.96 -1 8.92 -1 13 C0.31262571 11.91447634 0.31262571 11.91447634 0.09765625 9.27734375 C0.08605469 8.17519531 0.07445312 7.07304688 0.0625 5.9375 C0.04896484 4.28041016 0.04896484 4.28041016 0.03515625 2.58984375 C0.02355469 1.73519531 0.01195312 0.88054688 0 0 Z " fill="#73579D" transform="translate(427,40)"/>
<path d="M0 0 C2.5 2.25 2.5 2.25 5 5 C5 6.32 5 7.64 5 9 C5.33 8.67 5.66 8.34 6 8 C7.66617115 7.95936168 9.33388095 7.957279 11 8 C10.34 10.31 9.68 12.62 9 15 C8.34 15 7.68 15 7 15 C7.33 16.32 7.66 17.64 8 19 C5.69 18.67 3.38 18.34 1 18 C1 20.31 1 22.62 1 25 C0.67 25 0.34 25 0 25 C0 22.69 0 20.38 0 18 C-0.99 18.33 -1.98 18.66 -3 19 C-3.99 18.34 -4.98 17.68 -6 17 C-6 16.34 -6 15.68 -6 15 C-6.99 14.67 -7.98 14.34 -9 14 C-10.1875 10.9375 -10.1875 10.9375 -11 8 C-5.375 7.75 -5.375 7.75 -2 10 C-2.33 8.02 -2.66 6.04 -3 4 C-2.34 4 -1.68 4 -1 4 C-0.67 2.68 -0.34 1.36 0 0 Z " fill="#F5F3F8" transform="translate(438,79)"/>
<path d="M0 0 C0.6875 2.0625 0.6875 2.0625 1 4 C1.66 4 2.32 4 3 4 C3.8125 5.6875 3.8125 5.6875 4 8 C1.09939422 11.49778933 -2.0226225 13.84085222 -6 16 C-9.26460973 14.19587357 -10.88929795 13.16605307 -13 10 C-13.25760279 7.30547479 -13.08900053 4.71451625 -13 2 C-11.906875 1.690625 -10.81375 1.38125 -9.6875 1.0625 C-2.78181818 -0.92727273 -2.78181818 -0.92727273 0 0 Z " fill="#5D398D" transform="translate(416,63)"/>
<path d="M0 0 C2.57161458 0.03255208 5.14322917 0.06510417 7.71484375 0.09765625 C7.71484375 3.72765625 7.71484375 7.35765625 7.71484375 11.09765625 C4.08484375 11.42765625 0.45484375 11.75765625 -3.28515625 12.09765625 C-3.3828125 3.6015625 -3.3828125 3.6015625 -3.28515625 1.09765625 C-2.28515625 0.09765625 -2.28515625 0.09765625 0 0 Z " fill="#CFC7DE" transform="translate(442.28515625,39.90234375)"/>
<path d="M0 0 C6.93359375 -0.09765625 6.93359375 -0.09765625 9 0 C10 1 10 1 10.09765625 3.50390625 C10.08605469 4.51324219 10.07445312 5.52257813 10.0625 6.5625 C10.05347656 7.57441406 10.04445313 8.58632813 10.03515625 9.62890625 C10.02355469 10.41136719 10.01195312 11.19382812 10 12 C6.7 11.67 3.4 11.34 0 11 C0 7.37 0 3.74 0 0 Z " fill="#D8D0E4" transform="translate(428,40)"/>
<path d="M0 0 C0.33 0 0.66 0 1 0 C0.63166144 6.38453501 0.63166144 6.38453501 -2.4375 9.375 C-6.29172408 11.8191421 -8.37976769 12.53310373 -13 12 C-15.45134319 10.56357944 -16.97361685 9.07463037 -19 7 C-19 6.01 -19 5.02 -19 4 C-15.625 3.8125 -15.625 3.8125 -12 4 C-11.01 5.485 -11.01 5.485 -10 7 C-7.43717258 7.72965366 -7.43717258 7.72965366 -5 8 C-5.66 7.01 -6.32 6.02 -7 5 C-6.625 2.8125 -6.625 2.8125 -6 1 C-5.34 1.33 -4.68 1.66 -4 2 C-3.67 2.99 -3.34 3.98 -3 5 C-2.525625 4.175 -2.05125 3.35 -1.5625 2.5 C-1.046875 1.675 -0.53125 0.85 0 0 Z " fill="#573188" transform="translate(473,68)"/>
<path d="M0 0 C0.66 0.33 1.32 0.66 2 1 C2 2.65 2 4.3 2 6 C3.32 6 4.64 6 6 6 C6.33 4.35 6.66 2.7 7 1 C7.99 1.33 8.98 1.66 10 2 C9.85691406 2.92232422 9.85691406 2.92232422 9.7109375 3.86328125 C9.54464844 5.07564453 9.54464844 5.07564453 9.375 6.3125 C9.25898438 7.11300781 9.14296875 7.91351563 9.0234375 8.73828125 C8.78466593 11.28723215 8.78466593 11.28723215 11 14 C10.01 14.33 9.02 14.66 8 15 C3.33333333 12.66666667 3.33333333 12.66666667 2 10 C0.02111039 9.27306096 -1.97954558 8.60183749 -4 8 C-2 7 -2 7 1 7 C0.67 4.69 0.34 2.38 0 0 Z " fill="#E3DFEC" transform="translate(458,62)"/>
<path d="M0 0 C0.99 0.33 1.98 0.66 3 1 C3.6875 3.0625 3.6875 3.0625 4 5 C4.66 5 5.32 5 6 5 C6.8125 6.6875 6.8125 6.6875 7 9 C4.59876799 12.03685225 2.93950492 13.72858747 -0.8125 14.8125 C-1.534375 14.874375 -2.25625 14.93625 -3 15 C-3 12 -3 12 -1 9 C-1.32759934 6.66585471 -1.66073053 4.33247761 -2 2 C-1.34 1.34 -0.68 0.68 0 0 Z " fill="#EAE7F1" transform="translate(413,62)"/>
<path d="M0 0 C0.66 0.33 1.32 0.66 2 1 C0.515 2.485 0.515 2.485 -1 4 C-0.690625 4.763125 -0.38125 5.52625 -0.0625 6.3125 C0.67893593 8.18789677 1.36228217 10.08684652 2 12 C0.35 12 -1.3 12 -3 12 C-1.35 12.33 0.3 12.66 2 13 C2 13.33 2 13.66 2 14 C0.02 14 -1.96 14 -4 14 C-4.33 14.66 -4.66 15.32 -5 16 C-6.75092616 12.49814768 -5.9638165 8.70207663 -5 5 C-2.4375 1.9375 -2.4375 1.9375 0 0 Z " fill="#654393" transform="translate(458,58)"/>
<path d="M0 0 C1.47906892 -0.02689216 2.95827483 -0.04634621 4.4375 -0.0625 C5.26121094 -0.07410156 6.08492188 -0.08570313 6.93359375 -0.09765625 C9 0 9 0 10 1 C10.04092937 3.33297433 10.04241723 5.66705225 10 8 C8 5 8 5 8 3 C7.34 3 6.68 3 6 3 C5.67 4.65 5.34 6.3 5 8 C4.34 8 3.68 8 3 8 C3 7.01 3 6.02 3 5 C2.01 5 1.02 5 0 5 C0 3.35 0 1.7 0 0 Z " fill="#FBFAFC" transform="translate(428,40)"/>
<path d="M0 0 C3.3 0 6.6 0 10 0 C10 0.99 10 1.98 10 3 C8.68 3 7.36 3 6 3 C5.67 4.65 5.34 6.3 5 8 C4.67 6.68 4.34 5.36 4 4 C2.68 4 1.36 4 0 4 C0 2.68 0 1.36 0 0 Z " fill="#F9F8FB" transform="translate(440,40)"/>
<path d="M0 0 C0.33 0 0.66 0 1 0 C1 4.29 1 8.58 1 13 C-7 13 -7 13 -11 11 C-10 10 -10 10 -7.93359375 9.90234375 C-4.46679688 9.95117188 -4.46679688 9.95117188 -1 10 C-0.67 6.7 -0.34 3.4 0 0 Z " fill="#816AA7" transform="translate(451,41)"/>
<path d="M0 0 C1.625 1.6875 1.625 1.6875 3 4 C2.1875 6.75 2.1875 6.75 1 9 C-1 8 -1 8 -3 5 C-3 4.01 -3 3.02 -3 2 C-2.34 2 -1.68 2 -1 2 C-0.67 1.34 -0.34 0.68 0 0 Z " fill="#846DA9" transform="translate(470,65)"/>
<path d="M0 0 C0.99 0.33 1.98 0.66 3 1 C3 2.65 3 4.3 3 6 C1.68 6 0.36 6 -1 6 C-1.042721 4.33388095 -1.04063832 2.66617115 -1 1 C-0.67 0.67 -0.34 0.34 0 0 Z " fill="#866FAB" transform="translate(434,42)"/>
<path d="M0 0 C0.99 0.33 1.98 0.66 3 1 C3 2.65 3 4.3 3 6 C1.68 6 0.36 6 -1 6 C-1.042721 4.33388095 -1.04063832 2.66617115 -1 1 C-0.67 0.67 -0.34 0.34 0 0 Z " fill="#8269A8" transform="translate(446,42)"/>
</svg>
