<?xml version="1.0" encoding="UTF-8"?>
<svg version="1.1" xmlns="http://www.w3.org/2000/svg" width="1000" height="514">
<path d="M0 0 C1.56091475 1.50107138 3.10465191 3.0203548 4.625 4.5625 C5.19992187 5.12710938 5.77484375 5.69171875 6.3671875 6.2734375 C17.54579438 18.14708729 20.55743902 34.82079178 20.625 50.5625 C20.295 53.2025 19.965 55.8425 19.625 58.5625 C-15.025 58.5625 -49.675 58.5625 -85.375 58.5625 C-82.32412019 72.79993912 -79.59855984 83.38254569 -67.375 91.5625 C-54.19438207 98.21083684 -39.6874644 100.01401154 -25.3125 96 C-16.53605646 92.83289712 -5.70948118 86.23146236 -1.375 77.5625 C1.72393927 78.15913486 3.62792174 79.0926314 6.078125 81.06640625 C6.696875 81.55947266 7.315625 82.05253906 7.953125 82.56054688 C8.90445313 83.33495117 8.90445313 83.33495117 9.875 84.125 C10.5246875 84.64513672 11.174375 85.16527344 11.84375 85.70117188 C13.44227669 86.982344 15.03428626 88.27164005 16.625 89.5625 C6.72893101 104.57504722 -6.86433687 114.12879983 -24.64453125 118.0390625 C-46.07938096 122.14817532 -67.13958407 118.72809043 -85.375 106.5625 C-98.03640528 97.69728325 -105.3921101 83.15911223 -108.6875 68.375 C-111.60938481 49.10179825 -108.91961226 29.00195218 -97.5625 12.8125 C-86.19177843 -1.89138299 -71.2333703 -11.18907246 -52.625 -13.75 C-33.85928957 -15.94371289 -14.5137907 -12.75388494 0 0 Z M-74.96484375 18.78125 C-79.46366318 23.97275638 -84.375 31.58906891 -84.375 38.5625 C-57.645 38.5625 -30.915 38.5625 -3.375 38.5625 C-5.86227221 26.12613896 -9.75453106 17.83886559 -20.375 10.5625 C-38.41224822 0.95933544 -60.40998026 5.28369499 -74.96484375 18.78125 Z " fill="#FFFFFF" transform="translate(735.375,202.4375)"/>
<path d="M0 0 C1.765625 1.9296875 1.765625 1.9296875 1.765625 5.9296875 C0.48046875 7.66894531 0.48046875 7.66894531 -1.296875 9.3828125 C-1.92851563 10.0015625 -2.56015625 10.6203125 -3.2109375 11.2578125 C-3.87867188 11.89203125 -4.54640625 12.52625 -5.234375 13.1796875 C-5.90210938 13.829375 -6.56984375 14.4790625 -7.2578125 15.1484375 C-8.90805518 16.75153039 -10.56689291 18.34456584 -12.234375 19.9296875 C-12.72486328 19.53064209 -13.21535156 19.13159668 -13.72070312 18.72045898 C-25.92684536 8.92208983 -40.50108129 3.39371951 -56.234375 4.9296875 C-62.33594115 6.01756364 -67.86108846 7.27425344 -72.234375 11.9296875 C-74.75965234 16.18940799 -74.90239496 20.0887117 -74.234375 24.9296875 C-71.50915216 30.26164523 -66.64410811 32.02195261 -61.234375 33.9296875 C-54.16770772 35.88393695 -46.96475018 37.35780829 -39.80517578 38.92700195 C-24.4410223 42.31610995 -8.58811051 46.06894626 0.765625 59.9296875 C3.47908439 65.44947997 4.31786355 70.57108296 4.265625 76.6796875 C4.25704468 77.8560376 4.25704468 77.8560376 4.24829102 79.05615234 C3.95058939 88.83319506 0.5945117 97.10490602 -6.23828125 104.1875 C-19.14649257 115.45376663 -35.74662257 117.61590442 -52.234375 116.9296875 C-69.58484133 115.68306978 -89.01056292 109.9645582 -101.234375 96.9296875 C-99.83056124 92.67246968 -97.79371127 90.05274906 -94.734375 86.8046875 C-92.31989392 84.22558271 -90.19703093 81.87367139 -88.234375 78.9296875 C-84.80482912 80.49955005 -81.92055692 82.54903936 -78.859375 84.7421875 C-66.12300373 93.32675147 -50.54485114 97.28770473 -35.27734375 94.36328125 C-29.23385431 92.63268682 -24.75023108 90.92423498 -20.859375 85.8046875 C-18.94099281 82.10886549 -18.86645878 79.06831647 -19.5703125 75.00390625 C-21.08941987 70.2589297 -24.68343696 68.09972652 -28.88964844 65.92944336 C-33.05825519 63.88792749 -37.16982037 62.73903521 -41.6875 61.74609375 C-42.468974 61.5638475 -43.250448 61.38160126 -44.05560303 61.1938324 C-47.35382317 60.42490137 -50.65716807 59.67921032 -53.96044922 58.93237305 C-85.59208458 51.73308072 -85.59208458 51.73308072 -94.234375 38.9296875 C-99.13561676 30.21636881 -99.38708172 20.87554708 -97.109375 11.2421875 C-94.21461065 1.77698128 -87.17170348 -5.79394729 -78.55859375 -10.546875 C-52.66267033 -22.79639894 -22.15375349 -17.34680697 0 0 Z " fill="#FFFFFF" transform="translate(873.234375,205.0703125)"/>
<path d="M0 0 C2.79925486 2.61327371 5.19907049 4.92499553 7.29296875 8.140625 C7.05705514 10.63592398 6.61257195 11.80921097 4.8659668 13.62036133 C2.91315664 15.07832271 0.95885652 16.52994427 -1.01953125 17.953125 C-1.69693359 18.46810547 -2.37433594 18.98308594 -3.07226562 19.51367188 C-3.73162109 19.99513672 -4.39097656 20.47660156 -5.0703125 20.97265625 C-5.67141846 21.41327393 -6.27252441 21.8538916 -6.8918457 22.30786133 C-8.70703125 23.140625 -8.70703125 23.140625 -10.85205078 22.86254883 C-13.1414496 21.97155747 -13.84941512 21.00111652 -15.26953125 19.015625 C-22.37082915 10.27833189 -32.99293574 5.51568815 -43.95703125 4.265625 C-55.39445736 3.61622305 -65.94315807 7.12098354 -74.83203125 14.265625 C-82.96711764 21.72944689 -88.26781944 33.00523316 -88.9453125 44.01171875 C-89.32462882 59.48374212 -86.53575853 71.39660849 -75.8984375 83.13671875 C-67.47233475 91.28253534 -56.07486144 94.57398661 -44.546875 94.41796875 C-29.38213449 92.93695558 -18.74305596 84.94536649 -8.70703125 74.140625 C-4.35567732 75.62330856 -1.10832304 77.8706795 2.54296875 80.640625 C3.084375 81.04410156 3.62578125 81.44757813 4.18359375 81.86328125 C8.16058067 84.87584884 8.16058067 84.87584884 9.29296875 87.140625 C-1.49873209 102.13102617 -15.36942232 111.89304846 -33.70703125 115.140625 C-35.40859375 115.4809375 -35.40859375 115.4809375 -37.14453125 115.828125 C-58.31710179 117.68536803 -77.17471729 112.89622897 -93.89453125 99.37109375 C-106.02142023 88.12056198 -112.9516233 71.58628062 -113.9453125 55.21484375 C-114.44602085 35.64474721 -109.88122016 18.42255923 -97.08203125 3.265625 C-70.90900718 -23.66894189 -28.100639 -24.40646342 0 0 Z " fill="#FFFFFF" transform="translate(604.70703125,205.859375)"/>
<path d="M0 0 C7.59 0 15.18 0 23 0 C23 42.24 23 84.48 23 128 C15.41 128 7.82 128 0 128 C0 85.76 0 43.52 0 0 Z " fill="#FFFFFF" transform="translate(901,191)"/>
<path d="M0 0 C7.26 0 14.52 0 22 0 C22 42.24 22 84.48 22 128 C14.74 128 7.48 128 0 128 C0 85.76 0 43.52 0 0 Z " fill="#FFFFFF" transform="translate(444,191)"/>
<path d="M0 0 C9.9 0 19.8 0 30 0 C30 14.52 30 29.04 30 44 C20.1 44 10.2 44 0 44 C0 29.48 0 14.96 0 0 Z " fill="#FFFFFF" transform="translate(218,100)"/>
<path d="M0 0 C1.85521526 5.51630495 3.70652973 11.0338974 5.55419922 16.55273438 C6.18365436 18.43102591 6.81418472 20.30895746 7.44580078 22.18652344 C8.35209774 24.88122744 9.25455348 27.57719117 10.15625 30.2734375 C10.44060913 31.11619232 10.72496826 31.95894714 11.01794434 32.82723999 C13 38.77225659 13 38.77225659 13 41 C12.47156494 41.16604736 11.94312988 41.33209473 11.39868164 41.50317383 C8.95303738 42.27215544 6.50776792 43.04232254 4.0625 43.8125 C3.23169922 44.07353516 2.40089844 44.33457031 1.54492188 44.60351562 C-3.98892812 46.34764734 -9.50156937 48.14724084 -15 50 C-16.69651085 44.98485909 -18.38699242 39.96774081 -20.07202148 34.94873047 C-20.6455802 33.24310113 -21.22075638 31.53801478 -21.79760742 29.83349609 C-22.6284926 27.37740236 -23.45346033 24.91938746 -24.27734375 22.4609375 C-24.66332985 21.32620499 -24.66332985 21.32620499 -25.05711365 20.16854858 C-26.4054437 16.12483052 -27.43352038 12.24419445 -28 8 C-25.48045712 7.0381577 -22.95946363 6.08045759 -20.4375 5.125 C-19.73302734 4.85558594 -19.02855469 4.58617188 -18.30273438 4.30859375 C-6.52242067 -0.14295336 -6.52242067 -0.14295336 0 0 Z " fill="#FFFFFF" transform="translate(199,104)"/>
<path d="M0 0 C1.87756746 2.44328404 3.63895164 4.89577325 5.375 7.4375 C6.44862901 8.99129308 7.52286645 10.54466589 8.59765625 12.09765625 C9.15340332 12.90348145 9.70915039 13.70930664 10.28173828 14.53955078 C11.98997858 16.98564991 13.735108 19.40025207 15.49609375 21.80859375 C16.05184082 22.57437744 16.60758789 23.34016113 17.18017578 24.12915039 C18.25576828 25.60901509 19.33862843 27.08362874 20.42919922 28.55249023 C20.91275879 29.22352783 21.39631836 29.89456543 21.89453125 30.5859375 C22.54192261 31.46838135 22.54192261 31.46838135 23.20239258 32.36865234 C24 34 24 34 23 37 C20.5234375 38.83203125 20.5234375 38.83203125 17.375 40.8125 C13.67247562 43.19426657 10.20195823 45.54443674 6.9375 48.5 C4 51 4 51 1 51 C-0.60208275 49.07626357 -1.98549295 47.19613094 -3.375 45.125 C-4.25388825 43.84804875 -5.13417061 42.57205624 -6.015625 41.296875 C-6.48935547 40.60787109 -6.96308594 39.91886719 -7.45117188 39.20898438 C-9.11032598 36.84264983 -10.82092555 34.52114772 -12.546875 32.203125 C-13.14064941 31.40116699 -13.73442383 30.59920898 -14.34619141 29.77294922 C-15.51917073 28.19169711 -16.69841086 26.61506748 -17.88427734 25.04345703 C-18.42004395 24.31497559 -18.95581055 23.58649414 -19.5078125 22.8359375 C-19.98879395 22.19188965 -20.46977539 21.5478418 -20.96533203 20.88427734 C-22 19 -22 19 -22 15 C-17.78668477 9.79531648 -6.70613451 0 0 0 Z " fill="#FFFFFF" transform="translate(153,122)"/>
<path d="M0 0 C3.2017089 0.36196476 5.28141792 1.70287376 7.8359375 3.58984375 C8.56441895 4.12262939 9.29290039 4.65541504 10.04345703 5.2043457 C10.81286621 5.77628662 11.58227539 6.34822754 12.375 6.9375 C13.98411104 8.11754753 15.59348953 9.29723042 17.203125 10.4765625 C18.00556641 11.06727539 18.80800781 11.65798828 19.63476562 12.26660156 C23.10940933 14.81304771 26.61498546 17.31514906 30.125 19.8125 C31.27346008 20.63147875 32.4219 21.45048578 33.5703125 22.26953125 C34.37210938 22.84058594 35.17390625 23.41164062 36 24 C34.35920526 27.68737742 32.07281331 30.67901784 29.625 33.875 C26.59570405 37.83638702 23.7268813 41.82874322 21 46 C15.1686215 42.84980491 9.93094007 39.15000317 4.625 35.1875 C3.82578125 34.59646484 3.0265625 34.00542969 2.203125 33.39648438 C-3.26016737 29.34321649 -8.64714031 25.19780267 -14 21 C-12.61231224 15.7961709 -10.30951763 12.36325762 -7 8.25 C-6.54882812 7.67378906 -6.09765625 7.09757813 -5.6328125 6.50390625 C-3.84064338 4.22923006 -2.04915597 2.04915597 0 0 Z " fill="#FFFFFF" transform="translate(113,155)"/>
<path d="M0 0 C8.9589922 1.69191434 17.44717762 4.70442689 26.0625 7.625 C27.61118679 8.14625345 29.16001384 8.66709036 30.70898438 9.1875 C34.47429156 10.45353377 38.2376523 11.72519962 42 13 C41.71322388 13.83422485 41.71322388 13.83422485 41.4206543 14.68530273 C39.69533282 19.77099807 38.15785813 24.86428745 36.8125 30.0625 C36.63525391 30.73732422 36.45800781 31.41214844 36.27539062 32.10742188 C35.8476161 33.73758964 35.42340908 35.36869293 35 37 C25.54798814 34.83753477 16.41828256 31.92711044 7.25 28.8125 C5.85951841 28.34397522 4.46889412 27.87587373 3.078125 27.40820312 C-0.28290376 26.27699426 -3.64198416 25.14012633 -7 24 C-5.90241689 17.89731373 -4.54021253 12.18688627 -2.375 6.375 C-1.92898437 5.16585937 -1.48296875 3.95671875 -1.0234375 2.7109375 C-0.68570313 1.81632813 -0.34796875 0.92171875 0 0 Z " fill="#FFFFFF" transform="translate(87,197)"/>
<path d="M0 0 C14.52 0 29.04 0 44 0 C44 7.92 44 15.84 44 24 C29.48 24 14.96 24 0 24 C0 16.08 0 8.16 0 0 Z " fill="#FFFFFF" transform="translate(76,245)"/>
<path d="M0 0 C1.03810444 2.91080728 2.05237641 5.82937658 3.0625 8.75 C3.35705078 9.575 3.65160156 10.4 3.95507812 11.25 C4.22900391 12.04921875 4.50292969 12.8484375 4.78515625 13.671875 C5.04176025 14.4050293 5.29836426 15.13818359 5.56274414 15.89355469 C6.07628753 18.3675091 5.88962041 19.64452364 5 22 C2.28728028 23.23693255 -0.22032366 24.17485913 -3.05078125 25.05078125 C-4.26630928 25.44537788 -4.26630928 25.44537788 -5.50639343 25.84794617 C-7.22299006 26.40113881 -8.94223802 26.94616029 -10.66381836 27.48364258 C-13.29785296 28.30791647 -15.92140766 29.160483 -18.54492188 30.01757812 C-20.21299541 30.5511898 -21.88159954 31.08314622 -23.55078125 31.61328125 C-24.72910271 31.99592888 -24.72910271 31.99592888 -25.93122864 32.38630676 C-32.52891002 34.42147546 -32.52891002 34.42147546 -36 33 C-37.11423121 30.53727873 -37.93462347 28.32091601 -38.6875 25.75 C-38.89955078 25.08097656 -39.11160156 24.41195313 -39.33007812 23.72265625 C-40.43461013 20.17561026 -41.30154903 16.64497965 -42 13 C-34.01391113 9.63865636 -25.87218727 6.89564942 -17.625 4.25 C-16.3554113 3.83481106 -15.0858797 3.41944744 -13.81640625 3.00390625 C-12.61113281 2.61589844 -11.40585938 2.22789062 -10.1640625 1.828125 C-9.07561035 1.4765332 -7.9871582 1.12494141 -6.86572266 0.76269531 C-4 0 -4 0 0 0 Z " fill="#FFFFFF" transform="translate(122,282)"/>
<path d="M0 0 C3.09340382 2.94742297 5.6643877 6.05379784 8.1875 9.5 C8.88230469 10.4384375 9.57710937 11.376875 10.29296875 12.34375 C11.83677056 14.74600454 12.41643323 16.27886182 13 19 C11.9584375 19.72703125 10.916875 20.4540625 9.84375 21.203125 C-0.25388335 28.27728045 -10.17996528 35.54576099 -20 43 C-24.18378137 41.44903299 -26.08357411 38.64567996 -28.6875 35.125 C-29.47511719 34.07570313 -30.26273437 33.02640625 -31.07421875 31.9453125 C-32.75834119 29.36959583 -33.39273068 27.90473906 -34 25 C-22.67798349 16.65118283 -11.3488497 8.31231144 0 0 Z " fill="#FFFFFF" transform="translate(134,315)"/>
<path d="M0 0 C3.8461622 1.84996015 7.26658589 4.17512634 10.75 6.625 C11.35199219 7.04523438 11.95398438 7.46546875 12.57421875 7.8984375 C14.05113043 8.92993137 15.52579194 9.96464579 17 11 C16.40972642 15.07288772 14.13497825 17.90606178 11.75 21.125 C11.3183252 21.71812988 10.88665039 22.31125977 10.44189453 22.92236328 C9.49061574 24.22924154 8.53687323 25.53432896 7.58105469 26.83789062 C5.25508619 30.01867769 2.95344194 33.21687648 0.64941406 36.41357422 C-1.89649545 39.94520048 -4.44813784 43.47267377 -7 47 C-11.07042851 45.56643667 -14.26260188 43.59321998 -17.75 41.0625 C-18.71421875 40.37285156 -19.6784375 39.68320312 -20.671875 38.97265625 C-23 37 -23 37 -24 34 C-23.20239258 32.36865234 -23.20239258 32.36865234 -21.89453125 30.5859375 C-21.41081055 29.9148999 -20.92708984 29.2438623 -20.42871094 28.55249023 C-19.89536133 27.83391846 -19.36201172 27.11534668 -18.8125 26.375 C-17.70932556 24.85308914 -16.60647082 23.33094649 -15.50390625 21.80859375 C-14.92914551 21.02210449 -14.35438477 20.23561523 -13.76220703 19.42529297 C-10.88115527 15.46015467 -8.06843814 11.44725434 -5.25 7.4375 C-4.2346993 5.99846905 -3.21910438 4.55964561 -2.203125 3.12109375 C-1.47609375 2.09113281 -0.7490625 1.06117188 0 0 Z " fill="#FFFFFF" transform="translate(157,343)"/>
<path d="M0 0 C5.94 1.98 11.88 3.96 18 6 C16.72006385 11.75971269 15.4476689 17.06528341 13.65234375 22.625 C13.43558487 23.29797119 13.21882599 23.97094238 12.99549866 24.66430664 C12.54284114 26.06639537 12.08819389 27.46784323 11.6315918 28.86865234 C10.93053926 31.02137434 10.23733073 33.17651541 9.54492188 35.33203125 C6.13702343 45.86297657 6.13702343 45.86297657 5 47 C-1.83312055 46.62038219 -7.66782306 44.5026067 -14 42 C-11.1514558 31.92053589 -8.05170067 21.94073188 -4.75 12 C-4.39679688 10.93136719 -4.04359375 9.86273438 -3.6796875 8.76171875 C-3.34710938 7.76785156 -3.01453125 6.77398437 -2.671875 5.75 C-2.3737793 4.85796875 -2.07568359 3.9659375 -1.76855469 3.046875 C-1 1 -1 1 0 0 Z " fill="#FFFFFF" transform="translate(189,362)"/>
<path d="M0 0 C4.06743916 3.8596138 7.42191263 7.99461527 10.75 12.5 C11.26788086 13.19544922 11.78576172 13.89089844 12.31933594 14.60742188 C17.03086816 20.96871523 21.55748795 27.44841658 26 34 C24.47236536 38.08596252 21.88915809 39.79826179 18.375 42.25 C17.37210937 42.95640625 16.36921875 43.6628125 15.3359375 44.390625 C14.56507813 44.92171875 13.79421875 45.4528125 13 46 C8.5747993 41.87857004 5.17040629 37.30440691 1.6875 32.375 C0.54344443 30.76658863 -0.60108626 29.1585151 -1.74609375 27.55078125 C-2.29894043 26.77299316 -2.85178711 25.99520508 -3.42138672 25.19384766 C-4.80783799 23.26705349 -6.22012876 21.36734383 -7.66015625 19.48046875 C-8.39105469 18.51753906 -9.12195313 17.55460937 -9.875 16.5625 C-10.51179688 15.73878906 -11.14859375 14.91507812 -11.8046875 14.06640625 C-12.39636719 13.04353516 -12.39636719 13.04353516 -13 12 C-11.74437423 8.2331227 -10.32478146 7.60455354 -7.0625 5.4375 C-3.33955173 2.952948 -3.33955173 2.952948 0 0 Z " fill="#FFFFFF" transform="translate(307,343)"/>
<path d="M0 0 C5.94 0 11.88 0 18 0 C18 14.19 18 28.38 18 43 C14.67236332 43.66552734 12.25612222 44.13812953 9 44.125 C8.0409375 44.12886719 8.0409375 44.12886719 7.0625 44.1328125 C5 44 5 44 0 43 C0 28.81 0 14.62 0 0 Z " fill="#FFFFFF" transform="translate(224,371)"/>
<path d="M0 0 C1.69454818 5.03410749 3.38510539 10.06953104 5.07202148 15.10620117 C5.64612823 16.8184806 6.2213128 18.53039905 6.79760742 20.24194336 C7.62704374 22.70592027 8.45256115 25.17118076 9.27734375 27.63671875 C9.53466782 28.39836838 9.79199188 29.16001801 10.05711365 29.94474792 C11.27911238 33.60997554 12.36235289 37.17742121 13 41 C11.48353179 41.65601744 9.96153825 42.2992664 8.4375 42.9375 C7.59058594 43.29714844 6.74367188 43.65679687 5.87109375 44.02734375 C2.59512576 45.13716148 -0.57736572 45.54728924 -4 46 C-5.6968129 41.12743407 -7.38728116 36.2527299 -9.07202148 31.37597656 C-9.64549616 29.7188046 -10.22067091 28.06221992 -10.79760742 26.40625 C-11.62871589 24.01977115 -12.45359749 21.63121605 -13.27734375 19.2421875 C-13.66332985 18.14026566 -13.66332985 18.14026566 -14.05711365 17.01608276 C-15.42662678 13.02299743 -16.44179164 9.20536246 -17 5 C-14.73117913 4.16080602 -12.46022973 3.32848276 -10.1875 2.5 C-9.54490234 2.26152344 -8.90230469 2.02304687 -8.24023438 1.77734375 C-5.35066261 0.72931254 -3.09923939 0 0 0 Z " fill="#FFFFFF" transform="translate(277,363)"/>
<path d="M0 0 C7.29029762 4.41216409 14.06232908 9.24842298 20.76171875 14.48828125 C25.41339998 18.12122324 30.2046836 21.55967281 35 25 C33.65070536 28.83663072 31.92248975 31.65172569 29.375 34.8125 C28.42753906 35.99779297 28.42753906 35.99779297 27.4609375 37.20703125 C26.97882813 37.79871094 26.49671875 38.39039063 26 39 C22.50361504 37.72601667 19.71522516 36.25441373 16.7421875 34.0234375 C15.95626221 33.43836426 15.17033691 32.85329102 14.3605957 32.25048828 C13.13022583 31.32212158 13.13022583 31.32212158 11.875 30.375 C10.17856716 29.1091314 8.48195332 27.84350534 6.78515625 26.578125 C5.9667627 25.96517578 5.14836914 25.35222656 4.30517578 24.72070312 C1.32562654 22.49661256 -1.67715138 20.30720839 -4.6875 18.125 C-5.53699219 17.50882812 -6.38648438 16.89265625 -7.26171875 16.2578125 C-7.83535156 15.84273438 -8.40898437 15.42765625 -9 15 C-8.39889717 10.99264783 -6.33397972 8.44530629 -3.9375 5.25 C-2.83728516 3.77273438 -2.83728516 3.77273438 -1.71484375 2.265625 C-1.14894531 1.51796875 -0.58304687 0.7703125 0 0 Z " fill="#FFFFFF" transform="translate(330,317)"/>
<path d="M0 0 C7.79919445 1.38538323 15.32987367 3.81182 22.86865234 6.20361328 C24.30157354 6.65499166 25.73687017 7.09889071 27.17431641 7.53564453 C29.26744602 8.17177784 31.35272122 8.82927051 33.4375 9.4921875 C34.67371094 9.87745605 35.90992188 10.26272461 37.18359375 10.65966797 C40 12 40 12 40.95874023 13.96826172 C41.02022311 16.99583867 40.08030019 19.41249645 39.0625 22.25 C38.49208984 23.86648438 38.49208984 23.86648438 37.91015625 25.515625 C37.60980469 26.33546875 37.30945313 27.1553125 37 28 C31.74223045 27.3853219 26.94830511 26.21693335 21.9140625 24.6015625 C20.80047867 24.24812271 20.80047867 24.24812271 19.66439819 23.88754272 C18.10879565 23.39126217 16.55416698 22.89191944 15.00048828 22.38964844 C12.61493135 21.62175899 10.223843 20.873145 7.83203125 20.125 C6.31733429 19.63918551 4.80299748 19.15224635 3.2890625 18.6640625 C2.57247467 18.44207184 1.85588684 18.22008118 1.11758423 17.99136353 C-0.87646484 17.33447266 -0.87646484 17.33447266 -4 16 C-5.27710684 12.16867948 -4.44164418 10.64332645 -3.125 6.875 C-2.75632812 5.79992187 -2.38765625 4.72484375 -2.0078125 3.6171875 C-1 1 -1 1 0 0 Z " fill="#FFFFFF" transform="translate(344,285)"/>
<path d="M0 0 C14.19 0 28.38 0 43 0 C44 11 44 11 43 16 C28.81 16 14.62 16 0 16 C0 10.72 0 5.44 0 0 Z " fill="#FFFFFF" transform="translate(347,249)"/>
<path d="M0 0 C1.9725717 0.36801711 3.92968409 0.82033974 5.875 1.3125 C7.47988281 1.70888672 7.47988281 1.70888672 9.1171875 2.11328125 C12 3 12 3 15 5 C12.84562368 13.09135397 10.53321479 21.1245902 8.0625 29.125 C7.56073242 30.8265625 7.56073242 30.8265625 7.04882812 32.5625 C6.71431641 33.63757813 6.37980469 34.71265625 6.03515625 35.8203125 C5.7400415 36.79242676 5.44492676 37.76454102 5.14086914 38.76611328 C4 41 4 41 2.0612793 41.87231445 C-1.00384671 42.06218309 -3.37628402 41.09328943 -6.25 40.0625 C-7.86648437 39.49208984 -7.86648437 39.49208984 -9.515625 38.91015625 C-10.33546875 38.60980469 -11.1553125 38.30945313 -12 38 C-10.53320468 30.62594704 -8.38247304 23.56017811 -6.05883789 16.41308594 C-5.43023533 14.47763222 -4.80946013 12.5397848 -4.18945312 10.6015625 C-1.13106216 1.13106216 -1.13106216 1.13106216 0 0 Z " fill="#FFFFFF" transform="translate(259,152)"/>
<path d="M0 0 C4.83540096 2.61111652 8.87103901 5.37457083 13 9 C6.21138619 20.28248493 -1.72527915 30.77015418 -10 41 C-13.10742423 39.53181332 -15.90471739 37.79975 -18.75 35.875 C-19.54921875 35.33617187 -20.3484375 34.79734375 -21.171875 34.2421875 C-21.77515625 33.83226562 -22.3784375 33.42234375 -23 33 C-21.69339834 30.25897285 -20.24895483 27.79033585 -18.49609375 25.3125 C-17.76181152 24.27210571 -17.76181152 24.27210571 -17.01269531 23.21069336 C-16.49288086 22.48116455 -15.97306641 21.75163574 -15.4375 21 C-14.90608398 20.25049072 -14.37466797 19.50098145 -13.82714844 18.72875977 C-9.32537319 12.40345498 -4.70937771 6.17213896 0 0 Z " fill="#FFFFFF" transform="translate(290,165)"/>
<path d="M0 0 C5.28 0 10.56 0 16 0 C16 13.2 16 26.4 16 40 C10.72 40 5.44 40 0 40 C0 26.8 0 13.6 0 0 Z " fill="#FFFFFF" transform="translate(225,149)"/>
<path d="M0 0 C0.6987693 1.76641683 1.38366583 3.53832664 2.0625 5.3125 C2.44535156 6.29863281 2.82820313 7.28476563 3.22265625 8.30078125 C4 11 4 11 3 14 C0.31113943 15.12510444 -2.27756509 16.05266942 -5.05078125 16.91796875 C-6.26630928 17.31113029 -6.26630928 17.31113029 -7.50639343 17.7122345 C-9.22370184 18.26497524 -10.94291431 18.81182922 -12.66381836 19.35327148 C-15.29544268 20.18212763 -17.92039155 21.0298402 -20.54492188 21.88085938 C-22.21318054 22.41519132 -23.88178964 22.94843059 -25.55078125 23.48046875 C-26.72910271 23.86008003 -26.72910271 23.86008003 -27.93122864 24.24736023 C-31.47503934 25.35566185 -34.25350886 26 -38 26 C-39.32 21.71 -40.64 17.42 -42 13 C-3 0 -3 0 0 0 Z " fill="#FFFFFF" transform="translate(381,202)"/>
<path d="M0 0 C3.63502443 1.66003823 5.10890357 3.21871023 7.25 6.625 C8.03117187 7.85089844 8.03117187 7.85089844 8.828125 9.1015625 C9.21484375 9.72804687 9.6015625 10.35453125 10 11 C5.83304355 15.48427978 1.17807489 18.91401401 -3.8125 22.4375 C-5.36119801 23.53963295 -6.90937861 24.64249334 -8.45703125 25.74609375 C-9.21064941 26.28089355 -9.96426758 26.81569336 -10.74072266 27.36669922 C-13.67086364 29.48498787 -16.5296548 31.69105934 -19.37768555 33.91821289 C-21 35 -21 35 -23 35 C-24.4375 33.171875 -24.4375 33.171875 -26 30.75 C-26.515625 29.96109375 -27.03125 29.1721875 -27.5625 28.359375 C-28.82983586 26.27929114 -29.9519458 24.19688285 -31 22 C-20.69874063 14.62096793 -10.35841968 7.29854752 0 0 Z " fill="#FFFFFF" transform="translate(315,188)"/>
<path d="M0 0 C1.640625 1.86328125 1.640625 1.86328125 3.25 4.3125 C3.79140625 5.11300781 4.3328125 5.91351563 4.890625 6.73828125 C6 9 6 9 5 12 C3.45629883 13.37524414 3.45629883 13.37524414 1.45703125 14.78515625 C0.35016968 15.57466675 0.35016968 15.57466675 -0.77905273 16.38012695 C-1.57384033 16.93531006 -2.36862793 17.49049316 -3.1875 18.0625 C-4.8281559 19.22391469 -6.46878051 20.38537357 -8.109375 21.546875 C-8.93115234 22.12501953 -9.75292969 22.70316406 -10.59960938 23.29882812 C-12.81741126 24.87059822 -15.01421462 26.46646336 -17.203125 28.078125 C-17.83710205 28.54210693 -18.4710791 29.00608887 -19.12426758 29.48413086 C-20.30983114 30.3526715 -21.49211695 31.22570877 -22.6706543 32.10375977 C-26.66231021 35 -26.66231021 35 -30 35 C-31.60546875 33.03125 -31.60546875 33.03125 -33.1875 30.5 C-33.71730469 29.6646875 -34.24710937 28.829375 -34.79296875 27.96875 C-35.19128906 27.3190625 -35.58960938 26.669375 -36 26 C-34.65837421 22.87092866 -33.38230828 21.24989216 -30.578125 19.3359375 C-29.54389404 18.61905762 -29.54389404 18.61905762 -28.48876953 17.88769531 C-27.74997559 17.38850586 -27.01118164 16.88931641 -26.25 16.375 C-24.71045574 15.31580406 -23.17140111 14.25589613 -21.6328125 13.1953125 C-20.8584082 12.66454102 -20.08400391 12.13376953 -19.28613281 11.58691406 C-17.12278667 10.0852321 -14.99022379 8.55018062 -12.8671875 6.9921875 C-11.91730957 6.29730225 -11.91730957 6.29730225 -10.94824219 5.58837891 C-9.75525059 4.71264512 -8.56564103 3.83228062 -7.37988281 2.94677734 C-3.33308896 0 -3.33308896 0 0 0 Z " fill="#FFFFFF" transform="translate(358,160)"/>
<path d="M0 0 C0.67260351 1.76858691 1.33788395 3.53996016 2 5.3125 C2.37125 6.29863281 2.7425 7.28476563 3.125 8.30078125 C4 11 4 11 4 14 C-1.0890579 15.71280242 -6.17940363 17.42169983 -11.27099609 19.12695312 C-13.00378013 19.70790528 -14.73620403 20.28993274 -16.46826172 20.87304688 C-18.95446929 21.70984713 -21.44193615 22.54280229 -23.9296875 23.375 C-24.70682098 23.63748535 -25.48395447 23.8999707 -26.28463745 24.17041016 C-31.77225659 26 -31.77225659 26 -34 26 C-34.69848264 24.06643218 -35.38344814 22.12797702 -36.0625 20.1875 C-36.44535156 19.10855469 -36.82820313 18.02960938 -37.22265625 16.91796875 C-38 14 -38 14 -37 11 C-34.51387762 9.9466261 -32.14005685 9.09421435 -29.5703125 8.30078125 C-28.82417694 8.0608696 -28.07804138 7.82095795 -27.30929565 7.57377625 C-25.72899916 7.06816269 -24.14682634 6.56838242 -22.56298828 6.07397461 C-20.1380223 5.31656735 -17.71916758 4.54180209 -15.30078125 3.76367188 C-13.76595263 3.27501143 -12.23080618 2.78734788 -10.6953125 2.30078125 C-9.97022491 2.06958084 -9.24513733 1.83838043 -8.49807739 1.60017395 C-5.55310794 0.68463612 -3.10366285 0 0 0 Z " fill="#FFFFFF" transform="translate(334,217)"/>
<path d="M0 0 C8.00936965 1.61057977 15.71822183 3.96474811 23.5 6.4375 C24.79946092 6.83664794 26.09893996 7.23573691 27.3984375 7.63476562 C28.61789062 8.02212891 29.83734375 8.40949219 31.09375 8.80859375 C32.20427734 9.15720459 33.31480469 9.50581543 34.45898438 9.86499023 C35.29751953 10.23954346 36.13605469 10.61409668 37 11 C38.65887617 15.9766285 35.83459193 20.27453595 34 25 C25.47459602 22.80345089 17.15058039 20.13081612 8.8125 17.3125 C6.9552832 16.68891602 6.9552832 16.68891602 5.06054688 16.05273438 C2.03943461 15.0379206 -0.98041536 14.01935023 -4 13 C-2.68 8.71 -1.36 4.42 0 0 Z " fill="#FFFFFF" transform="translate(300,272)"/>
<path d="M0 0 C12.87 0 25.74 0 39 0 C39 4.62 39 9.24 39 14 C26.13 14 13.26 14 0 14 C0 9.38 0 4.76 0 0 Z " fill="#FFFFFF" transform="translate(302,250)"/>
<path d="M0 0 C3.40755272 1.92880342 6.74147635 3.8276509 10 6 C9.40972642 10.07288772 7.13497825 12.90606178 4.75 16.125 C4.3183252 16.71812988 3.88665039 17.31125977 3.44189453 17.92236328 C2.49061574 19.22924154 1.53687323 20.53432896 0.58105469 21.83789062 C-1.74491381 25.01867769 -4.04655806 28.21687648 -6.35058594 31.41357422 C-8.89649545 34.94520048 -11.44813784 38.47267377 -14 42 C-17.14364834 41.28839233 -19.15995402 40.38003448 -21.75 38.4375 C-22.36359375 37.98246094 -22.9771875 37.52742188 -23.609375 37.05859375 C-24.29773438 36.53458984 -24.29773438 36.53458984 -25 36 C-21.85874884 30.17738308 -18.1553909 24.97362533 -14.1875 19.6875 C-12.9379106 18.00847561 -11.6892038 16.32879397 -10.44140625 14.6484375 C-9.84730957 13.84889648 -9.25321289 13.04935547 -8.64111328 12.22558594 C-5.67830135 8.2075863 -2.81789208 4.12090233 0 0 Z " fill="#FFFFFF" transform="translate(320,126)"/>
<path d="M0 0 C5.91583721 3.18483834 11.19536831 6.96938107 16.5625 11 C21.63454808 14.79114775 26.68519349 18.55442041 32 22 C31.67566492 27.35152885 28.50295176 30.28280043 25 34 C19.08416279 30.81516166 13.80463169 27.03061893 8.4375 23 C3.36545192 19.20885225 -1.68519349 15.44557959 -7 12 C-5.44298069 7.32894208 -2.91552627 3.91294315 0 0 Z " fill="#FFFFFF" transform="translate(292,292)"/>
<path d="M0 0 C4.46446679 4.15685921 7.91220462 8.78572439 11.4375 13.75 C11.98470703 14.51054687 12.53191406 15.27109375 13.09570312 16.0546875 C16.84802919 21.29462213 20.44861234 26.62203135 24 32 C21.03 34.31 18.06 36.62 15 39 C11.19793184 37.09896592 10.30082196 36.46745206 8.01171875 33.21875 C7.47313232 32.46343994 6.9345459 31.70812988 6.37963867 30.92993164 C5.82123291 30.1280542 5.26282715 29.32617676 4.6875 28.5 C4.11298096 27.68716553 3.53846191 26.87433105 2.9465332 26.03686523 C1.8086093 24.42524855 0.67399825 22.81128684 -0.45703125 21.19482422 C-1.7562419 19.34673818 -3.07207204 17.51427918 -4.40625 15.69140625 C-5.34984375 14.39009766 -5.34984375 14.39009766 -6.3125 13.0625 C-6.84488281 12.33160156 -7.37726563 11.60070312 -7.92578125 10.84765625 C-9 9 -9 9 -9 6 C-7.03125 4.39453125 -7.03125 4.39453125 -4.5 2.8125 C-3.6646875 2.28269531 -2.829375 1.75289063 -1.96875 1.20703125 C-1.3190625 0.80871094 -0.669375 0.41039062 0 0 Z " fill="#FFFFFF" transform="translate(278,309)"/>
<path d="M0 0 C1.57409702 4.76643886 3.14044795 9.53532713 4.69970703 14.30664062 C5.23111774 15.92908065 5.76463036 17.5508338 6.30029297 19.171875 C7.07033412 21.50342818 7.83275698 23.83735533 8.59375 26.171875 C8.83436157 26.89493835 9.07497314 27.61800171 9.32287598 28.36297607 C10.43064345 31.78546492 11 34.3607079 11 38 C7.04 38.99 3.08 39.98 -1 41 C-2.57409702 36.23356114 -4.14044795 31.46467287 -5.69970703 26.69335938 C-6.23111774 25.07091935 -6.76463036 23.4491662 -7.30029297 21.828125 C-8.07033412 19.49657182 -8.83275698 17.16264467 -9.59375 14.828125 C-9.83436157 14.10506165 -10.07497314 13.38199829 -10.32287598 12.63702393 C-11.43064345 9.21453508 -12 6.6392921 -12 3 C-10.75336669 2.49166409 -9.50250613 1.99368855 -8.25 1.5 C-7.55390625 1.2215625 -6.8578125 0.943125 -6.140625 0.65625 C-4 0 -4 0 0 0 Z " fill="#FFFFFF" transform="translate(261,321)"/>
<path d="M0 0 C1.45903258 0.30921884 2.91720722 0.62248799 4.375 0.9375 C5.59316406 1.19853516 5.59316406 1.19853516 6.8359375 1.46484375 C9 2 9 2 11 3 C8.69049368 12.03931969 5.79417637 20.85450836 2.8125 29.6875 C2.34411798 31.08258729 1.87601717 32.47776903 1.40820312 33.87304688 C0.27536759 37.24979034 -0.86124108 40.62524882 -2 44 C-5.3 43.34 -8.6 42.68 -12 42 C-13.40452408 37.78642777 -11.86795015 34.73337576 -10.5078125 30.68359375 C-10.10971878 29.46519554 -10.10971878 29.46519554 -9.70358276 28.22218323 C-8.85236105 25.62447324 -7.9886532 23.0311 -7.125 20.4375 C-6.54999953 18.68580329 -5.97577122 16.9338529 -5.40234375 15.18164062 C-1.20652656 2.41305312 -1.20652656 2.41305312 0 0 Z " fill="#FFFFFF" transform="translate(276,106)"/>
<path d="M0 0 C3.96 0 7.92 0 12 0 C12 12.87 12 25.74 12 39 C8.04 39 4.08 39 0 39 C0 26.13 0 13.26 0 0 Z " fill="#FFFFFF" transform="translate(227,326)"/>
<path d="M0 0 C1.45903258 0.30921884 2.91720722 0.62248799 4.375 0.9375 C5.59316406 1.19853516 5.59316406 1.19853516 6.8359375 1.46484375 C9 2 9 2 11 3 C9.3958107 11.02094648 7.0009855 18.7173806 4.5 26.5 C4.09226801 27.79942273 3.68471463 29.09890152 3.27734375 30.3984375 C2.88675781 31.61789062 2.49617187 32.83734375 2.09375 34.09375 C1.73990234 35.20427734 1.38605469 36.31480469 1.02148438 37.45898438 C0 40 0 40 -2 41 C-4.12890625 40.51171875 -4.12890625 40.51171875 -6.5625 39.6875 C-7.36816406 39.42324219 -8.17382812 39.15898437 -9.00390625 38.88671875 C-11 38 -11 38 -12 36 C-11.23418044 33.26257826 -10.39706672 30.61378747 -9.47265625 27.9296875 C-9.20488876 27.13345978 -8.93712128 26.33723206 -8.66123962 25.51687622 C-7.80198355 22.96715966 -6.93237706 20.42111027 -6.0625 17.875 C-5.47913407 16.14997062 -4.89644294 14.42471289 -4.31445312 12.69921875 C-2.88412693 8.46345357 -1.44450654 4.23094925 0 0 Z " fill="#FFFFFF" transform="translate(206,321)"/>
<path d="M0 0 C3.99455527 0.61454696 6.74466336 2.70646737 10 5 C8.71842574 8.51980035 7.2254156 11.32900174 4.98828125 14.328125 C4.39466797 15.12863281 3.80105469 15.92914063 3.18945312 16.75390625 C2.57005859 17.57761719 1.95066406 18.40132813 1.3125 19.25 C0.71244141 20.05824219 0.11238281 20.86648438 -0.50585938 21.69921875 C-4.59646782 27.19144276 -8.78109564 32.60586811 -13 38 C-15.97 36.02 -18.94 34.04 -22 32 C-18.81516166 26.08416279 -15.03061893 20.80463169 -11 15.4375 C-7.20885225 10.36545192 -3.44557959 5.31480651 0 0 Z " fill="#FFFFFF" transform="translate(187,310)"/>
<path d="M0 0 C3.14777588 0.21708799 4.04193092 1.04426042 6.25 3.375 C8 6 8 6 8 9 C6.55395508 10.39111328 6.55395508 10.39111328 4.51953125 11.8203125 C3.77300293 12.35180908 3.02647461 12.88330566 2.25732422 13.4309082 C1.45053223 13.9899585 0.64374023 14.54900879 -0.1875 15.125 C-0.99944824 15.69887451 -1.81139648 16.27274902 -2.64794922 16.86401367 C-5.09130345 18.58676835 -7.54413596 20.29514009 -10 22 C-11.36333846 22.95174098 -12.72662458 23.90355693 -14.08984375 24.85546875 C-17.05075681 26.91705942 -20.02169108 28.96359443 -23 31 C-28.57142857 25.85714286 -28.57142857 25.85714286 -29 22 C-21.89921009 16.09456919 -14.49040421 10.67853797 -6.98291016 5.3059082 C-6.22413574 4.76281006 -5.46536133 4.21971191 -4.68359375 3.66015625 C-3.99837646 3.17168213 -3.31315918 2.68320801 -2.60717773 2.17993164 C-1.04497598 1.09548386 -1.04497598 1.09548386 0 0 Z " fill="#FFFFFF" transform="translate(172,294)"/>
<path d="M0 0 C0.66 3.3 1.32 6.6 2 10 C-2.76643886 11.57409702 -7.53532713 13.14044795 -12.30664062 14.69970703 C-13.92908065 15.23111774 -15.5508338 15.76463036 -17.171875 16.30029297 C-19.50342818 17.07033412 -21.83735533 17.83275698 -24.171875 18.59375 C-24.89493835 18.83436157 -25.61800171 19.07497314 -26.36297607 19.32287598 C-29.78546492 20.43064345 -32.3607079 21 -36 21 C-36.66 18.03 -37.32 15.06 -38 12 C-30.62283025 8.97276953 -23.1881287 6.27415915 -15.625 3.75 C-14.02591797 3.20472656 -14.02591797 3.20472656 -12.39453125 2.6484375 C-11.36972656 2.30554688 -10.34492188 1.96265625 -9.2890625 1.609375 C-8.36818848 1.29967773 -7.44731445 0.98998047 -6.49853516 0.67089844 C-4 0 -4 0 0 0 Z " fill="#FFFFFF" transform="translate(167,274)"/>
<path d="M0 0 C12.87 0 25.74 0 39 0 C39 3.3 39 6.6 39 10 C26.13 10 13.26 10 0 10 C0 6.7 0 3.4 0 0 Z " fill="#FFFFFF" transform="translate(125,252)"/>
<path d="M0 0 C5.42025068 0.54673378 10.15817752 1.51937941 15.34375 3.28515625 C15.99831177 3.50570175 16.65287354 3.72624725 17.32727051 3.95347595 C19.38733686 4.64938476 21.44364226 5.35571758 23.5 6.0625 C24.90861733 6.54041216 26.31746979 7.0176319 27.7265625 7.49414062 C31.15379206 8.65478134 34.57773519 9.82478917 38 11 C37.34 13.97 36.68 16.94 36 20 C28.0019607 18.3830051 20.28105575 16.06956166 12.5 13.625 C11.85450195 13.43099609 11.20900391 13.23699219 10.54394531 13.03710938 C8.6597676 12.47062457 6.78283696 11.88020723 4.90625 11.2890625 C3.79572266 10.94568848 2.68519531 10.60231445 1.54101562 10.24853516 C-1 9 -1 9 -1.92773438 7.02880859 C-2.02432957 4.31696367 -1.14665659 2.42821394 0 0 Z " fill="#FFFFFF" transform="translate(131,220)"/>
<path d="M0 0 C5.30687975 2.88776963 10.07853061 6.14692431 14.875 9.8125 C15.57173828 10.34004883 16.26847656 10.86759766 16.98632812 11.41113281 C22.0232233 15.23214492 27.03632712 19.08421361 32 23 C30.68 25.31 29.36 27.62 28 30 C24.48019965 28.71842574 21.67099826 27.2254156 18.671875 24.98828125 C17.87136719 24.39466797 17.07085937 23.80105469 16.24609375 23.18945312 C15.42238281 22.57005859 14.59867188 21.95066406 13.75 21.3125 C12.94175781 20.71244141 12.13351563 20.11238281 11.30078125 19.49414062 C5.80889251 15.40378189 0.38984505 11.22366386 -5 7 C-1.125 1.125 -1.125 1.125 0 0 Z " fill="#FFFFFF" transform="translate(148,190)"/>
<path d="M0 0 C4.66286004 4.32727541 8.27562865 9.23409425 12 14.375 C12.60328125 15.2 13.2065625 16.025 13.828125 16.875 C15.00765036 18.49043691 16.1835568 20.10852369 17.35546875 21.72949219 C18.41263079 23.18905379 19.47715911 24.64332345 20.55078125 26.09082031 C24 30.78127201 24 30.78127201 24 33 C21.69 34.32 19.38 35.64 17 37 C16.07284953 35.74353912 15.14578543 34.48701451 14.21875 33.23046875 C13.62715088 32.42875244 13.03555176 31.62703613 12.42602539 30.80102539 C11.13960222 29.05540997 9.85493951 27.30849583 8.57202148 25.56030273 C4.4604556 19.95930262 4.4604556 19.95930262 0.25390625 14.4296875 C-0.46925781 13.48351562 -1.19242188 12.53734375 -1.9375 11.5625 C-2.56527344 10.75941406 -3.19304687 9.95632812 -3.83984375 9.12890625 C-5 7 -5 7 -4.8203125 4.82421875 C-3.72981592 2.39916207 -2.20254043 1.42099382 0 0 Z " fill="#FFFFFF" transform="translate(172,167)"/>
<path d="M0 0 C1.57409702 4.76643886 3.14044795 9.53532713 4.69970703 14.30664062 C5.23111774 15.92908065 5.76463036 17.5508338 6.30029297 19.171875 C7.07033412 21.50342818 7.83275698 23.83735533 8.59375 26.171875 C8.83436157 26.89493835 9.07497314 27.61800171 9.32287598 28.36297607 C10.43064345 31.78546492 11 34.3607079 11 38 C8.69 38.66 6.38 39.32 4 40 C2.28719758 34.9109421 0.57830017 29.82059637 -1.12695312 24.72900391 C-1.70790528 22.99621987 -2.28993274 21.26379597 -2.87304688 19.53173828 C-3.70984713 17.04553071 -4.54280229 14.55806385 -5.375 12.0703125 C-5.63748535 11.29317902 -5.8999707 10.51604553 -6.17041016 9.71536255 C-8 4.22774341 -8 4.22774341 -8 2 C-5.09399739 0.74335022 -3.20395416 0 0 0 Z " fill="#FFFFFF" transform="translate(204,153)"/>
</svg>
