<svg xmlns="http://www.w3.org/2000/svg" viewBox="0 0 60 40" role="img" aria-label="Flag of Quebec">
  <rect width="60" height="40" fill="#003DA5"/>
  <rect x="0" y="16" width="60" height="8" fill="#ffffff"/>
  <rect x="26" y="0" width="8" height="40" fill="#ffffff"/>
  <g fill="#ffffff">
    <path d="M15 7c-2.8 2-3.1 4.4-1 6.7-1.7-.2-3.1.7-4 2 2.1.2 3.8 1.1 5 2.8 1.2-1.7 2.9-2.6 5-2.8-.9-1.3-2.3-2.2-4-2 2.1-2.3 1.8-4.7-1-6.7zM13.8 18.3h2.4l.8 3h-4z"/>
    <path d="M45 7c-2.8 2-3.1 4.4-1 6.7-1.7-.2-3.1.7-4 2 2.1.2 3.8 1.1 5 2.8 1.2-1.7 2.9-2.6 5-2.8-.9-1.3-2.3-2.2-4-2 2.1-2.3 1.8-4.7-1-6.7zM43.8 18.3h2.4l.8 3h-4z"/>
    <path d="M15 25c-2.8 2-3.1 4.4-1 6.7-1.7-.2-3.1.7-4 2 2.1.2 3.8 1.1 5 2.8 1.2-1.7 2.9-2.6 5-2.8-.9-1.3-2.3-2.2-4-2 2.1-2.3 1.8-4.7-1-6.7zM13.8 36.3h2.4l.8 3h-4z"/>
    <path d="M45 25c-2.8 2-3.1 4.4-1 6.7-1.7-.2-3.1.7-4 2 2.1.2 3.8 1.1 5 2.8 1.2-1.7 2.9-2.6 5-2.8-.9-1.3-2.3-2.2-4-2 2.1-2.3 1.8-4.7-1-6.7zM43.8 36.3h2.4l.8 3h-4z"/>
  </g>
</svg>
