<?xml version="1.0" encoding="UTF-8"?>
<svg version="1.1" xmlns="http://www.w3.org/2000/svg" width="1735" height="280">
<path d="M0 0 C10.89 0 21.78 0 33 0 C34.25238855 3.13097137 35.27195288 5.71638215 36.03775024 8.90412903 C36.30692009 10.01248611 36.30692009 10.01248611 36.58152771 11.14323425 C36.77070267 11.93877213 36.95987762 12.73431 37.15478516 13.55395508 C37.35990219 14.40324585 37.56501923 15.25253662 37.77635193 16.12756348 C38.4508134 18.9240429 39.11996256 21.72176461 39.7890625 24.51953125 C40.25670197 26.46302534 40.72467328 28.40643962 41.19296265 30.34977722 C42.42266836 35.45679819 43.64786832 40.56488976 44.87213135 45.67321777 C46.12297086 50.8889194 47.37807107 56.10359533 48.6328125 61.31835938 C51.09271142 71.54457388 53.54785124 81.77192453 56 92 C58.13989718 84.02236887 60.2787642 76.04446188 62.41710663 68.06641388 C62.93491389 66.13464792 63.45283873 64.20291348 63.97076416 62.2711792 C68.99483018 43.53340774 68.99483018 43.53340774 73.96484375 24.78125 C74.17763474 23.97396454 74.39042572 23.16667908 74.60966492 22.33493042 C75.56727697 18.69958167 76.52193524 15.06349015 77.47241211 11.42626953 C77.79862549 10.18474121 78.12483887 8.94321289 78.4609375 7.6640625 C78.73728027 6.60654785 79.01362305 5.5490332 79.29833984 4.45947266 C80 2 80 2 81 0 C88.92 0 96.84 0 105 0 C112.92 30.36 120.84 60.72 129 92 C136.58361474 61.23650606 136.58361474 61.23650606 143.98828125 30.4296875 C144.21938599 29.45315216 144.45049072 28.47661682 144.68859863 27.4704895 C145.78610953 22.82813611 146.87840323 18.18462119 147.96435547 13.53955078 C148.35506779 11.88051609 148.74585131 10.22149816 149.13671875 8.5625 C149.39996696 7.42541092 149.39996696 7.42541092 149.66853333 6.26535034 C150.88680568 1.11319432 150.88680568 1.11319432 152 0 C154.44830426 -0.08843793 156.86820599 -0.11528752 159.31640625 -0.09765625 C160.04746078 -0.0962413 160.77851532 -0.09482635 161.53172302 -0.09336853 C163.87535632 -0.08775408 166.21889539 -0.07519922 168.5625 -0.0625 C170.14778508 -0.05748686 171.73307166 -0.05292363 173.31835938 -0.04882812 C177.2122761 -0.03777997 181.10612205 -0.02050572 185 0 C183.64457473 7.46052259 181.77956577 14.69591961 179.68359375 21.97973633 C179.19054245 23.71089188 179.19054245 23.71089188 178.68753052 25.47702026 C177.79378229 28.61181018 176.89653373 31.74557019 175.99748611 34.87884355 C175.05363659 38.17091676 174.11390796 41.46416635 173.17358398 44.75724792 C171.5960122 50.27962889 170.01530111 55.8011036 168.43261719 61.32202148 C166.60523527 67.6966471 164.78254746 74.07260029 162.96241283 80.44929868 C161.20611937 86.60202546 159.44682765 92.75389082 157.68606567 98.90534019 C156.938784 101.51619303 156.19249116 104.12732546 155.44699097 106.73868752 C154.40606772 110.38228935 153.3617199 114.02489201 152.31640625 117.66723633 C152.00881378 118.74628738 151.70122131 119.82533844 151.38430786 120.93708801 C151.09836761 121.93079407 150.81242737 122.92450012 150.51782227 123.94831848 C150.2715358 124.80826825 150.02524933 125.66821802 149.77149963 126.55422688 C148.97481576 129.07983793 147.98354857 131.54112859 147 134 C136.44 134 125.88 134 115 134 C107.74 105.62 100.48 77.24 93 48 C91.11862739 53.64411783 89.35775573 59.1288412 87.93115234 64.87475586 C87.74700272 65.60437531 87.56285309 66.33399475 87.37312317 67.08572388 C86.77428389 69.46132668 86.18016434 71.83808348 85.5859375 74.21484375 C85.16700178 75.87879998 84.74769428 77.54266265 84.32803345 79.20643616 C83.23070383 83.55976086 82.13705772 87.91400094 81.0446167 92.26855469 C79.2899394 99.2623136 77.5318591 106.25520965 75.76951981 113.2470417 C75.15537107 115.68729396 74.54418481 118.12827536 73.93319702 120.56932068 C73.55893966 122.05657981 73.18456659 123.54380982 72.81005859 125.03100586 C72.64070297 125.71098129 72.47134735 126.39095673 72.29685974 127.09153748 C71.11374607 131.77250786 71.11374607 131.77250786 70 134 C59.44 134 48.88 134 38 134 C28.82639299 102.62836687 19.7436875 71.23151536 10.75031281 39.80776596 C9.9981149 37.18091679 9.24489588 34.55436238 8.49139404 31.92788696 C7.29786083 27.76707309 6.10702507 23.60549669 4.91831589 19.44330215 C4.4754672 17.89417475 4.03173462 16.34529973 3.58708572 14.79668808 C2.97745226 12.67269374 2.37110451 10.547789 1.765625 8.42260742 C1.42305664 7.22504318 1.08048828 6.02747894 0.72753906 4.79362488 C0 2 0 2 0 0 Z " fill="#FFFFFF" transform="translate(356,2)"/>
<path d="M0 0 C86.58557047 0 86.58557047 0 104.828125 17.765625 C105.90320313 18.87164063 105.90320313 18.87164063 107 20 C107.63421875 20.61359375 108.2684375 21.2271875 108.921875 21.859375 C120.94080055 34.30374924 125.40963723 52.33743491 125.1484375 69.2109375 C124.23580167 86.35888442 118.73227617 103.85372817 106 116 C75.93397542 142.11238832 39.35707377 134 0 134 C0 89.78 0 45.56 0 0 Z M29 26 C29 53.06 29 80.12 29 108 C58.70962514 109.89356998 58.70962514 109.89356998 83 97 C92.24831835 87.45808424 94.6133864 76.87722077 94.47290039 63.94238281 C94.07025875 53.04377926 90.1982512 42.87064807 82.15234375 35.25 C65.92605569 22.34639121 50.80297751 26 29 26 Z " fill="#FFFFFF" transform="translate(714,2)"/>
<path d="M0 0 C11.488125 -0.0825 22.97625 -0.165 34.8125 -0.25 C38.41905518 -0.28641602 42.02561035 -0.32283203 45.74145508 -0.36035156 C50.1986084 -0.37841797 50.1986084 -0.37841797 52.29545593 -0.3817749 C53.73752299 -0.38785493 55.17957173 -0.40179168 56.62150574 -0.42230225 C68.96405355 -0.58885229 79.25419186 0.83455439 89.05859375 9.0078125 C96.3026683 16.44136988 98.42574209 25.81882972 98.36132812 35.88696289 C98.10093724 45.69090405 94.75722576 52.03091923 88.10546875 59.08203125 C85.25914675 61.67487745 82.4650967 63.33964116 79 65 C80.7634375 65.7734375 80.7634375 65.7734375 82.5625 66.5625 C91.73278029 71.23659348 96.19075004 78.617485 100 88 C102.71132521 98.7467072 100.94481594 109.66192294 95.71484375 119.390625 C90.02957603 127.68889878 81.68179417 132.0373492 72 134 C66.42026983 134.39895228 60.86431003 134.35154797 55.2734375 134.29296875 C53.85392613 134.2885477 52.43440984 134.28549346 51.01489258 134.28381348 C45.80151957 134.26820289 40.58825185 134.22631941 35.375 134.1875 C23.70125 134.125625 12.0275 134.06375 0 134 C0 89.78 0 45.56 0 0 Z M18 15 C18 29.19 18 43.38 18 58 C24.579375 58.04125 31.15875 58.0825 37.9375 58.125 C39.99605225 58.14320801 42.05460449 58.16141602 44.17553711 58.18017578 C45.83447002 58.18602517 47.49340583 58.19111966 49.15234375 58.1953125 C49.99156372 58.20554443 50.83078369 58.21577637 51.69543457 58.22631836 C59.98960246 58.22872981 67.38858125 57.38138735 74 52 C78.33987159 47.41902443 80.04886966 42.93833157 80.375 36.6875 C80.19287591 30.67740514 78.45536106 25.54227649 74.234375 21.171875 C66.93328747 15.25052055 59.10209885 14.69750497 50.03125 14.8046875 C48.80486816 14.80770874 48.80486816 14.80770874 47.55371094 14.81079102 C44.5357492 14.8211572 41.51786822 14.84907882 38.5 14.875 C28.3525 14.936875 28.3525 14.936875 18 15 Z M18 73 C18 88.18 18 103.36 18 119 C24.909375 119.04125 31.81875 119.0825 38.9375 119.125 C41.10046631 119.14320801 43.26343262 119.16141602 45.49194336 119.18017578 C47.23290764 119.18602457 48.97387469 119.19111921 50.71484375 119.1953125 C52.0384491 119.2106604 52.0384491 119.2106604 53.38879395 119.22631836 C61.98385581 119.22870091 69.48790683 118.33462627 76.2734375 112.765625 C80.53972823 108.40281185 82.54997904 103.04294361 83.03515625 97.0078125 C82.91521437 90.15779871 80.47856156 84.45939593 75.58203125 79.58984375 C68.04257012 72.94193843 59.79567493 72.84646893 50.2265625 72.90234375 C49.40696045 72.90335083 48.5873584 72.90435791 47.74291992 72.90539551 C44.70359889 72.91059742 41.66429793 72.92455853 38.625 72.9375 C31.81875 72.958125 25.0125 72.97875 18 73 Z " fill="#FFFFFF" transform="translate(1095,2)"/>
<path d="M0 0 C6.27 0 12.54 0 19 0 C24.99917531 5.99917531 24.99917531 5.99917531 26.625 8.97265625 C29.23237978 13.48965052 32.28569863 17.61636797 35.375 21.8125 C36.48972672 23.36093959 37.60300815 24.91042068 38.71484375 26.4609375 C41.74007262 30.65736593 44.82369463 34.80651821 47.9375 38.9375 C54.0891015 47.09895014 60.15091784 55.32483072 66.20458984 63.55908203 C68.00589433 66.00801354 69.80920548 68.4554532 71.61328125 70.90234375 C72.21221191 71.71469482 72.81114258 72.5270459 73.42822266 73.36401367 C74.54110787 74.87334301 75.65405557 76.38262628 76.76708984 77.8918457 C82.19152739 85.25143842 87.59330196 92.62722995 93 100 C93.33 67 93.66 34 94 0 C99.94 0 105.88 0 112 0 C112 44.22 112 88.44 112 134 C106.06 134 100.12 134 94 134 C88.15890931 127.53307817 88.15890931 127.53307817 86.47265625 124.30859375 C83.78330028 119.47177531 80.51939262 115.1586628 77.1875 110.75 C75.98076701 109.12149784 74.77634881 107.49127792 73.57421875 105.859375 C72.97786621 105.05048828 72.38151367 104.24160156 71.76708984 103.40820312 C68.98869907 99.62179161 66.24337267 95.81182209 63.5 92 C56.14437527 81.78459957 48.66493564 71.6617304 41.18115234 61.54003906 C39.36989918 59.08983352 37.55994124 56.63867472 35.75 54.1875 C34.95541382 53.11447632 34.95541382 53.11447632 34.14477539 52.01977539 C29.01314223 45.06913704 24.02419544 38.03387362 19 31 C18.67 64.99 18.34 98.98 18 134 C12.06 134 6.12 134 0 134 C0 89.78 0 45.56 0 0 Z " fill="#FFFFFF" transform="translate(1385,2)"/>
<path d="M0 0 C1.4687053 14.13016469 1.4687053 14.13016469 -1.68567646 20.29379475 C-4.19784807 23.3793292 -6.89266496 26.16417041 -9.75621033 28.91493225 C-10.82016215 29.99851017 -11.88038568 31.08575914 -12.93720728 32.17629236 C-15.83151476 35.14115199 -18.77595132 38.05113776 -21.73197353 40.95429289 C-24.91849501 44.10218824 -28.0555033 47.2988073 -31.19929504 50.48927307 C-37.35754698 56.7229648 -43.56069334 62.91000798 -49.78137475 69.08133788 C-54.83782316 74.09933182 -59.87735851 79.13374855 -64.9053669 84.18023491 C-65.62205253 84.8995255 -66.33873816 85.6188161 -67.07714154 86.35990338 C-68.53318208 87.82137947 -69.98918452 89.28289353 -71.44514925 90.74444514 C-85.08726298 104.43499008 -98.78091704 118.07302409 -112.49287546 131.69356512 C-124.24725256 143.37199319 -135.95634237 155.09427673 -147.63354492 166.84985352 C-161.20669557 180.51406121 -174.80710348 194.15016182 -188.45192724 207.74282736 C-189.90790867 209.19339367 -191.36385475 210.64399545 -192.81976509 212.0946331 C-193.53604165 212.80828698 -194.25231822 213.52194086 -194.99030013 214.25722061 C-200.02653101 219.27879722 -205.04281481 224.31978008 -210.05164909 229.36866951 C-216.15980283 235.52459347 -222.29750563 241.6491198 -228.4746223 247.73587007 C-231.62352001 250.84020343 -234.75750821 253.9563692 -237.85589981 257.11118317 C-240.69729064 260.00352525 -243.57548644 262.85315774 -246.48709077 265.67475574 C-247.52902554 266.69781867 -248.55713587 267.73521298 -249.56873142 268.78828479 C-254.93086708 274.35295786 -259.12506206 277.4528809 -266.88758809 277.65557074 C-270.28481834 277.58954924 -273.61993503 277.35132778 -277 277 C-277.1849643 271.27690101 -277.1849643 271.27690101 -275.52028561 268.78479195 C-274.82144032 268.09277624 -274.12259504 267.40076054 -273.40257263 266.68777466 C-272.60492996 265.88332916 -271.80728729 265.07888367 -270.98547363 264.25006104 C-269.65546326 262.95476471 -269.65546326 262.95476471 -268.29858398 261.63330078 C-267.37348526 260.70893219 -266.44838654 259.7845636 -265.49525452 258.83218384 C-262.95842729 256.29790614 -260.40360184 253.78249699 -257.84532809 251.26989603 C-255.16564573 248.63151866 -252.50340083 245.97566698 -249.83937073 243.32150269 C-244.78430997 238.29026287 -239.71458937 233.27407714 -234.63906389 228.26349151 C-227.21199527 220.93016634 -219.80679232 213.57481558 -212.40189457 206.2191143 C-211.30480665 205.12937643 -210.20771216 204.03964516 -209.11061096 202.94992065 C-208.57441779 202.41727722 -208.03822461 201.88463379 -207.48578316 201.33584964 C-204.31567043 198.18772013 -201.14130145 195.0439638 -197.96294677 191.90415597 C-196.45698439 190.4160582 -194.95213726 188.92684222 -193.44767761 187.43722534 C-191.62164026 185.62967839 -189.79364957 183.82410149 -187.96322632 182.02099609 C-187.14584488 181.21091095 -186.32846344 180.40082581 -185.48631287 179.56619263 C-184.78482841 178.87342287 -184.08334394 178.18065311 -183.36060238 177.46689034 C-181.39390743 175.41164342 -179.52586507 173.32091077 -177.66552067 171.17098808 C-174.2088918 167.1941659 -170.58462234 163.42835103 -166.86535645 159.69799805 C-166.18236119 159.0092094 -165.49936593 158.32042076 -164.79567385 157.61075974 C-162.52822809 155.3254132 -160.25732938 153.04353173 -157.98632812 150.76171875 C-156.35119488 149.11539745 -154.71622501 147.46891387 -153.08140564 145.82228088 C-147.73544329 140.43994692 -142.38397036 135.06311225 -137.03125 129.6875 C-136.11967447 128.77197861 -135.20809895 127.85645721 -134.26889992 126.91319275 C-125.67109961 118.27901741 -117.07090062 109.6472379 -108.46547699 101.0206604 C-106.47906068 99.0292756 -104.49268243 97.03785285 -102.50634766 95.04638672 C-102.01270967 94.55147806 -101.51907169 94.05656941 -101.01047498 93.54666352 C-92.99577695 85.51055703 -84.99500755 77.46072514 -76.99961787 69.40541279 C-68.78025231 61.12495681 -60.54747225 52.85803173 -52.30243063 44.60314083 C-47.67739973 39.97184265 -43.05853088 35.33475871 -38.45387268 30.68319702 C-34.12861082 26.3144161 -29.78722164 21.96234664 -25.43274117 17.62269402 C-23.8363131 16.02593616 -22.24588977 14.42314922 -20.66192436 12.81402779 C-18.50194823 10.6215641 -16.32157833 8.45165744 -14.13464355 6.28613281 C-13.51001992 5.6418014 -12.88539628 4.99747 -12.24184465 4.3336134 C-11.35482339 3.46842319 -11.35482339 3.46842319 -10.44988251 2.58575439 C-9.9490287 2.08278461 -9.44817489 1.57981483 -8.93214369 1.06160355 C-5.99796461 -0.5505617 -3.2764879 -0.1612212 0 0 Z " fill="#EE7718" transform="translate(277,3)"/>
<path d="M0 0 C7.59 0 15.18 0 23 0 C25.06029609 5.00432323 27.11958316 10.00904362 29.17675781 15.01464844 C29.87025605 16.70138255 30.56423298 18.38791996 31.25878906 20.07421875 C36.06895792 31.75404225 40.79713866 43.46508696 45.47854614 55.19708061 C49.22596127 64.58710378 53.00283093 73.96467389 56.80651093 83.33204651 C57.63598271 85.3752834 58.46465915 87.41884087 59.29302979 89.46252441 C59.56516422 90.1339019 59.83729866 90.80527939 60.1176796 91.49700165 C60.66612676 92.85012838 61.21455566 94.20326252 61.76296616 95.55640411 C63.16550624 99.01607445 64.57006108 102.47490711 65.97802734 105.93237305 C67.37742319 109.36918234 68.77179205 112.8079917 70.1627121 116.24823952 C70.68556276 117.53879384 71.21025867 118.82860227 71.73688507 120.11762047 C72.46120941 121.89116485 73.17853813 123.6675615 73.89550781 125.4440918 C74.30343567 126.44836716 74.71136353 127.45264252 75.13165283 128.48735046 C76 131 76 131 76 134 C69.4 134 62.8 134 56 134 C54.4301894 130.19269962 52.86252138 126.3846262 51.30029297 122.57421875 C50.76802214 121.27780317 50.23449895 119.98190106 49.69970703 118.68652344 C48.93194036 116.82622051 48.16902341 114.96391837 47.40625 113.1015625 C46.94541016 111.98088379 46.48457031 110.86020508 46.00976562 109.70556641 C45 107 45 107 45 105 C23.22 105.33 1.44 105.66 -21 106 C-24.63 114.91 -28.26 123.82 -32 133 C-33 134 -33 134 -34.94946289 134.11352539 C-35.7821167 134.10828857 -36.61477051 134.10305176 -37.47265625 134.09765625 C-38.37177734 134.09443359 -39.27089844 134.09121094 -40.19726562 134.08789062 C-41.14279297 134.07951172 -42.08832031 134.07113281 -43.0625 134.0625 C-44.01189453 134.05798828 -44.96128906 134.05347656 -45.93945312 134.04882812 C-48.29303369 134.03700109 -50.64647581 134.01968094 -53 134 C-50.24224002 125.22039556 -46.76984204 116.73507209 -43.33984375 108.203125 C-42.67470184 106.54308123 -42.0097951 104.88294322 -41.34510803 103.22271729 C-39.57630212 98.8064475 -37.80438511 94.3914323 -36.03186035 89.97665405 C-34.20749631 85.43115896 -32.3860743 80.88448546 -30.56445312 76.33789062 C-27.6925523 69.17069861 -24.81922653 62.00407976 -21.94482422 54.83789062 C-17.33481939 43.34405982 -12.73507126 31.84614129 -8.13821411 20.3470459 C-6.36361458 15.90819185 -4.58803545 11.46972975 -2.8125 7.03125 C-1.884375 4.7109375 -0.95625 2.390625 0 0 Z M11 20 C4.12736787 37.13103484 -2.73331844 54.26681592 -9.51065063 71.43582153 C-10.0871989 72.89607257 -10.66432772 74.35609452 -11.24203491 75.81588745 C-12.04592187 77.84792617 -12.8475441 79.88084239 -13.6484375 81.9140625 C-14.33172119 83.6458374 -14.33172119 83.6458374 -15.02880859 85.41259766 C-16.05856898 87.69542529 -16.05856898 87.69542529 -16 89 C2.15 89 20.3 89 39 89 C36.6062658 81.77667988 36.6062658 81.77667988 33.99462891 74.65478516 C33.63059967 73.7099527 33.26657043 72.76512024 32.89151001 71.79165649 C32.50707733 70.80080048 32.12264465 69.80994446 31.7265625 68.7890625 C31.32094086 67.74027924 30.91531921 66.69149597 30.49740601 65.6109314 C29.64290674 63.40361346 28.78730764 61.19672101 27.93066406 58.99023438 C26.63215012 55.64342882 25.33932306 52.29446444 24.046875 48.9453125 C23.211283 46.78892859 22.37535638 44.63267431 21.5390625 42.4765625 C21.15867828 41.48975494 20.77829407 40.50294739 20.38638306 39.48623657 C17.81477477 32.88151178 14.99597859 26.42308605 12 20 C11.67 20 11.34 20 11 20 Z " fill="#FFFFFF" transform="translate(1002,2)"/>
<path d="M0 0 C2.55802842 2.16968087 4.84961138 4.42735325 7 7 C5.50923566 10.2826932 3.61379679 12.93077441 1.375 15.75 C0.42753906 16.94882812 0.42753906 16.94882812 -0.5390625 18.171875 C-1.02117187 18.77515625 -1.50328125 19.3784375 -2 20 C-5.2026329 19.41896077 -6.76796787 18.52692702 -9.0625 16.25 C-18.79591909 7.54225303 -32.30894998 4.9182102 -45 5 C-52.85522376 5.95045412 -59.40019881 8.2738875 -65 14 C-68.36301792 18.72924395 -68.76174789 23.36515261 -68 29 C-65.46029372 35.01509382 -60.41419968 38.09811935 -54.546875 40.51171875 C-47.91742195 43.166541 -41.14635717 44.99579679 -34.25 46.8125 C-18.40696635 51.17055872 -2.15400351 56.13127763 6.95703125 70.77734375 C11.38385379 80.21128392 11.6834993 92.12964375 8.375 102 C4.31527832 111.44910831 -2.271894 118.80041181 -11.63671875 123.25390625 C-29.81354982 130.280898 -51.74272368 130.46740414 -69.75 122.75 C-78.0941583 118.60900937 -85.73234159 113.94524311 -92 107 C-90.43632643 103.47761953 -88.30504111 100.72876006 -85.875 97.75 C-85.15054687 96.85796875 -84.42609375 95.9659375 -83.6796875 95.046875 C-83.12539062 94.37140625 -82.57109375 93.6959375 -82 93 C-78.95353221 94.36289349 -76.88245987 95.93023645 -74.5 98.25 C-63.69345742 107.85581563 -49.77672549 111.69853318 -35.53515625 111.3515625 C-27.18912264 110.52157021 -18.63748892 108.50479491 -13 102 C-9.91462748 96.8317577 -8.11540185 92.08161229 -9 86 C-11.13000363 78.77773605 -15.63344575 75.57560085 -22 72 C-25.20778714 70.59871217 -28.46823335 69.52665937 -31.8125 68.5 C-32.71613281 68.20867187 -33.61976562 67.91734375 -34.55078125 67.6171875 C-39.13041436 66.15424915 -43.73006756 64.779323 -48.35546875 63.46875 C-76.00895995 55.61639575 -76.00895995 55.61639575 -84 43 C-88.39617835 33.94631003 -88.81399281 23.04664269 -85.93359375 13.4453125 C-80.64085745 2.10991541 -72.53706006 -4.47170393 -61 -9 C-40.77545186 -15.43308067 -17.49527038 -11.48871979 0 0 Z " fill="#FFFFFF" transform="translate(1305,11)"/>
<path d="M0 0 C29.04 0 58.08 0 88 0 C88 4.95 88 9.9 88 15 C64.57 15 41.14 15 17 15 C17 29.19 17 43.38 17 58 C40.1 58 63.2 58 87 58 C87 62.95 87 67.9 87 73 C63.9 73 40.8 73 17 73 C17 88.18 17 103.36 17 119 C40.43 119 63.86 119 88 119 C88 123.95 88 128.9 88 134 C58.96 134 29.92 134 0 134 C0 89.78 0 45.56 0 0 Z " fill="#FFFFFF" transform="translate(1528,2)"/>
<path d="M0 0 C9.57 0 19.14 0 29 0 C29 35.64 29 71.28 29 108 C47.81 108 66.62 108 86 108 C86 116.58 86 125.16 86 134 C57.62 134 29.24 134 0 134 C0 89.78 0 45.56 0 0 Z " fill="#FFFFFF" transform="translate(609,2)"/>
<path d="M0 0 C1.45133952 9.11941972 2.48749317 18.13987593 -3.05534935 26.0523777 C-7.50443393 31.50444065 -12.53524345 36.37762299 -17.56713867 41.28442383 C-19.45874518 43.2045278 -21.34584404 45.12828421 -23.22839355 47.05718994 C-27.79979145 51.72146206 -32.42553686 56.32778272 -37.07399692 60.91512785 C-40.85405749 64.64755588 -44.61286971 68.40022946 -48.35778236 72.16791344 C-49.16048075 72.97543867 -49.16048075 72.97543867 -49.97939527 73.79927754 C-51.06677666 74.89337387 -52.15411113 75.98751683 -53.24139921 77.08170589 C-63.41445484 87.31449496 -73.65061433 97.48219183 -83.9099128 107.62841179 C-92.69148965 116.31617454 -101.41654343 125.0575292 -110.1027832 133.84057617 C-120.21536974 144.06581504 -130.36149921 154.25577302 -140.56271535 164.39265078 C-141.65254929 165.47579593 -142.74233987 166.55898471 -143.83208656 167.64221764 C-144.63615638 168.44142778 -144.63615638 168.44142778 -145.45647004 169.25678358 C-149.21268976 172.99495064 -152.9441519 176.75676307 -156.66646385 180.52866554 C-161.21045215 185.13185796 -165.79058063 189.69513262 -170.41958036 194.21288643 C-172.77662105 196.51510751 -175.10810183 198.83539407 -177.40847969 201.19441795 C-192.62431046 216.76182287 -192.62431046 216.76182287 -203.88357192 217.1816842 C-207.99548865 217.06230161 -211.93651714 216.64669611 -216 216 C-211.37859211 210.453974 -206.46095421 205.31963254 -201.35075378 200.22377014 C-200.06392864 198.93460502 -200.06392864 198.93460502 -198.75110704 197.61939615 C-196.38546422 195.25046916 -194.01761804 192.88378555 -191.64878047 190.5180558 C-189.08876132 187.96030736 -186.53163142 185.39967307 -183.97412109 182.8394165 C-178.97152635 177.83238409 -173.96624293 172.82804787 -168.95997765 167.8246857 C-164.89364584 163.76061427 -160.82829356 159.69556541 -156.76363564 155.62981987 C-156.1846868 155.0507178 -155.60573796 154.47161573 -155.00924522 153.87496511 C-153.83312492 152.69852509 -152.65700686 151.52208282 -151.48089103 150.34563833 C-140.46461154 139.32651032 -129.44527402 128.31044452 -118.42488203 117.2954297 C-108.96095763 107.83597988 -99.49966812 98.3739013 -90.0402832 88.90991211 C-79.05478067 77.91906498 -68.06766685 66.92983277 -57.07795411 55.94319528 C-55.90772915 54.77328888 -54.73750629 53.60338038 -53.56728554 52.43346977 C-52.99149713 51.85783564 -52.41570872 51.28220151 -51.82247218 50.68912392 C-47.75681947 46.62433618 -43.69233145 42.55838604 -39.62828636 38.49199104 C-34.68311313 33.54402121 -29.73617848 28.59782074 -24.78693583 23.65392125 C-22.26000025 21.12962349 -19.73388881 18.60451486 -17.20991707 16.07725334 C-14.48074875 13.34458139 -11.74775581 10.61575604 -9.014328 7.88734436 C-7.80502405 6.67469433 -7.80502405 6.67469433 -6.57128972 5.43754631 C-5.84496919 4.71383353 -5.11864866 3.99012075 -4.37031841 3.24447727 C-3.73905818 2.61337939 -3.10779794 1.9822815 -2.45740861 1.33205944 C-1 0 -1 0 0 0 Z " fill="#FFFFFF" transform="translate(269,54)"/>
<path d="M0 0 C9.57 0 19.14 0 29 0 C29 44.22 29 88.44 29 134 C19.43 134 9.86 134 0 134 C0 89.78 0 45.56 0 0 Z " fill="#FFFFFF" transform="translate(554,2)"/>
<path d="M0 0 C33.66 0 67.32 0 102 0 C102 4.95 102 9.9 102 15 C88.14 15 74.28 15 60 15 C60 54.27 60 93.54 60 134 C54.06 134 48.12 134 42 134 C42 94.73 42 55.46 42 15 C28.14 15 14.28 15 0 15 C0 10.05 0 5.1 0 0 Z " fill="#FFFFFF" transform="translate(1633,2)"/>
<path d="M0 0 C5.94 0 11.88 0 18 0 C18 39.27 18 78.54 18 119 C38.46 119 58.92 119 80 119 C80 123.95 80 128.9 80 134 C53.6 134 27.2 134 0 134 C0 89.78 0 45.56 0 0 Z " fill="#FFFFFF" transform="translate(860,2)"/>
<path d="M0 0 C2.27559286 19.31267048 2.27559286 19.31267048 -3.5938381 27.03927958 C-6.42324027 30.26487718 -9.43238799 33.25730408 -12.51831055 36.2355957 C-13.86790601 37.61371463 -15.21300825 38.99624575 -16.55397034 40.38276672 C-20.18099571 44.10483149 -23.87046893 47.75819961 -27.57851005 51.39934564 C-31.46814121 55.23543502 -35.30585938 59.1229378 -39.15229797 63.00224304 C-45.61790326 69.50594842 -52.12627709 75.96436599 -58.66088867 82.39868164 C-66.19244751 89.81596052 -73.64534468 97.30588561 -81.06188744 104.83803493 C-87.45585419 111.32761112 -93.89023124 117.77497651 -100.35952789 124.18946332 C-104.21259745 128.00995857 -108.05047339 131.84282907 -111.85223961 135.7144413 C-115.43139015 139.35472765 -119.05894022 142.93893965 -122.72853661 146.48795891 C-124.05851855 147.7904137 -125.37140285 149.11062401 -126.66412735 150.45006561 C-133.43544396 157.44296534 -138.51368188 161.57251816 -148.54391843 161.8420307 C-152.72086828 161.75638023 -156.85105439 161.48886616 -161 161 C-157.0107411 156.22056153 -152.84827839 151.70436601 -148.43876648 147.31178284 C-147.80547843 146.6769348 -147.17219039 146.04208676 -146.51971179 145.38800091 C-144.41483492 143.27916195 -142.30643381 141.17388379 -140.19799805 139.06860352 C-138.68130639 137.55055578 -137.16482733 136.03229562 -135.64854431 134.51383972 C-131.54386022 130.40460831 -127.43603336 126.29853227 -123.32748771 122.1931622 C-119.02898577 117.89719504 -114.73292755 113.59878524 -110.43647766 109.30076599 C-103.22824834 102.09071942 -96.01791723 94.88277976 -88.80639648 87.67602539 C-80.45765462 79.33273767 -72.11253808 70.98583682 -63.76927155 62.63707405 C-56.60839866 55.47167212 -49.44559011 48.30820953 -42.28114158 41.14638275 C-38.00055965 36.86736316 -33.7206642 32.58766284 -29.4425106 28.30621529 C-25.42698113 24.28780971 -21.40903743 20.27183422 -17.38916969 16.25776863 C-15.90999505 14.77992247 -14.43168222 13.30121317 -12.95426941 11.82160568 C-10.94724276 9.81187128 -8.93720178 7.80520291 -6.92631531 5.79933167 C-6.33411483 5.20490047 -5.74191435 4.61046927 -5.13176841 3.998025 C-1.11415061 0 -1.11415061 0 0 0 Z " fill="#FFFFFF" transform="translate(269,109)"/>
<path d="M0 0 C1.55077427 9.4040913 2.53415252 19.05300832 -3.10968018 27.22723389 C-7.5366873 32.71691981 -12.55058579 37.61487484 -17.6015625 42.5234375 C-19.4353789 44.37210694 -21.26592173 46.22402881 -23.09335327 48.07901001 C-26.91705416 51.94249236 -30.78421484 55.75783265 -34.68017578 59.54833984 C-39.15390467 63.90233894 -43.54277774 68.33001528 -47.89595282 72.8042978 C-52.12406753 77.14516706 -56.41264586 81.4207041 -60.72941208 85.67335892 C-62.54181587 87.47120104 -64.3383376 89.28521562 -66.11748123 91.11597824 C-81.42872158 106.77297954 -81.42872158 106.77297954 -93.26149559 107.18702126 C-97.55615721 107.0634594 -101.76081984 106.69905867 -106 106 C-101.05986697 100.04326397 -95.72293094 94.58125506 -90.24682617 89.11743164 C-89.27200019 88.14124818 -88.29738653 87.16485265 -87.32296753 86.18826294 C-84.69549896 83.55626489 -82.06491296 80.92740405 -79.43358779 78.29926229 C-76.67657879 75.54479584 -73.92202256 72.78787825 -71.16706848 70.03135681 C-66.54815192 65.41062592 -61.92714145 60.79199697 -57.30493164 56.17456055 C-51.95542199 50.83051145 -46.60955038 45.48284334 -41.26551646 40.13331896 C-36.67362415 35.53689755 -32.07979725 30.94241648 -27.48432904 26.34957021 C-24.74075927 23.60756185 -21.99787547 20.86487647 -19.25673485 18.12043953 C-16.68576934 15.54659762 -14.11239347 12.9751908 -11.5370903 10.40568924 C-10.13653674 9.00709967 -8.73845959 7.60603162 -7.34043884 6.20491028 C-6.51473389 5.38202515 -5.68902893 4.55914001 -4.83830261 3.71131897 C-4.11695727 2.99035066 -3.39561193 2.26938234 -2.65240765 1.52656651 C-1 0 -1 0 0 0 Z " fill="#FFFFFF" transform="translate(269,164)"/>
<path d="M0 0 C7.41436698 -1.54770117 14.86608613 -2.42517657 21.65099716 1.55521774 C28.19174628 6.57376821 33.84537108 12.57519299 39.50396132 18.54454494 C41.99717826 21.15392238 44.5449899 23.70893208 47.08699036 26.27064514 C51.87860265 31.11586183 56.61938319 36.00776675 61.34356052 40.91865689 C66.72823836 46.51081522 72.17103254 52.04493604 77.61784971 57.57647502 C86.06786187 66.16190578 94.48751338 74.77641053 102.85620117 83.44116211 C104.10182831 84.72617111 104.10182831 84.72617111 105.37261963 86.03713989 C106.49258583 87.20035515 106.49258583 87.20035515 107.63517761 88.3870697 C108.2889397 89.06458755 108.94270178 89.74210539 109.61627483 90.44015408 C111 92 111 92 111 93 C103.42299122 95.0366625 96.4704598 95.85506557 89 93 C77.18385684 85.22334884 67.5489818 72.93819595 58.48628235 62.2077179 C53.4487696 56.30538461 47.96322661 50.87597333 42.44450569 45.43047142 C40.68909956 43.69733783 38.93790147 41.96005231 37.18785095 40.22151184 C32.21796412 35.28501069 27.24368873 30.35299336 22.25952148 25.4309082 C19.19764862 22.4065891 16.14305837 19.37507864 13.09307671 16.33876991 C11.9319713 15.18572662 10.76809329 14.03546845 9.60142708 12.88805199 C7.97877985 11.29175836 6.36552911 9.68651367 4.75415039 8.07885742 C3.83372452 7.16810959 2.91329865 6.25736176 1.96498108 5.3190155 C0 3 0 3 0 0 Z " fill="#FFFFFF" transform="translate(36,5)"/>
<path d="M0 0 C45.54 0 91.08 0 138 0 C136.02 2.31 134.04 4.62 132 7 C131.37173561 7.79254936 130.74347122 8.58509872 130.09616852 9.40166473 C126.50768631 13.57192307 123.88753406 15.49219523 118.33044434 15.96203613 C116.12333813 15.98505713 113.91549691 15.96432988 111.70898438 15.90820312 C110.49837341 15.90937134 109.28776245 15.91053955 108.04046631 15.91174316 C104.74242029 15.9071452 101.44713958 15.86721729 98.14964104 15.8111515 C94.69579111 15.76091766 91.2418786 15.75642436 87.78771973 15.74694824 C81.25676386 15.72214766 74.72688769 15.65658918 68.19640589 15.57615232 C60.75757908 15.48652913 53.31869892 15.4426965 45.87946606 15.40258884 C30.58566969 15.31911465 15.29301693 15.17690687 0 15 C0 10.05 0 5.1 0 0 Z " fill="#FFFFFF" transform="translate(4,111)"/>
<path d="M0 0 C4.99447543 4.18741442 9.69308171 8.5490719 14.29296875 13.16357422 C15.33102158 14.19899857 15.33102158 14.19899857 16.39004517 15.25534058 C18.65837117 17.51929491 20.92305408 19.78685274 23.1875 22.0546875 C24.7748378 23.64135084 26.36232395 25.22786577 27.94995117 26.8142395 C31.27001988 30.13283752 34.5882826 33.45322803 37.90527344 36.77490234 C42.14170048 41.01702159 46.38259514 45.25464152 50.62486267 49.49091911 C53.90218571 52.7646156 57.17710715 56.04070626 60.45132446 59.3175087 C62.01338454 60.88023249 63.57617849 62.44222311 65.13973999 64.00344467 C67.33127642 66.19242062 69.5195464 68.38461288 71.70703125 70.57763672 C72.34412018 71.21270142 72.98120911 71.84776611 73.63760376 72.5020752 C84.91701499 83.83402997 84.91701499 83.83402997 87 88 C68.95994528 90.34787717 68.95994528 90.34787717 61.56088257 85.58905029 C57.18013334 82.21453518 53.34989781 78.30277075 49.51171875 74.3359375 C48.06495254 72.90590816 46.61516489 71.47892991 45.16255188 70.05484009 C42.14543934 67.07298556 39.16933006 64.05673261 36.2175293 61.01025391 C32.45884864 57.13750733 28.61170762 53.36966935 24.72793865 49.62288475 C21.7197897 46.69876885 18.76649318 43.72361367 15.82630348 40.7313118 C14.42769632 39.32067883 13.01287394 37.92590806 11.58106041 36.54899216 C4.10636053 29.30410379 -0.62835911 23.74960727 -0.92370129 13.00423622 C-0.82685008 8.64112219 -0.53608319 4.33100097 0 0 Z " fill="#FFFFFF" transform="translate(4,10)"/>
<path d="M0 0 C17.98103692 -2.09748885 17.98103692 -2.09748885 23.9765625 2.61328125 C26.7355871 5.22654313 29.16654494 8.0697026 31.48927307 11.07380676 C37.46395756 18.69159436 44.33181153 25.4650644 51.18359375 32.28125 C52.24998085 33.34576772 53.31614419 34.41050962 54.38209534 35.47546387 C57.16305407 38.25263833 59.94700444 41.02679425 62.73162842 43.80029297 C65.5826948 46.64105638 68.43086669 49.48471872 71.27929688 52.328125 C76.85006518 57.8882283 82.42400319 63.44514018 88 69 C87.05052441 70.11677492 86.09975103 71.23244654 85.1484375 72.34765625 C84.61911621 72.96906494 84.08979492 73.59047363 83.54443359 74.23071289 C81.78334607 76.2481965 79.93011408 78.14412108 78 80 C75.02363795 78.66420352 72.96048142 77.20765397 70.6875 74.875 C70.15511719 74.33617188 69.62273437 73.79734375 69.07421875 73.2421875 C67.94133178 72.01756015 66.81744914 70.78326613 65.74272156 69.5072937 C60.31185349 63.09522363 54.33560234 57.25043737 48.36389542 51.34986115 C46.41080208 49.41900755 44.46188623 47.48402668 42.51412964 45.54779053 C36.98178026 40.04885143 31.44511242 34.55431561 25.8984375 29.06982422 C22.49289421 25.70187747 19.09466439 22.32669953 15.70104599 18.9467392 C14.40959121 17.66333878 13.11536471 16.38272124 11.81833267 15.10495758 C10.01146246 13.3244999 8.21402185 11.53501212 6.41845703 9.74316406 C5.88135605 9.21841995 5.34425507 8.69367584 4.7908783 8.1530304 C2.24705761 5.59523686 0.36267102 3.68872163 0 0 Z " fill="#FFFFFF" transform="translate(91,5)"/>
<path d="M0 0 C32.34 0 64.68 0 98 0 C96.02 2.31 94.04 4.62 92 7 C91.52497543 7.72296768 91.04995087 8.44593536 90.56053162 9.19081116 C88.88860043 11.50568597 87.53787107 12.63980326 85 14 C78.57042405 14.98599739 72.21104974 14.81476591 65.72265625 14.68359375 C63.82695853 14.67052727 61.93123707 14.66056806 60.0355072 14.65357971 C55.06185892 14.62693657 50.08965667 14.558247 45.11657715 14.48065186 C40.03559936 14.40886139 34.95438637 14.37703452 29.87304688 14.34179688 C19.91473154 14.26687199 9.95748632 14.1475038 0 14 C0 9.38 0 4.76 0 0 Z " fill="#FFFFFF" transform="translate(4,152)"/>
<path d="M0 0 C0.33 -0.99 0.66 -1.98 1 -3 C3.64 -3 6.28 -3 9 -3 C9.07460523 2.67420636 9.12881608 8.34812208 9.16479492 14.02270508 C9.17980652 15.94983906 9.20022216 17.87693932 9.22631836 19.80395508 C9.26303943 22.58683639 9.27980292 25.36926288 9.29296875 28.15234375 C9.30845261 29.00271713 9.32393646 29.85309052 9.33988953 30.72923279 C9.3415968 36.90885683 8.72250132 43.59671862 4.72477722 48.59410095 C-0.27064689 53.14451569 -6.25801885 54.43849949 -12.87890625 54.2578125 C-18.33022677 53.59522106 -23.29411344 52.17350632 -27 48 C-26.34 46.35 -25.68 44.7 -25 43 C-22 43 -22 43 -19.8125 44.4375 C-15.69020186 46.72766563 -11.58887315 47.65733107 -7 46.4921875 C-3.56332456 45.13183681 -2.07607983 44.11411974 0 41 C0.39387788 38.67612053 0.73486085 36.34206251 1 34 C0.071875 34.66 -0.85625 35.32 -1.8125 36 C-6.71604293 38.76940987 -11.51212264 38.91333397 -17 38 C-22.10771643 35.95355861 -25.76305411 33.13181703 -28 28 C-30.17670812 21.11227359 -30.39566701 11.96402626 -27.3125 5.375 C-24.61936865 0.96805779 -21.55025383 -1.33126306 -16.8125 -3.375 C-10.73620895 -4.37111329 -5.14390947 -3.42927298 0 0 Z M-19 7 C-21.69375561 11.75896825 -22.66732206 15.56609183 -22 21 C-20.56686947 25.38035943 -18.96582462 28.27563154 -15.25 31.0625 C-9.95982231 32.58851279 -6.12494459 32.14986179 -1.29296875 29.53515625 C2.12139964 25.7601561 1.73636147 22.42217705 1.625 17.5 C1.64433594 16.64535156 1.66367188 15.79070312 1.68359375 14.91015625 C1.65745636 9.63699586 1.65745636 9.63699586 -1.4140625 5.46875 C-7.95001326 1.75648794 -13.17796184 1.83955709 -19 7 Z " fill="#FFFFFF" transform="translate(1342,224)"/>
<path d="M0 0 C2.64 0 5.28 0 8 0 C8.23710693 0.77714355 8.47421387 1.55428711 8.71850586 2.35498047 C9.78967932 5.86221395 10.86355466 9.36861435 11.9375 12.875 C12.31068359 14.09832031 12.68386719 15.32164062 13.06835938 16.58203125 C13.42607422 17.74863281 13.78378906 18.91523438 14.15234375 20.1171875 C14.48226318 21.19597168 14.81218262 22.27475586 15.15209961 23.38623047 C15.91018312 25.94486564 15.91018312 25.94486564 17 28 C19.97 18.76 22.94 9.52 26 0 C28.31 0 30.62 0 33 0 C37.455 13.365 37.455 13.365 42 27 C43.92685023 24.10972465 44.7239455 22.00611276 45.69140625 18.7109375 C45.99626953 17.68742187 46.30113281 16.66390625 46.61523438 15.609375 C46.92783203 14.54203125 47.24042969 13.4746875 47.5625 12.375 C48.1859708 10.25697701 48.81212636 8.13974183 49.44140625 6.0234375 C49.71670166 5.08419434 49.99199707 4.14495117 50.27563477 3.17724609 C51 1 51 1 52 0 C54.33297433 -0.04092937 56.66705225 -0.04241723 59 0 C57.47338033 7.8162927 55.09553653 15.30951867 52.6315918 22.86865234 C51.93053926 25.02137434 51.23733073 27.17651541 50.54492188 29.33203125 C47.13702343 39.86297657 47.13702343 39.86297657 46 41 C43.69 41 41.38 41 39 41 C36.03 32.09 33.06 23.18 30 14 C28.05877581 16.91183629 27.13784964 19.24107127 26.0546875 22.54296875 C25.70019531 23.61611328 25.34570312 24.68925781 24.98046875 25.79492188 C24.61566406 26.91447266 24.25085937 28.03402344 23.875 29.1875 C23.50246094 30.31865234 23.12992188 31.44980469 22.74609375 32.61523438 C21.82667503 35.40885281 20.91148559 38.20378516 20 41 C17.69 41 15.38 41 13 41 C9.79042427 33.47409828 7.24901158 25.78122493 4.85302734 17.96533203 C4.24199034 15.97389563 3.62337703 13.98492098 3.00390625 11.99609375 C0 2.26583264 0 2.26583264 0 0 Z " fill="#FFFFFF" transform="translate(1522,221)"/>
<path d="M0 0 C17.52811999 -2.24859624 17.52811999 -2.24859624 24.25634766 2.58984375 C28.30313142 6.05816883 31.80368192 10.00094786 35.3125 14 C36.55440965 15.33394504 37.80114476 16.66341432 39.05273438 17.98828125 C42.4379917 21.59925243 45.73100569 25.28388999 49 29 C49.74813965 29.84046875 50.4962793 30.6809375 51.26708984 31.546875 C54.28934207 34.96326424 57.14558043 38.43197553 60 42 C56.7 45.3 53.4 48.6 50 52 C44.08188201 47.08142199 38.61681192 41.79358638 33.1640625 36.3671875 C32.24410492 35.45292999 31.32414734 34.53867249 30.37631226 33.59671021 C28.4431389 31.67396445 26.51224007 29.74896455 24.58251953 27.82275391 C22.11112232 25.35688097 19.63054969 22.90045371 17.14780617 20.4460125 C14.77167748 18.09295652 12.40610648 15.72938157 10.0390625 13.3671875 C9.14748444 12.48795624 8.25590637 11.60872498 7.33731079 10.70285034 C6.51910858 9.88164703 5.70090637 9.06044373 4.85791016 8.21435547 C4.13511871 7.49520966 3.41232727 6.77606384 2.66763306 6.03512573 C0.96493286 3.95720519 0.39162563 2.62707252 0 0 Z " fill="#FFFFFF" transform="translate(147,5)"/>
<path d="M0 0 C2.31 0 4.62 0 7 0 C7.33 1.32 7.66 2.64 8 4 C8.721875 3.34 9.44375 2.68 10.1875 2 C15.10353587 -1.38051862 21.31141418 -0.30384138 27 0 C28.44058722 3.33200731 29.87689798 6.66584213 31.3125 10 C31.71662109 10.93457031 32.12074219 11.86914062 32.53710938 12.83203125 C34.83547476 18.17619791 37.0082493 23.53396572 39 29 C41.49726432 26.50273568 42.28348084 24.17831513 43.6015625 20.8984375 C44.09140625 19.68671875 44.58125 18.475 45.0859375 17.2265625 C45.59906837 15.94275231 46.11208778 14.65889756 46.625 13.375 C47.14536638 12.08314515 47.66619424 10.79147607 48.1875 9.5 C49.46289333 6.33513507 50.73351071 3.16843625 52 0 C54.64 0 57.28 0 60 0 C57.27524223 8.72512687 53.7776965 17.11264399 50.3125 25.5625 C49.6996065 27.06304353 49.08697412 28.56369374 48.47460938 30.06445312 C46.98608128 33.71087263 45.49402412 37.35582909 44 41 C41.36 41 38.72 41 36 41 C32.25290992 33.86268556 29.25704666 26.47420783 26.25 19 C25.73857972 17.73555632 25.2268632 16.47123242 24.71484375 15.20703125 C23.47365301 12.13918245 22.23545908 9.07016045 21 6 C19.58034858 6.42771549 18.1643776 6.86765543 16.75 7.3125 C15.56664062 7.67794922 15.56664062 7.67794922 14.359375 8.05078125 C11.70939159 9.11691696 9.99103927 9.93107234 8 12 C7.354631 15.09010736 7.354631 15.09010736 7.390625 18.63671875 C7.35839844 19.93544922 7.32617188 21.23417969 7.29296875 22.57226562 C7.27822414 23.94400595 7.26390669 25.31575093 7.25 26.6875 C7.22184125 28.07100111 7.19191392 29.45446744 7.16015625 30.83789062 C7.08933891 34.22532021 7.03669824 37.61205667 7 41 C4.69 41 2.38 41 0 41 C0 27.47 0 13.94 0 0 Z " fill="#FFFFFF" transform="translate(766,221)"/>
<path d="M0 0 C2.04642632 7.61333316 2.72385712 14.46382169 0 22 C-6.82041515 33.58594505 -19.69381396 47.63639578 -32.53271484 52.27685547 C-38.98408377 53.38031614 -44.71900604 52.68830013 -51 51 C-45.93858057 44.88583878 -40.44049226 39.29543358 -34.82421875 33.69140625 C-33.84855308 32.71506577 -32.8730358 31.73857699 -31.8976593 30.76194763 C-29.86787998 28.73070388 -27.83632746 26.70125551 -25.8034668 24.6730957 C-23.19280951 22.06818085 -20.58672907 19.45874011 -17.9819212 16.84797764 C-15.97551864 14.8379743 -13.96675646 12.83034284 -11.95725441 10.82343864 C-10.99440855 9.86126104 -10.03230822 8.89833682 -9.07095909 7.93466377 C-7.73550903 6.59669027 -6.3965332 5.26223863 -5.05737305 3.92797852 C-4.29603561 3.16743668 -3.53469818 2.40689484 -2.75028992 1.62330627 C-1 0 -1 0 0 0 Z " fill="#FFFFFF" transform="translate(269,219)"/>
<path d="M0 0 C2.64 0 5.28 0 8 0 C8.33 10.89 8.66 21.78 9 33 C14.54478869 27.10055331 14.54478869 27.10055331 20.03686523 21.15234375 C25.73543648 15.27295806 25.73543648 15.27295806 29.60595703 14.4375 C32.09765625 14.4375 32.09765625 14.4375 36 15 C34.6415798 18.04332765 33.11536976 20.12309151 30.7421875 22.453125 C30.11699219 23.071875 29.49179688 23.690625 28.84765625 24.328125 C28.19667969 24.96234375 27.54570313 25.5965625 26.875 26.25 C26.21628906 26.8996875 25.55757812 27.549375 24.87890625 28.21875 C23.25703357 29.81711727 21.6306719 31.41061897 20 33 C22.16524961 36.81858717 24.62987731 40.12895893 27.4375 43.5 C28.95888777 45.33287326 30.47973429 47.16619595 32 49 C32.75410156 49.8971875 33.50820312 50.794375 34.28515625 51.71875 C36 54 36 54 36 56 C32.86939052 56.51177269 30.11997988 56.63680674 27 56 C24.0667993 53.75683531 22.07169803 50.99040292 19.9375 48 C19.35806641 47.236875 18.77863281 46.47375 18.18164062 45.6875 C16.7611667 43.80918737 15.36994298 41.91530954 14 40 C10.76584102 42.12515709 9.19475005 43.16935337 8.29296875 47.015625 C8.25816406 48.08296875 8.22335937 49.1503125 8.1875 50.25 C8.11595703 51.86648438 8.11595703 51.86648438 8.04296875 53.515625 C8.02169922 54.74539063 8.02169922 54.74539063 8 56 C5.36 56 2.72 56 0 56 C0 37.52 0 19.04 0 0 Z " fill="#FFFFFF" transform="translate(1655,206)"/>
<path d="M0 0 C4.71965238 5.66358285 6 11.77987494 6 19 C-4.56 19 -15.12 19 -26 19 C-23.11086883 26.0508959 -23.11086883 26.0508959 -18 30 C-12.85005456 31.38652377 -9.63198752 30.85386014 -4.89453125 28.7890625 C-2.95139592 27.97975665 -1.05029609 27.46370333 1 27 C1.66 28.65 2.32 30.3 3 32 C-2.32041197 36.83673815 -7.75625307 38.47315882 -14.953125 38.25 C-21.38026679 37.46500558 -25.83492463 34.99809044 -30 30 C-33.81033049 24.55667072 -34.44593953 19.5776081 -34 13 C-32.59353575 6.95697141 -29.59918103 2.16062831 -25 -2 C-17.32888605 -6.34548651 -6.9186275 -5.69769324 0 0 Z M-23 5 C-24.96457553 8.25171122 -26 10.18692647 -26 14 C-18.08 14 -10.16 14 -2 14 C-2.32710274 7.26105769 -2.32710274 7.26105769 -5.5 4.0625 C-8.83737534 1.62581391 -11.83292993 1.38954006 -15.88671875 1.6484375 C-18.92176482 2.1533435 -20.68711049 2.95921514 -23 5 Z " fill="#FFFFFF" transform="translate(527,225)"/>
<path d="M0 0 C5.36129808 6.27664166 6.5625 11.79612563 6.5625 20 C-3.9975 20 -14.5575 20 -25.4375 20 C-22.56383921 27.06263776 -22.56383921 27.06263776 -17.4375 31 C-11.25857732 32.4181134 -8.2180776 31.8902888 -2.4375 29 C-1.11473944 28.62691369 0.21482077 28.26953585 1.5625 28 C2.2225 29.65 2.8825 31.3 3.5625 33 C-1.75154005 37.8309455 -7.20123897 39.49263094 -14.39453125 39.2421875 C-21.03802114 38.45462273 -25.05392149 36.00687038 -29.2109375 30.81640625 C-33.44309174 24.54904408 -33.1014446 18.41128159 -32.4375 11 C-30.83174721 5.11528098 -27.54763454 1.34124181 -22.4375 -2 C-14.67001772 -5.02800157 -7.21847809 -4.1998418 0 0 Z M-23.4375 8 C-24.4275 11.465 -24.4275 11.465 -25.4375 15 C-17.1875 15 -8.9375 15 -0.4375 15 C-2.09835089 8.25054135 -2.09835089 8.25054135 -6.59765625 3.88671875 C-13.25651492 0.6774599 -18.84725267 2.73800916 -23.4375 8 Z " fill="#FFFFFF" transform="translate(1491.4375,224)"/>
<path d="M0 0 C5.74260127 6.31686139 6.5 11.428472 6.5 19.75 C-4.06 19.75 -14.62 19.75 -25.5 19.75 C-22.62633921 26.81263776 -22.62633921 26.81263776 -17.5 30.75 C-11.32107732 32.1681134 -8.2805776 31.6402888 -2.5 28.75 C-1.17723944 28.37691369 0.15232077 28.01953585 1.5 27.75 C2.16 29.4 2.82 31.05 3.5 32.75 C-1.23652641 37.0559331 -5.54539965 38.47642589 -11.875 39.0625 C-18.29060431 38.50943066 -23.52825884 37.31119925 -27.9375 32.375 C-33.18150506 25.83119881 -33.28234032 18.83744307 -32.5 10.75 C-30.85312398 4.88300417 -27.60990094 1.09108908 -22.5 -2.25 C-15.16290147 -5.11022485 -6.49097289 -4.98932991 0 0 Z M-23.5 7.75 C-24.49 11.215 -24.49 11.215 -25.5 14.75 C-17.25 14.75 -9 14.75 -0.5 14.75 C-1.6434189 9.03290548 -2.69082083 7.8378996 -6.5 3.75 C-13.02922615 0.48538692 -18.98857463 2.57836604 -23.5 7.75 Z " fill="#FFFFFF" transform="translate(752.5,224.25)"/>
<path d="M0 0 C3.16622187 3.09154683 4.82453045 6.01601743 6.0625 10.3125 C6.0625 13.2825 6.0625 16.2525 6.0625 19.3125 C-4.1675 19.3125 -14.3975 19.3125 -24.9375 19.3125 C-22.22854795 26.30451397 -22.22854795 26.30451397 -16.9375 30.3125 C-11.76668674 31.77593772 -8.56462522 31.15333284 -3.83203125 29.00390625 C-1.9375 28.3125 -1.9375 28.3125 2.0625 28.3125 C2.7225 29.6325 3.3825 30.9525 4.0625 32.3125 C2.81693908 33.13178886 1.56583365 33.94265186 0.3125 34.75 C-0.38359375 35.20246094 -1.0796875 35.65492188 -1.796875 36.12109375 C-7.01864803 39.02737253 -12.85517998 39.1640719 -18.5390625 37.59375 C-24.50870819 35.41016279 -27.9127939 33.34422917 -30.83203125 27.53125 C-33.60385145 21.15226652 -33.92098832 14.85923345 -31.9375 8.1875 C-29.62013075 2.74766608 -25.25382898 -1.07253418 -19.98828125 -3.63671875 C-13.08557406 -5.83494396 -5.67157901 -4.463078 0 0 Z M-22.9375 6.3125 C-24.94546384 9.37225443 -24.9375 10.45735886 -24.9375 14.3125 C-17.0175 14.3125 -9.0975 14.3125 -0.9375 14.3125 C-1.88715366 8.61457802 -2.23467507 7.23973856 -5.9375 3.3125 C-11.71861351 0.42194325 -18.70516653 1.55112485 -22.9375 6.3125 Z " fill="#FFFFFF" transform="translate(1069.9375,224.6875)"/>
<path d="M0 0 C2.31 0 4.62 0 7 0 C7.33 6.27 7.66 12.54 8 19 C10.31 17.68 12.62 16.36 15 15 C19.99480595 13.72859485 25.37620203 13.4163933 30 16 C33.77037974 20.61791293 34.5586896 24.22127353 34.390625 30.0234375 C34.38496521 30.76961334 34.37930542 31.51578918 34.37347412 32.28457642 C34.35122898 34.64872637 34.30105984 37.01131459 34.25 39.375 C34.22991944 40.98565507 34.2116714 42.59633409 34.1953125 44.20703125 C34.15140381 48.13861507 34.08246318 52.06904352 34 56 C31.69 56 29.38 56 27 56 C26.9906543 55.1121582 26.98130859 54.22431641 26.97167969 53.30957031 C26.92759319 50.00654081 26.86595254 46.70479993 26.79248047 43.40234375 C26.76430389 41.97473063 26.74307273 40.54696247 26.72900391 39.11914062 C26.70752608 37.06299668 26.66086026 35.00870998 26.609375 32.953125 C26.58842773 31.71723633 26.56748047 30.48134766 26.54589844 29.20800781 C25.90606242 25.44796968 25.04338427 24.2363745 22 22 C17.56088002 21.34235259 15.53800507 21.69114524 11.625 23.9375 C9.74985059 25.3981332 9.74985059 25.3981332 8 27 C7.84141158 29.14386657 7.74870702 31.29266838 7.68359375 33.44140625 C7.64169922 34.74658203 7.59980469 36.05175781 7.55664062 37.39648438 C7.51682392 38.7851533 7.47711175 40.17382522 7.4375 41.5625 C7.39432011 42.95509183 7.350706 44.34767028 7.30664062 45.74023438 C7.20014124 49.16004801 7.09813077 52.57993763 7 56 C4.69 56 2.38 56 0 56 C0 37.52 0 19.04 0 0 Z " fill="#FFFFFF" transform="translate(452,206)"/>
<path d="M0 0 C2.31 0 4.62 0 7 0 C7.33 6.27 7.66 12.54 8 19 C10.31 17.68 12.62 16.36 15 15 C20.26492189 13.68376953 23.95206049 13.99987303 29 16 C31.83253266 18.31075033 32.83837867 19.515136 34 23 C34.0846817 25.51368055 34.11601885 27.99869374 34.09765625 30.51171875 C34.0962413 31.23994339 34.09482635 31.96816803 34.09336853 32.71846008 C34.08777659 35.04151539 34.07522562 37.36447388 34.0625 39.6875 C34.05748396 41.26367048 34.05292123 42.83984248 34.04882812 44.41601562 C34.0378098 48.27738098 34.02055074 52.13867408 34 56 C31.69 56 29.38 56 27 56 C26.98018066 55.14245117 26.96036133 54.28490234 26.93994141 53.40136719 C26.86170479 50.21052358 26.77500657 47.0200526 26.68261719 43.82958984 C26.64440662 42.45044757 26.60953998 41.07120833 26.578125 39.69189453 C26.53230376 37.70583033 26.47333737 35.72008321 26.4140625 33.734375 C26.36693115 31.94338379 26.36693115 31.94338379 26.31884766 30.11621094 C26.01733996 27.16946952 25.63380453 25.44018251 24 23 C20.89046621 21.4452331 18.43733239 21.71355563 15 22 C12.39152371 23.49745861 10.12971098 24.87028902 8 27 C7.84141158 29.14386657 7.74870702 31.29266838 7.68359375 33.44140625 C7.64169922 34.74658203 7.59980469 36.05175781 7.55664062 37.39648438 C7.51682392 38.7851533 7.47711175 40.17382522 7.4375 41.5625 C7.39432011 42.95509183 7.350706 44.34767028 7.30664062 45.74023438 C7.20014124 49.16004801 7.09813077 52.57993763 7 56 C4.69 56 2.38 56 0 56 C0 37.52 0 19.04 0 0 Z " fill="#FFFFFF" transform="translate(1122,206)"/>
<path d="M0 0 C5.30445875 4.93438023 7.95492502 10.81790041 8.25 18.0625 C7.90022356 24.41228767 6.42702586 29.83345331 1.78125 34.35546875 C-3.96610073 38.86971251 -8.93728876 40.27343039 -16.3125 39.5 C-22.84882234 37.28429751 -27.48231083 34.61642464 -30.625 28.375 C-33.43284959 21.37256693 -33.16172431 15.1760582 -30.625 8.125 C-28.85968463 4.14524309 -27.12124983 1.7852499 -23.3125 -0.5 C-22.673125 -0.891875 -22.03375 -1.28375 -21.375 -1.6875 C-14.00685793 -4.59010142 -7.0396355 -3.18775947 0 0 Z M-20.3125 6.5 C-23.75907061 10.71247519 -25.21835851 14.03979361 -25.3125 19.5 C-24.44552041 23.86824331 -22.84643998 27.38418101 -19.625 30.5 C-16.3761273 32.46158352 -14.16578129 33.31811361 -10.33984375 33.0390625 C-6.3510857 31.97846787 -3.75976221 29.76749845 -1.3125 26.5 C0.9254868 21.75759939 1.04153205 17.68334159 -0.4375 12.6875 C-1.86251463 9.16795956 -3.01901521 6.58009566 -6.3125 4.5 C-11.64653976 3.06891616 -15.97563248 2.65877448 -20.3125 6.5 Z " fill="#FFFFFF" transform="translate(1615.3125,223.5)"/>
<path d="M0 0 C2.58008103 2.2025082 3.43100297 3.08155685 4.5625 6.1875 C4.73036322 8.76284673 4.79567374 11.22504393 4.7578125 13.796875 C4.7549826 14.52368469 4.75215271 15.25049438 4.74923706 15.99932861 C4.73807523 18.31222251 4.71297851 20.62472388 4.6875 22.9375 C4.67746501 24.50910898 4.66834006 26.08072404 4.66015625 27.65234375 C4.63814904 31.49754622 4.60364715 35.34245664 4.5625 39.1875 C2.2525 39.1875 -0.0575 39.1875 -2.4375 39.1875 C-2.7675 38.5275 -3.0975 37.8675 -3.4375 37.1875 C-4.55125 37.703125 -5.665 38.21875 -6.8125 38.75 C-11.83531175 40.61129017 -16.28048131 40.60179944 -21.4375 39.1875 C-24.74437376 37.41839058 -26.84888028 35.10881782 -28.875 31.9375 C-29.96632063 26.6021547 -29.4963954 21.90364082 -26.625 17.25 C-22.75322197 13.59946643 -19.79830681 12.89504404 -14.5 12.875 C-12.97052734 12.84986328 -12.97052734 12.84986328 -11.41015625 12.82421875 C-8.06879895 13.23255808 -6.17409348 14.27742831 -3.4375 16.1875 C-3.05236729 11.24071134 -3.05236729 11.24071134 -4.875 6.75 C-8.68457175 4.42709039 -12.08965073 4.40653916 -16.4375 5.1875 C-18.78742899 6.29785341 -20.40669837 7.52120123 -22.4375 9.1875 C-24.375 8.375 -24.375 8.375 -26.4375 7.1875 C-26.7675 6.1975 -27.0975 5.2075 -27.4375 4.1875 C-19.81097973 -3.24346847 -9.59005186 -5.0565728 0 0 Z M-20.4375 21.1875 C-22.00180248 24.31610495 -21.79377284 26.74352925 -21.4375 30.1875 C-19.33638659 32.74823196 -17.79872061 33.94599312 -14.5 34.53125 C-9.99572126 34.73598994 -7.10932236 33.96918361 -3.4375 31.1875 C-2.23188816 30.20482141 -2.23188816 30.20482141 -2.33984375 28.33984375 C-2.35144531 27.60894531 -2.36304688 26.87804687 -2.375 26.125 C-2.395625 24.825625 -2.41625 23.52625 -2.4375 22.1875 C-8.96361613 18.01078568 -13.64418077 16.14103429 -20.4375 21.1875 Z " fill="#FFFFFF" transform="translate(856.4375,222.8125)"/>
<path d="M0 0 C19.47 0 38.94 0 59 0 C55.90398525 6.1920295 52.31014207 11.79890686 46 15 C38.29236289 16.81055702 30.15401384 16.03581258 22.3125 15.6875 C20.146609 15.63224685 17.98058222 15.58207016 15.81445312 15.53710938 C10.53958256 15.4166503 5.271303 15.22730726 0 15 C0 10.05 0 5.1 0 0 Z " fill="#FFFFFF" transform="translate(0,190)"/>
<path d="M0 0 C4.31597571 3.81797851 6.29531373 8.89354266 6.96484375 14.53515625 C7.20374021 21.34999201 5.74830577 27.80023678 1.37109375 33.19921875 C-3.04577538 37.22531929 -7.91734339 38.31315338 -13.7109375 38.83984375 C-19.87581607 38.29906493 -24.40929941 36.87686423 -28.6484375 32.21484375 C-33.52661235 25.83875108 -34.01418368 19.35646105 -33.2734375 11.52734375 C-31.76626326 5.64166333 -28.55707992 0.88781157 -23.3359375 -2.22265625 C-15.10777636 -5.58108937 -7.40233955 -5.08726523 0 0 Z M-24.2734375 8.52734375 C-26.88661235 13.4270466 -26.58570156 18.24996526 -25.2734375 23.52734375 C-23.63931319 26.62654503 -22.27182752 28.74289444 -19.5234375 30.90234375 C-15.37915326 32.05353382 -11.34302655 32.66652544 -7.4921875 30.546875 C-3.69569072 27.52270477 -1.56124289 24.74277594 -0.9375 19.94140625 C-0.85383696 13.96786506 -1.02472584 10.12054554 -5.2734375 5.52734375 C-8.13918007 3.20376869 -9.99915929 2.57305679 -13.6484375 1.96484375 C-18.56068028 2.72708832 -21.08880088 4.79333586 -24.2734375 8.52734375 Z " fill="#FFFFFF" transform="translate(1301.2734375,224.47265625)"/>
<path d="M0 0 C5.10841839 5.1206688 6.1766736 9.69138559 6.4375 16.75 C6.26399429 23.32058566 5.06925761 27.95011104 0.609375 32.8359375 C-3.64019231 36.70528037 -7.74982971 38.1041509 -13.375 38.625 C-19.12562089 38.12925682 -23.3363044 36.68042749 -27.8125 33 C-32.83170156 26.83355237 -34.51431375 21.1557847 -34 13.3125 C-32.84948538 6.8120924 -30.37163548 2.76668774 -25.1640625 -1.3046875 C-17.43403133 -6.2440937 -7.27843728 -5.73965562 0 0 Z M-23 6.3125 C-26.53100394 11.25590552 -26.87011862 16.43202799 -26 22.3125 C-24.038218 26.16600036 -21.91687112 29.35406444 -18 31.3125 C-13.27699812 31.84574215 -10.9896071 31.7792958 -6.6875 29.75 C-3.5566521 26.91039376 -1.80414255 24.43470645 -1 20.3125 C-0.87090237 14.80433441 -1.32873361 9.63934967 -5 5.3125 C-7.90200363 2.97477486 -9.72300894 2.34775341 -13.4375 1.875 C-17.7426591 2.40370375 -19.72712679 3.48592768 -23 6.3125 Z " fill="#FFFFFF" transform="translate(1240,224.6875)"/>
<path d="M0 0 C5.10841839 5.1206688 6.1766736 9.69138559 6.4375 16.75 C6.26399429 23.32058566 5.06925761 27.95011104 0.609375 32.8359375 C-3.64019231 36.70528037 -7.74982971 38.1041509 -13.375 38.625 C-19.92517823 38.06032946 -24.29131873 36.4654435 -28.875 31.625 C-33.33463294 26.03518611 -34.28726891 21.23518066 -33.8125 14.1875 C-32.87418041 7.29243247 -30.37445763 2.88827015 -24.94140625 -1.421875 C-17.36482773 -6.36113343 -7.08463709 -5.58682798 0 0 Z M-23 6.3125 C-26.33886314 11.09820383 -26.7410699 15.65803512 -26 21.3125 C-24.33281294 25.96307443 -22.30375948 28.82588341 -18 31.3125 C-13.22228026 31.91919457 -11.03467227 31.80055296 -6.6875 29.75 C-2.5501116 25.99748494 -1.25968316 22.35286767 -0.5625 16.875 C-1.24242514 11.33846668 -3.05184832 6.99738794 -7.3125 3.3125 C-13.62261786 0.96454917 -17.95596613 1.95628893 -23 6.3125 Z " fill="#FFFFFF" transform="translate(941,224.6875)"/>
<path d="M0 0 C5.10841839 5.1206688 6.1766736 9.69138559 6.4375 16.75 C6.26399429 23.32058566 5.06925761 27.95011104 0.609375 32.8359375 C-3.64019231 36.70528037 -7.74982971 38.1041509 -13.375 38.625 C-19.77617556 38.07317452 -24.26440436 36.47603009 -28.875 31.875 C-33.40260921 26.23879998 -34.17265081 19.89494019 -33.90625 12.82421875 C-32.96777279 6.6494653 -29.6257527 2.3819913 -25 -1.6875 C-17.25884516 -6.09220247 -7.06497352 -5.60997897 0 0 Z M-23 6.3125 C-26.33886314 11.09820383 -26.7410699 15.65803512 -26 21.3125 C-24.33281294 25.96307443 -22.30375948 28.82588341 -18 31.3125 C-13.22228026 31.91919457 -11.03467227 31.80055296 -6.6875 29.75 C-2.5501116 25.99748494 -1.25968316 22.35286767 -0.5625 16.875 C-1.24242514 11.33846668 -3.05184832 6.99738794 -7.3125 3.3125 C-13.62261786 0.96454917 -17.95596613 1.95628893 -23 6.3125 Z " fill="#FFFFFF" transform="translate(629,224.6875)"/>
<path d="M0 0 C2.64 0 5.28 0 8 0 C11.96 9.57 15.92 19.14 20 29 C21.96706157 26.04940765 23.23205386 23.28405766 24.6015625 20.01953125 C25.09140625 18.85615234 25.58125 17.69277344 26.0859375 16.49414062 C26.59382813 15.27919922 27.10171875 14.06425781 27.625 12.8125 C28.14554766 11.57344765 28.66637783 10.33451395 29.1875 9.09570312 C30.46112012 6.06495894 31.73183243 3.03302883 33 0 C35.64 0 38.28 0 41 0 C38.97431949 6.3428419 36.6644291 12.51645241 34.12890625 18.671875 C33.76530502 19.55731995 33.4017038 20.44276489 33.02708435 21.3550415 C32.26315802 23.21118783 31.49751552 25.0666287 30.73022461 26.92138672 C29.56130505 29.75289457 28.40458987 32.58919964 27.24804688 35.42578125 C26.50074529 37.2372868 25.75272325 39.04849535 25.00390625 40.859375 C24.66210831 41.70216003 24.32031036 42.54494507 23.96815491 43.41326904 C21.80171407 48.60316432 19.75730175 53.47622798 14.625 56.3125 C10.92172213 57.28240611 7.49546852 57.74773426 4 56 C4.495 53.03 4.495 53.03 5 50 C7.64 49.67 10.28 49.34 13 49 C15.518237 42.92660489 14.94369698 38.15700582 12.60131836 32.1159668 C12.02223118 30.72366636 11.43469992 29.33485528 10.83984375 27.94921875 C10.37584923 26.83919243 10.37584923 26.83919243 9.90248108 25.70674133 C8.92181887 23.36368462 7.93036925 21.02540698 6.9375 18.6875 C5.94271316 16.33109717 4.95029107 13.97375428 3.96180725 11.61470032 C3.34820397 10.15172526 2.73067912 8.69038759 2.10887146 7.23088074 C0 2.2227949 0 2.2227949 0 0 Z " fill="#FFFFFF" transform="translate(1354,221)"/>
<path d="M0 0 C0.83660156 0.12503906 1.67320313 0.25007812 2.53515625 0.37890625 C6.09283832 1.9466003 7.0911821 4.0534256 8.9375 7.4375 C9.27424287 10.25708784 9.40926343 12.65976174 9.328125 15.4609375 C9.32246521 16.20711334 9.31680542 16.95328918 9.31097412 17.72207642 C9.28872898 20.08622637 9.23855984 22.44881459 9.1875 24.8125 C9.16741944 26.42315507 9.1491714 28.03383409 9.1328125 29.64453125 C9.08890381 33.57611507 9.01996318 37.50654352 8.9375 41.4375 C6.6275 41.4375 4.3175 41.4375 1.9375 41.4375 C1.9281543 40.5496582 1.91880859 39.66181641 1.90917969 38.74707031 C1.86509319 35.44404081 1.80345254 32.14229993 1.72998047 28.83984375 C1.70180389 27.41223063 1.68057273 25.98446247 1.66650391 24.55664062 C1.64502608 22.50049668 1.59836026 20.44620998 1.546875 18.390625 C1.52592773 17.15473633 1.50498047 15.91884766 1.48339844 14.64550781 C0.84356242 10.88546968 -0.01911573 9.6738745 -3.0625 7.4375 C-7.24106194 6.81845379 -9.45756753 7.13340635 -13.23876953 9.03417969 C-16.33655101 11.19314806 -16.33655101 11.19314806 -16.83544922 14.64550781 C-16.84592285 15.88139648 -16.85639648 17.11728516 -16.8671875 18.390625 C-16.88774704 19.38095734 -16.88774704 19.38095734 -16.90872192 20.39129639 C-16.94597981 22.4907268 -16.94231144 24.58778635 -16.9375 26.6875 C-16.95563038 28.11462023 -16.97643419 29.54170917 -17 30.96875 C-17.0518055 34.45850515 -17.066934 37.94731176 -17.0625 41.4375 C-19.7025 41.4375 -22.3425 41.4375 -25.0625 41.4375 C-25.0625 27.9075 -25.0625 14.3775 -25.0625 0.4375 C-22.4225 0.4375 -19.7825 0.4375 -17.0625 0.4375 C-16.7325 1.4275 -16.4025 2.4175 -16.0625 3.4375 C-15.175625 2.963125 -14.28875 2.48875 -13.375 2 C-8.69951987 -0.20541516 -5.10504893 -0.87582756 0 0 Z " fill="#FFFFFF" transform="translate(1190.0625,220.5625)"/>
<path d="M0 0 C13.86 0 27.72 0 42 0 C42 2.64 42 5.28 42 8 C36.39 8 30.78 8 25 8 C25 23.84 25 39.68 25 56 C22.36 56 19.72 56 17 56 C17 40.16 17 24.32 17 8 C11.39 8 5.78 8 0 8 C0 5.36 0 2.72 0 0 Z " fill="#FFFFFF" transform="translate(404,206)"/>
<path d="M0 0 C1.27230469 0.23976562 1.27230469 0.23976562 2.5703125 0.484375 C5.13332675 1.33581702 6.22353535 2.13694586 7.875 4.25 C9.08577701 7.88233102 8.99944164 11.20121987 8.97265625 14.98046875 C8.9712413 15.73088943 8.96982635 16.48131012 8.96836853 17.25447083 C8.9627756 19.6488546 8.95022444 22.04314453 8.9375 24.4375 C8.93248408 26.06184761 8.92792134 27.68619668 8.92382812 29.31054688 C8.91280848 33.29040069 8.89554873 37.27018444 8.875 41.25 C6.565 41.25 4.255 41.25 1.875 41.25 C1.8656543 40.32662842 1.85630859 39.40325684 1.84667969 38.4519043 C1.80265266 35.02405494 1.74103893 31.59745949 1.66748047 28.17016602 C1.63926459 26.68721058 1.61805298 25.20410457 1.60400391 23.72094727 C1.5825808 21.58792003 1.53594218 19.45670394 1.484375 17.32421875 C1.46342773 16.04119873 1.44248047 14.75817871 1.42089844 13.4362793 C1.17660199 10.18915738 1.17660199 10.18915738 -1.02441406 8.3190918 C-3.52912957 7.04431853 -4.85705458 7.00530866 -7.625 7.375 C-8.3778125 7.46007812 -9.130625 7.54515625 -9.90625 7.6328125 C-12.6927673 8.40793527 -14.06231218 9.19765213 -16.125 11.25 C-16.77097413 14.43823344 -16.77097413 14.43823344 -16.734375 18.10546875 C-16.75091125 18.76710526 -16.76744751 19.42874176 -16.78448486 20.11042786 C-16.83299288 22.21954601 -16.85433927 24.32794323 -16.875 26.4375 C-16.90315777 27.86917695 -16.93308495 29.30082028 -16.96484375 30.73242188 C-17.03874893 34.23812393 -17.08830788 37.74368875 -17.125 41.25 C-19.435 41.25 -21.745 41.25 -24.125 41.25 C-24.125 27.72 -24.125 14.19 -24.125 0.25 C-21.815 0.25 -19.505 0.25 -17.125 0.25 C-17.125 1.57 -17.125 2.89 -17.125 4.25 C-16.073125 3.610625 -15.02125 2.97125 -13.9375 2.3125 C-9.27524684 -0.52141859 -5.3350874 -1.07680663 0 0 Z " fill="#FFFFFF" transform="translate(1442.125,220.75)"/>
<path d="M0 0 C0.83660156 0.12503906 1.67320312 0.25007812 2.53515625 0.37890625 C6.09283832 1.9466003 7.0911821 4.0534256 8.9375 7.4375 C9.27424287 10.25708784 9.40926343 12.65976174 9.328125 15.4609375 C9.32246521 16.20711334 9.31680542 16.95328918 9.31097412 17.72207642 C9.28872898 20.08622637 9.23855984 22.44881459 9.1875 24.8125 C9.16741944 26.42315507 9.1491714 28.03383409 9.1328125 29.64453125 C9.08890381 33.57611507 9.01996318 37.50654352 8.9375 41.4375 C6.6275 41.4375 4.3175 41.4375 1.9375 41.4375 C1.9281543 40.5496582 1.91880859 39.66181641 1.90917969 38.74707031 C1.86509319 35.44404081 1.80345254 32.14229993 1.72998047 28.83984375 C1.70180389 27.41223063 1.68057273 25.98446247 1.66650391 24.55664062 C1.64502608 22.50049668 1.59836026 20.44620998 1.546875 18.390625 C1.52592773 17.15473633 1.50498047 15.91884766 1.48339844 14.64550781 C0.84728261 10.90733165 -0.06912945 9.69296505 -3.0625 7.4375 C-5.29408396 7.05756522 -5.29408396 7.05756522 -7.5625 7.5 C-8.3153125 7.59410156 -9.068125 7.68820313 -9.84375 7.78515625 C-12.60837023 8.59799354 -14.00578235 9.39347161 -16.0625 11.4375 C-16.70847413 14.62573344 -16.70847413 14.62573344 -16.671875 18.29296875 C-16.68841125 18.95460526 -16.70494751 19.61624176 -16.72198486 20.29792786 C-16.77049288 22.40704601 -16.79183927 24.51544323 -16.8125 26.625 C-16.84065777 28.05667695 -16.87058495 29.48832028 -16.90234375 30.91992188 C-16.97624893 34.42562393 -17.02580788 37.93118875 -17.0625 41.4375 C-19.3725 41.4375 -21.6825 41.4375 -24.0625 41.4375 C-24.0625 27.9075 -24.0625 14.3775 -24.0625 0.4375 C-21.7525 0.4375 -19.4425 0.4375 -17.0625 0.4375 C-17.0625 1.7575 -17.0625 3.0775 -17.0625 4.4375 C-16.010625 3.798125 -14.95875 3.15875 -13.875 2.5 C-9.30413683 -0.27836781 -5.2617155 -0.90270544 0 0 Z " fill="#FFFFFF" transform="translate(979.0625,220.5625)"/>
<path d="M0 0 C0.83660156 0.12503906 1.67320312 0.25007812 2.53515625 0.37890625 C6.09283832 1.9466003 7.0911821 4.0534256 8.9375 7.4375 C9.27424287 10.25708784 9.40926343 12.65976174 9.328125 15.4609375 C9.32246521 16.20711334 9.31680542 16.95328918 9.31097412 17.72207642 C9.28872898 20.08622637 9.23855984 22.44881459 9.1875 24.8125 C9.16741944 26.42315507 9.1491714 28.03383409 9.1328125 29.64453125 C9.08890381 33.57611507 9.01996318 37.50654352 8.9375 41.4375 C6.6275 41.4375 4.3175 41.4375 1.9375 41.4375 C1.9281543 40.5496582 1.91880859 39.66181641 1.90917969 38.74707031 C1.86509319 35.44404081 1.80345254 32.14229993 1.72998047 28.83984375 C1.70180389 27.41223063 1.68057273 25.98446247 1.66650391 24.55664062 C1.64502608 22.50049668 1.59836026 20.44620998 1.546875 18.390625 C1.52592773 17.15473633 1.50498047 15.91884766 1.48339844 14.64550781 C0.84728261 10.90733165 -0.06912945 9.69296505 -3.0625 7.4375 C-5.29408396 7.05756522 -5.29408396 7.05756522 -7.5625 7.5 C-8.3153125 7.59410156 -9.068125 7.68820313 -9.84375 7.78515625 C-12.60837023 8.59799354 -14.00578235 9.39347161 -16.0625 11.4375 C-16.70847413 14.62573344 -16.70847413 14.62573344 -16.671875 18.29296875 C-16.68841125 18.95460526 -16.70494751 19.61624176 -16.72198486 20.29792786 C-16.77049288 22.40704601 -16.79183927 24.51544323 -16.8125 26.625 C-16.84065777 28.05667695 -16.87058495 29.48832028 -16.90234375 30.91992188 C-16.97624893 34.42562393 -17.02580788 37.93118875 -17.0625 41.4375 C-19.3725 41.4375 -21.6825 41.4375 -24.0625 41.4375 C-24.0625 27.9075 -24.0625 14.3775 -24.0625 0.4375 C-21.7525 0.4375 -19.4425 0.4375 -17.0625 0.4375 C-17.0625 1.7575 -17.0625 3.0775 -17.0625 4.4375 C-16.010625 3.798125 -14.95875 3.15875 -13.875 2.5 C-9.30413683 -0.27836781 -5.2617155 -0.90270544 0 0 Z " fill="#FFFFFF" transform="translate(667.0625,220.5625)"/>
<path d="M0 0 C-0.99 1.65 -1.98 3.3 -3 5 C-3.99 4.566875 -3.99 4.566875 -5 4.125 C-12.04203962 1.45103603 -12.04203962 1.45103603 -19.4375 1.625 C-22.15295571 2.73292115 -22.15295571 2.73292115 -22.875 5.125 C-22.91625 5.74375 -22.9575 6.3625 -23 7 C-19.25903231 9.47071374 -15.82253093 10.73377104 -11.5 11.875 C-2.88431697 14.46750191 -2.88431697 14.46750191 0 19 C1.35148759 23.1844135 1.29117935 26.14263859 -0.125 30.3125 C-2.54526346 33.78154429 -4.90971574 35.20713356 -8.8125 36.6875 C-16.726173 37.81802471 -23.81970056 36.75288012 -30.5625 32.3125 C-31.036875 31.879375 -31.51125 31.44625 -32 31 C-31 29 -30 27 -29 25 C-28.505 25.268125 -28.01 25.53625 -27.5 25.8125 C-19.13571449 29.80796664 -19.13571449 29.80796664 -10 29 C-7.92993467 27.8511303 -7.92993467 27.8511303 -7 26 C-6.68740419 23.90938769 -6.68740419 23.90938769 -8 22 C-11.93937316 19.90458874 -15.82791011 18.77474453 -20.125 17.625 C-24.58000738 16.3162992 -27.21144385 14.86799724 -30 11 C-31.0389798 7.67526463 -31.193494 5.73879526 -30.3125 2.375 C-27.92473708 -1.94571386 -26.02776896 -3.63418393 -21.3125 -5.3125 C-12.85283725 -7.03896179 -6.84193325 -5.05221774 0 0 Z " fill="#FFFFFF" transform="translate(714,226)"/>
<path d="M0 0 C0.598125 0.61875 1.19625 1.2375 1.8125 1.875 C1.5625 3.75 1.5625 3.75 0.8125 5.875 C-1.25 7.125 -1.25 7.125 -3.1875 7.875 C-4.033125 7.215 -4.87875 6.555 -5.75 5.875 C-9.74462785 3.55085289 -11.64202321 3.22564617 -16.1875 3.875 C-20.20166449 5.99569068 -22.54039413 7.64818037 -24.1875 11.875 C-24.87878923 17.19631939 -24.81915723 21.58912636 -22.4375 26.4375 C-18.95378034 30.21152963 -17.41378344 30.7582111 -12.25 31.25 C-8.15646609 31.17348535 -6.10252838 29.79002838 -3.1875 26.875 C-1.25 27.625 -1.25 27.625 0.8125 28.875 C1.5625 31 1.5625 31 1.8125 32.875 C-2.74575389 36.89698873 -6.50255888 38.62639434 -12.5625 39.1875 C-18.33700975 38.68969744 -22.5505531 37.25731071 -27 33.5 C-32.2396178 27.21245864 -33.73257117 22.05106756 -33.1875 13.875 C-32.03486828 7.3741571 -29.56018622 3.33000923 -24.3515625 -0.7421875 C-16.76270263 -5.59138677 -7.45223312 -4.96815541 0 0 Z " fill="#FFFFFF" transform="translate(1114.1875,224.125)"/>
<path d="M0 0 C0.78375 0.78375 1.5675 1.5675 2.375 2.375 C2.045 3.365 1.715 4.355 1.375 5.375 C-1.1875 6.5625 -1.1875 6.5625 -3.625 7.375 C-4.6459375 6.385 -4.6459375 6.385 -5.6875 5.375 C-9.36116939 2.87377828 -11.25583745 2.82885468 -15.625 3.375 C-19.31273373 5.05124261 -21.48283496 6.94753594 -23.625 10.375 C-25.68059781 16.54179343 -24.6785083 21.0446995 -21.890625 26.67578125 C-20.32896461 28.77245492 -19.06471792 29.46688277 -16.625 30.375 C-12.3877559 30.93775898 -8.2002548 30.94918345 -4.625 28.375 C-4.295 27.715 -3.965 27.055 -3.625 26.375 C-0.46384224 27.74483503 0.3677092 28.3640638 2.375 31.375 C1.29956217 32.36283194 0.21426783 33.33993943 -0.875 34.3125 C-1.47828125 34.85777344 -2.0815625 35.40304687 -2.703125 35.96484375 C-6.7958378 38.96783017 -11.71123004 38.84850874 -16.625 38.375 C-22.35837978 37.20470338 -25.72596678 34.78219707 -29.3984375 30.2890625 C-33.41925881 24.01453243 -33.32568905 17.61837306 -32.625 10.375 C-30.98298656 4.52532713 -27.75099637 0.66337503 -22.625 -2.625 C-15.05045025 -5.66354299 -6.44545763 -5.32318972 0 0 Z " fill="#FFFFFF" transform="translate(589.625,224.625)"/>
<path d="M0 0 C5.28 0 10.56 0 16 0 C16 1.65 16 3.3 16 5 C12.7 5 9.4 5 6 5 C6 25.13 6 45.26 6 66 C9.3 66 12.6 66 16 66 C16 67.65 16 69.3 16 71 C10.72 71 5.44 71 0 71 C0 47.57 0 24.14 0 0 Z " fill="#FFFFFF" transform="translate(367,206)"/>
<path d="M0 0 C2.31 0 4.62 0 7 0 C7 3.3 7 6.6 7 10 C9.64 10 12.28 10 15 10 C15 12.31 15 14.62 15 17 C12.36 17 9.72 17 7 17 C7.1387078 20.93778511 7.28718492 24.87514223 7.4375 28.8125 C7.47681641 29.93205078 7.51613281 31.05160156 7.55664062 32.20507812 C7.61948242 33.81479492 7.61948242 33.81479492 7.68359375 35.45703125 C7.72025146 36.44678955 7.75690918 37.43654785 7.79467773 38.45629883 C7.90790331 41.1218351 7.90790331 41.1218351 9 44 C11.31 44 13.62 44 16 44 C16.33 45.98 16.66 47.96 17 50 C13.92859569 51.81205858 11.97222701 52.22518386 8.4375 51.8125 C7.67308594 51.73644531 6.90867187 51.66039062 6.12109375 51.58203125 C3.58525537 50.88619346 2.61257572 50.05370586 1 48 C-0.11911712 44.64264863 -0.11365586 42.11794614 -0.09765625 38.58203125 C-0.09443359 37.32841797 -0.09121094 36.07480469 -0.08789062 34.78320312 C-0.07951172 33.47287109 -0.07113281 32.16253906 -0.0625 30.8125 C-0.05748317 29.47721519 -0.05292059 28.14192859 -0.04882812 26.80664062 C-0.03702695 23.53771527 -0.02056297 20.26888009 0 17 C-1.98 17 -3.96 17 -6 17 C-6 14.69 -6 12.38 -6 10 C-4.02 10 -2.04 10 0 10 C0 6.7 0 3.4 0 0 Z " fill="#FFFFFF" transform="translate(1018,211)"/>
<path d="M0 0 C2.31 0 4.62 0 7 0 C7 3.3 7 6.6 7 10 C9.64 10 12.28 10 15 10 C15 12.31 15 14.62 15 17 C12.36 17 9.72 17 7 17 C7.13839953 21.12528499 7.2869741 25.25014108 7.4375 29.375 C7.47681641 30.550625 7.51613281 31.72625 7.55664062 32.9375 C7.61948242 34.61972656 7.61948242 34.61972656 7.68359375 36.3359375 C7.72025146 37.37282715 7.75690918 38.4097168 7.79467773 39.47802734 C7.84164223 41.99425166 7.84164223 41.99425166 9 44 C11.31 44 13.62 44 16 44 C16.33 45.98 16.66 47.96 17 50 C13.92859569 51.81205858 11.97222701 52.22518386 8.4375 51.8125 C7.67308594 51.73644531 6.90867187 51.66039062 6.12109375 51.58203125 C3.58525537 50.88619346 2.61257572 50.05370586 1 48 C-0.11911712 44.64264863 -0.11365586 42.11794614 -0.09765625 38.58203125 C-0.09443359 37.32841797 -0.09121094 36.07480469 -0.08789062 34.78320312 C-0.07951172 33.47287109 -0.07113281 32.16253906 -0.0625 30.8125 C-0.05748317 29.47721519 -0.05292059 28.14192859 -0.04882812 26.80664062 C-0.03702695 23.53771527 -0.02056297 20.26888009 0 17 C-1.98 17 -3.96 17 -6 17 C-6 14.69 -6 12.38 -6 10 C-4.02 10 -2.04 10 0 10 C0 6.7 0 3.4 0 0 Z " fill="#FFFFFF" transform="translate(1506,211)"/>
<path d="M0 0 C2.31 0 4.62 0 7 0 C7 3.3 7 6.6 7 10 C9.64 10 12.28 10 15 10 C15 12.31 15 14.62 15 17 C12.36 17 9.72 17 7 17 C7.33 25.58 7.66 34.16 8 43 C12.64045375 44.09805807 12.64045375 44.09805807 16 44 C16.33 45.98 16.66 47.96 17 50 C12.46669074 52.133322 8.58883403 52.86294468 3.75 51.25 C1.52513755 49.66081254 0.9858544 48.55820953 0 46 C-0.22705078 42.88378906 -0.22705078 42.88378906 -0.1953125 39.265625 C-0.18564453 37.32236328 -0.18564453 37.32236328 -0.17578125 35.33984375 C-0.15907193 33.97655981 -0.14214206 32.61327856 -0.125 31.25 C-0.1149634 29.87110015 -0.10583873 28.49219335 -0.09765625 27.11328125 C-0.07408093 23.74201118 -0.0411727 20.37109364 0 17 C-1.98 17 -3.96 17 -6 17 C-6 14.69 -6 12.38 -6 10 C-4.02 10 -2.04 10 0 10 C0 6.7 0 3.4 0 0 Z " fill="#FFFFFF" transform="translate(872,211)"/>
<path d="M0 0 C4.65834119 3.89548093 9.08608774 7.93698906 13.37109375 12.23828125 C13.93828629 12.80451706 14.50547882 13.37075287 15.08985901 13.95414734 C16.27329173 15.13690579 17.45548773 16.32090288 18.63647461 17.50610352 C20.45377236 19.32882089 22.27643025 21.14605809 24.09960938 22.96289062 C25.25292547 24.11686647 26.40593191 25.2711519 27.55859375 26.42578125 C28.10535263 26.9705159 28.65211151 27.51525055 29.21543884 28.07649231 C33 31.88501099 33 31.88501099 33 33 C13.32006161 35.15716019 13.32006161 35.15716019 6.22851562 29.77148438 C0.83621331 24.66622476 -0.58571104 20.02413328 -0.79760742 12.64526367 C-0.72787921 8.40471557 -0.43729533 4.2166542 0 0 Z " fill="#FFFFFF" transform="translate(4,65)"/>
<path d="M0 0 C5.28 0 10.56 0 16 0 C16 23.43 16 46.86 16 71 C10.72 71 5.44 71 0 71 C0 69.35 0 67.7 0 66 C3.63 66 7.26 66 11 66 C11 45.87 11 25.74 11 5 C7.37 5 3.74 5 0 5 C0 3.35 0 1.7 0 0 Z " fill="#FFFFFF" transform="translate(1710,206)"/>
<path d="M0 0 C2.95492969 1.83862292 4.60012663 3.32748569 6.375 6.3125 C7.21219504 9.91243865 6.89539601 12.41841597 6 16 C4.17660948 18.70567626 2.92542564 20.53728718 0 22 C-4.71541103 22.50909747 -8.71179229 22.64410386 -13 20.5 C-15.66307452 17.17115685 -16.82461496 14.27301731 -17 10 C-15.63886713 5.38727195 -14.25214681 2.39183258 -10 0 C-6.18323682 -1.27225439 -3.91280349 -0.87700768 0 0 Z " fill="#FFFFFF" transform="translate(1352,116)"/>
<path d="M0 0 C2.31 0 4.62 0 7 0 C7 18.48 7 36.96 7 56 C4.69 56 2.38 56 0 56 C0 37.52 0 19.04 0 0 Z " fill="#FFFFFF" transform="translate(1254,206)"/>
<path d="M0 0 C18.20852983 -1.94320279 18.20852983 -1.94320279 24 2.671875 C26.99954287 5.53342855 29.5537921 8.65883799 32 12 C31.11032656 13.08839774 30.21288426 14.17044608 29.3125 15.25 C28.81363281 15.85328125 28.31476563 16.4565625 27.80078125 17.078125 C25.7086495 19.3109424 23.42150931 21.13539658 21 23 C9.71638924 12.76952625 9.71638924 12.76952625 4.3125 7.5625 C3.68988281 6.96566406 3.06726563 6.36882813 2.42578125 5.75390625 C0.84746384 3.81235963 0.52392978 2.41045057 0 0 Z " fill="#FFFFFF" transform="translate(204,5)"/>
<path d="M0 0 C2.31 0 4.62 0 7 0 C7.33 1.32 7.66 2.64 8 4 C9.5778125 3.01 9.5778125 3.01 11.1875 2 C14.26623937 0.2228415 16.38596328 -0.43806506 20 0 C20 2.31 20 4.62 20 7 C18.046875 7.390625 16.09375 7.78125 14.140625 8.171875 C11.25824655 9.28695571 9.94607469 10.5928553 8 13 C7.36004039 16.0849946 7.36004039 16.0849946 7.390625 19.515625 C7.35839844 20.76601562 7.32617188 22.01640625 7.29296875 23.3046875 C7.27169922 25.25761719 7.27169922 25.25761719 7.25 27.25 C7.22035156 28.56742188 7.19070313 29.88484375 7.16015625 31.2421875 C7.08944612 34.49485343 7.03675214 37.74680193 7 41 C4.69 41 2.38 41 0 41 C0 27.47 0 13.94 0 0 Z " fill="#FFFFFF" transform="translate(1630,221)"/>
<path d="M0 0 C2.31 0 4.62 0 7 0 C7 13.53 7 27.06 7 41 C4.69 41 2.38 41 0 41 C0 27.47 0 13.94 0 0 Z " fill="#FFFFFF" transform="translate(893,221)"/>
<path d="M0 0 C6.6 0 13.2 0 20 0 C18.04072277 3.91855446 15.81419417 6.65488368 12.8125 9.75 C12.35552734 10.25660156 11.89855469 10.76320312 11.42773438 11.28515625 C10.01953125 12.734375 10.01953125 12.734375 7 15 C4.69 15 2.38 15 0 15 C0 10.05 0 5.1 0 0 Z " fill="#FFFFFF" transform="translate(0,229)"/>
<path d="M0 0 C2.9375 0.1875 2.9375 0.1875 3.9375 1.1875 C4.125 4.125 4.125 4.125 3.9375 7.1875 C1.9375 9.1875 1.9375 9.1875 -0.5625 9.4375 C-3.0625 9.1875 -3.0625 9.1875 -5.0625 7.1875 C-5.3125 4.6875 -5.3125 4.6875 -5.0625 2.1875 C-3.0625 0.1875 -3.0625 0.1875 0 0 Z " fill="#FFFFFF" transform="translate(897.0625,207.8125)"/>
</svg>
